<?xml version="1.0" encoding="UTF-8"?>
<svg id="Design" xmlns="http://www.w3.org/2000/svg" xmlns:xlink="http://www.w3.org/1999/xlink" viewBox="0 0 24 24">
  <defs>
    <style>
      .cls-1 {
        fill: #b2c99d;
      }

      .cls-2 {
        stroke-width: .5px;
      }

      .cls-2, .cls-3, .cls-4, .cls-5 {
        fill: none;
        stroke-linecap: round;
        stroke-linejoin: round;
      }

      .cls-2, .cls-3, .cls-4, .cls-6 {
        stroke: #333;
      }

      .cls-3, .cls-6 {
        stroke-width: .3px;
      }

      .cls-4 {
        stroke-width: .4px;
      }

      .cls-7 {
        fill: #dee6ad;
      }

      .cls-8 {
        fill: #698c62;
      }

      .cls-5 {
        stroke: #1a1a1a;
        stroke-width: .25px;
      }

      .cls-9 {
        fill: #9db699;
      }

      .cls-6 {
        fill: url(#Unbenannter_Verlauf_333);
        stroke-miterlimit: 10;
      }

      .cls-10 {
        fill: #333;
      }
    </style>
    <radialGradient id="Unbenannter_Verlauf_333" data-name="Unbenannter Verlauf 333" cx="2.05" cy="11.98" fx="2.05" fy="11.98" r="1.05" gradientUnits="userSpaceOnUse">
      <stop offset=".16" stop-color="#fce8b9"/>
      <stop offset="1" stop-color="#f0a3a3" stop-opacity=".9"/>
    </radialGradient>
  </defs>
  <line class="cls-2" x1="7.92" y1="11.98" x2="3.11" y2="11.98"/>
  <path class="cls-6" d="M1,11.98c0-.58.47-1.05,1.05-1.05s1.05.47,1.05,1.05-.47,1.05-1.05,1.05-1.05-.47-1.05-1.05Z"/>
  <polygon class="cls-10" points="7.87 11.08 9.95 11.98 7.87 12.88 7.87 11.08"/>
  <g>
    <path class="cls-10" d="M21.62,7.27v2.16s-.02.03,0,.03h.45c.06,0,.09.03.09-.06v-1.93c0-.54-.07-1-.39-1.46-.33-.47-.82-.79-1.38-.9-.32-.06-.99-.04-1.31-.04h-6.07c-.44,0-.86-.05-1.3.05-.55.12-1.03.45-1.34.92-.3.46-.37.91-.37,1.44v8.52c0,.46-.04.92.11,1.38.18.56.59,1.03,1.12,1.29.47.23.93.22,1.42.22h6.15c.41,0,.83.01,1.24,0,.56-.02,1.08-.25,1.48-.64.41-.41.64-.96.64-1.54,0-.42,0-.83,0-1.25v-6.06s-.52.06-.54.06c-.02,0,0,5.07,0,5.08v.96c0,.41,0,.82,0,1.23,0,.43-.18.84-.48,1.14-.3.3-.71.47-1.14.48-.42,0-.85,0-1.27,0h-5.27c-.44,0-.87.01-1.31,0-.45-.02-.87-.21-1.17-.55-.32-.36-.42-.74-.42-1.21V7.51c0-.46.04-.86.34-1.25.28-.37.71-.6,1.17-.63.22-.02.43,0,.64,0h7.22c.93,0,1.69.7,1.69,1.64Z"/>
    <path class="cls-10" d="M15.63,9.74h4.77c.08,0,.14-.1.14-.19s-.05-.19-.14-.19h-4.77c-.08,0-.14.1-.14.19s.05.19.14.19Z"/>
    <path class="cls-7" d="M14.3,10.28c-2.18-.82-2.29-1.07-2.37-1.56-.05-.36-.08-.85-.21-1.33.19.22.25.34.3.47.08.21.15.42.22.62.07.2.15.38.3.56.15.17.38.34,1.76,1.25Z"/>
    <path class="cls-8" d="M14.3,10.28c-.8-.73-.9-.9-.94-1.18s-.04-.66-.13-.85c-.11-.25-.38-.21-1.71-1.4.5.41,1.18.69,1.57.93.39.24.48.43.63.81.15.37.34.93.58,1.69Z"/>
    <path class="cls-9" d="M12.02,7.85c.33.46.42.5.5.52.08.02.13,0,.21-.02.06-.03.15-.07.3-.32.12.08.17.13.21.22.09.2.08.57.13.85s.15.46.94,1.18c-1.39-.92-1.61-1.08-1.76-1.25-.15-.17-.22-.36-.3-.56-.07-.2-.14-.41-.22-.62,0,0,0,0,0,0Z"/>
    <path class="cls-1" d="M11.53,6.85c.86.78,1.28,1.03,1.49,1.18-.15.24-.23.29-.3.32-.08.03-.13.04-.21.02-.07-.02-.17-.06-.5-.52-.05-.13-.11-.25-.3-.47-.05-.18-.11-.36-.19-.53Z"/>
    <path class="cls-5" d="M11.53,6.85c.5.41,1.18.69,1.57.93.39.24.48.43.63.81.15.37.34.93.58,1.69"/>
    <path class="cls-5" d="M14.3,10.28c-2.18-.82-2.29-1.07-2.37-1.56-.07-.49-.1-1.23-.41-1.87"/>
    <path class="cls-5" d="M14.59,10.42c-1.86-1.05-2.05-1.5-2.54-3"/>
    <path class="cls-1" d="M11.53,6.85c.86.78,1.28,1.03,1.49,1.18-.15.24-.23.29-.3.32-.08.03-.13.04-.21.02-.07-.02-.17-.06-.5-.52-.05-.13-.11-.25-.3-.47-.05-.18-.11-.36-.19-.53Z"/>
    <path class="cls-5" d="M11.53,6.85c.5.41,1.18.69,1.57.93.39.24.48.43.63.81.15.37.34.93.58,1.69"/>
    <path class="cls-5" d="M14.3,10.28c-2.18-.82-2.29-1.07-2.37-1.56-.07-.49-.1-1.23-.41-1.87"/>
    <path class="cls-5" d="M14.59,10.42c-1.86-1.05-2.05-1.5-2.54-3"/>
    <path class="cls-4" d="M11.53,6.85c.5.41,1.18.69,1.57.93.39.24.48.43.63.81.15.37.34.93.58,1.69"/>
    <path class="cls-3" d="M14.3,10.28c-2.18-.82-2.29-1.07-2.37-1.56-.07-.49-.1-1.23-.41-1.87"/>
    <path class="cls-5" d="M14.59,10.42c-1.86-1.05-2.05-1.5-2.54-3"/>
    <path class="cls-3" d="M14.59,10.42c-1.86-1.05-2.05-1.5-2.54-3"/>
    <path class="cls-10" d="M15.63,12.68h4.77c.08,0,.14-.1.14-.19s-.05-.19-.14-.19h-4.77c-.08,0-.14.1-.14.19s.05.19.14.19Z"/>
    <path class="cls-7" d="M14.3,13.21c-2.18-.82-2.29-1.07-2.37-1.56-.05-.36-.08-.85-.21-1.33.19.22.25.34.3.47.08.21.15.42.22.62.07.2.15.38.3.56.15.17.38.34,1.76,1.25Z"/>
    <path class="cls-8" d="M14.3,13.21c-.8-.73-.9-.9-.94-1.18s-.04-.66-.13-.85c-.11-.25-.38-.21-1.71-1.4.5.41,1.18.69,1.57.93.39.24.48.43.63.81.15.37.34.93.58,1.69Z"/>
    <path class="cls-9" d="M12.02,10.78c.33.46.42.5.5.52.08.02.13,0,.21-.02.06-.03.15-.07.3-.32.12.08.17.13.21.22.09.2.08.57.13.85s.15.46.94,1.18c-1.39-.92-1.61-1.08-1.76-1.25-.15-.17-.22-.36-.3-.56-.07-.2-.14-.41-.22-.62,0,0,0,0,0,0Z"/>
    <path class="cls-1" d="M11.53,9.78c.86.78,1.28,1.03,1.49,1.18-.15.24-.23.29-.3.32-.08.03-.13.04-.21.02-.07-.02-.17-.06-.5-.52-.05-.13-.11-.25-.3-.47-.05-.18-.11-.36-.19-.53Z"/>
    <path class="cls-5" d="M11.53,9.78c.5.41,1.18.69,1.57.93.39.24.48.43.63.81.15.37.34.93.58,1.69"/>
    <path class="cls-5" d="M14.3,13.21c-2.18-.82-2.29-1.07-2.37-1.56-.07-.49-.1-1.23-.41-1.87"/>
    <path class="cls-5" d="M14.59,13.36c-1.86-1.05-2.05-1.5-2.54-3"/>
    <path class="cls-1" d="M11.53,9.78c.86.78,1.28,1.03,1.49,1.18-.15.24-.23.29-.3.32-.08.03-.13.04-.21.02-.07-.02-.17-.06-.5-.52-.05-.13-.11-.25-.3-.47-.05-.18-.11-.36-.19-.53Z"/>
    <path class="cls-5" d="M11.53,9.78c.5.41,1.18.69,1.57.93.39.24.48.43.63.81.15.37.34.93.58,1.69"/>
    <path class="cls-5" d="M14.3,13.21c-2.18-.82-2.29-1.07-2.37-1.56-.07-.49-.1-1.23-.41-1.87"/>
    <path class="cls-5" d="M14.59,13.36c-1.86-1.05-2.05-1.5-2.54-3"/>
    <path class="cls-4" d="M11.53,9.78c.5.41,1.18.69,1.57.93.39.24.48.43.63.81.15.37.34.93.58,1.69"/>
    <path class="cls-3" d="M14.3,13.21c-2.18-.82-2.29-1.07-2.37-1.56-.07-.49-.1-1.23-.41-1.87"/>
    <path class="cls-5" d="M14.59,13.36c-1.86-1.05-2.05-1.5-2.54-3"/>
    <path class="cls-3" d="M14.59,13.36c-1.86-1.05-2.05-1.5-2.54-3"/>
    <path class="cls-10" d="M15.63,15.61h4.77c.08,0,.14-.1.14-.19s-.05-.19-.14-.19h-4.77c-.08,0-.14.1-.14.19s.05.19.14.19Z"/>
    <path class="cls-7" d="M14.3,16.14c-2.18-.82-2.29-1.07-2.37-1.56-.05-.36-.08-.85-.21-1.33.19.22.25.34.3.47.08.21.15.42.22.62.07.2.15.38.3.56.15.17.38.34,1.76,1.25Z"/>
    <path class="cls-8" d="M14.3,16.14c-.8-.73-.9-.9-.94-1.18s-.04-.66-.13-.85c-.11-.25-.38-.21-1.71-1.4.5.41,1.18.69,1.57.93.39.24.48.43.63.81.15.37.34.93.58,1.69Z"/>
    <path class="cls-9" d="M12.02,13.71c.33.46.42.5.5.52.08.02.13,0,.21-.02.06-.03.15-.07.3-.32.12.08.17.13.21.22.09.2.08.57.13.85s.15.46.94,1.18c-1.39-.92-1.61-1.08-1.76-1.25-.15-.17-.22-.36-.3-.56-.07-.2-.14-.41-.22-.62,0,0,0,0,0,0Z"/>
    <path class="cls-1" d="M11.53,12.71c.86.78,1.28,1.03,1.49,1.18-.15.24-.23.29-.3.32-.08.03-.13.04-.21.02-.07-.02-.17-.06-.5-.52-.05-.13-.11-.25-.3-.47-.05-.18-.11-.36-.19-.53Z"/>
    <path class="cls-5" d="M11.53,12.71c.5.41,1.18.69,1.57.93.39.24.48.43.63.81.15.37.34.93.58,1.69"/>
    <path class="cls-5" d="M14.3,16.14c-2.18-.82-2.29-1.07-2.37-1.56-.07-.49-.1-1.23-.41-1.87"/>
    <path class="cls-5" d="M14.59,16.29c-1.86-1.05-2.05-1.5-2.54-3"/>
    <path class="cls-1" d="M11.53,12.71c.86.78,1.28,1.03,1.49,1.18-.15.24-.23.29-.3.32-.08.03-.13.04-.21.02-.07-.02-.17-.06-.5-.52-.05-.13-.11-.25-.3-.47-.05-.18-.11-.36-.19-.53Z"/>
    <path class="cls-5" d="M11.53,12.71c.5.41,1.18.69,1.57.93.39.24.48.43.63.81.15.37.34.93.58,1.69"/>
    <path class="cls-5" d="M14.3,16.14c-2.18-.82-2.29-1.07-2.37-1.56-.07-.49-.1-1.23-.41-1.87"/>
    <path class="cls-5" d="M14.59,16.29c-1.86-1.05-2.05-1.5-2.54-3"/>
    <path class="cls-4" d="M11.53,12.71c.5.41,1.18.69,1.57.93.39.24.48.43.63.81.15.37.34.93.58,1.69"/>
    <path class="cls-3" d="M14.3,16.14c-2.18-.82-2.29-1.07-2.37-1.56-.07-.49-.1-1.23-.41-1.87"/>
    <path class="cls-5" d="M14.59,16.29c-1.86-1.05-2.05-1.5-2.54-3"/>
    <path class="cls-3" d="M14.59,16.29c-1.86-1.05-2.05-1.5-2.54-3"/>
  </g>
</svg>