<?xml version="1.0" encoding="UTF-8"?>
<svg id="Design" xmlns="http://www.w3.org/2000/svg" xmlns:xlink="http://www.w3.org/1999/xlink" viewBox="0 0 24 24">
  <defs>
    <style>
      .cls-1 {
        fill: #978977;
      }

      .cls-2 {
        fill: #aea497;
      }

      .cls-3 {
        stroke-width: .75px;
      }

      .cls-3, .cls-4, .cls-5 {
        fill: none;
        stroke: #333;
        stroke-linecap: round;
        stroke-linejoin: round;
      }

      .cls-4 {
        stroke-width: .5px;
      }

      .cls-5 {
        stroke-width: .3px;
      }

      .cls-6 {
        fill: #75a071;
      }

      .cls-7 {
        fill: #ccc6bd;
      }

      .cls-8 {
        fill: #c2ca9a;
      }

      .cls-9 {
        fill: #857c6d;
      }

      .cls-10 {
        fill: #dee6ad;
      }

      .cls-11 {
        fill: #698c62;
      }

      .cls-12 {
        fill: #918675;
      }

      .cls-13 {
        fill: #9db699;
      }

      .cls-14 {
        fill: url(#Unbenannter_Verlauf_32);
      }

      .cls-15 {
        fill: #f2f2f2;
        stroke: #f2f2f2;
        stroke-miterlimit: 10;
        stroke-width: .25px;
      }
    </style>
    <linearGradient id="Unbenannter_Verlauf_32" data-name="Unbenannter Verlauf 32" x1="4.42" y1="18.37" x2="14.19" y2="18.37" gradientTransform="translate(3.31 .8) rotate(-4.27)" gradientUnits="userSpaceOnUse">
      <stop offset="0" stop-color="#918675" stop-opacity=".9"/>
      <stop offset=".84" stop-color="#fbd9d4"/>
    </linearGradient>
  </defs>
  <path class="cls-11" d="M8.45,9.75c-.05.07-.09.14-.09.2-.01.08.03.13.37.11-.17.08-.41.17-.62.29-.04.03-.09.05-.13.08-.11-.42-.31-.57-.6-.82-.29-.26-.65-.63-.89-1-.24-.37-.35-.74-.43-1.16-.09-.43-.16-.92-.09-1.43.07-.51.27-1.04.61-1.7s.82-1.46,2.13-2.79c-.04.33-.06.6-.06.84-1.47,2.28-1.48,4.13-.19,7.38Z"/>
  <path class="cls-8" d="M7.82,7.88c-.58-2.17-.34-3.71.83-5.5-.01.49.04.8.13,1.12.06.23.14.46.23.68-.06,1.52-.45,2.75-1.18,3.7Z"/>
  <path class="cls-13" d="M8.45,9.75c-.27-.68-.48-1.3-.64-1.87.73-.95,1.13-2.18,1.18-3.7.09.24.19.46.27.66.16.38.28.66.34,1.11s.06,1.06-.08,1.65-.42,1.15-.61,1.49c-.2.34-.31.46-.4.57-.03.03-.05.06-.07.09Z"/>
  <path class="cls-6" d="M13.45,10.43c-1.28-.96-1.72-.52-3.39.14-.27-.17-.58-.42-.92-.76.02-.01.03-.03.05-.05.18-.16.43-.4.69-.58.26-.18.54-.29.9-.35s.81-.08,1.2-.03c.39.05.72.17,1.2.45.48.28,1.12.71,1.94,1.6-.72-.23-1.25-.36-1.67-.41"/>
  <path class="cls-10" d="M15.12,10.84c-.66-.13-1.01-.09-1.39,0s-.79.22-1.16.34c-.36.11-.67.2-1.02.23-.34.03-.72-.01-1.04-.09-.31-.08-.57-.21-.8-.38s-.43-.35-.61-.44c-.18-.09-.32-.07-.46,0s-.25.19-.39.34c-.13.15-.28.33-.37.58s-.1.59-.06.89c.04.31.14.59.29.87.15.28.34.55.53.74.19.19.38.3.69.52.31.22.74.55,1.11.94.36.39.66.85,1.06,2.15-.04.01-.06.02-.09.05-.06.05-.12.15-.21.24-.09.09-.22.17-.39.24-.17.08-.38.16-.69.2.01-.6-.24-1.08-.44-1.46-.2-.37-.34-.65-.66-1.01s-.82-.82-1.13-1.24c-.31-.42-.44-.81-.52-1.22-.09-.41-.14-.85-.11-1.27.03-.42.13-.83.28-1.12s.33-.45.54-.58c.21-.13.45-.21.63-.29.15-.07.25-.14.4-.26,1.6,1.59,2.28,1.09,2.93.81.65-.28,1.28-.34,3.05.22Z"/>
  <path class="cls-10" d="M10.06,10.57c1.67-.66,2.11-1.1,3.39-.14-.61-.07-.99.02-1.38.18-.51.22-1.04.57-2.01-.05Z"/>
  <path class="cls-14" d="M13.21,17.22c.33-.64.58-1.06.82-1.44s.49-.71.72-1.16c.12-.1.24-.18.36-.26.55-.33,1.11-.4,1.63-.31.51.09.98.33,1.33.76.36.42.6,1.03.63,1.75.03.72-.16,1.56-.59,2.38-.43.82-1.09,1.63-1.8,2.25-.71.61-1.47,1.03-2.25,1.3-.78.26-1.58.36-2.28.25-.71-.11-1.33-.45-1.76-.85-.43-.4-.68-.88-.78-1.34-.05-.24-.06-.48.08-.85.12,0,.29-.15.41-.28.13-.13.23-.23.37-.36.15-.13.35-.29.64-.47s.68-.37,1.32-.57c.02,0,.05,0,.07,0,.2-.02.38-.03.52-.07.15-.04.27-.1.37-.22.1-.12.19-.29.19-.42,0-.02,0-.04,0-.06ZM12.37,22.27c.52.07,1.07-.02,1.66-.23s1.23-.53,1.76-.93c.53-.4.96-.87,1.22-1.36s.35-1,.33-1.5c-.02-.5-.15-.98-.27-1.29s-.24-.45-.44-.53c-.2-.08-.5-.1-.79-.03-.29.07-.57.24-.83.55-.27.31-.52.76-.82,1.13-.3.36-.63.64-1,.83-.37.19-.77.3-1.14.43s-.71.29-.99.46-.5.35-.59.59c-.09.24-.06.54.03.77.09.23.24.39.56.59s.79.45,1.31.52Z"/>
  <path class="cls-12" d="M13.55,22.19c1.26-.63,2.1-1.41,2.62-2.04.52-.63.74-1.13.8-1.5.06-.37-.03-.63-.18-.78-.14-.15-.34-.2-.58-.12-.24.08-.53.3-.75.64-.23.34-.39.79-.63,1.16-.24.37-.54.65-.91.79-.37.14-.79.12-1.44.16-.65.04-1.52.12-2.03.43-.03-.18-.03-.37.03-.54.09-.24.31-.42.59-.59s.62-.33.99-.46.77-.24,1.14-.43c.37-.19.71-.47,1-.83.3-.36.55-.82.82-1.13.27-.31.55-.48.83-.55.29-.07.58-.05.79.03.2.08.32.22.44.53s.25.8.27,1.29c.02.5-.07,1.01-.33,1.5s-.69.97-1.22,1.36c-.53.4-1.16.72-1.76.93-.17.06-.33.11-.49.15Z"/>
  <path class="cls-2" d="M13.55,22.19c-.41.1-.8.14-1.17.08-.15-.02-.3-.06-.44-.1,1.08-.11,1.18-.29,1.17-.42-.01-.13-.13-.22-.32-.25s-.45-.02-.65-.03c-.2-.02-.35-.07-.48-.15-.13-.07-.24-.16-.39-.19s-.37,0-.43.06c-.06.07.02.19.21.54-.29-.19-.44-.35-.53-.57-.03-.07-.05-.15-.07-.23.51-.31,1.38-.39,2.03-.43.65-.04,1.08-.03,1.44-.16.37-.14.67-.42.91-.79.24-.37.4-.83.63-1.16.23-.34.51-.55.75-.64.24-.08.43-.03.58.12.14.15.24.41.18.78-.06.37-.27.87-.8,1.5-.52.63-1.36,1.41-2.62,2.04Z"/>
  <path class="cls-1" d="M12.28,17.5c.15-.05.29-.05.36,0,.07.04.06.12,0,.19s-.18.12-.31.16c-.13.04-.28.05-.38.05-.1,0-.16-.02-.18-.05-.02-.03,0-.07.09-.13s.26-.16.42-.2Z"/>
  <path class="cls-1" d="M14.76,14.62c-.23.45-.48.78-.72,1.16s-.49.8-.82,1.44c-.02-.09-.1-.16-.17-.19-.09-.03-.17-.02-.24,0,0,0-.01,0-.02,0,.12-.19.43-.67.85-1.21.32-.42.71-.86,1.12-1.2Z"/>
  <path class="cls-9" d="M9.31,19.69c.13-.34.38-.78.84-1.43.31-.04.52-.12.69-.2.17-.08.3-.16.39-.24.09-.09.15-.19.21-.24.06-.05.11-.06.46-.07-.11.1-.21.2-.28.3-.06.1-.09.19,0,.22.08.03.26,0,.43-.02-.65.2-1.03.39-1.32.57s-.49.34-.64.47c-.15.13-.24.23-.37.36-.13.13-.29.28-.41.28Z"/>
  <path class="cls-7" d="M11.04,21.73c-.19-.35-.27-.47-.21-.54.06-.07.27-.09.43-.06s.27.12.39.19c.13.07.27.13.48.15.2.02.46,0,.65.03s.31.12.32.25c.01.13-.08.31-1.17.42-.34-.11-.65-.28-.87-.42-.01,0-.02-.01-.03-.02Z"/>
  <path class="cls-4" d="M15.12,10.84c-.66-.13-1.01-.09-1.39,0s-.79.22-1.16.34c-.36.11-.67.2-1.02.23-.34.03-.72-.01-1.04-.09-.31-.08-.57-.21-.8-.38s-.43-.35-.61-.44c-.18-.09-.32-.07-.46,0s-.25.19-.39.34c-.13.15-.28.33-.37.58s-.1.59-.06.89c.04.31.14.59.29.87.15.28.34.55.53.74.19.19.38.3.69.52.31.22.74.55,1.11.94.36.39.66.85,1.06,2.15,0,0,.05.42.09.27.07-.24.39-.21.44-.25.27-.21.74-.58.71-.51.12-.19.43-.67.85-1.21.42-.54.94-1.13,1.49-1.45.55-.33,1.11-.4,1.63-.31.51.09.98.33,1.33.76.36.42.6,1.03.63,1.75.03.72-.16,1.56-.59,2.38-.43.82-1.09,1.63-1.8,2.25-.71.61-1.47,1.03-2.25,1.3-.78.26-1.58.36-2.28.25-.71-.11-1.33-.45-1.76-.85-.43-.4-.68-.88-.78-1.34-.1-.47-.05-.92.91-2.28"/>
  <path class="cls-3" d="M10.15,18.25c.01-.6-.24-1.08-.44-1.46-.2-.37-.34-.65-.66-1.01s-.82-.82-1.13-1.24c-.31-.42-.44-.81-.52-1.22-.09-.41-.14-.85-.11-1.27.03-.42.13-.83.28-1.12s.33-.45.54-.58c.21-.13.45-.21.63-.29.17-.08.27-.15.45-.31.18-.16.43-.4.69-.58.26-.18.54-.29.9-.35s.81-.08,1.2-.03c.39.05.72.17,1.2.45.48.28,1.12.71,1.94,1.6"/>
  <path class="cls-3" d="M7.98,10.44c-.11-.42-.31-.57-.6-.82-.29-.26-.65-.63-.89-1-.24-.37-.35-.74-.43-1.16-.09-.43-.16-.92-.09-1.43.07-.51.27-1.04.61-1.7s.82-1.46,2.13-2.79"/>
  <path class="cls-5" d="M8.73,10.07c-.34.02-.38-.03-.37-.11.01-.08.08-.18.16-.29s.2-.23.4-.57c.2-.34.47-.9.61-1.49s.14-1.2.08-1.65-.18-.73-.34-1.11c-.16-.38-.37-.87-.5-1.34-.13-.47-.18-.94-.07-1.96"/>
  <path class="cls-15" d="M11.9,17.5c.11-.1.22-.18.34-.26.12-.07.27-.13.36-.16.09-.03.14-.04.2-.06s.15-.03.24,0c.09.03.18.12.18.25,0,.13-.09.3-.19.42-.1.12-.22.19-.37.22-.15.04-.33.05-.52.07-.2.02-.41.06-.5.03-.09-.03-.07-.13,0-.22.06-.1.17-.2.28-.29ZM12.28,17.5c-.15.05-.32.14-.42.2s-.11.1-.09.13c.02.03.08.05.18.05.1,0,.25-.02.38-.05.13-.04.25-.09.31-.16s.06-.15,0-.19c-.07-.04-.21-.04-.36,0Z"/>
</svg>