<?xml version="1.0" encoding="UTF-8"?>
<svg id="Lines" xmlns="http://www.w3.org/2000/svg" xmlns:xlink="http://www.w3.org/1999/xlink" viewBox="0 0 24 24">
  <defs>
    <style>
      .cls-1 {
        fill: #b2c99d;
      }

      .cls-2 {
        stroke-width: .75px;
      }

      .cls-2, .cls-3 {
        fill: none;
        stroke-linecap: round;
        stroke-linejoin: round;
      }

      .cls-2, .cls-3, .cls-4 {
        stroke: #333;
      }

      .cls-3 {
        stroke-width: .5px;
      }

      .cls-5 {
        fill: #75a071;
      }

      .cls-6 {
        fill: #7f9c63;
      }

      .cls-7 {
        fill: #857c6d;
      }

      .cls-8 {
        fill: #dee6ad;
      }

      .cls-9 {
        fill: #476949;
      }

      .cls-10 {
        fill: #9db699;
      }

      .cls-4 {
        fill: url(#Unbenannter_Verlauf_32);
        stroke-miterlimit: 10;
        stroke-width: .25px;
      }

      .cls-11 {
        fill: #68934f;
      }
    </style>
    <linearGradient id="Unbenannter_Verlauf_32" data-name="Unbenannter Verlauf 32" x1="4.41" y1="13.12" x2="18.06" y2="13.12" gradientTransform="translate(-1.01 1.1) rotate(-4.97)" gradientUnits="userSpaceOnUse">
      <stop offset="0" stop-color="#918675" stop-opacity=".9"/>
      <stop offset=".84" stop-color="#fbd9d4"/>
    </linearGradient>
  </defs>
  <path class="cls-1" d="M11.96,4.47c-.29.11-.57.16-.85.26-.38.13-.75.34-1.14.86-.04-.24-.02-.41.02-.57.11-.42.39-.76.77-1.01.38-.25.87-.4,1.21-.66.34-.25.54-.61.96-2.07.16,2.25-.42,3.8-1.59,5.64-.2.16-.38.28-.52.36-.04-.25-.05-.49-.03-.72.03-.31.12-.61.26-.85.14-.24.33-.41.59-.71.24-.28.53-.66.82-1.56-.17.47-.34.79-.5,1.03Z"/>
  <path class="cls-8" d="M13.32,10.58c.89-1.55,1.74-2.04,2.55-2.26.8-.22,1.55-.17,3.63.81-1.77-.18-2.15.14-2.42.42,0,0,0,0-.01.01,0,0,0,0,0,0-.58-.04-1.41,0-2.47.11.54-.3,1.23-.58,1.86-.68-.78.07-1.69.46-2.21.75-.53.3-.68.51-.91.84Z"/>
  <path class="cls-5" d="M17.06,9.56c-.27.28-.44.53-.91.79-.49.26-1.29.53-3.13,1.25.05-.17.12-.34.19-.51.17-.39.39-.76.96-1.16.12-.09.27-.18.42-.26,1.07-.11,1.89-.14,2.47-.11Z"/>
  <path class="cls-6" d="M19.7,9.15c-.07,0-.14-.02-.2-.02-2.08-.98-2.83-1.03-3.63-.81-.8.22-1.66.71-2.55,2.26-.14.19-.3.42-.43.72-.05-1.93.39-2.64,1.49-3.23,1.1-.59,2.88-1.06,5.32,1.07Z"/>
  <path class="cls-2" d="M12.89,11.31c-.05-1.93.39-2.64,1.49-3.23,1.1-.59,2.88-1.06,5.32,1.07"/>
  <path class="cls-3" d="M13.02,11.6c1.83-.72,2.64-.99,3.13-1.25.49-.26.65-.51.93-.8s.68-.62,2.62-.4"/>
  <path class="cls-9" d="M9.98,5.58c.39-.52.76-.73,1.14-.86-.3.33-.45.84-.44,1.54-.05.23-.06.46-.05.71,0,.24.04.48.1.78-.48-1.13-.68-1.75-.75-2.16Z"/>
  <path class="cls-11" d="M11.12,4.72c.27-.09.55-.15.85-.26-.16.24-.32.4-.46.55-.31.33-.58.63-.72.95-.04.1-.08.19-.1.29-.01-.7.13-1.21.44-1.54Z"/>
  <path class="cls-5" d="M10.51,8.95c.2.27.43.6.71,1.02-.8-.5-1.73-.92-2.8-1.25.91.31,1.57.67,2.05.97.38.23.65.43.86.64-1.46-.21-2.03-.48-2.72-.85-.66-.36-1.44-.82-2.27-1.67.97,0,2.36.38,4.17,1.15Z"/>
  <path class="cls-10" d="M6.26,7.72c1.64-.27,2.24-.13,2.71.02.5.15.85.3,1.54,1.22-1.81-.76-3.2-1.15-4.17-1.15-.03-.03-.06-.06-.09-.09Z"/>
  <path class="cls-8" d="M11.35,6.91c1.17-1.84,1.75-3.39,1.59-5.64.87,2.11.55,3.12-.07,4.03-.44.64-1.04,1.22-1.52,1.61Z"/>
  <path class="cls-8" d="M4.09,8.18c.88-.22,1.59-.37,2.17-.46.03.03.06.06.09.09.83.85,1.61,1.31,2.27,1.67.69.37,1.26.64,2.72.85-1.32.34-1.79.21-2.27-.02-.48-.23-.98-.56-1.44-.85-.47-.29-.9-.55-1.28-.79-.38-.24-.69-.47-2.25-.49Z"/>
  <path class="cls-3" d="M11.33,10.33c-1.32.34-1.79.21-2.27-.02-.48-.23-.98-.56-1.44-.85-.47-.29-.9-.55-1.28-.79-.38-.24-.69-.47-2.25-.49"/>
  <path class="cls-7" d="M11.61,10.24c-.38-.79-.62-1.49-.77-2.02-.15-.53-.2-.9-.21-1.25-.01-.35,0-.68.15-1s.41-.62.72-.95c.31-.33.67-.69,1.04-1.79-.32,1.06-.63,1.48-.89,1.78-.25.3-.45.47-.59.71-.14.24-.23.54-.26.85-.03.31,0,.64.08,1,.08.36.21.75.37,1.16.16.41.34.84.55,1.35s.46,1.09.9,2.05c.06-.74.39-1.2.62-1.53.24-.33.38-.54.91-.84.53-.3,1.43-.69,2.21-.75-.8.13-1.71.54-2.27.94s-.79.77-.96,1.16c-.17.39-.29.78-.33,1.13-.04.35,0,.65,0,.97s0,.65-.11,1c-.11.35-.32.71-.45.99-.13.28-.19.49-.19.7,0,.21.04.42.15.62.11.2.28.38.52.51.25.13.57.21,1.18.22.6.01,1.49-.04,2.03-.03.54,0,.74.06,1.07.19.33.14.78.36,1.59,1.5-.72-.73-1.2-1.14-1.39-1.26.14.42.18.77.15,1.05-.13-.76-.22-.92-.32-1.04-.1-.11-.21-.18-.38-.22-.17-.04-.39-.04-.65-.04-.26,0-.57.04-.95.07-.38.03-.83.08-1.26.06-.43-.02-.83-.11-1.39-.43.36.85.81,1.32,1.12,1.61s.48.41.67.47.4.07.66.04c.25-.03.55-.09.84-.15.3-.06.59-.12.92-.02-.5.1-.76.13-.96.18-.2.05-.35.13-1.05.19.23.12,1.05.32,2.12.49-1.22-.04-1.68-.16-2.05-.29-.37-.13-.64-.27-.88-.45-.25-.18-.47-.4-.76-.68s-.65-.62-1.09-1.69c0,1.01-.02,1.39-.02,1.73,0,.34,0,.63.05.87.04.25.12.45.25.65.12.2.29.4.42.53.13.14.23.21.42.28.19.07.46.13.81.17.35.04.79.05,1.12.02-.63.11-1.17.17-1.93-.07.35.29.51.52.61.74.11.22.16.42.08,1.14-.03-.88-.16-1.09-.32-1.26-.16-.18-.33-.33-.53-.54-.2-.21-.42-.47-.52-.58.01.63.14,1.28.39,1.97-.4-.89-.51-1.59-.55-2.1-.48-.62-.5-1.05-.5-1.53,0-.47,0-.99-.1-1.82-.43,1.33-.6,1.58-.71,1.75s-.19.25-.35.36c-.16.11-.39.24-.61.34s-.41.16-.56.26c-.16.1-.28.22-.45.61-.17.38-.4,1.01-.53,2.6-.08-.85.04-1.67.21-2.56-.48.72-.88,1.17-1.74,1.43.68-.37.96-.66,1.14-.88s.25-.38.35-.56c.1-.18.23-.38.4-.55s.38-.31.64-.44c.26-.13.59-.25.83-.4s.41-.31.58-.64.33-.83.56-1.55c-.53.75-1.07,1.2-1.52,1.51s-.82.48-1.18.6c-.35.12-.68.19-1.05.3-.37.11-.78.26-1.15.5-.37.24-.7.56-1.39,1.5.51-1.19.99-1.52,1.63-1.81.64-.29,1.43-.54,2.04-.77.61-.23,1.04-.45,1.42-.77s.72-.74.9-1.07.19-.56.24-.79c.05-.23.14-.46.33-.84.19-.38.48-.91.6-1.45.12-.53.09-1.07-.04-1.58-.13-.51-.35-.99-.61-1.37-.27-.38-.59-.65-1.19-1.02-.6-.37-1.49-.84-2.8-1.19,1.57.41,2.88.98,3.94,1.73Z"/>
  <path class="cls-2" d="M4.09,8.18c3.36-.83,4.25-.64,4.89-.44s1.04.39,2.25,2.24"/>
  <path class="cls-3" d="M10.73,7.75c-.76-1.81-.83-2.31-.73-2.74s.39-.76.77-1.01c.38-.25.87-.4,1.21-.66.34-.25.54-.61.96-2.07"/>
  <path class="cls-4" d="M11.61,10.24c-.38-.79-.62-1.49-.77-2.02-.15-.53-.2-.9-.21-1.25-.01-.35,0-.68.15-1s.41-.62.72-.95c.31-.33.67-.69,1.04-1.79-.32,1.06-.63,1.48-.89,1.78-.25.3-.45.47-.59.71-.14.24-.23.54-.26.85-.03.31,0,.64.08,1,.08.36.21.75.37,1.16.16.41.34.84.55,1.35s.46,1.09.9,2.05c.06-.74.39-1.2.62-1.53.24-.33.38-.54.91-.84.53-.3,1.43-.69,2.21-.75-.8.13-1.71.54-2.27.94s-.79.77-.96,1.16c-.17.39-.29.78-.33,1.13-.04.35,0,.65,0,.97s0,.65-.11,1c-.11.35-.32.71-.45.99-.13.28-.19.49-.19.7,0,.21.04.42.15.62.11.2.28.38.52.51.25.13.57.21,1.18.22.6.01,1.49-.04,2.03-.03.54,0,.74.06,1.07.19.33.14.78.36,1.59,1.5-.72-.73-1.2-1.14-1.39-1.26.14.42.18.77.15,1.05-.13-.76-.22-.92-.32-1.04-.1-.11-.21-.18-.38-.22-.17-.04-.39-.04-.65-.04-.26,0-.57.04-.95.07-.38.03-.83.08-1.26.06-.43-.02-.83-.11-1.39-.43.36.85.81,1.32,1.12,1.61s.48.41.67.47.4.07.66.04c.25-.03.55-.09.84-.15.3-.06.59-.12.92-.02-.5.1-.76.13-.96.18-.2.05-.35.13-1.05.19.23.12,1.05.32,2.12.49-1.22-.04-1.68-.16-2.05-.29-.37-.13-.64-.27-.88-.45-.25-.18-.47-.4-.76-.68s-.65-.62-1.09-1.69c0,1.01-.02,1.39-.02,1.73,0,.34,0,.63.05.87.04.25.12.45.25.65.12.2.29.4.42.53.13.14.23.21.42.28.19.07.46.13.81.17.35.04.79.05,1.12.02-.63.11-1.17.17-1.93-.07.35.29.51.52.61.74.11.22.16.42.08,1.14-.03-.88-.16-1.09-.32-1.26-.16-.18-.33-.33-.53-.54-.2-.21-.42-.47-.52-.58.01.63.14,1.28.39,1.97-.4-.89-.51-1.59-.55-2.1-.48-.62-.5-1.05-.5-1.53,0-.47,0-.99-.1-1.82-.43,1.33-.6,1.58-.71,1.75s-.19.25-.35.36c-.16.11-.39.24-.61.34s-.41.16-.56.26c-.16.1-.28.22-.45.61-.17.38-.4,1.01-.53,2.6-.08-.85.04-1.67.21-2.56-.48.72-.88,1.17-1.74,1.43.68-.37.96-.66,1.14-.88s.25-.38.35-.56c.1-.18.23-.38.4-.55s.38-.31.64-.44c.26-.13.59-.25.83-.4s.41-.31.58-.64.33-.83.56-1.55c-.53.75-1.07,1.2-1.52,1.51s-.82.48-1.18.6c-.35.12-.68.19-1.05.3-.37.11-.78.26-1.15.5-.37.24-.7.56-1.39,1.5.51-1.19.99-1.52,1.63-1.81.64-.29,1.43-.54,2.04-.77.61-.23,1.04-.45,1.42-.77s.72-.74.9-1.07.19-.56.24-.79c.05-.23.14-.46.33-.84.19-.38.48-.91.6-1.45.12-.53.09-1.07-.04-1.58-.13-.51-.35-.99-.61-1.37-.27-.38-.59-.65-1.19-1.02-.6-.37-1.49-.84-2.8-1.19,1.57.41,2.88.98,3.94,1.73Z"/>
  <path class="cls-2" d="M10.83,7.27c.48-.27,1.42-1.07,2.04-1.97.62-.9.94-1.91.07-4.03"/>
</svg>