<?xml version="1.0" encoding="UTF-8"?>
<svg id="Param_Hexagon" data-name="Param Hexagon" xmlns="http://www.w3.org/2000/svg" xmlns:xlink="http://www.w3.org/1999/xlink" viewBox="0 0 24 24">
  <defs>
    <style>
      .cls-1 {
        fill: #596e39;
      }

      .cls-2 {
        stroke-width: .5px;
      }

      .cls-2, .cls-3, .cls-4 {
        stroke: #333;
      }

      .cls-2, .cls-3, .cls-4, .cls-5 {
        fill: none;
        stroke-linecap: round;
      }

      .cls-6 {
        fill: #b2c99d;
      }

      .cls-3 {
        stroke-width: .3px;
      }

      .cls-3, .cls-4, .cls-5 {
        stroke-linejoin: round;
      }

      .cls-7 {
        fill: #75a071;
      }

      .cls-4 {
        stroke-width: .4px;
      }

      .cls-8 {
        fill: #c2ca9a;
      }

      .cls-9 {
        fill: #9bad79;
      }

      .cls-10 {
        fill: #dee6ad;
      }

      .cls-11 {
        fill: #476949;
      }

      .cls-12 {
        fill: #698c62;
      }

      .cls-5 {
        stroke: #1a1a1a;
        stroke-width: .25px;
      }

      .cls-13 {
        fill: #9db699;
      }

      .cls-14 {
        fill: url(#Unbenannter_Verlauf_297);
      }

      .cls-15 {
        fill: url(#Unbenannter_Verlauf_117);
      }

      .cls-16 {
        fill: #333;
      }

      .cls-17 {
        fill: #68934f;
      }
    </style>
    <linearGradient id="Unbenannter_Verlauf_117" data-name="Unbenannter Verlauf 117" x1="5.75" y1="18.42" x2="18.45" y2="5.72" gradientUnits="userSpaceOnUse">
      <stop offset="0" stop-color="#f0a3a3" stop-opacity=".6"/>
      <stop offset=".13" stop-color="#f0a3a3" stop-opacity=".47"/>
      <stop offset=".44" stop-color="#f0a3a3" stop-opacity=".21"/>
      <stop offset=".58" stop-color="#f0a3a3" stop-opacity=".1"/>
    </linearGradient>
    <linearGradient id="Unbenannter_Verlauf_297" data-name="Unbenannter Verlauf 297" x1="2.09" y1="12.07" x2="22.1" y2="12.07" gradientUnits="userSpaceOnUse">
      <stop offset=".18" stop-color="#5e7f68" stop-opacity=".9"/>
      <stop offset=".56" stop-color="#9c8e81" stop-opacity=".77"/>
      <stop offset="1" stop-color="#f0a3a3" stop-opacity=".6"/>
    </linearGradient>
  </defs>
  <path class="cls-15" d="M3.21,13.27c-.3-.51-.38-.99-.29-1.57.09-.6.42-1.05.71-1.54.61-1.05,1.22-2.11,1.83-3.16.3-.53.61-1.05.91-1.58.28-.49.54-.95,1.06-1.27.51-.32,1.02-.36,1.59-.36h5.46c.57,0,1.13-.07,1.71.1.57.17.96.46,1.29.95.32.48.58.99.87,1.49.29.51.58,1.01.88,1.52.58,1.01,1.17,2.03,1.75,3.04.3.51.38.99.29,1.57-.09.6-.42,1.05-.71,1.54-.61,1.05-1.22,2.11-1.83,3.16-.3.53-.61,1.05-.91,1.58-.28.49-.54.95-1.06,1.27-.51.32-1.02.36-1.59.36h-5.46c-.57,0-1.13.07-1.71-.1-.57-.17-.96-.46-1.29-.95-.32-.48-.58-.99-.87-1.49-.29-.51-.58-1.01-.88-1.52-.58-1.01-1.17-2.03-1.75-3.04Z"/>
  <g>
    <path class="cls-9" d="M13.88,11.92c.01-.79-.13-1.18-.33-1.63-.26-.58-.63-1.25-.99-2.07-.36-.82-.7-1.8-.71-3.62,1.03,2.83,1.69,4.3,1.98,5.47.17.68.2,1.27.05,1.86Z"/>
    <path class="cls-11" d="M11.1,6.09c-.15,1.47-.74,2.02-1.15,2.58-.45.62-.69,1.26-.77,1.77-.08.52-.01.91.11,1.06.13.15.31.05.46.01s.28,0,.46.43c.18.43.41,1.27.61,1.72s.38.51.63.43c.25-.08.58-.3.89-.75.25-.37.5-.89,1.54-1.41-.11.43-.31.86-.64,1.33-.78,1.13-2.23,2.49-3.58,4.81-1.11-5.36-2.05-6.27-2.02-7.13.03-.86,1.02-1.68,1.91-2.68.56-.64,1.08-1.35,1.55-2.15Z"/>
    <path class="cls-1" d="M13.41,9.97c.05.11.1.22.15.32.2.45.34.84.33,1.63-1.05.53-1.29,1.05-1.54,1.41-.31.45-.64.67-.89.75-.25.08-.43.02-.63-.43s-.43-1.28-.61-1.72c-.18-.43-.31-.47-.46-.43s-.34.13-.46-.01c-.13-.15-.19-.54-.11-1.06.08-.52.32-1.15.77-1.77.41-.56.99-1.11,1.15-2.58.12-.2.23-.41.34-.63.24,1.1.04,1.76-.17,2.3-.24.61-.49,1.06-.56,1.4-.08.34.02.57.25.79s.6.44.83.69c.23.25.31.52.49.66.18.14.46.16.62-.12.15-.25.2-.74.52-1.2Z"/>
    <path class="cls-7" d="M11.44,5.46c.14-.28.28-.57.41-.87.02,1.83.36,2.8.71,3.62.29.68.6,1.25.84,1.76-.32.46-.37.95-.52,1.2-.16.28-.44.27-.62.12-.18-.14-.26-.42-.49-.66-.23-.25-.59-.47-.83-.69s-.33-.45-.25-.79c.08-.34.33-.79.56-1.4.21-.54.41-1.2.17-2.3Z"/>
    <path class="cls-10" d="M9.61,19.53c2.68-4.22,3.28-4.37,4.4-4.34.82.02,1.91.15,3.04.06-.56.32-.86.39-1.16.44-.49.09-.99.16-1.45.23-.47.08-.91.16-1.35.4-.44.25-.89.66-3.47,3.2Z"/>
    <path class="cls-12" d="M9.61,19.53c1.92-1.38,2.36-1.52,2.99-1.51s1.47.17,1.93.06c.59-.14.6-.71,3.77-3.03-1.1.88-2,2.19-2.68,2.91-.68.72-1.15.83-2.04,1-.88.16-2.18.37-3.98.57Z"/>
    <path class="cls-13" d="M15.89,15.69c-1.14.51-1.28.69-1.35.83-.08.16-.07.27-.03.44.04.15.1.33.58.74-.22.21-.36.31-.57.36-.47.11-1.3-.05-1.93-.06s-1.07.13-2.99,1.51c2.58-2.54,3.03-2.95,3.47-3.2.44-.25.88-.33,1.35-.4.47-.08.97-.14,1.45-.23,0,0,0,0,0,0Z"/>
    <path class="cls-6" d="M18.3,15.04c-2.06,1.51-2.79,2.27-3.2,2.66-.48-.41-.55-.6-.58-.74-.04-.17-.05-.29.03-.44.07-.14.2-.32,1.35-.83.3-.06.6-.12,1.15-.44.42-.03.84-.09,1.26-.2Z"/>
    <path class="cls-5" d="M9.66,18.06c-1.11-5.36-2.05-6.27-2.02-7.13.03-.86,1.02-1.68,1.91-2.68.89-1,1.67-2.19,2.31-3.65"/>
    <path class="cls-5" d="M11.85,4.59c1.03,2.83,1.69,4.3,1.98,5.47.28,1.17.19,2.06-.59,3.19-.78,1.13-2.23,2.49-3.58,4.81"/>
    <path class="cls-5" d="M18.3,15.04c-1.1.88-2,2.19-2.68,2.91-.68.72-1.15.83-2.04,1-.88.16-2.18.37-3.98.57"/>
    <path class="cls-5" d="M9.61,19.53c2.68-4.22,3.28-4.37,4.4-4.34,1.12.03,2.75.25,4.29-.14"/>
    <path d="M9.12,20.14c2.07-5.76,2.38-9.31,2.49-12.1l-2.49,12.1Z"/>
    <path class="cls-5" d="M9.17,20.07c3.07-3.48,4.12-3.69,7.64-4.15"/>
    <path class="cls-8" d="M13.88,11.92c.01-.79-.13-1.18-.33-1.63-.26-.58-.63-1.25-.99-2.07-.36-.82-.7-1.8-.71-3.62,1.03,2.83,1.69,4.3,1.98,5.47.17.68.2,1.27.05,1.86Z"/>
    <path class="cls-17" d="M13.41,9.97c.05.11.1.22.15.32.2.45.34.84.33,1.63-1.05.53-1.29,1.05-1.54,1.41-.31.45-.64.67-.89.75-.25.08-.43.02-.63-.43s-.43-1.28-.61-1.72c-.18-.43-.31-.47-.46-.43s-.34.13-.46-.01c-.13-.15-.19-.54-.11-1.06.08-.52.32-1.15.77-1.77.41-.56.99-1.11,1.15-2.58.12-.2.23-.41.34-.63.24,1.1.04,1.76-.17,2.3-.24.61-.49,1.06-.56,1.4-.08.34.02.57.25.79s.6.44.83.69c.23.25.31.52.49.66.18.14.46.16.62-.12.15-.25.2-.74.52-1.2Z"/>
    <path class="cls-6" d="M18.3,15.04c-2.06,1.51-2.79,2.27-3.2,2.66-.48-.41-.55-.6-.58-.74-.04-.17-.05-.29.03-.44.07-.14.2-.32,1.35-.83.3-.06.6-.12,1.15-.44.42-.03.84-.09,1.26-.2Z"/>
    <path class="cls-2" d="M9.66,18.06c-1.11-5.36-2.05-6.27-2.02-7.13.03-.86,1.02-1.68,1.91-2.68.89-1,1.67-2.19,2.31-3.65"/>
    <path class="cls-5" d="M11.85,4.59c1.03,2.83,1.69,4.3,1.98,5.47.28,1.17.19,2.06-.59,3.19-.78,1.13-2.23,2.49-3.58,4.81"/>
    <path class="cls-5" d="M18.3,15.04c-1.1.88-2,2.19-2.68,2.91-.68.72-1.15.83-2.04,1-.88.16-2.18.37-3.98.57"/>
    <path class="cls-5" d="M9.61,19.53c2.68-4.22,3.28-4.37,4.4-4.34,1.12.03,2.75.25,4.29-.14"/>
    <path d="M9.12,20.14c2.07-5.76,2.38-9.31,2.49-12.1l-2.49,12.1Z"/>
    <path class="cls-5" d="M9.17,20.07c3.07-3.48,4.12-3.69,7.64-4.15"/>
    <path class="cls-4" d="M11.85,4.59c1.03,2.83,1.69,4.3,1.98,5.47.28,1.17.19,2.06-.59,3.19-.78,1.13-2.23,2.49-3.58,4.81"/>
    <path class="cls-4" d="M18.3,15.04c-1.1.88-2,2.19-2.68,2.91-.68.72-1.15.83-2.04,1-.88.16-2.18.37-3.98.57"/>
    <path class="cls-3" d="M9.61,19.53c2.68-4.22,3.28-4.37,4.4-4.34,1.12.03,2.75.25,4.29-.14"/>
    <path d="M9.12,20.14c2.07-5.76,2.38-9.31,2.49-12.1l-2.49,12.1Z"/>
    <path class="cls-5" d="M9.17,20.07c3.07-3.48,4.12-3.69,7.64-4.15"/>
    <path class="cls-16" d="M9.12,20.14c2.07-5.76,2.38-9.31,2.49-12.1l-2.49,12.1Z"/>
    <path class="cls-3" d="M9.17,20.07c3.07-3.48,4.12-3.69,7.64-4.15"/>
  </g>
  <path class="cls-14" d="M2.52,13.67c-.38-.66-.5-1.28-.4-2.03.09-.68.43-1.22.76-1.79.59-1.02,1.18-2.05,1.77-3.07.3-.51.59-1.02.89-1.54.33-.57.61-1.13,1.15-1.56.6-.48,1.19-.69,1.95-.7.59,0,1.19,0,1.78,0h3.6c1.37,0,2.6-.21,3.75.96.48.49.75,1.09,1.08,1.66.31.54.63,1.08.94,1.62.63,1.08,1.25,2.17,1.88,3.25.38.66.5,1.28.4,2.03-.09.68-.43,1.22-.76,1.79-.59,1.02-1.18,2.05-1.77,3.07-.3.51-.59,1.02-.89,1.54-.33.57-.61,1.13-1.15,1.56-.6.48-1.19.69-1.95.7-.59,0-1.19,0-1.78,0h-3.6c-1.37,0-2.6.21-3.75-.96-.48-.49-.75-1.09-1.08-1.66-.31-.54-.63-1.08-.94-1.62-.63-1.08-1.25-2.17-1.88-3.25ZM3.21,13.27c.58,1.01,1.17,2.03,1.75,3.04.29.51.58,1.01.88,1.52.29.5.54,1.01.87,1.49.33.49.72.78,1.29.95.58.17,1.14.1,1.71.1h5.46c.57,0,1.08-.04,1.59-.36.51-.32.78-.78,1.06-1.27.3-.53.61-1.05.91-1.58.61-1.05,1.22-2.11,1.83-3.16.28-.49.61-.94.71-1.54.09-.58,0-1.06-.29-1.57-.58-1.01-1.17-2.03-1.75-3.04-.29-.51-.58-1.01-.88-1.52-.29-.5-.54-1.01-.87-1.49-.33-.49-.72-.78-1.29-.95-.58-.17-1.14-.1-1.71-.1h-5.46c-.57,0-1.08.04-1.59.36-.51.32-.78.78-1.06,1.27-.3.53-.61,1.05-.91,1.58-.61,1.05-1.22,2.11-1.83,3.16-.28.49-.61.94-.71,1.54-.09.58,0,1.06.29,1.57Z"/>
</svg>