<?xml version="1.0" encoding="UTF-8"?>
<svg id="Param_Hexagon" data-name="Param Hexagon" xmlns="http://www.w3.org/2000/svg" xmlns:xlink="http://www.w3.org/1999/xlink" viewBox="0 0 24 24">
  <defs>
    <style>
      .cls-1 {
        fill: url(#Unbenannter_Verlauf_327-5);
      }

      .cls-1, .cls-2, .cls-3, .cls-4, .cls-5, .cls-6, .cls-7, .cls-8 {
        stroke-width: .3px;
      }

      .cls-1, .cls-2, .cls-3, .cls-4, .cls-5, .cls-6, .cls-7, .cls-8, .cls-9 {
        stroke: #333;
        stroke-miterlimit: 10;
      }

      .cls-2 {
        fill: url(#Unbenannter_Verlauf_327-7);
      }

      .cls-3 {
        fill: url(#Unbenannter_Verlauf_327-6);
      }

      .cls-4 {
        fill: url(#Unbenannter_Verlauf_327-4);
      }

      .cls-5 {
        fill: url(#Unbenannter_Verlauf_327-8);
      }

      .cls-6 {
        fill: url(#Unbenannter_Verlauf_327-9);
      }

      .cls-7 {
        fill: url(#Unbenannter_Verlauf_327-2);
      }

      .cls-8 {
        fill: url(#Unbenannter_Verlauf_327-3);
      }

      .cls-9 {
        fill: url(#Unbenannter_Verlauf_327);
        stroke-width: .75px;
      }

      .cls-10 {
        fill: url(#Unbenannter_Verlauf_297);
      }

      .cls-11 {
        fill: url(#Unbenannter_Verlauf_117);
      }
    </style>
    <linearGradient id="Unbenannter_Verlauf_297" data-name="Unbenannter Verlauf 297" x1="2.09" y1="12.07" x2="22.1" y2="12.07" gradientUnits="userSpaceOnUse">
      <stop offset=".18" stop-color="#5e7f68" stop-opacity=".9"/>
      <stop offset=".56" stop-color="#9c8e81" stop-opacity=".77"/>
      <stop offset="1" stop-color="#f0a3a3" stop-opacity=".6"/>
    </linearGradient>
    <linearGradient id="Unbenannter_Verlauf_117" data-name="Unbenannter Verlauf 117" x1="5.75" y1="18.42" x2="18.45" y2="5.72" gradientUnits="userSpaceOnUse">
      <stop offset="0" stop-color="#f0a3a3" stop-opacity=".6"/>
      <stop offset=".13" stop-color="#f0a3a3" stop-opacity=".47"/>
      <stop offset=".44" stop-color="#f0a3a3" stop-opacity=".21"/>
      <stop offset=".58" stop-color="#f0a3a3" stop-opacity=".1"/>
    </linearGradient>
    <radialGradient id="Unbenannter_Verlauf_327" data-name="Unbenannter Verlauf 327" cx="12" cy="12.07" fx="12" fy="12.07" r="3.55" gradientUnits="userSpaceOnUse">
      <stop offset=".16" stop-color="#fbd9d4"/>
      <stop offset="1" stop-color="#a6c176" stop-opacity=".9"/>
    </radialGradient>
    <radialGradient id="Unbenannter_Verlauf_327-2" data-name="Unbenannter Verlauf 327" cx="12" cy="17.4" fx="12" fy="17.4" r=".9" xlink:href="#Unbenannter_Verlauf_327"/>
    <radialGradient id="Unbenannter_Verlauf_327-3" data-name="Unbenannter Verlauf 327" cx="15.54" cy="15.57" fx="15.54" fy="15.57" r=".99" xlink:href="#Unbenannter_Verlauf_327"/>
    <radialGradient id="Unbenannter_Verlauf_327-4" data-name="Unbenannter Verlauf 327" cx="8.46" cy="8.57" fx="8.46" fy="8.57" r=".99" xlink:href="#Unbenannter_Verlauf_327"/>
    <radialGradient id="Unbenannter_Verlauf_327-5" data-name="Unbenannter Verlauf 327" cx="8.46" cy="15.57" fx="8.46" fy="15.57" r=".99" xlink:href="#Unbenannter_Verlauf_327"/>
    <radialGradient id="Unbenannter_Verlauf_327-6" data-name="Unbenannter Verlauf 327" cx="15.54" cy="8.57" fx="15.54" fy="8.57" r=".99" xlink:href="#Unbenannter_Verlauf_327"/>
    <radialGradient id="Unbenannter_Verlauf_327-7" data-name="Unbenannter Verlauf 327" cx="6.61" cy="12.07" fx="6.61" fy="12.07" r=".9" xlink:href="#Unbenannter_Verlauf_327"/>
    <radialGradient id="Unbenannter_Verlauf_327-8" data-name="Unbenannter Verlauf 327" cx="17.39" cy="12.07" fx="17.39" fy="12.07" r=".9" xlink:href="#Unbenannter_Verlauf_327"/>
    <radialGradient id="Unbenannter_Verlauf_327-9" data-name="Unbenannter Verlauf 327" cx="12" cy="6.74" fx="12" fy="6.74" r=".9" xlink:href="#Unbenannter_Verlauf_327"/>
  </defs>
  <path class="cls-10" d="M2.52,13.67c-.38-.66-.5-1.28-.4-2.03.09-.68.43-1.22.76-1.79.59-1.02,1.18-2.05,1.77-3.07.3-.51.59-1.02.89-1.54.33-.57.61-1.13,1.15-1.56.6-.48,1.19-.69,1.95-.7.59,0,1.19,0,1.78,0h3.6c1.37,0,2.6-.21,3.75.96.48.49.75,1.09,1.08,1.66.31.54.63,1.08.94,1.62.63,1.08,1.25,2.17,1.88,3.25.38.66.5,1.28.4,2.03-.09.68-.43,1.22-.76,1.79-.59,1.02-1.18,2.05-1.77,3.07-.3.51-.59,1.02-.89,1.54-.33.57-.61,1.13-1.15,1.56-.6.48-1.19.69-1.95.7-.59,0-1.19,0-1.78,0h-3.6c-1.37,0-2.6.21-3.75-.96-.48-.49-.75-1.09-1.08-1.66-.31-.54-.63-1.08-.94-1.62-.63-1.08-1.25-2.17-1.88-3.25ZM3.21,13.27c.58,1.01,1.17,2.03,1.75,3.04.29.51.58,1.01.88,1.52.29.5.54,1.01.87,1.49.33.49.72.78,1.29.95.58.17,1.14.1,1.71.1h5.46c.57,0,1.08-.04,1.59-.36.51-.32.78-.78,1.06-1.27.3-.53.61-1.05.91-1.58.61-1.05,1.22-2.11,1.83-3.16.28-.49.61-.94.71-1.54.09-.58,0-1.06-.29-1.57-.58-1.01-1.17-2.03-1.75-3.04-.29-.51-.58-1.01-.88-1.52-.29-.5-.54-1.01-.87-1.49-.33-.49-.72-.78-1.29-.95-.58-.17-1.14-.1-1.71-.1h-5.46c-.57,0-1.08.04-1.59.36-.51.32-.78.78-1.06,1.27-.3.53-.61,1.05-.91,1.58-.61,1.05-1.22,2.11-1.83,3.16-.28.49-.61.94-.71,1.54-.09.58,0,1.06.29,1.57Z"/>
  <path class="cls-11" d="M3.21,13.27c-.3-.51-.38-.99-.29-1.57.09-.6.42-1.05.71-1.54.61-1.05,1.22-2.11,1.83-3.16.3-.53.61-1.05.91-1.58.28-.49.54-.95,1.06-1.27.51-.32,1.02-.36,1.59-.36h5.46c.57,0,1.13-.07,1.71.1.57.17.96.46,1.29.95.32.48.58.99.87,1.49.29.51.58,1.01.88,1.52.58,1.01,1.17,2.03,1.75,3.04.3.51.38.99.29,1.57-.09.6-.42,1.05-.71,1.54-.61,1.05-1.22,2.11-1.83,3.16-.3.53-.61,1.05-.91,1.58-.28.49-.54.95-1.06,1.27-.51.32-1.02.36-1.59.36h-5.46c-.57,0-1.13.07-1.71-.1-.57-.17-.96-.46-1.29-.95-.32-.48-.58-.99-.87-1.49-.29-.51-.58-1.01-.88-1.52-.58-1.01-1.17-2.03-1.75-3.04Z"/>
  <g>
    <path class="cls-9" d="M14.78,14.28c-1.24,1.52-3.48,1.76-5.02.54-1.54-1.22-1.78-3.44-.55-4.96,1.24-1.52,3.48-1.76,5.02-.54,1.54,1.22,1.78,3.44.55,4.96Z"/>
    <polygon class="cls-7" points="12 18.42 12.77 16.38 12 16.38 11.23 16.38 12 18.42"/>
    <polygon class="cls-8" points="16.54 16.56 15.63 14.59 15.09 15.12 14.54 15.66 16.54 16.56"/>
    <polygon class="cls-4" points="7.46 7.59 9.46 8.49 8.91 9.02 8.37 9.56 7.46 7.59"/>
    <polygon class="cls-1" points="7.46 16.56 9.46 15.66 8.91 15.12 8.37 14.59 7.46 16.56"/>
    <polygon class="cls-3" points="16.54 7.59 15.63 9.56 15.09 9.02 14.54 8.49 16.54 7.59"/>
    <polygon class="cls-2" points="5.58 12.07 7.63 12.83 7.63 12.07 7.63 11.31 5.58 12.07"/>
    <polygon class="cls-5" points="18.42 12.07 16.37 12.83 16.37 12.07 16.37 11.31 18.42 12.07"/>
    <polygon class="cls-6" points="12 5.73 12.77 7.76 12 7.76 11.23 7.76 12 5.73"/>
  </g>
</svg>