<?xml version="1.0" encoding="UTF-8"?>
<svg id="Lines" xmlns="http://www.w3.org/2000/svg" xmlns:xlink="http://www.w3.org/1999/xlink" viewBox="0 0 24 24">
  <defs>
    <style>
      .cls-1 {
        fill: #b2c99d;
      }

      .cls-2 {
        stroke-width: .75px;
      }

      .cls-2, .cls-3 {
        fill: none;
        stroke-linecap: round;
        stroke-linejoin: round;
      }

      .cls-2, .cls-3, .cls-4 {
        stroke: #333;
      }

      .cls-3 {
        stroke-width: .5px;
      }

      .cls-5 {
        fill: #75a071;
      }

      .cls-6 {
        fill: #7f9c63;
      }

      .cls-7 {
        fill: #857c6d;
      }

      .cls-8 {
        fill: #dee6ad;
      }

      .cls-9 {
        fill: #476949;
      }

      .cls-10 {
        fill: #9db699;
      }

      .cls-11 {
        fill: url(#Unbenannter_Verlauf_297);
      }

      .cls-12 {
        fill: url(#Unbenannter_Verlauf_117);
      }

      .cls-4 {
        fill: url(#Unbenannter_Verlauf_32);
        stroke-miterlimit: 10;
        stroke-width: .25px;
      }

      .cls-13 {
        fill: #68934f;
      }
    </style>
    <linearGradient id="Unbenannter_Verlauf_117" data-name="Unbenannter Verlauf 117" x1="-444.2" y1="21.7" x2="-455.34" y2="2.39" gradientTransform="translate(-439.89) rotate(-180) scale(1 -1)" gradientUnits="userSpaceOnUse">
      <stop offset="0" stop-color="#f0a3a3" stop-opacity=".6"/>
      <stop offset=".13" stop-color="#f0a3a3" stop-opacity=".47"/>
      <stop offset=".44" stop-color="#f0a3a3" stop-opacity=".21"/>
      <stop offset=".58" stop-color="#f0a3a3" stop-opacity=".1"/>
    </linearGradient>
    <linearGradient id="Unbenannter_Verlauf_32" data-name="Unbenannter Verlauf 32" x1="2.93" y1="13.13" x2="13.97" y2="13.13" gradientTransform="translate(17.4 -.7) rotate(175.42) scale(1 -1)" gradientUnits="userSpaceOnUse">
      <stop offset="0" stop-color="#918675" stop-opacity=".9"/>
      <stop offset=".84" stop-color="#fbd9d4"/>
    </linearGradient>
    <linearGradient id="Unbenannter_Verlauf_297" data-name="Unbenannter Verlauf 297" x1="-443.8" y1="22.39" x2="-455.74" y2="1.7" gradientTransform="translate(-439.89) rotate(-180) scale(1 -1)" gradientUnits="userSpaceOnUse">
      <stop offset=".18" stop-color="#5e7f68" stop-opacity=".9"/>
      <stop offset=".56" stop-color="#9c8e81" stop-opacity=".77"/>
      <stop offset="1" stop-color="#f0a3a3" stop-opacity=".6"/>
    </linearGradient>
  </defs>
  <path class="cls-12" d="M1.85,18.9c0,.69.3,1.35.82,1.8.58.5,1.17.59,1.88.59h4.06c1.36,0,2.72,0,4.08,0h2.04c.68,0,1.31.06,1.96-.3.63-.35,1.07-.97,1.19-1.68.05-.28.04-1.71.04-1.98v-4.01c0-2.71,0-5.42,0-8.12,0-.69-.3-1.35-.82-1.8-.58-.5-1.17-.59-1.88-.59h-4.06c-1.36,0-2.72,0-4.08,0h-2.04c-.68,0-1.31-.06-1.96.3-.63.35-1.07.97-1.19,1.68-.05.28-.04,1.71-.04,1.98v4.01c0,2.71,0,5.42,0,8.12Z"/>
  <g>
    <path class="cls-1" d="M8.34,6.19c.25.05.48.05.71.09.32.05.64.17,1.02.53,0-.2-.04-.33-.09-.45-.14-.32-.41-.55-.75-.7-.34-.15-.74-.2-1.05-.36-.31-.16-.52-.41-1.05-1.53.17,1.82.85,2.97,2.02,4.28.18.1.34.18.46.22,0-.21-.03-.39-.08-.57-.07-.25-.18-.47-.32-.64-.14-.17-.32-.28-.56-.48-.23-.19-.51-.46-.86-1.14.2.35.38.58.54.75Z"/>
    <path class="cls-8" d="M8.08,11.25c-.92-1.12-1.67-1.4-2.34-1.46-.67-.07-1.26.07-2.79,1.13,1.39-.38,1.74-.18,1.99,0,0,0,0,0,.01,0,0,0,0,0,0,0,.46-.11,1.12-.19,1.99-.25-.47-.17-1.06-.3-1.57-.29.63-.05,1.41.14,1.87.3.46.17.61.31.84.55Z"/>
    <path class="cls-5" d="M4.96,10.94c.25.19.42.36.83.5.42.14,1.1.25,2.66.58-.06-.13-.14-.26-.22-.38-.19-.28-.42-.56-.92-.8-.11-.05-.24-.1-.37-.15-.86.06-1.53.14-1.99.25Z"/>
    <path class="cls-6" d="M2.79,10.97c.05-.02.11-.03.16-.04,1.53-1.06,2.12-1.2,2.79-1.13.67.07,1.42.34,2.34,1.46.13.13.3.3.44.52-.22-1.54-.66-2.06-1.62-2.38-.96-.32-2.44-.46-4.1,1.57Z"/>
    <path class="cls-2" d="M8.52,11.77c-.22-1.54-.66-2.06-1.62-2.38-.96-.32-2.44-.46-4.1,1.57"/>
    <path class="cls-3" d="M8.45,12.03c-1.56-.33-2.24-.44-2.66-.58-.42-.14-.59-.32-.85-.52s-.62-.41-2.15.04"/>
    <path class="cls-9" d="M10.07,6.81c-.38-.36-.7-.48-1.02-.53.29.22.47.61.56,1.17.07.17.11.36.14.56.02.19.04.39.03.64.23-.97.31-1.49.3-1.83Z"/>
    <path class="cls-13" d="M9.05,6.28c-.23-.04-.46-.05-.71-.09.16.17.31.28.44.38.29.22.55.43.7.66.05.07.09.14.12.22-.08-.56-.27-.95-.56-1.17Z"/>
    <path class="cls-5" d="M10.1,9.57c-.13.24-.27.54-.43.91.57-.51,1.26-.97,2.06-1.37-.68.37-1.16.75-1.51,1.05-.27.24-.46.43-.6.62,1.13-.37,1.55-.66,2.05-1.04.48-.38,1.04-.84,1.59-1.64-.77.13-1.83.62-3.17,1.47Z"/>
    <path class="cls-10" d="M13.33,8.02c-1.34,0-1.81.2-2.16.38-.38.19-.64.36-1.06,1.18,1.34-.85,2.4-1.34,3.17-1.47.02-.03.04-.05.06-.08Z"/>
    <path class="cls-8" d="M9.16,8.05c-1.18-1.31-1.85-2.47-2.02-4.28-.41,1.8-.02,2.57.6,3.2.44.45.99.84,1.43,1.08Z"/>
    <path class="cls-8" d="M15.13,8.09c-.73-.06-1.32-.08-1.8-.08-.02.03-.04.06-.06.08-.55.79-1.11,1.26-1.59,1.64-.5.39-.92.68-2.05,1.04,1.1.1,1.46-.07,1.81-.32.35-.25.7-.58,1.04-.87.33-.3.65-.56.91-.8.27-.24.49-.47,1.73-.7Z"/>
    <path class="cls-3" d="M9.63,10.78c1.1.1,1.46-.07,1.81-.32.35-.25.7-.58,1.04-.87.33-.3.65-.56.91-.8.27-.24.49-.47,1.73-.7"/>
    <path class="cls-7" d="M9.4,10.74c.2-.68.3-1.27.34-1.72.04-.44.04-.74,0-1.02-.04-.28-.1-.54-.26-.78s-.41-.44-.7-.66c-.29-.22-.63-.46-1.07-1.29.39.8.7,1.1.95,1.3.24.2.42.31.56.48.14.17.25.4.32.64.07.25.09.51.07.81-.02.3-.07.63-.14.98-.07.35-.16.72-.26,1.15s-.22.93-.44,1.75c-.15-.59-.47-.91-.7-1.14-.23-.23-.38-.38-.84-.55-.46-.17-1.24-.35-1.87-.3.66,0,1.44.21,1.94.45s.73.51.92.8c.19.28.33.58.41.85.08.27.09.52.13.78s.09.52.23.78c.14.26.35.52.49.73.14.21.22.36.25.53.03.17.02.34-.04.51-.06.17-.17.34-.35.48-.18.14-.43.24-.91.33-.48.09-1.19.17-1.63.25-.43.07-.59.14-.83.3-.24.15-.57.39-1.06,1.41.48-.68.8-1.07.94-1.2-.05.35-.04.64.02.86,0-.63.05-.77.12-.87.06-.1.15-.17.27-.22.13-.05.3-.09.52-.12.21-.03.46-.05.77-.07.31-.02.67-.05,1.01-.12.34-.07.64-.2,1.05-.53-.17.72-.47,1.16-.68,1.43s-.33.39-.47.47-.31.11-.52.12c-.21.01-.45,0-.69,0-.24,0-.49-.01-.74.11.41.01.62,0,.79.02.17.01.29.05.86,0-.17.13-.8.4-1.63.68.96-.2,1.32-.35,1.6-.51.28-.15.47-.3.64-.48.17-.18.32-.38.51-.64s.44-.58.64-1.5c.14.8.2,1.11.25,1.38.05.27.08.5.07.7,0,.2-.04.38-.11.55-.07.18-.18.35-.27.48-.09.13-.15.2-.29.28-.14.08-.35.17-.62.24-.28.08-.62.14-.89.17.52,0,.96-.02,1.53-.31-.24.28-.33.49-.39.68-.06.19-.07.36.09.92-.1-.71-.02-.89.08-1.05.1-.16.22-.31.35-.5.13-.19.27-.43.34-.54.07.5.06,1.04-.04,1.62.2-.76.2-1.34.16-1.75.3-.56.25-.91.19-1.29-.06-.38-.13-.79-.16-1.46.52,1.01.69,1.18.8,1.3s.19.18.33.24c.14.07.35.14.53.19s.35.07.49.13c.14.06.25.14.44.42.19.28.46.76.77,2-.05-.69-.25-1.33-.51-2.01.48.51.86.82,1.58.91-.59-.2-.85-.4-1.03-.55s-.25-.27-.36-.4c-.1-.13-.23-.27-.39-.38s-.34-.2-.57-.26c-.23-.07-.5-.12-.72-.2s-.37-.19-.55-.43-.37-.62-.66-1.16c.53.53,1.01.81,1.41,1s.72.27,1.02.32c.3.05.57.06.88.1.31.04.66.1.99.24.33.14.64.35,1.31,1.01-.56-.88-1-1.08-1.54-1.22-.55-.14-1.21-.24-1.73-.34-.52-.1-.89-.22-1.24-.43s-.67-.5-.86-.73-.22-.42-.3-.6c-.07-.18-.17-.35-.38-.63-.2-.28-.5-.66-.68-1.07-.17-.41-.21-.84-.18-1.26.03-.42.14-.84.31-1.18.16-.34.38-.6.81-.98.43-.38,1.08-.87,2.08-1.32-1.19.54-2.17,1.17-2.91,1.91Z"/>
    <path class="cls-2" d="M15.13,8.09c-2.8-.21-3.47.06-3.96.3s-.78.45-1.49,2.09"/>
    <path class="cls-3" d="M9.77,8.64c.37-1.54.35-1.96.21-2.28s-.41-.55-.75-.7c-.34-.15-.74-.2-1.05-.36-.31-.16-.52-.41-1.05-1.53"/>
    <path class="cls-4" d="M9.4,10.74c.2-.68.3-1.27.34-1.72.04-.44.04-.74,0-1.02-.04-.28-.1-.54-.26-.78s-.41-.44-.7-.66c-.29-.22-.63-.46-1.07-1.29.39.8.7,1.1.95,1.3.24.2.42.31.56.48.14.17.25.4.32.64.07.25.09.51.07.81-.02.3-.07.63-.14.98-.07.35-.16.72-.26,1.15s-.22.93-.44,1.75c-.15-.59-.47-.91-.7-1.14-.23-.23-.38-.38-.84-.55-.46-.17-1.24-.35-1.87-.3.66,0,1.44.21,1.94.45s.73.51.92.8c.19.28.33.58.41.85.08.27.09.52.13.78s.09.52.23.78c.14.26.35.52.49.73.14.21.22.36.25.53.03.17.02.34-.04.51-.06.17-.17.34-.35.48-.18.14-.43.24-.91.33-.48.09-1.19.17-1.63.25-.43.07-.59.14-.83.3-.24.15-.57.39-1.06,1.41.48-.68.8-1.07.94-1.2-.05.35-.04.64.02.86,0-.63.05-.77.12-.87.06-.1.15-.17.27-.22.13-.05.3-.09.52-.12.21-.03.46-.05.77-.07.31-.02.67-.05,1.01-.12.34-.07.64-.2,1.05-.53-.17.72-.47,1.16-.68,1.43s-.33.39-.47.47-.31.11-.52.12c-.21.01-.45,0-.69,0-.24,0-.49-.01-.74.11.41.01.62,0,.79.02.17.01.29.05.86,0-.17.13-.8.4-1.63.68.96-.2,1.32-.35,1.6-.51.28-.15.47-.3.64-.48.17-.18.32-.38.51-.64s.44-.58.64-1.5c.14.8.2,1.11.25,1.38.05.27.08.5.07.7,0,.2-.04.38-.11.55-.07.18-.18.35-.27.48-.09.13-.15.2-.29.28-.14.08-.35.17-.62.24-.28.08-.62.14-.89.17.52,0,.96-.02,1.53-.31-.24.28-.33.49-.39.68-.06.19-.07.36.09.92-.1-.71-.02-.89.08-1.05.1-.16.22-.31.35-.5.13-.19.27-.43.34-.54.07.5.06,1.04-.04,1.62.2-.76.2-1.34.16-1.75.3-.56.25-.91.19-1.29-.06-.38-.13-.79-.16-1.46.52,1.01.69,1.18.8,1.3s.19.18.33.24c.14.07.35.14.53.19s.35.07.49.13c.14.06.25.14.44.42.19.28.46.76.77,2-.05-.69-.25-1.33-.51-2.01.48.51.86.82,1.58.91-.59-.2-.85-.4-1.03-.55s-.25-.27-.36-.4c-.1-.13-.23-.27-.39-.38s-.34-.2-.57-.26c-.23-.07-.5-.12-.72-.2s-.37-.19-.55-.43-.37-.62-.66-1.16c.53.53,1.01.81,1.41,1s.72.27,1.02.32c.3.05.57.06.88.1.31.04.66.1.99.24.33.14.64.35,1.31,1.01-.56-.88-1-1.08-1.54-1.22-.55-.14-1.21-.24-1.73-.34-.52-.1-.89-.22-1.24-.43s-.67-.5-.86-.73-.22-.42-.3-.6c-.07-.18-.17-.35-.38-.63-.2-.28-.5-.66-.68-1.07-.17-.41-.21-.84-.18-1.26.03-.42.14-.84.31-1.18.16-.34.38-.6.81-.98.43-.38,1.08-.87,2.08-1.32-1.19.54-2.17,1.17-2.91,1.91Z"/>
    <path class="cls-2" d="M9.62,8.28c-.42-.15-1.27-.66-1.89-1.3-.62-.64-1-1.4-.6-3.2"/>
  </g>
  <path class="cls-11" d="M17.92,5.19v1.7c0,.28,0,.57,0,.85v.59s-.03.05,0,.05h.66c.09,0,.13.04.13-.09v-1.08c0-.58,0-1.15,0-1.73,0-.78-.11-1.45-.57-2.12-.47-.68-1.19-1.14-2-1.3-.46-.09-1.44-.06-1.9-.06h-1.78c-2.34,0-4.69,0-7.03,0-.63,0-1.26-.07-1.89.08-.8.18-1.49.66-1.95,1.34-.44.66-.54,1.32-.54,2.09v1.7c0,2.37,0,4.75,0,7.12v3.56c0,.67-.06,1.33.16,2,.27.82.85,1.49,1.63,1.87.68.33,1.35.32,2.06.32h1.79c1.19,0,2.38,0,3.57,0h3.57c.6,0,1.2.02,1.8,0,.81-.03,1.57-.36,2.14-.93.6-.6.93-1.4.93-2.24,0-.6,0-1.21,0-1.81v-.91c0-.15,0-.3,0-.45,0-.06-.06-.02-.09-.02h-.69s-.01.03-.01.04v.5c0,.3,0,.6,0,.89,0,.59,0,1.19,0,1.78,0,.62-.26,1.22-.7,1.66-.44.44-1.04.69-1.66.69-.61,0-1.23,0-1.84,0h-7.65c-.63,0-1.27.02-1.9,0-.65-.02-1.26-.31-1.7-.8-.47-.53-.6-1.07-.6-1.75v-1.85c0-2.52,0-5.04,0-7.56v-3.78c0-.67.06-1.25.5-1.81.41-.53,1.02-.87,1.69-.92.31-.03.62,0,.94,0h.95c.64,0,1.27,0,1.91,0h3.81c1.27,0,2.54,0,3.81,0,1.35,0,2.45,1.01,2.45,2.39Z"/>
  <line class="cls-3" x1="18.67" y1="12.05" x2="14.17" y2="12.05"/>
  <path class="cls-3" d="M18.67,9.74c.63.63,1.27,1.27,1.9,1.9.22.22.22.58,0,.8-.63.63-1.27,1.27-1.9,1.9"/>
  <path class="cls-3" d="M20.74,10.23l1.5,1.5c.17.17.17.45,0,.63l-1.5,1.5"/>
</svg>