<?xml version="1.0" encoding="UTF-8"?>
<svg id="Lines" xmlns="http://www.w3.org/2000/svg" xmlns:xlink="http://www.w3.org/1999/xlink" viewBox="0 0 24 24">
  <defs>
    <style>
      .cls-1 {
        fill: url(#linear-gradient);
      }

      .cls-1, .cls-2, .cls-3, .cls-4, .cls-5, .cls-6, .cls-7, .cls-8, .cls-9, .cls-10, .cls-11, .cls-12, .cls-13, .cls-14, .cls-15, .cls-16, .cls-17 {
        stroke-miterlimit: 10;
      }

      .cls-1, .cls-2, .cls-3, .cls-4, .cls-5, .cls-7, .cls-8, .cls-9, .cls-10, .cls-11, .cls-12, .cls-13, .cls-14, .cls-15, .cls-16, .cls-17 {
        stroke-width: .25px;
      }

      .cls-1, .cls-3, .cls-4, .cls-10, .cls-13 {
        stroke: #3a3a3a;
      }

      .cls-2, .cls-8, .cls-9, .cls-15 {
        stroke: #3f3f3f;
      }

      .cls-2, .cls-18, .cls-10 {
        fill: #dee6ad;
      }

      .cls-3, .cls-19 {
        fill: #698c62;
      }

      .cls-4 {
        fill: url(#Unbenannter_Verlauf_21-2);
      }

      .cls-20 {
        fill: url(#Unbenannter_Verlauf_327-2);
      }

      .cls-21 {
        fill: url(#Unbenannter_Verlauf_327-3);
      }

      .cls-22 {
        fill: url(#Unbenannter_Verlauf_327-6);
      }

      .cls-23 {
        fill: url(#Unbenannter_Verlauf_327-4);
      }

      .cls-24 {
        fill: url(#Unbenannter_Verlauf_297-5);
      }

      .cls-25 {
        fill: url(#Unbenannter_Verlauf_297-3);
      }

      .cls-26 {
        fill: url(#Unbenannter_Verlauf_297-2);
      }

      .cls-27 {
        fill: url(#linear-gradient-5);
      }

      .cls-28 {
        fill: url(#linear-gradient-4);
      }

      .cls-29 {
        fill: url(#linear-gradient-3);
      }

      .cls-30, .cls-5, .cls-7 {
        fill: #b2c99d;
      }

      .cls-5, .cls-11 {
        stroke: #444;
      }

      .cls-31 {
        fill: none;
        stroke: #333;
        stroke-linecap: round;
        stroke-linejoin: round;
        stroke-width: .5px;
      }

      .cls-6 {
        fill: url(#Unbenannter_Verlauf_21);
        stroke-width: .1px;
      }

      .cls-6, .cls-17 {
        stroke: #424242;
      }

      .cls-7 {
        stroke: #494949;
      }

      .cls-32 {
        fill: #8eba87;
      }

      .cls-8 {
        fill: url(#Unbenannter_Verlauf_327);
      }

      .cls-9 {
        fill: url(#linear-gradient-2);
      }

      .cls-33, .cls-13 {
        fill: #476949;
      }

      .cls-11 {
        fill: url(#Unbenannter_Verlauf_297-4);
      }

      .cls-12 {
        fill: url(#linear-gradient-6);
        stroke: #3d3d3d;
      }

      .cls-34, .cls-15 {
        fill: #9db699;
      }

      .cls-14 {
        fill: #9bad79;
      }

      .cls-14, .cls-16 {
        stroke: #474747;
      }

      .cls-35 {
        fill: url(#Unbenannter_Verlauf_297);
      }

      .cls-16 {
        fill: url(#Unbenannter_Verlauf_327-5);
      }

      .cls-17 {
        fill: #7f9c63;
      }
    </style>
    <linearGradient id="linear-gradient" x1="4.36" y1="11.88" x2="10.54" y2="11.88" gradientUnits="userSpaceOnUse">
      <stop offset=".07" stop-color="#ead9b0"/>
      <stop offset="1" stop-color="#b1e5be"/>
    </linearGradient>
    <linearGradient id="Unbenannter_Verlauf_297" data-name="Unbenannter Verlauf 297" x1="6.43" y1="5.99" x2="16.18" y2="5.99" gradientUnits="userSpaceOnUse">
      <stop offset=".18" stop-color="#5e7f68" stop-opacity=".9"/>
      <stop offset=".56" stop-color="#9c8e81" stop-opacity=".77"/>
      <stop offset="1" stop-color="#f0a3a3" stop-opacity=".6"/>
    </linearGradient>
    <linearGradient id="linear-gradient-2" x1="8.01" y1="5.16" x2="16.18" y2="5.16" xlink:href="#linear-gradient"/>
    <radialGradient id="Unbenannter_Verlauf_327" data-name="Unbenannter Verlauf 327" cx="8.89" cy="7.44" fx="8.89" fy="7.44" r="4.44" gradientUnits="userSpaceOnUse">
      <stop offset=".16" stop-color="#fbd9d4"/>
      <stop offset="1" stop-color="#a6c176" stop-opacity=".9"/>
    </radialGradient>
    <radialGradient id="Unbenannter_Verlauf_327-2" data-name="Unbenannter Verlauf 327" cx="6.36" cy="7.66" fx="6.36" fy="7.66" r="3.81" xlink:href="#Unbenannter_Verlauf_327"/>
    <linearGradient id="Unbenannter_Verlauf_297-2" data-name="Unbenannter Verlauf 297" x1="2.23" y1="15.36" x2="8.62" y2="15.36" xlink:href="#Unbenannter_Verlauf_297"/>
    <radialGradient id="Unbenannter_Verlauf_327-3" data-name="Unbenannter Verlauf 327" cx="3.96" cy="11.32" fx="3.96" fy="11.32" r="5.53" xlink:href="#Unbenannter_Verlauf_327"/>
    <linearGradient id="Unbenannter_Verlauf_297-3" data-name="Unbenannter Verlauf 297" x1="8.37" y1="13.47" x2="18.1" y2="13.47" xlink:href="#Unbenannter_Verlauf_297"/>
    <linearGradient id="linear-gradient-3" x1="6.06" y1="15.52" x2="17.1" y2="15.52" xlink:href="#linear-gradient"/>
    <linearGradient id="linear-gradient-4" x1="5.16" y1="16.62" x2="16.24" y2="16.62" xlink:href="#linear-gradient"/>
    <linearGradient id="Unbenannter_Verlauf_297-4" data-name="Unbenannter Verlauf 297" x1="5.62" y1="16.11" x2="16.66" y2="16.11" xlink:href="#Unbenannter_Verlauf_297"/>
    <linearGradient id="linear-gradient-5" x1="3.8" y1="18.18" x2="13.69" y2="18.18" xlink:href="#linear-gradient"/>
    <radialGradient id="Unbenannter_Verlauf_327-4" data-name="Unbenannter Verlauf 327" cx="10.36" cy="17.14" fx="10.36" fy="17.14" r="4.96" xlink:href="#Unbenannter_Verlauf_327"/>
    <linearGradient id="linear-gradient-6" x1="3.8" y1="17.83" x2="15.21" y2="17.83" xlink:href="#linear-gradient"/>
    <linearGradient id="Unbenannter_Verlauf_21" data-name="Unbenannter Verlauf 21" x1="3.8" y1="18.53" x2="11.92" y2="18.53" gradientUnits="userSpaceOnUse">
      <stop offset=".16" stop-color="#fbd9d4"/>
      <stop offset="1" stop-color="#918675" stop-opacity=".9"/>
    </linearGradient>
    <radialGradient id="Unbenannter_Verlauf_327-5" data-name="Unbenannter Verlauf 327" cx="12.71" cy="17.21" fx="12.71" fy="17.21" r="4.84" xlink:href="#Unbenannter_Verlauf_327"/>
    <radialGradient id="Unbenannter_Verlauf_327-6" data-name="Unbenannter Verlauf 327" cx="15.01" cy="17.4" fx="15.01" fy="17.4" r="3.99" xlink:href="#Unbenannter_Verlauf_327"/>
    <linearGradient id="Unbenannter_Verlauf_297-5" data-name="Unbenannter Verlauf 297" x1="14.48" y1="10.44" x2="22.93" y2="10.44" xlink:href="#Unbenannter_Verlauf_297"/>
    <linearGradient id="Unbenannter_Verlauf_21-2" data-name="Unbenannter Verlauf 21" x1="12.24" y1="17.14" x2="19.3" y2="17.14" xlink:href="#Unbenannter_Verlauf_21"/>
  </defs>
  <path class="cls-1" d="M6.43,11.61s-.02,0-.04,0c-.19-.05-.34-.11-.55-.14-.21-.03-.48-.05-1.06.03-.14.12-.28.22-.42.31.63-.05.87.02,1.08.11s.39.2.72.32c.33.12.8.26,2.46.19.18-.07.36-.14.52-.22.59-.29,1.04-.63,1.4-.9-1.26.47-1.82.55-2.34.61s-.99.1-1.77-.3Z"/>
  <path class="cls-15" d="M4.78,11.49c.58-.08.85-.06,1.06-.03.21.03.36.09.55.14.01,0,.02,0,.04,0,.18.05.39.09.67.11.29.02.65.02,1.26-.08.61-.1,1.47-.29,3.44-1.26.11-.09.2-.18.28-.29.16-.2.27-.44.45-.65.18-.21.43-.4.73-.67.07-.07.15-.13.23-.21-1.22.91-2.28,1.37-2.96,1.66s-.96.39-1.35.48c-.39.09-.87.15-1.35.19-.48.03-.96.04-1.4.06-.44.03-.85.08-1.31.2-.11.11-.22.22-.34.32Z"/>
  <path class="cls-10" d="M5.12,11.17c.45-.12.86-.17,1.31-.2.44-.03.92-.03,1.4-.06.48-.03.96-.1,1.35-.19.39-.09.67-.2,1.35-.48s1.74-.75,2.96-1.66c.23-.23.48-.5.7-.82.11-.17.22-.35.31-.55-.67.66-1.41,1.06-2.1,1.39-.69.32-1.32.56-1.94.75-.62.19-1.23.32-1.78.42s-1.04.16-1.44.24c-.39.08-.69.17-.95.28-.26.11-.47.25-.76.42-.06.07-.12.15-.18.22-.07.09-.15.17-.23.25Z"/>
  <path class="cls-18" d="M11.8,10.4c-1.97.97-2.83,1.16-3.44,1.26-.61.1-.97.1-1.26.08-.27-.02-.49-.07-.67-.11.79.41,1.26.36,1.77.3s1.08-.14,2.34-.61c.03-.02.06-.05.09-.07.37-.27.63-.44.86-.61.11-.08.21-.16.31-.24"/>
  <path class="cls-33" d="M14.94,5.86c-1.32,1.42-1.97,1.86-2.56,2.18s-1.13.54-1.6.71-.9.3-1.36.41c-.46.1-.97.17-1.4.26s-.77.2-1.11.34c-.35.14-.69.3-1.07.54-.06.08-.12.16-.18.24-.04.05-.08.11-.13.16.28-.18.5-.31.76-.42.26-.11.56-.2.95-.28.39-.08.89-.14,1.44-.24s1.16-.24,1.78-.42c.62-.19,1.26-.43,1.94-.75.69-.32,1.42-.73,2.1-1.39.15-.32.29-.71.41-1.19.01-.05.03-.1.04-.15"/>
  <path class="cls-35" d="M8.01,7.77c-.32.27-.7.61-1.18,1.05-.13.2-.26.4-.4.61.26-.2.82-.52,1.34-.8.52-.28,1-.53,1.45-.72.45-.19.88-.33,1.46-.53s1.32-.47,2.09-.86c.77-.38,1.58-.88,2.6-2.21.18-.5.43-1.08.81-1.76-1.34,1.81-2.05,2.35-2.7,2.76-.65.42-1.23.71-1.79.97s-1.13.48-1.67.69c-.54.22-1.06.43-1.43.58-.36.14-.57.21-.58.21Z"/>
  <path class="cls-14" d="M6.13,9.88c.62-.4,1.01-.57,1.56-.79.54-.23,1.23-.51,1.88-.74s1.26-.41,1.8-.59c.54-.18,1-.35,1.49-.61.49-.27,1.01-.63,2.28-2.08.06-.23.14-.48.23-.76-1.02,1.33-1.83,1.83-2.6,2.21-.77.38-1.51.65-2.09.86s-1.01.34-1.46.53c-.45.19-.93.44-1.45.72-.52.28-1.08.61-1.34.8-.07.11-.15.22-.23.34-.02.04-.05.07-.08.11Z"/>
  <path class="cls-34" d="M5.84,10.3c.38-.24.73-.4,1.07-.54.35-.14.69-.25,1.11-.34s.93-.16,1.4-.26c.46-.1.88-.23,1.36-.41s1.02-.38,1.6-.71,1.23-.77,2.56-2.18h0c.06-.24.11-.5.19-.79-1.27,1.45-1.79,1.82-2.28,2.08-.49.27-.95.44-1.49.61-.54.18-1.15.36-1.8.59s-1.34.51-1.88.74c-.54.23-.94.39-1.56.79-.09.14-.19.27-.29.41Z"/>
  <path class="cls-9" d="M9.43,6.68s-.01,0-.02.01c-.46.33-.85.61-1.4,1.08,0,0,.21-.07.58-.21.37-.14.89-.36,1.43-.58.54-.22,1.1-.44,1.67-.69s1.15-.55,1.79-.97c.65-.42,1.36-.96,2.7-2.76-1.41,1.36-2.2,1.91-3.12,2.43-.93.52-1.99,1.03-3.63,1.69Z"/>
  <path class="cls-32" d="M13.41,3.16c-2.14.34-2.98.68-3.57.96-.64.31-.97.54-1.31.84-.34.3-.68.67-1.04,1.1-.35.43-.71.92-1.03,1.55s-.59,1.41-.82,2.92c.47-1.01.73-1.63,1.03-2.2.3-.56.64-1.06,1.07-1.56s.96-.99,1.54-1.43c.58-.44,1.21-.85,2-1.21.9-.41,1.99-.78,3.48-1.13-.53.12-.96.15-1.35.15Z"/>
  <path class="cls-7" d="M14.76,3.01c-1.48.35-2.58.72-3.48,1.13-.79.36-1.42.76-2,1.21-.58.44-1.1.93-1.54,1.43s-.77,1-1.07,1.56c-.3.56-.56,1.19-1.03,2.2.06-.08.12-.16.18-.24.1-.14.2-.28.29-.41.03-.04.05-.07.08-.11.08-.12.15-.23.23-.34.14-.21.27-.42.4-.61.23-.35.45-.68.69-.99.44-.57.96-1.09,1.63-1.58s1.51-.94,2.64-1.48c1.12-.55,2.53-1.19,4.38-2.22-.56.22-1.02.36-1.42.46Z"/>
  <path class="cls-19" d="M6.83,8.82c.48-.44.85-.78,1.18-1.05.55-.47.95-.75,1.4-1.08,0,0,.01,0,.02-.01.72-.52,1.59-1.13,2.68-1.71,1.1-.58,2.43-1.13,4.07-2.42-1.85,1.03-3.26,1.67-4.38,2.22-1.12.55-1.96,1-2.64,1.48s-1.19,1.01-1.63,1.58c-.24.31-.46.64-.69.99Z"/>
  <path class="cls-30" d="M9.43,6.68c1.64-.66,2.71-1.17,3.63-1.69.93-.52,1.71-1.07,3.12-2.43-1.64,1.29-2.97,1.84-4.07,2.42-1.09.58-1.96,1.19-2.68,1.71Z"/>
  <path class="cls-33" d="M4.36,11.8c.37-1.33.5-2.12.7-2.83.2-.7.49-1.32.82-1.9.34-.57.73-1.09,1.21-1.59.48-.5,1.05-.98,1.5-1.34.45-.36.78-.59,1.28-.75.33-.1.73-.17,1.84-.33-.57-.03-1.16-.06-1.77-.07-.27,0-.55,0-.83.01-1,.52-1.41.74-1.79.99-.56.38-1.04.83-1.46,1.39-.41.56-.75,1.22-1,1.92s-.41,1.45-.47,2.19c-.06.74,0,1.47-.05,2.29Z"/>
  <path class="cls-8" d="M5.65,10.54c.23-1.51.5-2.29.82-2.92s.68-1.12,1.03-1.55c.35-.43.7-.8,1.04-1.1.34-.3.67-.53,1.31-.84.58-.28,1.43-.62,3.57-.96-.2,0-.39,0-.59-.02-.36-.02-.73-.04-1.11-.07-1.11.15-1.51.22-1.84.33-.5.16-.83.39-1.28.75-.45.36-1.02.84-1.5,1.34-.48.5-.87,1.02-1.21,1.59-.34.57-.62,1.19-.82,1.9-.2.7-.32,1.49-.7,2.83.14-.09.28-.19.42-.31.11-.1.23-.21.34-.32.08-.08.15-.16.23-.25.06-.07.12-.14.18-.22.04-.05.09-.11.13-.16Z"/>
  <path class="cls-20" d="M9.12,3.02c-.36.01-.72.04-1.07.08-1.28.63-1.59.82-1.89,1.06-.47.38-.89.87-1.28,1.45s-.76,1.22-.99,1.8c-.23.58-.32,1.08-.28,1.62s.21,1.11.36,1.57c.15.47.27.83.29,1.19,0,.16,0,.32-.02.5.04-.16.08-.32.13-.49.04-.82,0-1.55.05-2.29.06-.74.22-1.48.47-2.19s.59-1.36,1-1.92c.41-.56.9-1.01,1.46-1.39.38-.25.79-.47,1.79-.99Z"/>
  <path class="cls-26" d="M2.23,18.91s.09.03.14.02c.03,0,.05-.01.08-.03.14-.07.26-.29.44-.76.18-.46.43-1.17.75-2.08.32-.91.72-2.02.96-2.65.24-.64.33-.8.44-.88.12-.08.27-.07.58.02.31.09.78.27,1.42.23.48-.03,1.05-.17,1.57-.37-1.66.06-2.14-.07-2.46-.19-.33-.12-.51-.23-.72-.32s-.45-.16-1.08-.11c-.04.16-.08.32-.13.49-.02.06-.03.12-.04.19-.03.15-.07.32-.12.52,0,.04-.02.07-.03.11-.02.08-.04.16-.06.25-.16.63-.49,1.77-1.76,5.56Z"/>
  <path class="cls-3" d="M5.86,3.73c-.87.89-1.11,1.16-1.3,1.42-.27.36-.45.71-.64,1.11-.19.4-.4.84-.55,1.33s-.27,1.02-.29,1.5.04.89.25,1.41.56,1.13.76,2.5c.05-.2.09-.37.12-.52.05-.26.07-.47.06-.68-.02-.36-.15-.72-.29-1.19-.15-.47-.32-1.04-.36-1.57s.05-1.04.28-1.62c.23-.58.6-1.23.99-1.8s.81-1.07,1.28-1.45c.3-.24.61-.43,1.89-1.06-.36.04-.7.1-1.02.18-.44.11-.83.26-1.18.44Z"/>
  <path class="cls-21" d="M5.86,3.73c-.31.17-.59.36-.85.58-.55.47-1.01,1.05-1.28,1.42-.27.37-.33.51-.49.77-.16.26-.42.62-.62,1.06-.2.44-.34.94-.37,1.46s.04,1.04.27,1.55c.23.51.62,1,.83,1.36.21.36.26.58.28.89.02.31.03.7-.12,1.25-.15.55-.45,1.26-.7,1.95-.25.69-.46,1.37-.59,1.83-.13.47-.17.73-.11.9.03.08.08.14.14.17,1.27-3.79,1.59-4.93,1.76-5.56.02-.09.04-.17.06-.25,0-.04.02-.08.03-.11-.2-1.38-.55-1.99-.76-2.5s-.27-.93-.25-1.41.13-1.01.29-1.5.36-.94.55-1.33c.19-.4.37-.74.64-1.11.19-.26.43-.52,1.3-1.42Z"/>
  <path class="cls-13" d="M16.46,13.33s.02.01.03.02c.18.11.32.21.52.31.2.1.47.19,1.09.29.17-.08.35-.14.52-.19-.65-.14-.88-.28-1.06-.44s-.34-.32-.63-.54c-.29-.22-.73-.5-2.45-.94-.2.02-.41.04-.6.07-.69.11-1.25.33-1.69.49,1.42-.1,2.02,0,2.56.09s1.03.19,1.71.84Z"/>
  <path class="cls-25" d="M18.1,13.95c-.61-.1-.88-.19-1.09-.29-.2-.1-.34-.2-.52-.31-.01,0-.02-.01-.03-.02-.17-.1-.37-.21-.64-.32-.29-.11-.66-.22-1.3-.3-.65-.09-1.58-.15-3.88.24-.13.06-.26.13-.38.21-.22.16-.4.37-.65.53-.25.16-.56.28-.94.46-.09.04-.19.09-.29.14,1.51-.56,2.74-.71,3.51-.79s1.1-.11,1.52-.08c.42.03.93.11,1.43.22.5.11.99.25,1.44.36.46.11.89.18,1.39.19.15-.08.29-.16.44-.22Z"/>
  <path class="cls-2" d="M17.66,14.18c-.5-.01-.93-.08-1.39-.19-.46-.11-.95-.25-1.44-.36-.5-.11-1.01-.19-1.43-.22-.42-.03-.74,0-1.52.08s-2,.23-3.51.79c-.31.16-.64.36-.96.63-.16.14-.33.29-.49.47.88-.46,1.76-.66,2.55-.78.8-.12,1.51-.17,2.21-.18.69,0,1.35.04,1.94.11s1.11.15,1.53.19c.42.04.76.04,1.05,0,.3-.04.55-.11.9-.2.08-.06.17-.11.25-.17.1-.07.2-.13.31-.19Z"/>
  <path class="cls-18" d="M10.63,12.95c2.3-.39,3.23-.32,3.88-.24.65.09,1.02.19,1.3.3.27.1.47.21.64.32-.68-.65-1.17-.75-1.71-.84s-1.14-.19-2.56-.09c-.04.01-.08.03-.11.04-.46.17-.77.26-1.06.36-.14.05-.26.09-.39.15"/>
  <path class="cls-29" d="M6.06,16.62c1.78-1.04,2.56-1.3,3.26-1.45s1.31-.2,1.85-.23,1.01-.04,1.51,0c.5.04,1.04.12,1.5.16s.84.03,1.24,0c.39-.03.79-.09,1.25-.22.08-.06.17-.13.26-.19.06-.04.12-.09.18-.13-.34.1-.6.17-.9.2-.3.04-.63.04-1.05,0-.42-.04-.94-.12-1.53-.19s-1.25-.11-1.94-.11c-.69,0-1.41.06-2.21.18-.8.12-1.67.31-2.55.78-.26.28-.51.63-.78,1.08-.03.05-.06.1-.08.14"/>
  <path class="cls-5" d="M13.69,16.77c.41-.18.9-.41,1.52-.72.19-.16.39-.33.59-.5-.33.12-.99.28-1.61.41-.61.13-1.18.24-1.7.29-.52.06-.99.07-1.64.1s-1.48.08-2.38.24c-.9.16-1.87.42-3.31,1.46-.33.45-.76.97-1.36,1.54,1.91-1.43,2.8-1.77,3.58-1.99.78-.23,1.46-.35,2.12-.44s1.29-.14,1.91-.2c.62-.06,1.21-.12,1.63-.16.41-.03.65-.04.65-.04Z"/>
  <path class="cls-28" d="M16.24,15.18c-.75.22-1.2.27-1.82.34-.62.07-1.41.14-2.14.18s-1.41.04-2.01.05c-.6.02-1.12.05-1.7.18-.58.12-1.22.34-2.95,1.43-.13.22-.28.45-.47.7,1.44-1.04,2.41-1.31,3.31-1.46.9-.16,1.73-.21,2.38-.24s1.13-.04,1.64-.1c.52-.06,1.08-.16,1.7-.29.61-.13,1.28-.29,1.61-.41.11-.09.22-.18.33-.28.04-.03.07-.06.11-.09Z"/>
  <path class="cls-11" d="M16.66,14.85c-.46.13-.86.19-1.25.22-.39.03-.78.05-1.24,0s-1-.12-1.5-.16c-.5-.04-.97-.03-1.51,0s-1.15.08-1.85.23-1.49.41-3.26,1.45h0c-.13.22-.27.47-.43.75,1.73-1.09,2.37-1.31,2.95-1.43.58-.12,1.1-.16,1.7-.18.6-.02,1.28-.02,2.01-.05s1.52-.12,2.14-.18c.62-.07,1.07-.12,1.82-.34.14-.11.28-.22.42-.33Z"/>
  <path class="cls-27" d="M11.92,17.45s.01,0,.02,0c.56-.19,1.05-.37,1.75-.67,0,0-.24,0-.65.04-.42.04-1.02.1-1.63.16-.62.06-1.25.11-1.91.2s-1.33.21-2.12.44c-.78.23-1.68.56-3.58,1.99,1.84-.96,2.81-1.27,3.91-1.53,1.1-.25,2.33-.45,4.21-.63Z"/>
  <path class="cls-17" d="M6.8,19.82c2.28.3,3.24.21,3.92.1.75-.12,1.15-.25,1.58-.46.43-.2.9-.48,1.39-.81.49-.33,1-.72,1.52-1.27s1.02-1.26,1.71-2.73c-.78.89-1.23,1.44-1.71,1.92-.47.48-.97.89-1.56,1.26s-1.27.71-1.99.99c-.72.28-1.49.49-2.4.63-1.04.15-2.27.19-3.88.1.58.04,1.02.14,1.42.26Z"/>
  <path class="cls-23" d="M5.38,19.56c1.61.09,2.84.05,3.88-.1.91-.13,1.67-.35,2.4-.63.72-.28,1.4-.62,1.99-.99s1.09-.78,1.56-1.26c.47-.48.93-1.04,1.71-1.92-.09.06-.17.13-.26.19-.14.11-.29.22-.42.33-.04.03-.07.06-.11.09-.11.09-.22.19-.33.28-.21.17-.4.34-.59.5-.34.29-.67.56-1.01.8-.63.45-1.31.82-2.14,1.11s-1.82.49-3.13.71c-1.31.22-2.94.45-5.13.93.63-.05,1.15-.06,1.58-.04Z"/>
  <path class="cls-12" d="M15.21,16.05c-.62.31-1.1.54-1.52.72-.7.31-1.19.48-1.75.67,0,0-.01,0-.02,0-.89.31-1.96.67-3.24.93-1.3.26-2.81.42-4.87,1.23,2.19-.49,3.82-.71,5.13-.93,1.31-.22,2.3-.42,3.13-.71s1.51-.66,2.14-1.11c.34-.24.66-.51,1.01-.8Z"/>
  <path class="cls-6" d="M11.92,17.45c-1.87.18-3.11.37-4.21.63-1.1.25-2.07.57-3.91,1.53,2.06-.81,3.58-.97,4.87-1.23,1.29-.26,2.35-.62,3.24-.93Z"/>
  <path class="cls-15" d="M18.62,13.77c-.78,1.24-1.15,2.01-1.56,2.66-.42.66-.89,1.2-1.41,1.68-.52.48-1.07.89-1.71,1.26-.64.36-1.37.68-1.93.91-.57.23-.97.37-1.53.38-.37,0-.8-.05-1.97-.22.57.21,1.16.41,1.78.6.28.08.56.16.85.24,1.17-.22,1.66-.32,2.12-.47.68-.21,1.31-.53,1.9-.97.59-.44,1.13-1.01,1.59-1.65s.86-1.35,1.14-2.08c.28-.74.45-1.5.74-2.32Z"/>
  <path class="cls-16" d="M16.92,14.66c-.69,1.47-1.2,2.18-1.71,2.73s-1.03.94-1.52,1.27c-.49.33-.95.61-1.39.81-.43.2-.84.34-1.58.46-.68.11-1.64.2-3.92-.1.2.06.4.13.59.2.36.13.73.26,1.11.4,1.17.18,1.6.23,1.97.22.55,0,.96-.15,1.53-.38.57-.23,1.29-.54,1.93-.91.64-.36,1.2-.78,1.71-1.26.52-.48.99-1.02,1.41-1.68.42-.66.78-1.42,1.56-2.66-.17.05-.35.11-.52.19-.15.07-.29.14-.44.22-.1.06-.21.12-.31.19-.08.05-.17.11-.25.17-.06.04-.12.08-.18.13Z"/>
  <path class="cls-22" d="M11.13,21.26c.37.1.75.18,1.11.24,1.49-.26,1.87-.35,2.24-.51.59-.24,1.17-.62,1.74-1.08s1.15-1.01,1.55-1.53c.41-.52.65-1.01.77-1.57s.12-1.19.11-1.71c0-.52-.03-.93.06-1.3.04-.16.1-.32.17-.5-.09.15-.18.3-.27.46-.29.82-.46,1.58-.74,2.32-.28.74-.67,1.44-1.14,2.08s-1.01,1.21-1.59,1.65c-.59.44-1.22.76-1.9.97-.46.14-.95.24-2.12.47Z"/>
  <path class="cls-24" d="M22.93,7.18s-.08-.06-.13-.07c-.03,0-.06,0-.09,0-.16.03-.35.22-.68.64-.32.42-.79,1.06-1.39,1.89-.6.83-1.34,1.83-1.78,2.41-.44.57-.57.72-.72.76-.14.04-.29-.01-.58-.2-.29-.19-.71-.51-1.37-.67-.49-.12-1.12-.14-1.71-.1,1.71.44,2.15.72,2.45.94.29.22.44.39.63.54s.41.3,1.06.44c.09-.15.18-.3.27-.46.03-.05.06-.11.1-.18.08-.15.17-.31.28-.49.02-.03.04-.07.06-.11.04-.07.09-.15.14-.23.35-.59,1.03-1.65,3.47-5.12Z"/>
  <path class="cls-4" d="M14.66,21.53c1.16-.65,1.48-.84,1.75-1.05.39-.29.67-.59.99-.93.32-.35.66-.74.97-1.19s.58-.96.75-1.44.23-.92.17-1.51-.23-1.32-.02-2.78c-.11.19-.2.35-.28.49-.13.25-.22.45-.27.67-.09.37-.07.78-.06,1.3,0,.52,0,1.15-.11,1.71s-.36,1.05-.77,1.57c-.41.52-.98,1.07-1.55,1.53s-1.15.84-1.74,1.08c-.37.15-.75.25-2.24.51.38.07.74.11,1.09.13.48.02.92-.01,1.33-.1Z"/>
  <path class="cls-33" d="M14.66,21.53c.37-.07.71-.19,1.05-.34.7-.31,1.35-.76,1.73-1.06.38-.29.49-.42.73-.63.24-.21.61-.51.95-.89.33-.39.63-.86.82-1.37s.27-1.07.19-1.66c-.08-.59-.32-1.21-.43-1.63-.11-.43-.08-.67-.02-.99.07-.32.18-.72.5-1.23.32-.51.84-1.14,1.31-1.77.47-.63.88-1.25,1.15-1.69.27-.44.4-.69.39-.88,0-.09-.04-.17-.09-.22-2.44,3.47-3.11,4.53-3.47,5.12-.05.09-.1.16-.14.23-.02.04-.04.07-.06.11-.21,1.46-.04,2.19.02,2.78s0,1.03-.17,1.51-.44.99-.75,1.44-.65.84-.97,1.19c-.32.35-.6.64-.99.93-.27.2-.59.4-1.75,1.05Z"/>
  <path class="cls-31" d="M16.1,2.7c-.92,1.62-1.08,2.65-1.28,3.42-.2.77-.44,1.29-.72,1.72-.29.43-.62.76-.91,1.02-.29.26-.54.44-.72.65-.18.21-.29.45-.44.64-.16.2-.36.35-.58.52s-.48.33-.85.59c-.36.27-.83.64-1.47.94-.63.3-1.43.54-2.05.57-.63.03-1.08-.15-1.39-.25-.3-.1-.45-.11-.57-.03-.12.08-.2.24-.44.87-.24.63-.64,1.73-.96,2.62-.32.9-.57,1.6-.75,2.05-.18.46-.3.67-.44.75-.14.07-.29,0-.35-.17-.05-.17,0-.42.12-.89.13-.46.34-1.13.59-1.81.25-.68.55-1.38.7-1.93.15-.54.15-.93.13-1.24s-.06-.53-.27-.88-.58-.85-.8-1.36c-.22-.51-.29-1.03-.25-1.54.04-.51.18-1.01.37-1.45s.45-.79.61-1.05c.16-.25.23-.4.49-.76.26-.36.72-.93,1.26-1.39.54-.46,1.17-.8,1.99-1,.83-.2,1.86-.25,2.85-.24s1.95.11,2.82.16c.87.06,1.65.08,3.29-.54Z"/>
  <path class="cls-31" d="M3.58,19.46c1.45-1.4,1.92-2.42,2.37-3.16.44-.74.85-1.21,1.27-1.57.43-.36.87-.6,1.26-.78.38-.18.69-.29.94-.46.25-.16.44-.38.66-.53.22-.16.48-.26.76-.36s.6-.19,1.06-.36c.46-.17,1.06-.41,1.81-.53.75-.12,1.65-.13,2.31.04.66.16,1.08.49,1.36.68.28.19.43.25.58.2.14-.04.28-.19.72-.77.44-.58,1.19-1.6,1.8-2.43.61-.83,1.07-1.48,1.4-1.9.33-.42.52-.61.68-.64.16-.03.3.09.31.28,0,.19-.12.44-.39.89-.27.44-.69,1.07-1.17,1.7-.47.63-1,1.27-1.32,1.79-.32.52-.44.92-.51,1.24s-.1.56,0,1,.34,1.06.42,1.66c.07.59-.01,1.15-.2,1.67-.19.52-.49,1-.83,1.39s-.71.69-.95.9c-.24.21-.36.34-.74.64-.38.29-1.03.75-1.73,1.06-.7.31-1.45.47-2.37.43-.92-.05-2.01-.3-3.03-.62s-1.99-.7-2.87-1.03c-.88-.32-1.69-.59-3.58-.44Z"/>
</svg>