<?xml version="1.0" encoding="UTF-8"?>
<svg id="Param_Hexagon" data-name="Param Hexagon" xmlns="http://www.w3.org/2000/svg" xmlns:xlink="http://www.w3.org/1999/xlink" viewBox="0 0 24 24">
  <defs>
    <style>
      .cls-1 {
        fill: url(#Unbenannter_Verlauf_203-3);
      }

      .cls-1, .cls-2, .cls-3, .cls-4, .cls-5 {
        stroke: #333;
      }

      .cls-1, .cls-2, .cls-4, .cls-5 {
        stroke-width: .5px;
      }

      .cls-1, .cls-2, .cls-5 {
        stroke-miterlimit: 10;
      }

      .cls-2 {
        fill: url(#Unbenannter_Verlauf_203-2);
      }

      .cls-3 {
        stroke-width: .75px;
      }

      .cls-3, .cls-4 {
        fill: none;
        stroke-linecap: round;
        stroke-linejoin: round;
      }

      .cls-6 {
        fill: url(#Winter-Violett_radial);
      }

      .cls-7 {
        fill: url(#Winter-Pink_radial);
      }

      .cls-5 {
        fill: url(#Unbenannter_Verlauf_203);
      }

      .cls-8 {
        fill: url(#Winter-Grau-4);
      }

      .cls-9 {
        fill: url(#Winter-Grau-2);
      }

      .cls-10 {
        fill: url(#Winter-Grau-3);
      }

      .cls-11 {
        fill: url(#Winter-Violett_radial-2);
      }

      .cls-12 {
        fill: url(#Winter-Grau);
      }

      .cls-13 {
        fill: url(#Winter-Blau);
      }

      .cls-14 {
        fill: url(#Winter-Pink);
      }

      .cls-15 {
        fill: url(#Frühlings-Blau);
      }
    </style>
    <linearGradient id="Unbenannter_Verlauf_203" data-name="Unbenannter Verlauf 203" x1="2.25" y1="17.51" x2="4.18" y2="17.51" gradientUnits="userSpaceOnUse">
      <stop offset="0" stop-color="#ebedf6"/>
      <stop offset=".5" stop-color="#d8dcec"/>
      <stop offset=".68" stop-color="#c3c9e0"/>
    </linearGradient>
    <linearGradient id="Unbenannter_Verlauf_203-2" data-name="Unbenannter Verlauf 203" x1="5.49" y1="15.77" x2="7.41" y2="15.77" xlink:href="#Unbenannter_Verlauf_203"/>
    <linearGradient id="Unbenannter_Verlauf_203-3" data-name="Unbenannter Verlauf 203" x1="8.79" y1="18.64" x2="10.71" y2="18.64" xlink:href="#Unbenannter_Verlauf_203"/>
    <linearGradient id="Winter-Pink" x1="11.27" y1="8.97" x2="15.93" y2="8.97" gradientUnits="userSpaceOnUse">
      <stop offset="0" stop-color="#f7edf3"/>
      <stop offset=".53" stop-color="#f2e2eb"/>
      <stop offset="1" stop-color="#e9d0dd"/>
    </linearGradient>
    <linearGradient id="Winter-Blau" x1="13.41" y1="8.47" x2="16.82" y2="8.47" gradientUnits="userSpaceOnUse">
      <stop offset="0" stop-color="#e5ecf3"/>
      <stop offset=".5" stop-color="#c0d1e0"/>
      <stop offset="1" stop-color="#b1c7d9"/>
    </linearGradient>
    <radialGradient id="Winter-Violett_radial" data-name="Winter-Violett radial" cx="12.32" cy="9.26" fx="12.32" fy="9.26" r="3.42" gradientUnits="userSpaceOnUse">
      <stop offset="0" stop-color="#ebedf6"/>
      <stop offset=".5" stop-color="#d8dcec"/>
      <stop offset="1" stop-color="#c3c9e0"/>
    </radialGradient>
    <linearGradient id="Winter-Grau" x1="11.99" y1="11.3" x2="15.63" y2="11.3" gradientUnits="userSpaceOnUse">
      <stop offset="0" stop-color="#f7f7fa"/>
      <stop offset=".5" stop-color="#e6e7ee"/>
      <stop offset="1" stop-color="#d5d8e3"/>
    </linearGradient>
    <linearGradient id="Winter-Grau-2" data-name="Winter-Grau" x1="15.07" y1="8.36" x2="15.98" y2="8.36" xlink:href="#Winter-Grau"/>
    <radialGradient id="Winter-Pink_radial" data-name="Winter-Pink radial" cx="19.91" cy="10.15" fx="19.91" fy="10.15" r="2.38" gradientUnits="userSpaceOnUse">
      <stop offset="0" stop-color="#f7edf3"/>
      <stop offset=".53" stop-color="#f2e2eb"/>
      <stop offset="1" stop-color="#e9d0dd"/>
    </radialGradient>
    <linearGradient id="Frühlings-Blau" x1="17.83" y1="10.84" x2="21.25" y2="10.84" gradientUnits="userSpaceOnUse">
      <stop offset="0" stop-color="#d7e4f6"/>
      <stop offset=".5" stop-color="#bbd2ee"/>
      <stop offset=".56" stop-color="#b7cfed"/>
      <stop offset="1" stop-color="#a0c2e7"/>
    </linearGradient>
    <radialGradient id="Winter-Violett_radial-2" data-name="Winter-Violett radial" cx="19.85" cy="9.19" fx="19.85" fy="9.19" r="2.29" xlink:href="#Winter-Violett_radial"/>
    <linearGradient id="Winter-Grau-3" data-name="Winter-Grau" x1="19.4" y1="9.17" x2="20.15" y2="9.17" xlink:href="#Winter-Grau"/>
    <linearGradient id="Winter-Grau-4" data-name="Winter-Grau" x1="20.44" y1="11.06" x2="21.61" y2="11.06" xlink:href="#Winter-Grau"/>
  </defs>
  <rect class="cls-5" x="2.25" y="13.19" width="1.93" height="8.64"/>
  <rect class="cls-2" x="5.49" y="9.71" width="1.93" height="12.12"/>
  <rect class="cls-1" x="8.79" y="15.45" width="1.93" height="6.38"/>
  <g>
    <path class="cls-14" d="M11.95,13.4c-.72-1.64-.88-2.68-.44-3.75.44-1.07,1.48-2.18,3.29-4.53.36-.29.73-.6,1.13-.94-.85,1.65-1.6,3.01-2.1,4.37-.37,1-.61,2-.2,3.37-.46.17-1.06.23-1.37.34-.34.11-.34.27-.07.37.27.1.8.13,1.32.1.14,0,.28-.02.41-.04.12.27.26.56.43.86-.64.28-1.43.28-2.39-.16Z"/>
    <path class="cls-13" d="M15.13,9.89c-.19.14-.28.6-.45,1.01-.17.41-.44.76-.92.97-.04.02-.09.04-.13.05-.41-1.37-.17-2.37.2-3.37.5-1.36,1.25-2.72,2.1-4.37.29-.25.58-.52.89-.8-.56,3.87-.22,6.23-.81,8.07-.3.95-.86,1.75-1.67,2.11-.17-.3-.31-.59-.43-.86.37-.06.72-.19,1.01-.51.4-.44.7-1.24.7-1.74,0-.5-.31-.69-.5-.56ZM15.9,8.72c.1-.26.1-.66-.01-.87s-.33-.24-.51-.09-.32.47-.32.74.16.5.34.55.39-.07.49-.33Z"/>
    <path class="cls-6" d="M14.81,5.12c-1.81,2.35-2.85,3.46-3.29,4.53-.44,1.07-.28,2.11.44,3.75-.1-.04-.2-.09-.3-.15-2.37-1.24-2.12-3.14-1-4.61.88-1.15,2.3-2.03,4.15-3.52Z"/>
    <path class="cls-12" d="M15.13,9.89c-.19.14-.28.6-.45,1.01-.17.41-.44.76-.92.97-.48.21-1.16.28-1.51.39-.34.11-.34.27-.07.37.27.1.8.13,1.32.1s1.02-.11,1.42-.55c.4-.44.7-1.24.7-1.74,0-.5-.31-.69-.5-.56Z"/>
    <path class="cls-9" d="M15.9,8.72c.1-.26.1-.66-.01-.87s-.33-.24-.51-.09-.32.47-.32.74.16.5.34.55.39-.07.49-.33Z"/>
    <path class="cls-7" d="M21.25,12.7c-1.1-.16-1.69-.41-2.11-.99-.42-.58-.66-1.49-1.3-3.21-.03-.28-.08-.58-.13-.9.59.98,1.06,1.82,1.61,2.53.4.52.85.97,1.71,1.2-.06.3-.22.63-.27.83-.05.22.03.27.17.16.14-.11.33-.38.49-.66.04-.08.08-.15.11-.23.18.03.38.04.59.05-.06.42-.32.84-.86,1.21Z"/>
    <path class="cls-15" d="M17.83,8.5c.64,1.72.89,2.63,1.3,3.21.42.58,1.02.83,2.11.99-.05.04-.11.07-.17.11-1.42.84-2.34.09-2.75-.98-.32-.84-.32-1.87-.5-3.33Z"/>
    <path class="cls-11" d="M20.44,9.89c0,.15.23.34.39.57.16.23.26.48.21.8,0,.03,0,.06-.02.09-.85-.23-1.3-.68-1.71-1.2-.55-.71-1.02-1.55-1.61-2.53-.04-.23-.08-.47-.13-.73,1.85,1.56,3.2,2.15,3.97,3.06.4.47.64,1.02.56,1.56-.21,0-.41-.03-.59-.05.09-.21.13-.44.06-.7-.1-.36-.42-.77-.68-.94-.26-.16-.46-.06-.46.08ZM20.07,9.1c-.1-.14-.31-.27-.46-.28-.15-.01-.23.09-.21.24.02.14.14.32.29.41.14.09.31.08.4,0s.09-.23-.01-.36Z"/>
    <path class="cls-10" d="M20.07,9.1c-.1-.14-.31-.27-.46-.28-.15-.01-.23.09-.21.24.02.14.14.32.29.41.14.09.31.08.4,0s.09-.23-.01-.36Z"/>
    <path class="cls-8" d="M20.44,9.89c0,.15.23.34.39.57.16.23.26.48.21.8s-.23.7-.29.92c-.05.22.03.27.17.16.14-.11.33-.38.49-.66.16-.28.28-.57.17-.93-.1-.36-.42-.77-.68-.94-.26-.16-.46-.06-.46.08Z"/>
    <path class="cls-3" d="M16.82,3.39c-.56,3.87-.22,6.23-.81,8.07-.57,1.76-1.99,3.05-4.36,1.81-2.37-1.24-2.12-3.14-1-4.61,1.17-1.53,3.31-2.6,6.17-5.26Z"/>
    <path class="cls-4" d="M17.57,6.88c1.85,1.56,3.2,2.15,3.97,3.06.74.87.95,2.04-.47,2.88-1.42.84-2.34.09-2.75-.98-.42-1.12-.28-2.58-.75-4.95Z"/>
  </g>
</svg>