<?xml version="1.0" encoding="UTF-8"?>
<svg id="Text" xmlns="http://www.w3.org/2000/svg" xmlns:xlink="http://www.w3.org/1999/xlink" viewBox="0 0 24 24">
  <defs>
    <style>
      .cls-1, .cls-2, .cls-3, .cls-4 {
        stroke-linecap: round;
        stroke-linejoin: round;
      }

      .cls-1, .cls-2, .cls-3, .cls-5 {
        stroke: #333;
      }

      .cls-1, .cls-2, .cls-4 {
        fill: none;
      }

      .cls-1, .cls-3 {
        stroke-width: .75px;
      }

      .cls-2, .cls-4 {
        stroke-width: .5px;
      }

      .cls-3 {
        fill: #333;
      }

      .cls-6 {
        fill: #7f9c63;
      }

      .cls-7 {
        fill: #63813a;
      }

      .cls-4 {
        stroke: #1a1a1a;
      }

      .cls-5 {
        fill: url(#Unbenannter_Verlauf_333);
        stroke-miterlimit: 10;
        stroke-width: .3px;
      }

      .cls-8 {
        fill: url(#Unbenannter_Verlauf_327);
      }

      .cls-9 {
        fill: #1a1a1a;
      }
    </style>
    <radialGradient id="Unbenannter_Verlauf_333" data-name="Unbenannter Verlauf 333" cx="21.46" cy="12.07" fx="21.46" fy="12.07" r="1.05" gradientUnits="userSpaceOnUse">
      <stop offset=".16" stop-color="#fce8b9"/>
      <stop offset="1" stop-color="#f0a3a3" stop-opacity=".9"/>
    </radialGradient>
    <radialGradient id="Unbenannter_Verlauf_327" data-name="Unbenannter Verlauf 327" cx="5.13" cy="13.04" fx="5.13" fy="13.04" r="4.13" gradientUnits="userSpaceOnUse">
      <stop offset=".16" stop-color="#fbd9d4"/>
      <stop offset="1" stop-color="#a6c176" stop-opacity=".9"/>
    </radialGradient>
  </defs>
  <line class="cls-4" x1="12.61" y1="12.07" x2="18.35" y2="12.07"/>
  <polygon class="cls-9" points="18.35 11.17 20.42 12.07 18.35 12.96 18.35 11.17"/>
  <path class="cls-5" d="M22.51,12.07c0-.58-.47-1.05-1.05-1.05s-1.05.47-1.05,1.05.47,1.05,1.05,1.05,1.05-.47,1.05-1.05Z"/>
  <g>
    <polygon class="cls-8" points="1.8 8.25 8.27 9.64 8.47 17.83 2.34 15.93 1.8 8.25"/>
    <polygon class="cls-6" points="8.27 9.64 13.35 7.78 13.25 15.29 8.47 17.83 8.27 9.64"/>
    <polygon class="cls-7" points="1.8 8.25 7.14 6.66 13.35 7.78 8.27 9.64 1.8 8.25"/>
    <line class="cls-2" x1="1.8" y1="8.25" x2="8.27" y2="9.64"/>
    <line class="cls-2" x1="8.47" y1="17.83" x2="8.27" y2="9.64"/>
    <line class="cls-1" x1="13.35" y1="7.78" x2="7.14" y2="6.66"/>
    <line class="cls-2" x1="8.27" y1="9.64" x2="13.35" y2="7.78"/>
    <line class="cls-1" x1="13.25" y1="15.29" x2="13.35" y2="7.78"/>
    <line class="cls-3" x1="8.47" y1="17.83" x2="13.25" y2="15.29"/>
    <line class="cls-1" x1="2.34" y1="15.93" x2="8.47" y2="17.83"/>
    <line class="cls-1" x1="7.14" y1="6.66" x2="1.8" y2="8.25"/>
    <line class="cls-1" x1="2.34" y1="15.93" x2="1.8" y2="8.25"/>
  </g>
</svg>