<?xml version="1.0" encoding="UTF-8"?>
<svg id="Param_Hexagon" data-name="Param Hexagon" xmlns="http://www.w3.org/2000/svg" xmlns:xlink="http://www.w3.org/1999/xlink" viewBox="0 0 24 24">
  <defs>
    <style>
      .cls-1 {
        fill: #978977;
      }

      .cls-2 {
        stroke-width: .75px;
      }

      .cls-2, .cls-3 {
        fill: none;
        stroke: #333;
        stroke-linecap: round;
        stroke-linejoin: round;
      }

      .cls-3 {
        stroke-width: .5px;
      }

      .cls-4 {
        fill: #918675;
      }

      .cls-5 {
        fill: url(#Unbenannter_Verlauf_297);
      }

      .cls-6 {
        fill: url(#Unbenannter_Verlauf_117);
      }

      .cls-7 {
        fill: url(#Unbenannter_Verlauf_21);
      }
    </style>
    <linearGradient id="Unbenannter_Verlauf_117" data-name="Unbenannter Verlauf 117" x1="5.75" y1="18.42" x2="18.45" y2="5.72" gradientUnits="userSpaceOnUse">
      <stop offset="0" stop-color="#f0a3a3" stop-opacity=".6"/>
      <stop offset=".13" stop-color="#f0a3a3" stop-opacity=".47"/>
      <stop offset=".44" stop-color="#f0a3a3" stop-opacity=".21"/>
      <stop offset=".58" stop-color="#f0a3a3" stop-opacity=".1"/>
    </linearGradient>
    <linearGradient id="Unbenannter_Verlauf_21" data-name="Unbenannter Verlauf 21" x1="6.62" y1="13.82" x2="18.02" y2="13.82" gradientUnits="userSpaceOnUse">
      <stop offset=".16" stop-color="#fbd9d4"/>
      <stop offset="1" stop-color="#918675" stop-opacity=".9"/>
    </linearGradient>
    <linearGradient id="Unbenannter_Verlauf_297" data-name="Unbenannter Verlauf 297" x1="2.09" y1="12.07" x2="22.1" y2="12.07" gradientUnits="userSpaceOnUse">
      <stop offset=".18" stop-color="#5e7f68" stop-opacity=".9"/>
      <stop offset=".56" stop-color="#9c8e81" stop-opacity=".77"/>
      <stop offset="1" stop-color="#f0a3a3" stop-opacity=".6"/>
    </linearGradient>
  </defs>
  <path class="cls-6" d="M3.21,13.27c-.3-.51-.38-.99-.29-1.57.09-.6.42-1.05.71-1.54.61-1.05,1.22-2.11,1.83-3.16.3-.53.61-1.05.91-1.58.28-.49.54-.95,1.06-1.27.51-.32,1.02-.36,1.59-.36h5.46c.57,0,1.13-.07,1.71.1.57.17.96.46,1.29.95.32.48.58.99.87,1.49.29.51.58,1.01.88,1.52.58,1.01,1.17,2.03,1.75,3.04.3.51.38.99.29,1.57-.09.6-.42,1.05-.71,1.54-.61,1.05-1.22,2.11-1.83,3.16-.3.53-.61,1.05-.91,1.58-.28.49-.54.95-1.06,1.27-.51.32-1.02.36-1.59.36h-5.46c-.57,0-1.13.07-1.71-.1-.57-.17-.96-.46-1.29-.95-.32-.48-.58-.99-.87-1.49-.29-.51-.58-1.01-.88-1.52-.58-1.01-1.17-2.03-1.75-3.04Z"/>
  <g>
    <g>
      <path class="cls-7" d="M6.62,15.62c.75-2.1,1.57-3.55,2.43-4.49,2.14-.7,2.61-.49,3.44.34.02.02.04.04.06.06.09.09.18.19.28.29.08.08.16.16.24.25.4.4.88.84,1.5,1.24.64.41,1.42.76,2.41.97.34.53.69,1.11,1.04,1.74-2.3,1.33-6.1,1.2-11.4-.39ZM14.97,15.48c.17-.16.17-.43,0-.6-.16-.17-.43-.17-.6,0-.17.16-.17.43,0,.6.16.17.43.17.6,0ZM13.64,14.03c.17-.25.11-.6-.15-.78-.25-.17-.6-.11-.78.15-.17.25-.11.6.15.78.25.17.6.11.78-.15ZM11.51,12.68c.3-.29.31-.77.02-1.07s-.77-.31-1.07-.02c-.3.29-.31.77-.02,1.07s.77.31,1.07.02ZM11.32,15.65c.35-.31.39-.84.08-1.19-.31-.35-.84-.39-1.19-.08-.35.31-.39.84-.08,1.19.31.35.84.39,1.19.08ZM9.29,14.74c.18-.2.16-.5-.03-.68-.2-.18-.5-.16-.68.03-.18.2-.16.5.03.68.2.18.5.16.68-.03Z"/>
      <circle class="cls-4" cx="8.93" cy="14.42" r=".48"/>
      <circle class="cls-4" cx="10.76" cy="15.02" r=".85"/>
      <circle class="cls-4" cx="10.99" cy="12.13" r=".76"/>
      <path class="cls-4" d="M13.64,14.03c-.17.25-.52.32-.78.15-.25-.17-.32-.52-.15-.78.17-.25.52-.32.78-.15.25.17.32.52.15.78Z"/>
      <path class="cls-4" d="M14.97,15.48c-.17.16-.44.16-.6,0-.16-.17-.16-.44,0-.6.17-.16.44-.16.6,0,.16.17.16.44,0,.6Z"/>
      <path class="cls-1" d="M9.05,11.13c.95-1.04,1.95-1.43,2.93-1.33,1.58.16,3.14,1.57,4.99,4.47-2.47-.51-3.66-1.97-4.49-2.8-.83-.83-1.31-1.04-3.44-.34Z"/>
      <path class="cls-2" d="M6.62,15.62c1.59-4.43,3.49-6.01,5.36-5.82,1.87.19,3.71,2.13,6.04,6.21"/>
      <path class="cls-2" d="M15.66,12.39c.74.94,1.52,2.14,2.36,3.62"/>
      <path class="cls-2" d="M6.62,15.62c1.59-4.43,3.49-6.01,5.36-5.82.38.04.76.15,1.14.34"/>
      <path class="cls-2" d="M6.62,15.62c5.3,1.59,9.1,1.73,11.4.39"/>
    </g>
    <g>
      <line class="cls-3" x1="7.21" y1="9.85" x2="7.21" y2="7.02"/>
      <path class="cls-3" d="M8.66,9.85c-.4.4-.8.8-1.2,1.2-.14.14-.36.14-.5,0-.4-.4-.8-.8-1.2-1.2"/>
    </g>
  </g>
  <path class="cls-5" d="M2.52,13.67c-.38-.66-.5-1.28-.4-2.03.09-.68.43-1.22.76-1.79.59-1.02,1.18-2.05,1.77-3.07.3-.51.59-1.02.89-1.54.33-.57.61-1.13,1.15-1.56.6-.48,1.19-.69,1.95-.7.59,0,1.19,0,1.78,0h3.6c1.37,0,2.6-.21,3.75.96.48.49.75,1.09,1.08,1.66.31.54.63,1.08.94,1.62.63,1.08,1.25,2.17,1.88,3.25.38.66.5,1.28.4,2.03-.09.68-.43,1.22-.76,1.79-.59,1.02-1.18,2.05-1.77,3.07-.3.51-.59,1.02-.89,1.54-.33.57-.61,1.13-1.15,1.56-.6.48-1.19.69-1.95.7-.59,0-1.19,0-1.78,0h-3.6c-1.37,0-2.6.21-3.75-.96-.48-.49-.75-1.09-1.08-1.66-.31-.54-.63-1.08-.94-1.62-.63-1.08-1.25-2.17-1.88-3.25ZM3.21,13.27c.58,1.01,1.17,2.03,1.75,3.04.29.51.58,1.01.88,1.52.29.5.54,1.01.87,1.49.33.49.72.78,1.29.95.58.17,1.14.1,1.71.1h5.46c.57,0,1.08-.04,1.59-.36.51-.32.78-.78,1.06-1.27.3-.53.61-1.05.91-1.58.61-1.05,1.22-2.11,1.83-3.16.28-.49.61-.94.71-1.54.09-.58,0-1.06-.29-1.57-.58-1.01-1.17-2.03-1.75-3.04-.29-.51-.58-1.01-.88-1.52-.29-.5-.54-1.01-.87-1.49-.33-.49-.72-.78-1.29-.95-.58-.17-1.14-.1-1.71-.1h-5.46c-.57,0-1.08.04-1.59.36-.51.32-.78.78-1.06,1.27-.3.53-.61,1.05-.91,1.58-.61,1.05-1.22,2.11-1.83,3.16-.28.49-.61.94-.71,1.54-.09.58,0,1.06.29,1.57Z"/>
</svg>