<?xml version="1.0" encoding="UTF-8"?>
<svg id="Lines" xmlns="http://www.w3.org/2000/svg" xmlns:xlink="http://www.w3.org/1999/xlink" viewBox="0 0 24 24">
  <defs>
    <style>
      .cls-1 {
        fill: #596e39;
      }

      .cls-2, .cls-3 {
        stroke-width: .5px;
      }

      .cls-2, .cls-3, .cls-4, .cls-5 {
        stroke: #333;
      }

      .cls-2, .cls-3, .cls-4, .cls-5, .cls-6 {
        fill: none;
        stroke-linecap: round;
      }

      .cls-7 {
        fill: #b2c99d;
      }

      .cls-3, .cls-4, .cls-5, .cls-6 {
        stroke-linejoin: round;
      }

      .cls-4 {
        stroke-width: .3px;
      }

      .cls-8 {
        fill: #75a071;
      }

      .cls-5 {
        stroke-width: .4px;
      }

      .cls-9 {
        fill: #c2ca9a;
      }

      .cls-10 {
        fill: #9bad79;
      }

      .cls-11 {
        fill: #dee6ad;
      }

      .cls-12 {
        fill: #476949;
      }

      .cls-13 {
        fill: #698c62;
      }

      .cls-6 {
        stroke: #1a1a1a;
        stroke-width: .25px;
      }

      .cls-14 {
        fill: #9db699;
      }

      .cls-15 {
        fill: url(#Unbenannter_Verlauf_297);
      }

      .cls-16 {
        fill: url(#Unbenannter_Verlauf_117);
      }

      .cls-17 {
        fill: #333;
      }

      .cls-18 {
        fill: #68934f;
      }
    </style>
    <linearGradient id="Unbenannter_Verlauf_117" data-name="Unbenannter Verlauf 117" x1="19.74" y1="21.7" x2="8.59" y2="2.39" gradientUnits="userSpaceOnUse">
      <stop offset="0" stop-color="#f0a3a3" stop-opacity=".6"/>
      <stop offset=".13" stop-color="#f0a3a3" stop-opacity=".47"/>
      <stop offset=".44" stop-color="#f0a3a3" stop-opacity=".21"/>
      <stop offset=".58" stop-color="#f0a3a3" stop-opacity=".1"/>
    </linearGradient>
    <linearGradient id="Unbenannter_Verlauf_297" data-name="Unbenannter Verlauf 297" x1="20.13" y1="22.39" x2="8.19" y2="1.7" gradientUnits="userSpaceOnUse">
      <stop offset=".18" stop-color="#5e7f68" stop-opacity=".9"/>
      <stop offset=".56" stop-color="#9c8e81" stop-opacity=".77"/>
      <stop offset="1" stop-color="#f0a3a3" stop-opacity=".6"/>
    </linearGradient>
  </defs>
  <path class="cls-16" d="M22.2,18.9c0,.69-.3,1.35-.82,1.8-.58.5-1.17.59-1.88.59h-10.18c-.68,0-1.31.06-1.96-.3-.63-.35-1.07-.97-1.19-1.68-.05-.28-.04-1.71-.04-1.98V5.19c0-.69.3-1.35.82-1.8.58-.5,1.17-.59,1.88-.59h10.18c.68,0,1.31-.06,1.96.3.63.35,1.07.97,1.19,1.68.05.28.04,1.71.04,1.98v12.13Z"/>
  <path class="cls-10" d="M13.94,11.76c.01-.91.18-1.36.43-1.87.32-.66.77-1.42,1.2-2.36.43-.94.86-2.05.93-4.15-1.27,3.23-2.08,4.9-2.44,6.24-.21.78-.27,1.45-.11,2.14Z"/>
  <path class="cls-12" d="M17.33,5.12c.13,1.7.79,2.35,1.24,3,.51.73.76,1.47.84,2.07.08.6-.01,1.05-.16,1.22-.15.17-.36.05-.53,0s-.33-.01-.54.48c-.22.5-.51,1.45-.75,1.96s-.45.57-.74.47c-.29-.1-.66-.37-1-.9-.28-.43-.55-1.03-1.74-1.68.11.49.34,1,.7,1.55.86,1.32,2.49,2.93,3.99,5.65,1.44-6.15,2.54-7.17,2.54-8.16,0-.99-1.12-1.96-2.12-3.14-.63-.75-1.21-1.58-1.72-2.53Z"/>
  <path class="cls-1" d="M14.55,9.53c-.06.12-.12.24-.18.36-.24.51-.41.96-.43,1.87,1.19.64,1.45,1.24,1.74,1.68.35.53.72.79,1,.9.29.1.49.04.74-.47s.53-1.47.75-1.96c.22-.5.37-.53.54-.48s.38.16.53,0c.15-.17.24-.62.16-1.22-.08-.6-.33-1.34-.84-2.07-.45-.66-1.11-1.31-1.24-3-.13-.24-.26-.48-.38-.74-.31,1.25-.1,2.03.12,2.65.25.71.53,1.23.61,1.63.08.39-.04.65-.31.9s-.71.49-.97.77c-.27.28-.37.59-.58.75-.21.16-.53.17-.71-.16-.16-.3-.2-.86-.56-1.4Z"/>
  <path class="cls-8" d="M16.95,4.38c-.16-.32-.31-.66-.45-1.01-.07,2.1-.5,3.22-.93,4.15-.36.77-.72,1.42-1.02,2,.36.54.4,1.1.56,1.4.18.32.5.32.71.16.21-.16.31-.47.58-.75.27-.28.7-.52.97-.77s.39-.51.31-.9c-.08-.39-.35-.91-.61-1.63-.22-.63-.43-1.4-.12-2.65Z"/>
  <path class="cls-11" d="M17.85,20.64c-2.97-4.94-3.65-5.14-4.94-5.13-.94,0-2.2.11-3.5-.02.63.39.97.47,1.32.55.56.12,1.13.21,1.67.31.54.1,1.04.21,1.55.51.5.3,1.01.78,3.9,3.79Z"/>
  <path class="cls-13" d="M17.85,20.64c-2.17-1.65-2.67-1.82-3.4-1.83s-1.69.15-2.23,0c-.68-.18-.68-.84-4.25-3.6,1.24,1.04,2.24,2.59,3,3.43.76.85,1.3,1,2.32,1.21,1.01.21,2.51.49,4.57.78Z"/>
  <path class="cls-14" d="M10.72,16.04c1.3.62,1.45.83,1.53,1,.08.18.07.32.02.51-.05.17-.13.38-.69.84.25.25.41.37.64.43.54.14,1.5-.02,2.23,0s1.23.18,3.4,1.83c-2.89-3-3.4-3.49-3.9-3.79-.5-.3-1.01-.41-1.55-.51-.54-.1-1.11-.19-1.67-.31,0,0,0,0,0,0Z"/>
  <path class="cls-7" d="M7.96,15.22c2.33,1.8,3.14,2.7,3.61,3.17.57-.46.65-.67.69-.84.05-.19.06-.33-.02-.51-.07-.17-.23-.38-1.53-1-.35-.07-.69-.16-1.32-.55-.48-.05-.97-.13-1.44-.27Z"/>
  <path class="cls-6" d="M18.63,18.95c1.44-6.15,2.54-7.17,2.54-8.16,0-.99-1.12-1.96-2.12-3.14-.99-1.18-1.86-2.58-2.55-4.27"/>
  <path class="cls-6" d="M16.5,3.37c-1.27,3.23-2.08,4.9-2.44,6.24-.36,1.34-.28,2.37.58,3.69.86,1.32,2.49,2.93,3.99,5.65"/>
  <path class="cls-6" d="M7.96,15.22c1.24,1.04,2.24,2.59,3,3.43.76.85,1.3,1,2.32,1.21,1.01.21,2.51.49,4.57.78"/>
  <path class="cls-6" d="M17.85,20.64c-2.97-4.94-3.65-5.14-4.94-5.13-1.29,0-3.18.21-4.94-.29"/>
  <path d="M19.18,21.37c-2.21-6.69-2.46-10.79-2.5-14.02l2.5,14.02Z"/>
  <path class="cls-6" d="M18.33,21.29c-3.43-4.1-4.64-4.38-8.68-5.01"/>
  <path class="cls-9" d="M13.94,11.76c.01-.91.18-1.36.43-1.87.32-.66.77-1.42,1.2-2.36.43-.94.86-2.05.93-4.15-1.27,3.23-2.08,4.9-2.44,6.24-.21.78-.27,1.45-.11,2.14Z"/>
  <path class="cls-18" d="M14.55,9.53c-.06.12-.12.24-.18.36-.24.51-.41.96-.43,1.87,1.19.64,1.45,1.24,1.74,1.68.35.53.72.79,1,.9.29.1.49.04.74-.47s.53-1.47.75-1.96c.22-.5.37-.53.54-.48s.38.16.53,0c.15-.17.24-.62.16-1.22-.08-.6-.33-1.34-.84-2.07-.45-.66-1.11-1.31-1.24-3-.13-.24-.26-.48-.38-.74-.31,1.25-.1,2.03.12,2.65.25.71.53,1.23.61,1.63.08.39-.04.65-.31.9s-.71.49-.97.77c-.27.28-.37.59-.58.75-.21.16-.53.17-.71-.16-.16-.3-.2-.86-.56-1.4Z"/>
  <path class="cls-7" d="M7.96,15.22c2.33,1.8,3.14,2.7,3.61,3.17.57-.46.65-.67.69-.84.05-.19.06-.33-.02-.51-.07-.17-.23-.38-1.53-1-.35-.07-.69-.16-1.32-.55-.48-.05-.97-.13-1.44-.27Z"/>
  <path class="cls-2" d="M18.63,18.95c1.44-6.15,2.54-7.17,2.54-8.16,0-.99-1.12-1.96-2.12-3.14-.99-1.18-1.86-2.58-2.55-4.27"/>
  <path class="cls-6" d="M16.5,3.37c-1.27,3.23-2.08,4.9-2.44,6.24-.36,1.34-.28,2.37.58,3.69.86,1.32,2.49,2.93,3.99,5.65"/>
  <path class="cls-6" d="M7.96,15.22c1.24,1.04,2.24,2.59,3,3.43.76.85,1.3,1,2.32,1.21,1.01.21,2.51.49,4.57.78"/>
  <path class="cls-6" d="M17.85,20.64c-2.97-4.94-3.65-5.14-4.94-5.13-1.29,0-3.18.21-4.94-.29"/>
  <path d="M19.18,21.37c-2.21-6.69-2.46-10.79-2.5-14.02l2.5,14.02Z"/>
  <path class="cls-6" d="M18.33,21.29c-3.43-4.1-4.64-4.38-8.68-5.01"/>
  <path class="cls-5" d="M16.5,3.37c-1.27,3.23-2.08,4.9-2.44,6.24-.36,1.34-.28,2.37.58,3.69.86,1.32,2.49,2.93,3.99,5.65"/>
  <path class="cls-5" d="M7.96,15.22c1.24,1.04,2.24,2.59,3,3.43.76.85,1.3,1,2.32,1.21,1.01.21,2.51.49,4.57.78"/>
  <path class="cls-4" d="M17.85,20.64c-2.97-4.94-3.65-5.14-4.94-5.13-1.29,0-3.18.21-4.94-.29"/>
  <path d="M19.18,21.37c-2.21-6.69-2.46-10.79-2.5-14.02l2.5,14.02Z"/>
  <path class="cls-6" d="M18.33,21.29c-3.43-4.1-4.64-4.38-8.68-5.01"/>
  <line class="cls-3" x1="6.13" y1="12.05" x2="1.64" y2="12.05"/>
  <path class="cls-3" d="M6.13,9.74c.63.63,1.27,1.27,1.9,1.9.22.22.22.58,0,.8-.63.63-1.27,1.27-1.9,1.9"/>
  <path class="cls-3" d="M8.2,10.23l1.5,1.5c.17.17.17.45,0,.63l-1.5,1.5"/>
  <path class="cls-17" d="M19.18,21.37c-2.21-6.69-2.46-10.79-2.5-14.02l2.5,14.02Z"/>
  <path class="cls-4" d="M18.33,21.29c-3.43-4.1-4.64-4.38-8.68-5.01"/>
  <path class="cls-15" d="M6.13,5.19v3.14s.03.05,0,.05h-.66c-.09,0-.13.04-.13-.09v-2.8c0-.78.11-1.45.57-2.12.47-.68,1.19-1.14,2-1.3.46-.09,1.44-.06,1.9-.06h8.81c.63,0,1.26-.07,1.89.08.8.18,1.49.66,1.95,1.34.44.66.54,1.32.54,2.09v12.38c0,.67.06,1.33-.16,2-.27.82-.85,1.49-1.63,1.87-.68.33-1.35.32-2.06.32h-8.93c-.6,0-1.2.02-1.8,0-.81-.03-1.57-.36-2.14-.93-.6-.6-.93-1.4-.93-2.24,0-.6,0-1.21,0-1.81v-1.36c0-.06.06-.02.09-.02h.69s.01.03.01.04v1.4c0,.59,0,1.19,0,1.78,0,.62.26,1.22.7,1.66.44.44,1.04.69,1.66.69.61,0,1.23,0,1.84,0h7.65c.63,0,1.27.02,1.9,0,.65-.02,1.26-.31,1.7-.8.47-.53.6-1.07.6-1.75V5.55c0-.67-.06-1.25-.5-1.81-.41-.53-1.02-.87-1.69-.92-.31-.03-.62,0-.94,0h-10.49c-1.35,0-2.45,1.01-2.45,2.39Z"/>
</svg>