<?xml version="1.0" encoding="UTF-8"?>
<svg xmlns="http://www.w3.org/2000/svg" xmlns:xlink="http://www.w3.org/1999/xlink" viewBox="0 0 24 24">
  <defs>
    <style>
      .cls-1 {
        fill: url(#Unbenannter_Verlauf_333-4);
      }

      .cls-1, .cls-2, .cls-3, .cls-4, .cls-5, .cls-6, .cls-7 {
        stroke: #333;
      }

      .cls-1, .cls-2, .cls-3, .cls-6 {
        stroke-width: .3px;
      }

      .cls-1, .cls-2, .cls-3, .cls-6, .cls-7 {
        stroke-miterlimit: 10;
      }

      .cls-2 {
        fill: url(#Unbenannter_Verlauf_333-2);
      }

      .cls-3 {
        fill: url(#Unbenannter_Verlauf_333-3);
      }

      .cls-8 {
        fill: #b2c99d;
      }

      .cls-4 {
        stroke-width: .75px;
      }

      .cls-4, .cls-5, .cls-9 {
        fill: none;
        stroke-linecap: round;
        stroke-linejoin: round;
      }

      .cls-5, .cls-9 {
        stroke-width: .5px;
      }

      .cls-10 {
        fill: #75a071;
      }

      .cls-11 {
        fill: #7f9c63;
      }

      .cls-12 {
        fill: #857c6d;
      }

      .cls-13 {
        fill: #dee6ad;
      }

      .cls-14 {
        fill: #476949;
      }

      .cls-9 {
        stroke: #1a1a1a;
      }

      .cls-15 {
        fill: #9db699;
      }

      .cls-6 {
        fill: url(#Unbenannter_Verlauf_333);
      }

      .cls-16 {
        fill: #1a1a1a;
      }

      .cls-7 {
        fill: url(#Unbenannter_Verlauf_32);
        stroke-width: .25px;
      }

      .cls-17 {
        fill: #68934f;
      }
    </style>
    <linearGradient id="Unbenannter_Verlauf_32" data-name="Unbenannter Verlauf 32" x1="-60.2" y1="13.32" x2="-46.55" y2="13.32" gradientTransform="translate(-44.71 5.43) rotate(174.12) scale(1 -1)" gradientUnits="userSpaceOnUse">
      <stop offset="0" stop-color="#918675" stop-opacity=".9"/>
      <stop offset=".84" stop-color="#fbd9d4"/>
    </linearGradient>
    <radialGradient id="Unbenannter_Verlauf_333" data-name="Unbenannter Verlauf 333" cx="21.46" cy="12.07" fx="21.46" fy="12.07" r="1.05" gradientUnits="userSpaceOnUse">
      <stop offset=".16" stop-color="#fce8b9"/>
      <stop offset="1" stop-color="#f0a3a3" stop-opacity=".9"/>
    </radialGradient>
    <radialGradient id="Unbenannter_Verlauf_333-2" data-name="Unbenannter Verlauf 333" cx="20.43" cy="4.91" fx="20.43" fy="4.91" r="1.05" xlink:href="#Unbenannter_Verlauf_333"/>
    <radialGradient id="Unbenannter_Verlauf_333-3" data-name="Unbenannter Verlauf 333" cx="20.43" cy="19.09" fx="20.43" fy="19.09" r="1.05" xlink:href="#Unbenannter_Verlauf_333"/>
    <radialGradient id="Unbenannter_Verlauf_333-4" data-name="Unbenannter Verlauf 333" cx="11.99" cy="12" fx="11.99" fy="12" r="1.05" xlink:href="#Unbenannter_Verlauf_333"/>
  </defs>
  <g id="Text">
    <g>
      <path class="cls-8" d="M7.47,4.76c.31.05.59.05.88.09.4.06.8.19,1.28.63-.01-.25-.06-.41-.13-.56-.18-.4-.53-.67-.95-.84-.42-.17-.93-.23-1.31-.42-.38-.19-.65-.5-1.33-1.86.26,2.24,1.13,3.65,2.62,5.24.23.12.43.21.58.26,0-.25-.05-.49-.11-.71-.09-.3-.23-.58-.41-.79-.18-.21-.4-.34-.71-.58-.28-.23-.64-.55-1.1-1.38.26.43.48.71.69.92Z"/>
      <path class="cls-13" d="M7.29,11.02c-1.17-1.36-2.1-1.68-2.93-1.74-.83-.07-1.56.12-3.42,1.48,1.71-.51,2.14-.27,2.46-.04,0,0,0,0,.01.01,0,0,0,0,0,0,.57-.14,1.38-.26,2.45-.36-.59-.2-1.32-.34-1.95-.32.78-.08,1.74.13,2.32.32.57.19.76.37,1.05.65Z"/>
      <path class="cls-10" d="M3.42,10.72c.32.23.53.44,1.04.6.53.16,1.37.28,3.31.64-.08-.16-.18-.31-.28-.46-.24-.35-.53-.68-1.16-.96-.14-.06-.29-.12-.46-.18-1.07.09-1.88.21-2.45.36Z"/>
      <path class="cls-11" d="M.75,10.81c.07-.02.13-.04.19-.06,1.86-1.35,2.59-1.54,3.42-1.48.83.07,1.76.38,2.93,1.74.17.16.37.36.55.63-.32-1.9-.88-2.52-2.07-2.89-1.2-.37-3.03-.5-5.02,2.05Z"/>
      <path class="cls-4" d="M7.84,11.65c-.32-1.9-.88-2.52-2.07-2.89-1.2-.37-3.03-.5-5.02,2.05"/>
      <path class="cls-5" d="M7.77,11.97c-1.94-.36-2.78-.48-3.31-.64-.53-.16-.73-.38-1.06-.61s-.78-.48-2.65.1"/>
      <path class="cls-14" d="M9.63,5.48c-.48-.44-.88-.57-1.28-.63.36.26.6.74.72,1.43.1.21.15.44.18.68.04.23.06.48.05.79.26-1.2.34-1.85.33-2.27Z"/>
      <path class="cls-17" d="M8.35,4.85c-.29-.04-.57-.04-.88-.09.2.2.39.33.56.46.37.27.69.51.89.8.06.09.11.18.15.27-.12-.69-.36-1.17-.72-1.43Z"/>
      <path class="cls-10" d="M9.74,8.89c-.15.3-.31.67-.5,1.14.69-.65,1.53-1.23,2.51-1.75-.84.48-1.42.95-1.83,1.33-.33.3-.55.54-.73.79,1.39-.48,1.9-.85,2.51-1.35.58-.48,1.26-1.07,1.92-2.07-.95.18-2.24.82-3.88,1.91Z"/>
      <path class="cls-15" d="M13.68,6.88c-1.66.04-2.23.3-2.66.53-.46.24-.78.46-1.28,1.49,1.63-1.09,2.93-1.73,3.88-1.91.02-.03.05-.07.07-.1Z"/>
      <path class="cls-13" d="M8.53,7.04c-1.49-1.59-2.36-3-2.62-5.24-.45,2.24.04,3.17.83,3.94.55.54,1.25,1.01,1.79,1.29Z"/>
      <path class="cls-13" d="M15.9,6.92c-.91-.05-1.63-.06-2.22-.04-.02.04-.05.07-.07.1-.66,1-1.33,1.59-1.92,2.07-.6.49-1.12.86-2.51,1.35,1.36.09,1.8-.13,2.23-.44.43-.32.85-.73,1.26-1.11.4-.37.78-.71,1.11-1.02.32-.31.59-.6,2.12-.91Z"/>
      <path class="cls-5" d="M9.19,10.4c1.36.09,1.8-.13,2.23-.44.43-.32.85-.73,1.26-1.11.4-.37.78-.71,1.11-1.02.32-.31.59-.6,2.12-.91"/>
      <path class="cls-12" d="M8.9,10.36c.23-.85.33-1.58.38-2.13.04-.55.02-.92-.03-1.26-.05-.34-.14-.67-.34-.95s-.52-.53-.89-.8c-.37-.27-.79-.55-1.35-1.57.51.98.9,1.33,1.2,1.58.31.24.53.38.71.58.18.21.33.48.41.79.09.3.12.63.11,1-.01.37-.07.78-.14,1.21-.08.43-.17.89-.28,1.43s-.24,1.16-.5,2.18c-.2-.72-.6-1.11-.9-1.39-.29-.28-.48-.46-1.05-.65-.57-.19-1.54-.4-2.32-.32.81-.02,1.78.21,2.41.5s.92.61,1.16.96c.24.35.43.71.53,1.04.11.33.13.64.18.96s.13.64.3.96c.17.32.45.64.63.89.18.25.28.44.32.65.04.2.04.42-.03.64-.07.22-.2.43-.42.6-.22.17-.52.31-1.11.44-.59.13-1.47.24-2,.35-.53.1-.72.19-1.01.39-.29.2-.7.5-1.27,1.77.57-.86.96-1.34,1.13-1.5-.05.44-.04.79.05,1.06-.01-.78.04-.95.12-1.08.08-.13.17-.22.33-.28.16-.07.37-.12.63-.16.26-.04.57-.07.95-.11.38-.04.83-.08,1.25-.18.41-.1.79-.26,1.28-.69-.19.9-.55,1.44-.8,1.79s-.39.49-.56.59-.38.14-.64.16c-.25.02-.55.01-.86.01-.3,0-.6,0-.91.15.51,0,.77-.01.97,0,.21.01.37.06,1.06-.01-.21.16-.97.52-1.99.88,1.19-.27,1.62-.47,1.96-.67.34-.2.57-.39.78-.61.21-.22.38-.48.62-.81s.52-.73.75-1.87c.19.99.28,1.36.34,1.69.06.33.11.62.11.87,0,.25-.04.47-.12.68-.08.22-.21.44-.31.6-.1.16-.19.25-.35.36-.17.1-.43.21-.77.32-.34.1-.76.19-1.1.23.64,0,1.18-.06,1.89-.43-.29.35-.4.61-.46.85-.06.23-.08.45.13,1.13-.14-.87-.05-1.1.07-1.3.12-.2.27-.39.42-.63.16-.24.33-.54.4-.67.11.62.1,1.29-.01,2,.22-.95.21-1.66.15-2.16.36-.7.29-1.13.2-1.59-.08-.47-.19-.97-.24-1.8.68,1.23.88,1.44,1.03,1.58s.24.21.41.29c.17.08.43.16.66.22s.43.08.6.15c.17.07.32.17.56.51.24.34.59.92,1.01,2.45-.08-.85-.35-1.63-.69-2.47.6.61,1.08.98,1.98,1.08-.73-.23-1.07-.47-1.28-.65s-.32-.33-.45-.48c-.13-.16-.3-.33-.49-.46s-.43-.23-.71-.31c-.28-.08-.62-.14-.89-.23s-.46-.23-.69-.52-.48-.75-.84-1.42c.66.64,1.27.98,1.77,1.19s.9.32,1.27.37c.37.05.7.06,1.09.1.39.04.82.11,1.23.27.41.16.8.41,1.65,1.21-.72-1.07-1.26-1.3-1.94-1.47-.68-.16-1.5-.26-2.15-.37-.64-.12-1.1-.25-1.54-.49s-.85-.59-1.08-.88-.29-.52-.38-.73c-.09-.22-.23-.42-.48-.76-.26-.34-.64-.81-.87-1.31-.22-.5-.28-1.03-.25-1.56.03-.52.15-1.04.34-1.46.19-.42.46-.75.98-1.23.52-.48,1.3-1.11,2.53-1.69-1.46.7-2.64,1.51-3.54,2.44Z"/>
      <path class="cls-4" d="M15.9,6.92c-3.46-.18-4.29.17-4.88.48s-.95.58-1.78,2.62"/>
      <path class="cls-5" d="M9.3,7.75c.41-1.92.38-2.43.2-2.82s-.53-.67-.95-.84c-.42-.17-.93-.23-1.31-.42-.38-.19-.65-.5-1.33-1.86"/>
      <path class="cls-7" d="M8.9,10.36c.23-.85.33-1.58.38-2.13.04-.55.02-.92-.03-1.26-.05-.34-.14-.67-.34-.95s-.52-.53-.89-.8c-.37-.27-.79-.55-1.35-1.57.51.98.9,1.33,1.2,1.58.31.24.53.38.71.58.18.21.33.48.41.79.09.3.12.63.11,1-.01.37-.07.78-.14,1.21-.08.43-.17.89-.28,1.43s-.24,1.16-.5,2.18c-.2-.72-.6-1.11-.9-1.39-.29-.28-.48-.46-1.05-.65-.57-.19-1.54-.4-2.32-.32.81-.02,1.78.21,2.41.5s.92.61,1.16.96c.24.35.43.71.53,1.04.11.33.13.64.18.96s.13.64.3.96c.17.32.45.64.63.89.18.25.28.44.32.65.04.2.04.42-.03.64-.07.22-.2.43-.42.6-.22.17-.52.31-1.11.44-.59.13-1.47.24-2,.35-.53.1-.72.19-1.01.39-.29.2-.7.5-1.27,1.77.57-.86.96-1.34,1.13-1.5-.05.44-.04.79.05,1.06-.01-.78.04-.95.12-1.08.08-.13.17-.22.33-.28.16-.07.37-.12.63-.16.26-.04.57-.07.95-.11.38-.04.83-.08,1.25-.18.41-.1.79-.26,1.28-.69-.19.9-.55,1.44-.8,1.79s-.39.49-.56.59-.38.14-.64.16c-.25.02-.55.01-.86.01-.3,0-.6,0-.91.15.51,0,.77-.01.97,0,.21.01.37.06,1.06-.01-.21.16-.97.52-1.99.88,1.19-.27,1.62-.47,1.96-.67.34-.2.57-.39.78-.61.21-.22.38-.48.62-.81s.52-.73.75-1.87c.19.99.28,1.36.34,1.69.06.33.11.62.11.87,0,.25-.04.47-.12.68-.08.22-.21.44-.31.6-.1.16-.19.25-.35.36-.17.1-.43.21-.77.32-.34.1-.76.19-1.1.23.64,0,1.18-.06,1.89-.43-.29.35-.4.61-.46.85-.06.23-.08.45.13,1.13-.14-.87-.05-1.1.07-1.3.12-.2.27-.39.42-.63.16-.24.33-.54.4-.67.11.62.1,1.29-.01,2,.22-.95.21-1.66.15-2.16.36-.7.29-1.13.2-1.59-.08-.47-.19-.97-.24-1.8.68,1.23.88,1.44,1.03,1.58s.24.21.41.29c.17.08.43.16.66.22s.43.08.6.15c.17.07.32.17.56.51.24.34.59.92,1.01,2.45-.08-.85-.35-1.63-.69-2.47.6.61,1.08.98,1.98,1.08-.73-.23-1.07-.47-1.28-.65s-.32-.33-.45-.48c-.13-.16-.3-.33-.49-.46s-.43-.23-.71-.31c-.28-.08-.62-.14-.89-.23s-.46-.23-.69-.52-.48-.75-.84-1.42c.66.64,1.27.98,1.77,1.19s.9.32,1.27.37c.37.05.7.06,1.09.1.39.04.82.11,1.23.27.41.16.8.41,1.65,1.21-.72-1.07-1.26-1.3-1.94-1.47-.68-.16-1.5-.26-2.15-.37-.64-.12-1.1-.25-1.54-.49s-.85-.59-1.08-.88-.29-.52-.38-.73c-.09-.22-.23-.42-.48-.76-.26-.34-.64-.81-.87-1.31-.22-.5-.28-1.03-.25-1.56.03-.52.15-1.04.34-1.46.19-.42.46-.75.98-1.23.52-.48,1.3-1.11,2.53-1.69-1.46.7-2.64,1.51-3.54,2.44Z"/>
      <path class="cls-4" d="M9.11,7.3c-.52-.18-1.59-.79-2.37-1.55-.78-.77-1.28-1.7-.83-3.94"/>
    </g>
    <line class="cls-9" x1="12.61" y1="12.07" x2="18.35" y2="12.07"/>
    <polygon class="cls-16" points="18.35 11.17 20.42 12.07 18.35 12.96 18.35 11.17"/>
    <path class="cls-6" d="M22.51,12.07c0-.58-.47-1.05-1.05-1.05s-1.05.47-1.05,1.05.47,1.05,1.05,1.05,1.05-.47,1.05-1.05Z"/>
  </g>
  <g id="Design">
    <path class="cls-2" d="M21.48,4.91c0-.58-.47-1.06-1.05-1.06s-1.05.47-1.05,1.06.47,1.06,1.05,1.06,1.05-.47,1.05-1.06Z"/>
    <polygon class="cls-16" points="17.47 6.26 19.64 5.61 18.63 7.64 17.47 6.26"/>
    <line class="cls-9" x1="12.08" y1="12" x2="18.05" y2="6.95"/>
    <path class="cls-3" d="M21.48,19.09c0,.58-.47,1.06-1.05,1.06s-1.05-.47-1.05-1.06.47-1.06,1.05-1.06,1.05.47,1.05,1.06Z"/>
    <polygon class="cls-16" points="17.47 17.74 19.64 18.39 18.63 16.36 17.47 17.74"/>
    <line class="cls-9" x1="12.08" y1="12" x2="18.17" y2="17.15"/>
    <path class="cls-1" d="M13.05,12c0-.58-.47-1.06-1.05-1.06s-1.05.47-1.05,1.06.47,1.06,1.05,1.06,1.05-.47,1.05-1.06Z"/>
  </g>
</svg>