<?xml version="1.0" encoding="UTF-8"?>
<svg id="Lines" xmlns="http://www.w3.org/2000/svg" xmlns:xlink="http://www.w3.org/1999/xlink" viewBox="0 0 24 24">
  <defs>
    <style>
      .cls-1 {
        fill: #596e39;
      }

      .cls-2, .cls-3 {
        stroke-width: .5px;
      }

      .cls-2, .cls-3, .cls-4, .cls-5 {
        stroke: #333;
      }

      .cls-2, .cls-3, .cls-4, .cls-5, .cls-6 {
        fill: none;
        stroke-linecap: round;
      }

      .cls-7 {
        fill: #b2c99d;
      }

      .cls-3, .cls-4, .cls-5, .cls-6 {
        stroke-linejoin: round;
      }

      .cls-4 {
        stroke-width: .3px;
      }

      .cls-8 {
        fill: #75a071;
      }

      .cls-5 {
        stroke-width: .4px;
      }

      .cls-9 {
        fill: #c2ca9a;
      }

      .cls-10 {
        fill: #9bad79;
      }

      .cls-11 {
        fill: #dee6ad;
      }

      .cls-12 {
        fill: #476949;
      }

      .cls-13 {
        fill: #698c62;
      }

      .cls-6 {
        stroke: #1a1a1a;
        stroke-width: .25px;
      }

      .cls-14 {
        fill: #9db699;
      }

      .cls-15 {
        fill: url(#Unbenannter_Verlauf_297);
      }

      .cls-16 {
        fill: url(#Unbenannter_Verlauf_117);
      }

      .cls-17 {
        fill: #333;
      }

      .cls-18 {
        fill: #68934f;
      }
    </style>
    <linearGradient id="Unbenannter_Verlauf_117" data-name="Unbenannter Verlauf 117" x1="-94.22" y1="21.7" x2="-105.36" y2="2.39" gradientTransform="translate(-89.9) rotate(-180) scale(1 -1)" gradientUnits="userSpaceOnUse">
      <stop offset="0" stop-color="#f0a3a3" stop-opacity=".6"/>
      <stop offset=".13" stop-color="#f0a3a3" stop-opacity=".47"/>
      <stop offset=".44" stop-color="#f0a3a3" stop-opacity=".21"/>
      <stop offset=".58" stop-color="#f0a3a3" stop-opacity=".1"/>
    </linearGradient>
    <linearGradient id="Unbenannter_Verlauf_297" data-name="Unbenannter Verlauf 297" x1="-93.82" y1="22.39" x2="-105.76" y2="1.7" gradientTransform="translate(-89.9) rotate(-180) scale(1 -1)" gradientUnits="userSpaceOnUse">
      <stop offset=".18" stop-color="#5e7f68" stop-opacity=".9"/>
      <stop offset=".56" stop-color="#9c8e81" stop-opacity=".77"/>
      <stop offset="1" stop-color="#f0a3a3" stop-opacity=".6"/>
    </linearGradient>
  </defs>
  <path class="cls-16" d="M1.85,18.9c0,.69.3,1.35.82,1.8.58.5,1.17.59,1.88.59h4.06c1.36,0,2.72,0,4.08,0h2.04c.68,0,1.31.06,1.96-.3.63-.35,1.07-.97,1.19-1.68.05-.28.04-1.71.04-1.98v-4.01c0-2.71,0-5.42,0-8.12,0-.69-.3-1.35-.82-1.8-.58-.5-1.17-.59-1.88-.59h-4.06c-1.36,0-2.72,0-4.08,0h-2.04c-.68,0-1.31-.06-1.96.3-.63.35-1.07.97-1.19,1.68-.05.28-.04,1.71-.04,1.98v4.01c0,2.71,0,5.42,0,8.12Z"/>
  <path class="cls-10" d="M10.11,11.76c-.01-.91-.18-1.36-.43-1.87-.32-.66-.77-1.42-1.2-2.36-.43-.94-.86-2.05-.93-4.15,1.27,3.23,2.08,4.9,2.44,6.24.21.78.27,1.45.11,2.14Z"/>
  <path class="cls-12" d="M6.72,5.12c-.13,1.7-.79,2.35-1.24,3-.51.73-.76,1.47-.84,2.07-.08.6.01,1.05.16,1.22.15.17.36.05.53,0s.33-.01.54.48c.22.5.51,1.45.75,1.96s.45.57.74.47c.29-.1.66-.37,1-.9.28-.43.55-1.03,1.74-1.68-.11.49-.34,1-.7,1.55-.86,1.32-2.49,2.93-3.99,5.65-1.44-6.15-2.54-7.17-2.54-8.16,0-.99,1.12-1.96,2.12-3.14.63-.75,1.21-1.58,1.72-2.53Z"/>
  <path class="cls-1" d="M9.5,9.53c.06.12.12.24.18.36.24.51.41.96.43,1.87-1.19.64-1.45,1.24-1.74,1.68-.35.53-.72.79-1,.9-.29.1-.49.04-.74-.47s-.53-1.47-.75-1.96c-.22-.5-.37-.53-.54-.48s-.38.16-.53,0c-.15-.17-.24-.62-.16-1.22.08-.6.33-1.34.84-2.07.45-.66,1.11-1.31,1.24-3,.13-.24.26-.48.38-.74.31,1.25.1,2.03-.12,2.65-.25.71-.53,1.23-.61,1.63-.08.39.04.65.31.9s.71.49.97.77c.27.28.37.59.58.75.21.16.53.17.71-.16.16-.3.2-.86.56-1.4Z"/>
  <path class="cls-8" d="M7.1,4.38c.16-.32.31-.66.45-1.01.07,2.1.5,3.22.93,4.15.36.77.72,1.42,1.02,2-.36.54-.4,1.1-.56,1.4-.18.32-.5.32-.71.16-.21-.16-.31-.47-.58-.75-.27-.28-.7-.52-.97-.77s-.39-.51-.31-.9c.08-.39.35-.91.61-1.63.22-.63.43-1.4.12-2.65Z"/>
  <path class="cls-11" d="M6.2,20.64c2.97-4.94,3.65-5.14,4.94-5.13.94,0,2.2.11,3.5-.02-.63.39-.97.47-1.32.55-.56.12-1.13.21-1.67.31-.54.1-1.04.21-1.55.51-.5.3-1.01.78-3.9,3.79Z"/>
  <path class="cls-13" d="M6.2,20.64c2.17-1.65,2.67-1.82,3.4-1.83s1.69.15,2.23,0c.68-.18.68-.84,4.25-3.6-1.24,1.04-2.24,2.59-3,3.43-.76.85-1.3,1-2.32,1.21-1.01.21-2.51.49-4.57.78Z"/>
  <path class="cls-14" d="M13.33,16.04c-1.3.62-1.45.83-1.53,1-.08.18-.07.32-.02.51.05.17.13.38.69.84-.25.25-.41.37-.64.43-.54.14-1.5-.02-2.23,0s-1.23.18-3.4,1.83c2.89-3,3.4-3.49,3.9-3.79.5-.3,1.01-.41,1.55-.51.54-.1,1.11-.19,1.67-.31,0,0,0,0,0,0Z"/>
  <path class="cls-7" d="M16.09,15.22c-2.33,1.8-3.14,2.7-3.61,3.17-.57-.46-.65-.67-.69-.84-.05-.19-.06-.33.02-.51.07-.17.23-.38,1.53-1,.35-.07.69-.16,1.32-.55.48-.05.97-.13,1.44-.27Z"/>
  <path class="cls-6" d="M5.42,18.95c-1.44-6.15-2.54-7.17-2.54-8.16,0-.99,1.12-1.96,2.12-3.14.99-1.18,1.86-2.58,2.55-4.27"/>
  <path class="cls-6" d="M7.55,3.37c1.27,3.23,2.08,4.9,2.44,6.24.36,1.34.28,2.37-.58,3.69-.86,1.32-2.49,2.93-3.99,5.65"/>
  <path class="cls-6" d="M16.09,15.22c-1.24,1.04-2.24,2.59-3,3.43-.76.85-1.3,1-2.32,1.21-1.01.21-2.51.49-4.57.78"/>
  <path class="cls-6" d="M6.2,20.64c2.97-4.94,3.65-5.14,4.94-5.13,1.29,0,3.18.21,4.94-.29"/>
  <path d="M4.86,21.37c2.21-6.69,2.46-10.79,2.5-14.02l-2.5,14.02Z"/>
  <path class="cls-6" d="M5.72,21.29c3.43-4.1,4.64-4.38,8.68-5.01"/>
  <path class="cls-9" d="M10.11,11.76c-.01-.91-.18-1.36-.43-1.87-.32-.66-.77-1.42-1.2-2.36-.43-.94-.86-2.05-.93-4.15,1.27,3.23,2.08,4.9,2.44,6.24.21.78.27,1.45.11,2.14Z"/>
  <path class="cls-18" d="M9.5,9.53c.06.12.12.24.18.36.24.51.41.96.43,1.87-1.19.64-1.45,1.24-1.74,1.68-.35.53-.72.79-1,.9-.29.1-.49.04-.74-.47s-.53-1.47-.75-1.96c-.22-.5-.37-.53-.54-.48s-.38.16-.53,0c-.15-.17-.24-.62-.16-1.22.08-.6.33-1.34.84-2.07.45-.66,1.11-1.31,1.24-3,.13-.24.26-.48.38-.74.31,1.25.1,2.03-.12,2.65-.25.71-.53,1.23-.61,1.63-.08.39.04.65.31.9s.71.49.97.77c.27.28.37.59.58.75.21.16.53.17.71-.16.16-.3.2-.86.56-1.4Z"/>
  <path class="cls-7" d="M16.09,15.22c-2.33,1.8-3.14,2.7-3.61,3.17-.57-.46-.65-.67-.69-.84-.05-.19-.06-.33.02-.51.07-.17.23-.38,1.53-1,.35-.07.69-.16,1.32-.55.48-.05.97-.13,1.44-.27Z"/>
  <path class="cls-2" d="M5.42,18.95c-1.44-6.15-2.54-7.17-2.54-8.16,0-.99,1.12-1.96,2.12-3.14.99-1.18,1.86-2.58,2.55-4.27"/>
  <path class="cls-6" d="M7.55,3.37c1.27,3.23,2.08,4.9,2.44,6.24.36,1.34.28,2.37-.58,3.69-.86,1.32-2.49,2.93-3.99,5.65"/>
  <path class="cls-6" d="M16.09,15.22c-1.24,1.04-2.24,2.59-3,3.43-.76.85-1.3,1-2.32,1.21-1.01.21-2.51.49-4.57.78"/>
  <path class="cls-6" d="M6.2,20.64c2.97-4.94,3.65-5.14,4.94-5.13,1.29,0,3.18.21,4.94-.29"/>
  <path d="M4.86,21.37c2.21-6.69,2.46-10.79,2.5-14.02l-2.5,14.02Z"/>
  <path class="cls-6" d="M5.72,21.29c3.43-4.1,4.64-4.38,8.68-5.01"/>
  <path class="cls-5" d="M7.55,3.37c1.27,3.23,2.08,4.9,2.44,6.24.36,1.34.28,2.37-.58,3.69-.86,1.32-2.49,2.93-3.99,5.65"/>
  <path class="cls-5" d="M16.09,15.22c-1.24,1.04-2.24,2.59-3,3.43-.76.85-1.3,1-2.32,1.21-1.01.21-2.51.49-4.57.78"/>
  <path class="cls-4" d="M6.2,20.64c2.97-4.94,3.65-5.14,4.94-5.13,1.29,0,3.18.21,4.94-.29"/>
  <path d="M4.86,21.37c2.21-6.69,2.46-10.79,2.5-14.02l-2.5,14.02Z"/>
  <path class="cls-6" d="M5.72,21.29c3.43-4.1,4.64-4.38,8.68-5.01"/>
  <path class="cls-17" d="M4.86,21.37c2.21-6.69,2.46-10.79,2.5-14.02l-2.5,14.02Z"/>
  <path class="cls-4" d="M5.72,21.29c3.43-4.1,4.64-4.38,8.68-5.01"/>
  <path class="cls-15" d="M17.92,5.19v1.7c0,.28,0,.57,0,.85v.59s-.03.05,0,.05h.66c.09,0,.13.04.13-.09v-1.08c0-.58,0-1.15,0-1.73,0-.78-.11-1.45-.57-2.12-.47-.68-1.19-1.14-2-1.3-.46-.09-1.44-.06-1.9-.06h-1.78c-2.34,0-4.69,0-7.03,0-.63,0-1.26-.07-1.89.08-.8.18-1.49.66-1.95,1.34-.44.66-.54,1.32-.54,2.09v1.7c0,2.37,0,4.75,0,7.12v3.56c0,.67-.06,1.33.16,2,.27.82.85,1.49,1.63,1.87.68.33,1.35.32,2.06.32h1.79c1.19,0,2.38,0,3.57,0h3.57c.6,0,1.2.02,1.8,0,.81-.03,1.57-.36,2.14-.93.6-.6.93-1.4.93-2.24,0-.6,0-1.21,0-1.81v-.91c0-.15,0-.3,0-.45,0-.06-.06-.02-.09-.02h-.69s-.01.03-.01.04v.5c0,.3,0,.6,0,.89,0,.59,0,1.19,0,1.78,0,.62-.26,1.22-.7,1.66-.44.44-1.04.69-1.66.69-.61,0-1.23,0-1.84,0h-7.65c-.63,0-1.27.02-1.9,0-.65-.02-1.26-.31-1.7-.8-.47-.53-.6-1.07-.6-1.75v-1.85c0-2.52,0-5.04,0-7.56v-3.78c0-.67.06-1.25.5-1.81.41-.53,1.02-.87,1.69-.92.31-.03.62,0,.94,0h.95c.64,0,1.27,0,1.91,0h3.81c1.27,0,2.54,0,3.81,0,1.35,0,2.45,1.01,2.45,2.39Z"/>
  <line class="cls-3" x1="18.67" y1="12.05" x2="14.17" y2="12.05"/>
  <path class="cls-3" d="M18.67,9.74c.63.63,1.27,1.27,1.9,1.9.22.22.22.58,0,.8-.63.63-1.27,1.27-1.9,1.9"/>
  <path class="cls-3" d="M20.74,10.23l1.5,1.5c.17.17.17.45,0,.63l-1.5,1.5"/>
</svg>