<?xml version="1.0" encoding="UTF-8"?>
<svg xmlns="http://www.w3.org/2000/svg" viewBox="0 0 24 24">
  <defs>
    <style>
      .cls-1 {
        fill: #b2c99d;
      }

      .cls-2 {
        stroke-width: .3px;
      }

      .cls-2, .cls-3 {
        stroke: #333;
      }

      .cls-2, .cls-3, .cls-4 {
        fill: none;
        stroke-linecap: round;
        stroke-linejoin: round;
      }

      .cls-3 {
        stroke-width: .4px;
      }

      .cls-5 {
        fill: #dee6ad;
      }

      .cls-6 {
        fill: #698c62;
      }

      .cls-4 {
        stroke: #1a1a1a;
        stroke-width: .25px;
      }

      .cls-7 {
        fill: #9db699;
      }

      .cls-8 {
        fill: #333;
      }
    </style>
  </defs>
  <g id="Lines">
    <path class="cls-8" d="M20.09,5.15v3.14s-.03.05,0,.05h.66c.09,0,.13.04.13-.09v-2.8c0-.78-.11-1.45-.57-2.12-.47-.68-1.19-1.14-2-1.3-.46-.09-1.44-.06-1.9-.06H7.61c-.63,0-1.26-.07-1.89.08-.8.18-1.49.66-1.95,1.34-.44.66-.54,1.32-.54,2.09v12.38c0,.67-.06,1.33.16,2,.27.82.85,1.49,1.63,1.87.68.33,1.35.32,2.06.32h8.93c.6,0,1.2.02,1.8,0,.81-.03,1.57-.36,2.14-.93.6-.6.93-1.4.93-2.24,0-.6,0-1.21,0-1.81v-8.8c0-.06-.75.09-.79.09-.03,0,0,7.36,0,7.38v1.4c0,.59,0,1.19,0,1.78,0,.62-.26,1.22-.7,1.66-.44.44-1.04.69-1.66.69-.61,0-1.23,0-1.84,0h-7.65c-.63,0-1.27.02-1.9,0-.65-.02-1.26-.31-1.7-.8-.47-.53-.6-1.07-.6-1.75V5.5c0-.67.06-1.25.5-1.81.41-.53,1.02-.87,1.69-.92.31-.03.62,0,.94,0h10.49c1.35,0,2.45,1.01,2.45,2.39Z"/>
  </g>
  <g id="Design">
    <path class="cls-8" d="M11.39,8.75h6.93c.12,0,.2-.14.2-.28s-.08-.28-.2-.28h-6.93c-.12,0-.2.14-.2.28s.08.28.2.28Z"/>
    <path class="cls-5" d="M9.47,9.53c-3.16-1.2-3.33-1.56-3.44-2.27-.08-.52-.12-1.23-.31-1.94.28.31.36.5.43.68.12.3.22.61.33.9.11.29.21.56.43.81.22.25.55.49,2.56,1.82Z"/>
    <path class="cls-6" d="M9.47,9.53c-1.16-1.05-1.3-1.31-1.37-1.72s-.06-.95-.19-1.24c-.16-.36-.55-.3-2.48-2.03.72.59,1.71,1,2.28,1.35.56.35.7.63.91,1.17.21.54.5,1.34.85,2.46Z"/>
    <path class="cls-7" d="M6.15,6c.48.66.61.73.72.75.12.03.19.01.3-.04.09-.04.21-.1.43-.46.17.12.25.19.31.32.13.28.12.83.19,1.24s.21.66,1.37,1.72c-2.01-1.33-2.34-1.57-2.56-1.82-.22-.25-.32-.52-.43-.81-.11-.29-.21-.6-.33-.9,0,0,0,0,0,0Z"/>
    <path class="cls-1" d="M5.43,4.54c1.26,1.13,1.86,1.5,2.17,1.72-.22.36-.34.42-.43.46-.11.05-.19.06-.3.04-.11-.03-.24-.09-.72-.75-.07-.19-.15-.37-.43-.68-.07-.26-.16-.52-.28-.78Z"/>
    <path class="cls-4" d="M5.43,4.54c.72.59,1.71,1,2.28,1.35.56.35.7.63.91,1.17.21.54.5,1.34.85,2.46"/>
    <path class="cls-4" d="M9.47,9.53c-3.16-1.2-3.33-1.56-3.44-2.27-.11-.71-.15-1.78-.59-2.71"/>
    <path class="cls-4" d="M9.89,9.74c-2.7-1.53-2.97-2.18-3.69-4.36"/>
    <path class="cls-1" d="M5.43,4.54c1.26,1.13,1.86,1.5,2.17,1.72-.22.36-.34.42-.43.46-.11.05-.19.06-.3.04-.11-.03-.24-.09-.72-.75-.07-.19-.15-.37-.43-.68-.07-.26-.16-.52-.28-.78Z"/>
    <path class="cls-4" d="M5.43,4.54c.72.59,1.71,1,2.28,1.35.56.35.7.63.91,1.17.21.54.5,1.34.85,2.46"/>
    <path class="cls-4" d="M9.47,9.53c-3.16-1.2-3.33-1.56-3.44-2.27-.11-.71-.15-1.78-.59-2.71"/>
    <path class="cls-4" d="M9.89,9.74c-2.7-1.53-2.97-2.18-3.69-4.36"/>
    <path class="cls-3" d="M5.43,4.54c.72.59,1.71,1,2.28,1.35.56.35.7.63.91,1.17.21.54.5,1.34.85,2.46"/>
    <path class="cls-2" d="M9.47,9.53c-3.16-1.2-3.33-1.56-3.44-2.27-.11-.71-.15-1.78-.59-2.71"/>
    <path class="cls-4" d="M9.89,9.74c-2.7-1.53-2.97-2.18-3.69-4.36"/>
    <path class="cls-2" d="M9.89,9.74c-2.7-1.53-2.97-2.18-3.69-4.36"/>
    <path class="cls-8" d="M11.39,13.01h6.93c.12,0,.2-.14.2-.28s-.08-.28-.2-.28h-6.93c-.12,0-.2.14-.2.28s.08.28.2.28Z"/>
    <path class="cls-5" d="M9.47,13.79c-3.16-1.2-3.33-1.56-3.44-2.27-.08-.52-.12-1.23-.31-1.94.28.31.36.5.43.68.12.3.22.61.33.9.11.29.21.56.43.81.22.25.55.49,2.56,1.82Z"/>
    <path class="cls-6" d="M9.47,13.79c-1.16-1.05-1.3-1.31-1.37-1.72s-.06-.95-.19-1.24c-.16-.36-.55-.3-2.48-2.03.72.59,1.71,1,2.28,1.35.56.35.7.63.91,1.17.21.54.5,1.34.85,2.46Z"/>
    <path class="cls-7" d="M6.15,10.26c.48.66.61.73.72.75.12.03.19.01.3-.04.09-.04.21-.1.43-.46.17.12.25.19.31.32.13.28.12.83.19,1.24s.21.66,1.37,1.72c-2.01-1.33-2.34-1.57-2.56-1.82-.22-.25-.32-.52-.43-.81-.11-.29-.21-.6-.33-.9,0,0,0,0,0,0Z"/>
    <path class="cls-1" d="M5.43,8.8c1.26,1.13,1.86,1.5,2.17,1.72-.22.36-.34.42-.43.46-.11.05-.19.06-.3.04-.11-.03-.24-.09-.72-.75-.07-.19-.15-.37-.43-.68-.07-.26-.16-.52-.28-.78Z"/>
    <path class="cls-4" d="M5.43,8.8c.72.59,1.71,1,2.28,1.35.56.35.7.63.91,1.17.21.54.5,1.34.85,2.46"/>
    <path class="cls-4" d="M9.47,13.79c-3.16-1.2-3.33-1.56-3.44-2.27-.11-.71-.15-1.78-.59-2.71"/>
    <path class="cls-4" d="M9.89,14c-2.7-1.53-2.97-2.18-3.69-4.36"/>
    <path class="cls-1" d="M5.43,8.8c1.26,1.13,1.86,1.5,2.17,1.72-.22.36-.34.42-.43.46-.11.05-.19.06-.3.04-.11-.03-.24-.09-.72-.75-.07-.19-.15-.37-.43-.68-.07-.26-.16-.52-.28-.78Z"/>
    <path class="cls-4" d="M5.43,8.8c.72.59,1.71,1,2.28,1.35.56.35.7.63.91,1.17.21.54.5,1.34.85,2.46"/>
    <path class="cls-4" d="M9.47,13.79c-3.16-1.2-3.33-1.56-3.44-2.27-.11-.71-.15-1.78-.59-2.71"/>
    <path class="cls-4" d="M9.89,14c-2.7-1.53-2.97-2.18-3.69-4.36"/>
    <path class="cls-3" d="M5.43,8.8c.72.59,1.71,1,2.28,1.35.56.35.7.63.91,1.17.21.54.5,1.34.85,2.46"/>
    <path class="cls-2" d="M9.47,13.79c-3.16-1.2-3.33-1.56-3.44-2.27-.11-.71-.15-1.78-.59-2.71"/>
    <path class="cls-4" d="M9.89,14c-2.7-1.53-2.97-2.18-3.69-4.36"/>
    <path class="cls-2" d="M9.89,14c-2.7-1.53-2.97-2.18-3.69-4.36"/>
    <path class="cls-8" d="M11.39,17.27h6.93c.12,0,.2-.14.2-.28s-.08-.28-.2-.28h-6.93c-.12,0-.2.14-.2.28s.08.28.2.28Z"/>
    <path class="cls-5" d="M9.47,18.04c-3.16-1.2-3.33-1.56-3.44-2.27-.08-.52-.12-1.23-.31-1.94.28.31.36.5.43.68.12.3.22.61.33.9.11.29.21.56.43.81.22.25.55.49,2.56,1.82Z"/>
    <path class="cls-6" d="M9.47,18.04c-1.16-1.05-1.3-1.31-1.37-1.72s-.06-.95-.19-1.24c-.16-.36-.55-.3-2.48-2.03.72.59,1.71,1,2.28,1.35.56.35.7.63.91,1.17.21.54.5,1.34.85,2.46Z"/>
    <path class="cls-7" d="M6.15,14.52c.48.66.61.73.72.75.12.03.19.01.3-.04.09-.04.21-.1.43-.46.17.12.25.19.31.32.13.28.12.83.19,1.24s.21.66,1.37,1.72c-2.01-1.33-2.34-1.57-2.56-1.82-.22-.25-.32-.52-.43-.81-.11-.29-.21-.6-.33-.9,0,0,0,0,0,0Z"/>
    <path class="cls-1" d="M5.43,13.06c1.26,1.13,1.86,1.5,2.17,1.72-.22.36-.34.42-.43.46-.11.05-.19.06-.3.04-.11-.03-.24-.09-.72-.75-.07-.19-.15-.37-.43-.68-.07-.26-.16-.52-.28-.78Z"/>
    <path class="cls-4" d="M5.43,13.06c.72.59,1.71,1,2.28,1.35.56.35.7.63.91,1.17.21.54.5,1.34.85,2.46"/>
    <path class="cls-4" d="M9.47,18.04c-3.16-1.2-3.33-1.56-3.44-2.27-.11-.71-.15-1.78-.59-2.71"/>
    <path class="cls-4" d="M9.89,18.26c-2.7-1.53-2.97-2.18-3.69-4.36"/>
    <path class="cls-1" d="M5.43,13.06c1.26,1.13,1.86,1.5,2.17,1.72-.22.36-.34.42-.43.46-.11.05-.19.06-.3.04-.11-.03-.24-.09-.72-.75-.07-.19-.15-.37-.43-.68-.07-.26-.16-.52-.28-.78Z"/>
    <path class="cls-4" d="M5.43,13.06c.72.59,1.71,1,2.28,1.35.56.35.7.63.91,1.17.21.54.5,1.34.85,2.46"/>
    <path class="cls-4" d="M9.47,18.04c-3.16-1.2-3.33-1.56-3.44-2.27-.11-.71-.15-1.78-.59-2.71"/>
    <path class="cls-4" d="M9.89,18.26c-2.7-1.53-2.97-2.18-3.69-4.36"/>
    <path class="cls-3" d="M5.43,13.06c.72.59,1.71,1,2.28,1.35.56.35.7.63.91,1.17.21.54.5,1.34.85,2.46"/>
    <path class="cls-2" d="M9.47,18.04c-3.16-1.2-3.33-1.56-3.44-2.27-.11-.71-.15-1.78-.59-2.71"/>
    <path class="cls-4" d="M9.89,18.26c-2.7-1.53-2.97-2.18-3.69-4.36"/>
    <path class="cls-2" d="M9.89,18.26c-2.7-1.53-2.97-2.18-3.69-4.36"/>
  </g>
</svg>