<?xml version="1.0" encoding="UTF-8"?>
<svg xmlns="http://www.w3.org/2000/svg" xmlns:xlink="http://www.w3.org/1999/xlink" viewBox="0 0 366.07 330.85">
  <defs>
    <style>
      .cls-1 {
        fill: none;
        stroke-width: .1px;
      }

      .cls-1, .cls-2, .cls-3, .cls-4, .cls-5, .cls-6, .cls-7, .cls-8, .cls-9, .cls-10, .cls-11, .cls-12, .cls-13, .cls-14, .cls-15, .cls-16, .cls-17, .cls-18, .cls-19, .cls-20, .cls-21, .cls-22, .cls-23, .cls-24, .cls-25, .cls-26, .cls-27, .cls-28, .cls-29, .cls-30 {
        stroke-miterlimit: 10;
      }

      .cls-1, .cls-2, .cls-15, .cls-27 {
        stroke: #fff;
      }

      .cls-2 {
        fill: #a7c176;
        opacity: .14;
      }

      .cls-2, .cls-15, .cls-27 {
        stroke-width: .5px;
      }

      .cls-3 {
        fill: #9cad7a;
      }

      .cls-3, .cls-4, .cls-5, .cls-6, .cls-7, .cls-8, .cls-9, .cls-10, .cls-11, .cls-12, .cls-13, .cls-14, .cls-16, .cls-17, .cls-18, .cls-19, .cls-20, .cls-21, .cls-22, .cls-23, .cls-24, .cls-25, .cls-26, .cls-28, .cls-29, .cls-30 {
        stroke: #343434;
        stroke-width: .25px;
      }

      .cls-4 {
        fill: #486a4a;
      }

      .cls-5 {
        fill: url(#linear-gradient-6);
      }

      .cls-6 {
        fill: url(#linear-gradient-4);
      }

      .cls-7 {
        fill: url(#linear-gradient-3);
      }

      .cls-8 {
        fill: url(#linear-gradient-2);
      }

      .cls-9 {
        fill: url(#linear-gradient-5);
      }

      .cls-10 {
        fill: #dee6ad;
      }

      .cls-11 {
        fill: url(#Unbenannter_Verlauf_21-2);
      }

      .cls-12 {
        fill: #b3c99e;
      }

      .cls-13 {
        fill: url(#linear-gradient);
      }

      .cls-14 {
        fill: #8fbb88;
      }

      .cls-31 {
        letter-spacing: 0em;
      }

      .cls-32 {
        letter-spacing: 0em;
      }

      .cls-15 {
        fill: #333;
        opacity: .1;
      }

      .cls-16 {
        fill: url(#Unbenannter_Verlauf_297-5);
      }

      .cls-17 {
        fill: url(#Unbenannter_Verlauf_297-2);
      }

      .cls-18 {
        fill: url(#Unbenannter_Verlauf_297-3);
      }

      .cls-19 {
        fill: url(#Unbenannter_Verlauf_297-4);
      }

      .cls-20 {
        fill: url(#Unbenannter_Verlauf_327-3);
      }

      .cls-21 {
        fill: url(#Unbenannter_Verlauf_327-2);
      }

      .cls-22 {
        fill: url(#Unbenannter_Verlauf_327-4);
      }

      .cls-23 {
        fill: url(#Unbenannter_Verlauf_327-6);
      }

      .cls-24 {
        fill: url(#Unbenannter_Verlauf_327-5);
      }

      .cls-25 {
        fill: url(#Unbenannter_Verlauf_327);
      }

      .cls-26 {
        fill: url(#Unbenannter_Verlauf_297);
      }

      .cls-33 {
        fill: #fff;
        font-family: AvenirNext-UltraLight, 'Avenir Next';
        font-size: 16px;
        font-weight: 100;
      }

      .cls-27 {
        fill: #b3b3b3;
        opacity: .17;
      }

      .cls-28 {
        fill: url(#Unbenannter_Verlauf_21);
      }

      .cls-29 {
        fill: #9fb79b;
      }

      .cls-34 {
        letter-spacing: -.06em;
      }

      .cls-35 {
        letter-spacing: -.02em;
      }

      .cls-36 {
        letter-spacing: -.02em;
      }

      .cls-37 {
        letter-spacing: -.04em;
      }

      .cls-38 {
        letter-spacing: 0em;
      }

      .cls-39 {
        letter-spacing: -.01em;
      }

      .cls-30 {
        fill: #6a8c63;
      }
    </style>
    <linearGradient id="linear-gradient" x1="161.61" y1="150.83" x2="173.82" y2="150.83" gradientUnits="userSpaceOnUse">
      <stop offset=".07" stop-color="#ead9b0"/>
      <stop offset="1" stop-color="#b4d9bb"/>
    </linearGradient>
    <linearGradient id="Unbenannter_Verlauf_297" data-name="Unbenannter Verlauf 297" x1="165.7" y1="139.2" x2="184.98" y2="139.2" gradientUnits="userSpaceOnUse">
      <stop offset=".18" stop-color="#5f8069" stop-opacity=".9"/>
      <stop offset=".57" stop-color="#9d8f82" stop-opacity=".77"/>
      <stop offset="1" stop-color="#f0a3a3" stop-opacity=".6"/>
    </linearGradient>
    <linearGradient id="linear-gradient-2" x1="168.82" y1="137.55" x2="184.98" y2="137.55" xlink:href="#linear-gradient"/>
    <radialGradient id="Unbenannter_Verlauf_327" data-name="Unbenannter Verlauf 327" cx="170.56" cy="142.05" fx="170.56" fy="142.05" r="8.79" gradientUnits="userSpaceOnUse">
      <stop offset=".16" stop-color="#fbd9d5"/>
      <stop offset="1" stop-color="#a8c176" stop-opacity=".9"/>
    </radialGradient>
    <radialGradient id="Unbenannter_Verlauf_327-2" data-name="Unbenannter Verlauf 327" cx="165.55" cy="142.48" fx="165.55" fy="142.48" r="7.54" xlink:href="#Unbenannter_Verlauf_327"/>
    <linearGradient id="Unbenannter_Verlauf_297-2" data-name="Unbenannter Verlauf 297" x1="157.4" y1="157.72" x2="170.02" y2="157.72" xlink:href="#Unbenannter_Verlauf_297"/>
    <radialGradient id="Unbenannter_Verlauf_327-3" data-name="Unbenannter Verlauf 327" cx="160.82" cy="149.73" fx="160.82" fy="149.73" r="10.94" xlink:href="#Unbenannter_Verlauf_327"/>
    <linearGradient id="Unbenannter_Verlauf_297-3" data-name="Unbenannter Verlauf 297" x1="169.53" y1="153.98" x2="188.78" y2="153.98" xlink:href="#Unbenannter_Verlauf_297"/>
    <linearGradient id="linear-gradient-3" x1="164.97" y1="158.04" x2="186.8" y2="158.04" xlink:href="#linear-gradient"/>
    <linearGradient id="linear-gradient-4" x1="163.18" y1="160.21" x2="185.1" y2="160.21" xlink:href="#linear-gradient"/>
    <linearGradient id="Unbenannter_Verlauf_297-4" data-name="Unbenannter Verlauf 297" x1="164.11" y1="159.2" x2="185.94" y2="159.2" xlink:href="#Unbenannter_Verlauf_297"/>
    <linearGradient id="linear-gradient-5" x1="160.5" y1="163.31" x2="180.05" y2="163.31" xlink:href="#linear-gradient"/>
    <radialGradient id="Unbenannter_Verlauf_327-4" data-name="Unbenannter Verlauf 327" cx="173.47" cy="161.23" fx="173.47" fy="161.23" r="9.81" xlink:href="#Unbenannter_Verlauf_327"/>
    <linearGradient id="linear-gradient-6" x1="160.5" y1="162.6" x2="183.06" y2="162.6" xlink:href="#linear-gradient"/>
    <linearGradient id="Unbenannter_Verlauf_21" data-name="Unbenannter Verlauf 21" x1="160.5" y1="163.98" x2="176.55" y2="163.98" gradientUnits="userSpaceOnUse">
      <stop offset=".16" stop-color="#fbd9d5"/>
      <stop offset="1" stop-color="#918776" stop-opacity=".9"/>
    </linearGradient>
    <radialGradient id="Unbenannter_Verlauf_327-5" data-name="Unbenannter Verlauf 327" cx="178.12" cy="161.37" fx="178.12" fy="161.37" r="9.56" xlink:href="#Unbenannter_Verlauf_327"/>
    <radialGradient id="Unbenannter_Verlauf_327-6" data-name="Unbenannter Verlauf 327" cx="182.67" cy="161.76" fx="182.67" fy="161.76" r="7.89" xlink:href="#Unbenannter_Verlauf_327"/>
    <linearGradient id="Unbenannter_Verlauf_297-5" data-name="Unbenannter Verlauf 297" x1="181.62" y1="147.98" x2="198.33" y2="147.98" xlink:href="#Unbenannter_Verlauf_297"/>
    <linearGradient id="Unbenannter_Verlauf_21-2" data-name="Unbenannter Verlauf 21" x1="177.19" y1="161.23" x2="191.16" y2="161.23" xlink:href="#Unbenannter_Verlauf_21"/>
  </defs>
  <g id="Diagram">
    <circle class="cls-15" cx="108.47" cy="108" r="99.98"/>
    <circle class="cls-2" cx="255.21" cy="140.64" r="99.98"/>
    <circle class="cls-27" cx="155.18" cy="228.44" r="99.98"/>
    <circle class="cls-1" cx="108.94" cy="107.85" r="99.98"/>
    <circle class="cls-1" cx="254.84" cy="140.53" r="99.98"/>
    <circle class="cls-1" cx="155.42" cy="227.9" r="99.98"/>
    <g>
      <path class="cls-13" d="M165.69,150.31s-.05-.01-.07-.02c-.37-.1-.67-.21-1.09-.28-.42-.07-.95-.1-2.09.05-.27.23-.55.44-.83.61,1.24-.1,1.71.04,2.13.22s.77.39,1.42.64c.64.24,1.58.51,4.87.38.36-.14.7-.29,1.03-.44,1.17-.57,2.06-1.25,2.77-1.77-2.49.93-3.6,1.08-4.62,1.2s-1.95.2-3.51-.6Z"/>
      <path class="cls-29" d="M162.44,150.07c1.14-.15,1.68-.12,2.09-.05.42.07.72.17,1.09.28.02,0,.05.01.07.02.36.09.78.18,1.32.23.58.05,1.29.04,2.49-.15,1.21-.19,2.91-.57,6.8-2.48.21-.18.4-.36.56-.57.31-.4.53-.87.89-1.29.36-.42.86-.8,1.44-1.32.14-.13.29-.27.45-.41-2.41,1.81-4.52,2.72-5.86,3.28s-1.91.78-2.67.96c-.76.17-1.72.3-2.67.37-.95.07-1.89.07-2.77.13-.88.05-1.68.16-2.58.4-.22.23-.44.44-.66.63Z"/>
      <path class="cls-10" d="M163.1,149.44c.9-.24,1.71-.35,2.58-.4.88-.05,1.82-.06,2.77-.13.95-.07,1.91-.2,2.67-.37.76-.17,1.33-.39,2.67-.96s3.45-1.47,5.86-3.28c.46-.45.95-.99,1.38-1.63.22-.33.43-.69.62-1.1-1.33,1.3-2.79,2.1-4.14,2.74-1.36.64-2.61,1.11-3.85,1.49-1.23.37-2.44.64-3.53.84s-2.06.33-2.84.48c-.78.15-1.37.33-1.88.55-.51.22-.93.49-1.49.84-.12.15-.24.29-.36.43-.15.17-.3.34-.45.5Z"/>
      <path class="cls-10" d="M176.31,147.9c-3.9,1.91-5.6,2.29-6.8,2.48-1.21.19-1.92.2-2.49.15-.54-.04-.96-.13-1.32-.23,1.55.8,2.49.72,3.51.6s2.13-.27,4.62-1.2c.06-.05.12-.09.18-.13.73-.54,1.24-.88,1.7-1.2.22-.15.42-.31.61-.47"/>
      <path class="cls-4" d="M182.53,138.93c-2.62,2.81-3.89,3.68-5.06,4.32-1.17.64-2.23,1.06-3.17,1.4-.95.34-1.78.6-2.69.8-.92.2-1.92.34-2.76.52-.84.18-1.52.4-2.2.67-.68.27-1.37.59-2.12,1.07-.12.16-.24.32-.36.48-.08.11-.17.22-.25.32.56-.35.99-.62,1.49-.84.51-.22,1.1-.4,1.88-.55.78-.15,1.75-.28,2.84-.48s2.29-.47,3.53-.84c1.23-.37,2.49-.85,3.85-1.49,1.36-.64,2.81-1.44,4.14-2.74.31-.64.58-1.4.81-2.35.02-.1.05-.2.07-.3"/>
      <path class="cls-26" d="M168.82,142.71c-.64.54-1.39,1.21-2.33,2.08-.25.39-.52.79-.79,1.21.52-.39,1.63-1.03,2.65-1.59,1.03-.56,1.98-1.05,2.87-1.43.9-.38,1.74-.65,2.88-1.05s2.61-.93,4.13-1.69c1.52-.76,3.12-1.74,5.14-4.37.35-.99.85-2.13,1.61-3.48-2.64,3.57-4.06,4.64-5.34,5.46-1.28.82-2.42,1.41-3.55,1.92s-2.23.94-3.3,1.37c-1.07.43-2.1.86-2.83,1.14-.72.28-1.14.42-1.14.42Z"/>
      <path class="cls-3" d="M165.1,146.89c1.22-.79,2.01-1.12,3.08-1.57,1.07-.45,2.44-1,3.72-1.46,1.29-.46,2.5-.82,3.56-1.16,1.06-.35,1.97-.68,2.94-1.21.97-.53,2-1.25,4.51-4.12.12-.46.27-.95.46-1.49-2.02,2.63-3.61,3.61-5.14,4.37-1.52.76-2.98,1.29-4.13,1.69s-1.99.68-2.88,1.05c-.9.38-1.85.86-2.87,1.43-1.03.56-2.13,1.2-2.65,1.59-.14.22-.29.44-.45.67-.05.07-.1.15-.15.22Z"/>
      <path class="cls-29" d="M164.52,147.71c.75-.48,1.44-.8,2.12-1.07.68-.27,1.36-.49,2.2-.67.84-.18,1.85-.32,2.76-.52.92-.2,1.75-.46,2.69-.8.95-.34,2.01-.75,3.17-1.4,1.17-.64,2.44-1.51,5.06-4.32h0c.11-.47.23-.98.38-1.56-2.51,2.87-3.54,3.59-4.51,4.12-.97.53-1.88.87-2.94,1.21-1.06.35-2.27.7-3.56,1.16-1.29.46-2.65,1.02-3.72,1.46-1.07.45-1.86.78-3.08,1.57-.18.27-.38.54-.58.82Z"/>
      <path class="cls-8" d="M171.63,140.55s-.02.02-.03.02c-.9.64-1.68,1.21-2.77,2.13,0,0,.42-.14,1.14-.42.73-.28,1.76-.71,2.83-1.14,1.07-.43,2.17-.86,3.3-1.37s2.27-1.09,3.55-1.92c1.28-.82,2.7-1.89,5.34-5.46-2.79,2.69-4.34,3.77-6.17,4.81-1.83,1.04-3.93,2.04-7.18,3.35Z"/>
      <path class="cls-14" d="M179.5,133.59c-4.23.67-5.9,1.35-7.05,1.9-1.27.61-1.92,1.06-2.59,1.65-.67.59-1.35,1.33-2.05,2.18-.7.85-1.41,1.82-2.04,3.07s-1.16,2.79-1.61,5.78c.93-2,1.44-3.23,2.03-4.34.59-1.11,1.27-2.11,2.12-3.09.86-.98,1.89-1.95,3.04-2.83,1.14-.88,2.39-1.67,3.95-2.39,1.77-.82,3.95-1.54,6.88-2.23-1.05.23-1.89.29-2.68.29Z"/>
      <path class="cls-12" d="M182.18,133.3c-2.93.69-5.1,1.42-6.88,2.23-1.56.72-2.81,1.51-3.95,2.39-1.14.88-2.18,1.85-3.04,2.83-.86.98-1.53,1.97-2.12,3.09-.59,1.11-1.1,2.34-2.03,4.34.12-.16.24-.32.36-.48.2-.27.39-.55.58-.82.05-.07.1-.15.15-.22.15-.23.3-.45.45-.67.28-.42.54-.82.79-1.21.46-.7.89-1.35,1.37-1.96.88-1.14,1.89-2.16,3.23-3.12,1.34-.96,3-1.85,5.22-2.93,2.22-1.08,5.01-2.35,8.67-4.38-1.1.43-2.02.71-2.8.91Z"/>
      <path class="cls-30" d="M166.49,144.79c.94-.88,1.69-1.54,2.33-2.08,1.09-.92,1.87-1.49,2.77-2.13.01,0,.02-.02.03-.02,1.42-1.02,3.14-2.23,5.3-3.37,2.18-1.15,4.81-2.24,8.05-4.78-3.66,2.03-6.45,3.3-8.67,4.38-2.22,1.08-3.88,1.97-5.22,2.93-1.34.96-2.35,1.99-3.23,3.12-.48.62-.91,1.26-1.37,1.96Z"/>
      <path class="cls-12" d="M171.63,140.55c3.25-1.31,5.35-2.31,7.18-3.35,1.83-1.04,3.39-2.12,6.17-4.81-3.25,2.54-5.88,3.63-8.05,4.78-2.16,1.14-3.87,2.35-5.3,3.37Z"/>
      <path class="cls-4" d="M161.61,150.68c.74-2.64.98-4.2,1.38-5.59.4-1.39.96-2.62,1.63-3.75.67-1.13,1.44-2.16,2.39-3.15.95-.99,2.08-1.94,2.97-2.64.89-.71,1.55-1.17,2.53-1.48.65-.21,1.45-.34,3.64-.64-1.12-.07-2.3-.12-3.5-.13-.54,0-1.09,0-1.64.03-1.98,1.02-2.79,1.45-3.54,1.96-1.1.74-2.07,1.64-2.88,2.74-.81,1.1-1.48,2.41-1.97,3.8-.49,1.39-.81,2.86-.92,4.33-.11,1.46,0,2.91-.09,4.54Z"/>
      <path class="cls-25" d="M164.16,148.18c.45-2.98.99-4.53,1.61-5.78s1.34-2.22,2.04-3.07c.7-.85,1.38-1.59,2.05-2.18.67-.59,1.32-1.05,2.59-1.65,1.16-.55,2.82-1.23,7.05-1.9-.39,0-.77-.02-1.16-.04-.71-.04-1.44-.09-2.2-.13-2.19.3-2.99.44-3.64.64-.98.31-1.63.77-2.53,1.48-.89.71-2.02,1.65-2.97,2.64-.95.99-1.72,2.02-2.39,3.15-.67,1.13-1.23,2.36-1.63,3.75-.4,1.39-.64,2.95-1.38,5.59.28-.17.56-.38.83-.61.23-.2.45-.41.66-.63.15-.16.3-.33.45-.5.12-.14.24-.29.36-.43.09-.11.17-.21.25-.32Z"/>
      <path class="cls-21" d="M171.01,133.32c-.72.03-1.43.08-2.11.16-2.52,1.25-3.15,1.62-3.74,2.09-.93.75-1.76,1.73-2.54,2.86-.78,1.13-1.51,2.41-1.96,3.56-.45,1.14-.63,2.14-.55,3.21s.41,2.19.71,3.11c.29.92.54,1.65.58,2.35.02.31,0,.62-.04.98.08-.32.17-.64.25-.96.08-1.62-.02-3.07.09-4.54.11-1.46.43-2.94.92-4.33.49-1.39,1.16-2.7,1.97-3.8.81-1.1,1.77-2,2.88-2.74.75-.5,1.56-.94,3.54-1.96Z"/>
      <path class="cls-17" d="M157.4,164.74c.08.04.18.06.27.05.05,0,.11-.02.16-.05.28-.14.51-.58.87-1.5.36-.92.84-2.31,1.48-4.11.64-1.79,1.43-3.99,1.9-5.25.48-1.26.65-1.58.88-1.74.23-.15.53-.14,1.14.05.61.18,1.54.53,2.81.46.94-.05,2.07-.34,3.11-.74-3.29.13-4.23-.14-4.87-.38-.64-.24-1-.46-1.42-.64s-.89-.32-2.13-.22c-.08.32-.17.64-.25.96-.03.12-.05.24-.08.37-.06.3-.14.63-.23,1.03-.02.07-.04.15-.05.22-.04.15-.08.31-.12.49-.32,1.25-.96,3.5-3.47,10.99Z"/>
      <path class="cls-30" d="M164.56,134.71c-1.72,1.77-2.19,2.29-2.57,2.8-.54.72-.89,1.4-1.27,2.19-.38.78-.79,1.67-1.1,2.63s-.53,2.02-.57,2.97c-.04.94.08,1.77.49,2.79s1.1,2.23,1.5,4.95c.1-.39.17-.73.23-1.03.1-.52.15-.93.12-1.35-.04-.71-.29-1.43-.58-2.35-.29-.92-.63-2.05-.71-3.11s.1-2.06.55-3.21c.45-1.14,1.18-2.42,1.96-3.56.78-1.13,1.61-2.11,2.54-2.86.59-.47,1.21-.85,3.74-2.09-.71.08-1.39.2-2.01.35-.88.22-1.64.51-2.33.88Z"/>
      <path class="cls-20" d="M164.56,134.71c-.62.33-1.17.72-1.69,1.15-1.09.92-2,2.08-2.53,2.8-.52.72-.66,1.01-.98,1.52-.32.51-.83,1.23-1.22,2.1-.39.86-.67,1.87-.73,2.89s.08,2.05.54,3.06c.45,1.01,1.22,1.98,1.64,2.69.42.71.51,1.15.55,1.76.05.61.05,1.38-.24,2.47-.29,1.09-.89,2.49-1.39,3.86-.5,1.37-.91,2.7-1.17,3.63-.25.93-.34,1.44-.23,1.77.05.16.16.27.28.34,2.51-7.49,3.15-9.74,3.47-10.99.05-.18.08-.34.12-.49.02-.08.04-.15.05-.22-.4-2.72-1.09-3.93-1.5-4.95s-.54-1.85-.49-2.79c.04-.94.26-2,.57-2.97s.72-1.85,1.1-2.63c.38-.78.74-1.47,1.27-2.19.38-.51.85-1.03,2.57-2.8Z"/>
      <path class="cls-4" d="M185.53,153.71s.04.03.07.04c.35.22.62.42,1.03.61.4.19.94.38,2.15.58.34-.15.69-.28,1.03-.37-1.29-.28-1.73-.56-2.1-.87s-.67-.63-1.25-1.08c-.58-.44-1.45-.99-4.84-1.86-.4.03-.8.08-1.18.14-1.36.23-2.48.65-3.35.97,2.82-.2,3.99-.02,5.06.17,1.07.19,2.05.38,3.39,1.67Z"/>
      <path class="cls-18" d="M188.78,154.94c-1.21-.19-1.74-.38-2.15-.58-.4-.19-.68-.39-1.03-.61-.02-.01-.04-.03-.07-.04-.34-.2-.74-.42-1.27-.63-.57-.22-1.3-.43-2.58-.6-1.29-.17-3.13-.3-7.67.47-.27.12-.52.25-.74.41-.44.31-.8.72-1.29,1.05-.49.32-1.11.55-1.86.9-.19.09-.38.18-.58.29,3-1.11,5.42-1.4,6.95-1.57,1.53-.17,2.18-.22,3-.17.83.05,1.84.21,2.83.43.99.22,1.95.5,2.86.71.91.21,1.76.35,2.75.37.29-.16.58-.31.87-.44Z"/>
      <path class="cls-10" d="M187.91,155.38c-.99-.02-1.84-.16-2.75-.37-.91-.21-1.87-.49-2.86-.71-.99-.22-2-.37-2.83-.43-.83-.05-1.47,0-3,.17-1.53.17-3.95.46-6.95,1.57-.61.32-1.26.72-1.9,1.24-.33.27-.64.57-.96.93,1.75-.92,3.47-1.3,5.04-1.54,1.57-.24,3-.34,4.36-.35,1.37,0,2.67.09,3.84.21,1.17.13,2.19.29,3.03.37.84.08,1.5.08,2.08.01.58-.07,1.1-.21,1.77-.4.16-.11.33-.22.5-.33.2-.13.4-.25.61-.37Z"/>
      <path class="cls-10" d="M174.01,152.95c4.54-.77,6.39-.64,7.67-.47,1.29.17,2.01.38,2.58.6.54.21.94.42,1.27.63-1.34-1.28-2.31-1.48-3.39-1.67-1.07-.19-2.25-.37-5.06-.17-.08.03-.15.06-.22.08-.9.33-1.53.52-2.09.71-.27.09-.52.19-.76.29"/>
      <path class="cls-7" d="M164.97,160.2c3.51-2.06,5.07-2.57,6.45-2.87s2.59-.4,3.65-.46c1.06-.06,1.99-.08,2.98,0,.99.07,2.06.24,2.97.31s1.67.05,2.45-.02c.78-.07,1.57-.19,2.48-.44.17-.13.34-.25.51-.38.12-.08.24-.17.35-.25-.68.19-1.19.33-1.77.4-.58.07-1.24.07-2.08-.01-.84-.08-1.87-.25-3.03-.37-1.17-.13-2.48-.22-3.84-.21-1.37,0-2.79.11-4.36.35-1.57.24-3.3.62-5.04,1.54-.5.56-1.01,1.25-1.54,2.14-.06.09-.11.19-.17.29"/>
      <path class="cls-4" d="M180.05,160.5c.82-.36,1.78-.81,3-1.42.38-.32.76-.65,1.17-.99-.65.24-1.96.55-3.18.82-1.21.26-2.33.47-3.35.58-1.03.12-1.96.14-3.25.2-1.29.06-2.93.16-4.71.47-1.78.31-3.7.83-6.55,2.89-.65.9-1.51,1.91-2.69,3.05,3.77-2.84,5.53-3.49,7.08-3.95,1.55-.45,2.89-.7,4.19-.88s2.55-.28,3.77-.4c1.22-.12,2.4-.24,3.23-.31.81-.07,1.28-.09,1.29-.08Z"/>
      <path class="cls-6" d="M185.1,157.37c-1.48.43-2.38.53-3.61.66-1.23.13-2.78.28-4.23.36s-2.79.07-3.97.11c-1.18.03-2.21.1-3.36.35-1.15.25-2.41.67-5.83,2.83-.26.43-.56.89-.92,1.38,2.85-2.06,4.77-2.58,6.55-2.89,1.78-.31,3.42-.41,4.71-.47,1.29-.06,2.23-.09,3.25-.2,1.03-.12,2.14-.32,3.35-.58,1.21-.26,2.53-.58,3.18-.82.21-.18.43-.36.66-.54.07-.06.14-.12.22-.18Z"/>
      <path class="cls-19" d="M185.94,156.71c-.91.26-1.7.38-2.48.44-.78.07-1.54.09-2.45.02s-1.97-.23-2.97-.31c-.99-.07-1.92-.06-2.98,0-1.06.06-2.27.16-3.65.46s-2.94.8-6.45,2.87h0c-.26.44-.53.93-.86,1.48,3.42-2.16,4.69-2.58,5.83-2.83,1.15-.25,2.17-.31,3.36-.35,1.18-.03,2.52-.03,3.97-.11s3-.23,4.23-.36c1.23-.13,2.12-.23,3.61-.66.27-.22.55-.44.83-.66Z"/>
      <path class="cls-9" d="M176.55,161.85s.03,0,.04-.01c1.11-.38,2.08-.73,3.47-1.33,0,0-.47.01-1.29.08-.83.07-2.01.19-3.23.31-1.22.12-2.47.22-3.77.4s-2.64.43-4.19.88c-1.55.45-3.32,1.11-7.08,3.95,3.65-1.9,5.56-2.52,7.73-3.02,2.17-.5,4.61-.88,8.32-1.24Z"/>
      <path class="cls-10" d="M166.43,166.55c4.5.59,6.41.41,7.75.19,1.48-.23,2.27-.5,3.13-.9.86-.4,1.78-.95,2.75-1.6.97-.66,1.99-1.42,3-2.51,1.01-1.09,2.03-2.49,3.39-5.39-1.55,1.75-2.44,2.85-3.38,3.81-.94.95-1.92,1.76-3.09,2.5s-2.51,1.41-3.94,1.96c-1.43.55-2.94.98-4.74,1.24-2.05.3-4.48.38-7.67.2,1.14.09,2.01.27,2.81.51Z"/>
      <path class="cls-22" d="M163.62,166.03c3.19.18,5.62.1,7.67-.2,1.8-.26,3.31-.69,4.74-1.24,1.43-.55,2.78-1.22,3.94-1.96s2.15-1.55,3.09-2.5c.94-.95,1.83-2.05,3.38-3.81-.17.12-.34.25-.51.38-.29.22-.57.44-.83.66-.07.06-.15.12-.22.18-.23.19-.44.37-.66.54-.41.34-.8.67-1.17.99-.68.57-1.32,1.1-1.99,1.58-1.24.89-2.58,1.63-4.23,2.2-1.65.57-3.61.98-6.2,1.41-2.59.43-5.81.88-10.14,1.84,1.25-.1,2.27-.12,3.13-.08Z"/>
      <path class="cls-5" d="M183.06,159.08c-1.22.61-2.19,1.06-3,1.42-1.39.61-2.36.95-3.47,1.33-.01,0-.03,0-.04.01-1.76.61-3.87,1.32-6.41,1.83-2.56.52-5.57.83-9.64,2.43,4.34-.96,7.56-1.41,10.14-1.84,2.59-.43,4.54-.83,6.2-1.41,1.65-.57,3-1.31,4.23-2.2.67-.48,1.31-1.01,1.99-1.58Z"/>
      <path class="cls-28" d="M176.55,161.85c-3.7.36-6.14.74-8.32,1.24-2.17.5-4.09,1.13-7.73,3.02,4.07-1.61,7.08-1.92,9.64-2.43,2.54-.51,4.65-1.22,6.41-1.83Z"/>
      <path class="cls-29" d="M189.8,154.57c-1.55,2.46-2.26,3.97-3.09,5.27-.83,1.3-1.77,2.37-2.79,3.32-1.02.95-2.12,1.77-3.38,2.49-1.27.72-2.7,1.34-3.82,1.79-1.12.45-1.93.72-3.02.74-.73.01-1.58-.09-3.9-.44,1.12.41,2.3.82,3.52,1.19.55.17,1.11.32,1.67.47,2.32-.44,3.28-.64,4.19-.92,1.35-.42,2.6-1.05,3.76-1.92,1.16-.88,2.23-2,3.15-3.27s1.69-2.67,2.25-4.12c.55-1.46.89-2.96,1.46-4.59Z"/>
      <path class="cls-24" d="M186.45,156.33c-1.36,2.9-2.37,4.31-3.39,5.39-1.01,1.09-2.03,1.85-3,2.51-.97.66-1.89,1.2-2.75,1.6-.86.4-1.65.67-3.13.9-1.34.21-3.25.4-7.75-.19.4.12.78.25,1.17.39.71.25,1.44.52,2.2.8,2.32.35,3.17.46,3.9.44,1.09-.02,1.9-.29,3.02-.74,1.12-.45,2.56-1.07,3.82-1.79,1.27-.72,2.36-1.54,3.38-2.49,1.02-.95,1.96-2.03,2.79-3.32.83-1.3,1.54-2.81,3.09-5.27-.34.09-.69.22-1.03.37-.29.13-.58.28-.87.44-.2.12-.41.24-.61.37-.17.11-.33.22-.5.33-.12.08-.24.17-.35.25Z"/>
      <path class="cls-23" d="M174.99,169.39c.74.19,1.48.35,2.2.47,2.94-.5,3.7-.7,4.43-1,1.17-.48,2.31-1.23,3.45-2.14s2.26-2,3.07-3.02c.81-1.02,1.29-1.99,1.53-3.1.24-1.11.24-2.35.22-3.38-.02-1.03-.05-1.84.12-2.57.07-.33.19-.63.34-.98-.18.3-.36.6-.54.9-.57,1.63-.91,3.13-1.46,4.59-.55,1.46-1.33,2.86-2.25,4.12s-1.99,2.39-3.15,3.27c-1.16.88-2.41,1.5-3.76,1.92-.91.29-1.87.48-4.19.92Z"/>
      <path class="cls-16" d="M198.33,141.54c-.07-.07-.16-.11-.26-.13-.06,0-.11,0-.17,0-.32.06-.69.44-1.33,1.26-.64.82-1.56,2.1-2.75,3.73-1.19,1.63-2.65,3.63-3.52,4.76-.87,1.14-1.14,1.42-1.42,1.5-.28.09-.58-.02-1.15-.39-.57-.37-1.41-1.01-2.71-1.32-.97-.23-2.21-.28-3.39-.19,3.39.87,4.26,1.42,4.84,1.86.58.44.88.77,1.25,1.08s.81.59,2.1.87c.18-.3.36-.6.54-.9.07-.11.12-.23.19-.35.15-.29.33-.6.55-.97.04-.07.08-.14.12-.21.08-.14.17-.29.27-.46.7-1.17,2.04-3.27,6.85-10.13Z"/>
      <path class="cls-11" d="M181.97,169.92c2.29-1.28,2.92-1.67,3.46-2.07.76-.57,1.33-1.16,1.96-1.84.62-.68,1.3-1.46,1.91-2.35s1.15-1.9,1.48-2.84c.33-.94.45-1.82.34-2.98s-.45-2.6-.03-5.49c-.22.37-.4.69-.55.97-.26.49-.43.9-.53,1.33-.17.73-.14,1.54-.12,2.57.02,1.03.02,2.28-.22,3.38-.24,1.11-.72,2.07-1.53,3.1-.81,1.02-1.93,2.11-3.07,3.02s-2.28,1.67-3.45,2.14c-.74.3-1.49.5-4.43,1,.75.13,1.47.22,2.15.25.96.04,1.82-.03,2.63-.19Z"/>
      <path class="cls-4" d="M181.97,169.92c.73-.15,1.41-.37,2.07-.66,1.39-.61,2.67-1.51,3.42-2.09.75-.58.97-.83,1.45-1.25.48-.42,1.22-1,1.88-1.77.66-.76,1.24-1.7,1.62-2.72s.53-2.11.38-3.27c-.16-1.16-.64-2.38-.85-3.23-.22-.85-.17-1.32-.03-1.95.14-.63.36-1.42.99-2.44.63-1.02,1.66-2.26,2.58-3.5.93-1.24,1.75-2.47,2.28-3.34.53-.87.78-1.36.77-1.73,0-.18-.08-.33-.18-.43-4.82,6.86-6.15,8.96-6.85,10.13-.1.17-.19.32-.27.46-.04.07-.08.14-.12.21-.42,2.89-.08,4.33.03,5.49s0,2.04-.34,2.98c-.33.94-.87,1.95-1.48,2.84s-1.29,1.67-1.91,2.35c-.62.68-1.19,1.27-1.96,1.84-.54.4-1.18.79-3.46,2.07Z"/>
    </g>
  </g>
  <g id="Text">
    <text class="cls-33" transform="translate(53.19 110.49)"><tspan x="0" y="0">ARCHITE</tspan><tspan class="cls-38" x="65.28" y="0">C</tspan><tspan x="76.77" y="0">TS</tspan></text>
    <text class="cls-33" transform="translate(219.04 145.93)"><tspan x="0" y="0">E</tspan><tspan class="cls-39" x="9.44" y="0">C</tspan><tspan x="20.83" y="0">O</tspan><tspan class="cls-37" x="34.78" y="0">L</tspan><tspan class="cls-31" x="42.08" y="0">OGI</tspan><tspan class="cls-36" x="72.5" y="0">S</tspan><tspan class="cls-32" x="81.36" y="0">TS</tspan></text>
    <text class="cls-33" transform="translate(79.74 252.68)"><tspan class="cls-39" x="0" y="0">C</tspan><tspan class="cls-31" x="11.39" y="0">OMPU</tspan><tspan class="cls-34" x="60.7" y="0">TA</tspan><tspan x="78.08" y="0">TIONA</tspan><tspan class="cls-35" x="127.5" y="0">L</tspan><tspan x="135.09" y="0"> </tspan><tspan x="25.62" y="26">DESIGNERS</tspan></text>
  </g>
</svg>