<?xml version="1.0" encoding="UTF-8"?>
<svg id="Lines" xmlns="http://www.w3.org/2000/svg" viewBox="0 0 64 64">
  <defs>
    <style>
      .cls-1 {
        fill: #596e39;
      }

      .cls-2 {
        stroke-width: .5px;
      }

      .cls-2, .cls-3, .cls-4 {
        stroke: #333;
      }

      .cls-2, .cls-3, .cls-4, .cls-5 {
        fill: none;
        stroke-linecap: round;
      }

      .cls-6 {
        fill: #b2c99d;
      }

      .cls-3 {
        stroke-width: .3px;
      }

      .cls-3, .cls-4, .cls-5 {
        stroke-linejoin: round;
      }

      .cls-7 {
        fill: #75a071;
      }

      .cls-4 {
        stroke-width: .4px;
      }

      .cls-8 {
        fill: #c2ca9a;
      }

      .cls-9 {
        fill: #9bad79;
      }

      .cls-10 {
        fill: #dee6ad;
      }

      .cls-11 {
        fill: #476949;
      }

      .cls-12 {
        fill: #698c62;
      }

      .cls-5 {
        stroke: #1a1a1a;
        stroke-width: .25px;
      }

      .cls-13 {
        fill: #9db699;
      }

      .cls-14 {
        fill: #333;
      }

      .cls-15 {
        fill: #68934f;
      }
    </style>
  </defs>
  <path class="cls-9" d="M38.51,31.1c.17-3.07-.3-4.62-1.02-6.39-.93-2.3-2.26-4.97-3.51-8.22-1.25-3.26-2.42-7.1-2.2-14.2,3.54,11.18,5.9,16.97,6.82,21.58.53,2.68.58,4.96-.1,7.23Z"/>
  <path class="cls-11" d="M28.62,7.98c-.83,5.69-3.19,7.73-4.87,9.84-1.87,2.35-2.88,4.79-3.28,6.77-.4,1.99-.2,3.54.27,4.13.46.59,1.19.23,1.79.12s1.1.04,1.73,1.75c.62,1.72,1.37,5.01,2.08,6.78.71,1.77,1.38,2.03,2.37,1.75.99-.28,2.3-1.09,3.58-2.79,1.05-1.39,2.07-3.36,6.22-5.25-.49,1.64-1.36,3.28-2.7,5.06-3.19,4.25-9.06,9.32-14.7,18.12-3.46-21.03-6.95-24.71-6.71-28.06.24-3.35,4.23-6.35,7.84-10.11,2.29-2.38,4.43-5.06,6.38-8.12Z"/>
  <path class="cls-1" d="M36.97,23.45c.19.43.37.85.53,1.26.71,1.76,1.18,3.31,1.02,6.39-4.15,1.89-5.18,3.86-6.22,5.25-1.28,1.7-2.59,2.51-3.58,2.79-.99.28-1.66.02-2.37-1.75-.71-1.77-1.46-5.06-2.08-6.78-.62-1.72-1.12-1.86-1.73-1.75s-1.33.47-1.79-.12c-.46-.59-.67-2.14-.27-4.13.4-1.99,1.41-4.42,3.28-6.77,1.67-2.11,4.04-4.15,4.87-9.84.49-.77.97-1.57,1.44-2.39.76,4.3-.12,6.85-1.01,8.91-1.02,2.34-2.06,4.04-2.41,5.34-.36,1.3-.02,2.2.84,3.11s2.26,1.81,3.1,2.81c.84.99,1.11,2.07,1.79,2.66.67.59,1.75.68,2.41-.38.61-.96.88-2.86,2.19-4.59Z"/>
  <path class="cls-7" d="M30.06,5.59c.6-1.06,1.18-2.16,1.73-3.3-.22,7.1.94,10.95,2.2,14.2,1.03,2.68,2.11,4.96,2.98,6.96-1.32,1.72-1.59,3.63-2.19,4.59-.67,1.05-1.74.96-2.41.38-.67-.59-.95-1.67-1.79-2.66-.84-.99-2.24-1.9-3.1-2.81s-1.2-1.81-.84-3.11c.36-1.3,1.4-3,2.41-5.34.89-2.06,1.77-4.62,1.01-8.91Z"/>
  <path class="cls-10" d="M20.68,59.97c11.11-15.98,13.46-16.48,17.8-16.17,3.16.23,7.39.88,11.79.71-2.21,1.16-3.39,1.37-4.58,1.54-1.91.28-3.86.46-5.69.68-1.83.22-3.56.47-5.32,1.36-1.77.89-3.57,2.41-14,11.87Z"/>
  <path class="cls-12" d="M20.68,59.97c7.69-5.07,9.4-5.54,11.86-5.4,2.46.14,5.67.89,7.51.53,2.32-.45,2.46-2.67,15.14-11.16-4.42,3.24-8.11,8.21-10.88,10.89-2.77,2.68-4.61,3.06-8.07,3.54-3.46.48-8.55,1.07-15.56,1.6Z"/>
  <path class="cls-13" d="M45.71,46.06c-4.52,1.81-5.07,2.48-5.36,3.03-.32.6-.32,1.05-.18,1.72.12.57.34,1.3,2.14,2.98-.91.78-1.45,1.15-2.26,1.31-1.84.36-5.05-.39-7.51-.53-2.46-.14-4.17.33-11.86,5.4,10.42-9.46,12.23-10.99,14-11.87,1.77-.89,3.49-1.14,5.32-1.36,1.83-.22,3.78-.4,5.69-.68,0,0,.01,0,.02,0Z"/>
  <path class="cls-6" d="M55.19,43.94c-8.25,5.53-11.19,8.39-12.88,9.85-1.8-1.67-2.02-2.4-2.14-2.98-.14-.67-.14-1.12.18-1.72.29-.55.85-1.22,5.36-3.03,1.18-.17,2.36-.38,4.56-1.54,1.63-.06,3.29-.23,4.92-.58Z"/>
  <path class="cls-5" d="M21.12,54.27c-3.46-21.03-6.95-24.71-6.71-28.06.24-3.35,4.23-6.35,7.84-10.11,3.61-3.76,6.85-8.26,9.55-13.82"/>
  <path class="cls-5" d="M31.79,2.29c3.54,11.18,5.9,16.97,6.82,21.58.92,4.61.4,8.04-2.8,12.29-3.19,4.25-9.06,9.32-14.7,18.12"/>
  <path class="cls-5" d="M55.19,43.94c-4.42,3.24-8.11,8.21-10.88,10.89-2.77,2.68-4.61,3.06-8.07,3.54-3.46.48-8.55,1.07-15.56,1.6"/>
  <path class="cls-5" d="M20.68,59.97c11.11-15.98,13.46-16.48,17.8-16.17,4.34.31,10.67,1.42,16.71.13"/>
  <path d="M18.7,62.3c8.95-22.05,10.72-35.8,11.59-46.66l-11.59,46.66Z"/>
  <path class="cls-5" d="M18.9,62.03c12.49-13.03,16.62-13.7,30.38-14.92"/>
  <path class="cls-8" d="M38.51,31.1c.17-3.07-.3-4.62-1.02-6.39-.93-2.3-2.26-4.97-3.51-8.22-1.25-3.26-2.42-7.1-2.2-14.2,3.54,11.18,5.9,16.97,6.82,21.58.53,2.68.58,4.96-.1,7.23Z"/>
  <path class="cls-15" d="M36.97,23.45c.19.43.37.85.53,1.26.71,1.76,1.18,3.31,1.02,6.39-4.15,1.89-5.18,3.86-6.22,5.25-1.28,1.7-2.59,2.51-3.58,2.79-.99.28-1.66.02-2.37-1.75-.71-1.77-1.46-5.06-2.08-6.78-.62-1.72-1.12-1.86-1.73-1.75s-1.33.47-1.79-.12c-.46-.59-.67-2.14-.27-4.13.4-1.99,1.41-4.42,3.28-6.77,1.67-2.11,4.04-4.15,4.87-9.84.49-.77.97-1.57,1.44-2.39.76,4.3-.12,6.85-1.01,8.91-1.02,2.34-2.06,4.04-2.41,5.34-.36,1.3-.02,2.2.84,3.11s2.26,1.81,3.1,2.81c.84.99,1.11,2.07,1.79,2.66.67.59,1.75.68,2.41-.38.61-.96.88-2.86,2.19-4.59Z"/>
  <path class="cls-6" d="M55.19,43.94c-8.25,5.53-11.19,8.39-12.88,9.85-1.8-1.67-2.02-2.4-2.14-2.98-.14-.67-.14-1.12.18-1.72.29-.55.85-1.22,5.36-3.03,1.18-.17,2.36-.38,4.56-1.54,1.63-.06,3.29-.23,4.92-.58Z"/>
  <path class="cls-2" d="M21.12,54.27c-3.46-21.03-6.95-24.71-6.71-28.06.24-3.35,4.23-6.35,7.84-10.11,3.61-3.76,6.85-8.26,9.55-13.82"/>
  <path class="cls-5" d="M31.79,2.29c3.54,11.18,5.9,16.97,6.82,21.58.92,4.61.4,8.04-2.8,12.29-3.19,4.25-9.06,9.32-14.7,18.12"/>
  <path class="cls-5" d="M55.19,43.94c-4.42,3.24-8.11,8.21-10.88,10.89-2.77,2.68-4.61,3.06-8.07,3.54-3.46.48-8.55,1.07-15.56,1.6"/>
  <path class="cls-5" d="M20.68,59.97c11.11-15.98,13.46-16.48,17.8-16.17,4.34.31,10.67,1.42,16.71.13"/>
  <path d="M18.7,62.3c8.95-22.05,10.72-35.8,11.59-46.66l-11.59,46.66Z"/>
  <path class="cls-5" d="M18.9,62.03c12.49-13.03,16.62-13.7,30.38-14.92"/>
  <path class="cls-4" d="M31.79,2.29c3.54,11.18,5.9,16.97,6.82,21.58.92,4.61.4,8.04-2.8,12.29-3.19,4.25-9.06,9.32-14.7,18.12"/>
  <path class="cls-4" d="M55.19,43.94c-4.42,3.24-8.11,8.21-10.88,10.89-2.77,2.68-4.61,3.06-8.07,3.54-3.46.48-8.55,1.07-15.56,1.6"/>
  <path class="cls-3" d="M20.68,59.97c11.11-15.98,13.46-16.48,17.8-16.17,4.34.31,10.67,1.42,16.71.13"/>
  <path d="M18.7,62.3c8.95-22.05,10.72-35.8,11.59-46.66l-11.59,46.66Z"/>
  <path class="cls-5" d="M18.9,62.03c12.49-13.03,16.62-13.7,30.38-14.92"/>
  <path class="cls-14" d="M18.7,62.3c8.95-22.05,10.72-35.8,11.59-46.66l-11.59,46.66Z"/>
  <path class="cls-3" d="M18.9,62.03c12.49-13.03,16.62-13.7,30.38-14.92"/>
</svg>