<?xml version="1.0" encoding="UTF-8"?>
<svg id="Lines" xmlns="http://www.w3.org/2000/svg" xmlns:xlink="http://www.w3.org/1999/xlink" viewBox="0 0 64 64">
  <defs>
    <style>
      .cls-1 {
        fill: url(#Unbenannter_Verlauf_327-4);
      }

      .cls-1, .cls-2, .cls-3, .cls-4, .cls-5, .cls-6, .cls-7, .cls-8, .cls-9, .cls-10, .cls-11, .cls-12, .cls-13, .cls-14, .cls-15, .cls-16, .cls-17, .cls-18, .cls-19, .cls-20, .cls-21, .cls-22, .cls-23, .cls-24, .cls-25, .cls-26 {
        stroke: #333;
        stroke-miterlimit: 10;
        stroke-width: .25px;
      }

      .cls-2 {
        fill: url(#Unbenannter_Verlauf_327-6);
      }

      .cls-3 {
        fill: url(#Unbenannter_Verlauf_327-5);
      }

      .cls-4 {
        fill: url(#Unbenannter_Verlauf_327-3);
      }

      .cls-5 {
        fill: url(#Unbenannter_Verlauf_327-2);
      }

      .cls-6 {
        fill: url(#Unbenannter_Verlauf_297-3);
      }

      .cls-7 {
        fill: url(#Unbenannter_Verlauf_297-4);
      }

      .cls-8 {
        fill: url(#Unbenannter_Verlauf_297-5);
      }

      .cls-9 {
        fill: url(#Unbenannter_Verlauf_297-2);
      }

      .cls-10 {
        fill: #b2c99d;
      }

      .cls-11 {
        fill: #9bad79;
      }

      .cls-12 {
        fill: url(#linear-gradient);
      }

      .cls-13 {
        fill: url(#linear-gradient-5);
      }

      .cls-14 {
        fill: url(#linear-gradient-4);
      }

      .cls-15 {
        fill: url(#linear-gradient-3);
      }

      .cls-16 {
        fill: url(#linear-gradient-2);
      }

      .cls-17 {
        fill: url(#linear-gradient-6);
      }

      .cls-18 {
        fill: #dee6ad;
      }

      .cls-19 {
        fill: #698c62;
      }

      .cls-20 {
        fill: #8eba87;
      }

      .cls-21 {
        fill: url(#Unbenannter_Verlauf_297);
      }

      .cls-22 {
        fill: url(#Unbenannter_Verlauf_327);
      }

      .cls-23 {
        fill: #476949;
      }

      .cls-24 {
        fill: url(#Unbenannter_Verlauf_21-2);
      }

      .cls-25 {
        fill: #9db699;
      }

      .cls-26 {
        fill: url(#Unbenannter_Verlauf_21);
      }
    </style>
    <linearGradient id="linear-gradient" x1="12.33" y1="31.43" x2="29.1" y2="31.43" gradientUnits="userSpaceOnUse">
      <stop offset=".07" stop-color="#ead9b0"/>
      <stop offset="1" stop-color="#b1e5be"/>
    </linearGradient>
    <linearGradient id="Unbenannter_Verlauf_297" data-name="Unbenannter Verlauf 297" x1="17.95" y1="15.46" x2="44.43" y2="15.46" gradientUnits="userSpaceOnUse">
      <stop offset=".18" stop-color="#5e7f68" stop-opacity=".9"/>
      <stop offset=".56" stop-color="#9c8e81" stop-opacity=".77"/>
      <stop offset="1" stop-color="#f0a3a3" stop-opacity=".6"/>
    </linearGradient>
    <linearGradient id="linear-gradient-2" x1="22.24" y1="13.2" x2="44.43" y2="13.2" xlink:href="#linear-gradient"/>
    <radialGradient id="Unbenannter_Verlauf_327" data-name="Unbenannter Verlauf 327" cx="24.62" cy="19.38" fx="24.62" fy="19.38" r="12.07" gradientUnits="userSpaceOnUse">
      <stop offset=".16" stop-color="#fbd9d4"/>
      <stop offset="1" stop-color="#a6c176" stop-opacity=".9"/>
    </radialGradient>
    <radialGradient id="Unbenannter_Verlauf_327-2" data-name="Unbenannter Verlauf 327" cx="17.75" cy="19.97" fx="17.75" fy="19.97" r="10.35" xlink:href="#Unbenannter_Verlauf_327"/>
    <linearGradient id="Unbenannter_Verlauf_297-2" data-name="Unbenannter Verlauf 297" x1="6.55" y1="40.89" x2="23.89" y2="40.89" xlink:href="#Unbenannter_Verlauf_297"/>
    <radialGradient id="Unbenannter_Verlauf_327-3" data-name="Unbenannter Verlauf 327" cx="11.25" cy="29.91" fx="11.25" fy="29.91" r="15.02" xlink:href="#Unbenannter_Verlauf_327"/>
    <linearGradient id="Unbenannter_Verlauf_297-3" data-name="Unbenannter Verlauf 297" x1="23.21" y1="35.75" x2="49.63" y2="35.75" xlink:href="#Unbenannter_Verlauf_297"/>
    <linearGradient id="linear-gradient-3" x1="16.94" y1="41.33" x2="46.92" y2="41.33" xlink:href="#linear-gradient"/>
    <linearGradient id="linear-gradient-4" x1="14.5" y1="44.31" x2="44.59" y2="44.31" xlink:href="#linear-gradient"/>
    <linearGradient id="Unbenannter_Verlauf_297-4" data-name="Unbenannter Verlauf 297" x1="15.76" y1="42.91" x2="45.74" y2="42.91" xlink:href="#Unbenannter_Verlauf_297"/>
    <linearGradient id="linear-gradient-5" x1="10.81" y1="48.56" x2="37.66" y2="48.56" xlink:href="#linear-gradient"/>
    <radialGradient id="Unbenannter_Verlauf_327-4" data-name="Unbenannter Verlauf 327" cx="28.62" cy="45.71" fx="28.62" fy="45.71" r="13.46" xlink:href="#Unbenannter_Verlauf_327"/>
    <linearGradient id="linear-gradient-6" x1="10.81" y1="47.59" x2="41.78" y2="47.59" xlink:href="#linear-gradient"/>
    <linearGradient id="Unbenannter_Verlauf_21" data-name="Unbenannter Verlauf 21" x1="10.81" y1="49.48" x2="32.84" y2="49.48" gradientUnits="userSpaceOnUse">
      <stop offset=".16" stop-color="#fbd9d4"/>
      <stop offset="1" stop-color="#918675" stop-opacity=".9"/>
    </linearGradient>
    <radialGradient id="Unbenannter_Verlauf_327-5" data-name="Unbenannter Verlauf 327" cx="35" cy="45.9" fx="35" fy="45.9" r="13.13" xlink:href="#Unbenannter_Verlauf_327"/>
    <radialGradient id="Unbenannter_Verlauf_327-6" data-name="Unbenannter Verlauf 327" cx="41.25" cy="46.44" fx="41.25" fy="46.44" r="10.84" xlink:href="#Unbenannter_Verlauf_327"/>
    <linearGradient id="Unbenannter_Verlauf_297-5" data-name="Unbenannter Verlauf 297" x1="39.8" y1="27.52" x2="62.75" y2="27.52" xlink:href="#Unbenannter_Verlauf_297"/>
    <linearGradient id="Unbenannter_Verlauf_21-2" data-name="Unbenannter Verlauf 21" x1="33.72" y1="45.71" x2="52.9" y2="45.71" xlink:href="#Unbenannter_Verlauf_21"/>
  </defs>
  <path class="cls-12" d="M17.94,30.71s-.07-.02-.1-.03c-.51-.14-.93-.29-1.5-.38-.57-.09-1.3-.13-2.87.07-.37.32-.75.6-1.14.84,1.7-.13,2.35.06,2.92.3s1.06.54,1.94.87c.88.33,2.17.7,6.69.53.49-.19.97-.39,1.41-.61,1.61-.78,2.83-1.71,3.8-2.44-3.42,1.28-4.94,1.49-6.34,1.65-1.4.16-2.68.28-4.81-.82Z"/>
  <path class="cls-25" d="M13.47,30.38c1.57-.21,2.3-.17,2.87-.07.57.09.99.24,1.5.38.03,0,.06.02.1.03.49.13,1.07.25,1.81.31.79.06,1.76.06,3.42-.21,1.66-.26,3.99-.78,9.34-3.41.29-.24.55-.5.77-.79.43-.54.73-1.19,1.22-1.77.49-.58,1.17-1.09,1.98-1.81.2-.18.4-.37.61-.57-3.31,2.48-6.2,3.73-8.04,4.5s-2.62,1.07-3.66,1.31c-1.05.24-2.36.42-3.66.51-1.3.09-2.6.1-3.8.17-1.2.07-2.31.21-3.54.55-.3.31-.6.6-.91.87Z"/>
  <path class="cls-18" d="M14.38,29.51c1.23-.33,2.34-.47,3.54-.55,1.2-.07,2.5-.08,3.8-.17,1.3-.09,2.62-.27,3.66-.51,1.05-.24,1.83-.54,3.66-1.31s4.73-2.02,8.04-4.5c.64-.62,1.3-1.35,1.89-2.24.3-.45.59-.95.85-1.5-1.83,1.78-3.83,2.89-5.69,3.76-1.86.88-3.59,1.53-5.28,2.04-1.69.51-3.35.88-4.84,1.15-1.49.27-2.83.45-3.9.65-1.07.21-1.88.45-2.58.75-.7.3-1.28.67-2.05,1.15-.16.2-.33.4-.5.59-.2.23-.41.46-.62.68Z"/>
  <path class="cls-18" d="M32.52,27.41c-5.35,2.62-7.69,3.14-9.34,3.41-1.66.26-2.63.27-3.42.21-.74-.06-1.32-.18-1.81-.31,2.13,1.1,3.41.98,4.81.82,1.4-.16,2.92-.37,6.34-1.65.08-.06.17-.12.25-.18,1-.74,1.71-1.2,2.33-1.65.3-.21.58-.42.84-.64"/>
  <path class="cls-23" d="M41.06,15.09c-3.59,3.85-5.34,5.05-6.94,5.93-1.6.88-3.06,1.45-4.36,1.92-1.3.47-2.44.83-3.7,1.1-1.26.28-2.64.46-3.79.71-1.16.25-2.09.55-3.03.92-.94.37-1.88.81-2.91,1.46-.16.22-.32.44-.49.66-.11.15-.23.3-.35.44.77-.48,1.35-.85,2.05-1.15.7-.3,1.51-.54,2.58-.75,1.07-.21,2.4-.38,3.9-.65,1.49-.27,3.15-.64,4.84-1.15,1.69-.51,3.42-1.16,5.28-2.04,1.86-.88,3.86-1.98,5.69-3.76.42-.88.79-1.92,1.12-3.22.03-.14.07-.27.1-.42"/>
  <path class="cls-21" d="M22.24,20.28c-.88.75-1.91,1.66-3.2,2.86-.35.53-.71,1.08-1.09,1.66.72-.53,2.23-1.41,3.64-2.18,1.41-.77,2.71-1.44,3.94-1.96,1.23-.52,2.38-.9,3.96-1.45,1.58-.55,3.58-1.28,5.67-2.32,2.09-1.04,4.28-2.39,7.05-6,.48-1.35,1.16-2.92,2.21-4.78-3.63,4.9-5.57,6.37-7.33,7.5-1.76,1.13-3.33,1.93-4.87,2.63s-3.06,1.29-4.53,1.88c-1.47.59-2.89,1.18-3.89,1.57-.98.38-1.56.58-1.57.57Z"/>
  <path class="cls-11" d="M17.13,26.02c1.68-1.08,2.75-1.54,4.23-2.15,1.47-.61,3.35-1.38,5.11-2.01,1.77-.63,3.43-1.12,4.89-1.6,1.46-.48,2.7-.94,4.03-1.67,1.33-.73,2.74-1.72,6.19-5.66.17-.63.37-1.31.63-2.05-2.77,3.61-4.96,4.96-7.05,6-2.09,1.04-4.09,1.77-5.67,2.32-1.58.55-2.73.93-3.96,1.45-1.23.52-2.53,1.19-3.94,1.96-1.41.77-2.92,1.65-3.64,2.18-.2.3-.4.6-.61.92-.07.1-.14.2-.2.3Z"/>
  <path class="cls-25" d="M16.34,27.14c1.03-.65,1.97-1.09,2.91-1.46.94-.37,1.87-.68,3.03-.92,1.16-.25,2.53-.44,3.79-.71,1.26-.28,2.4-.64,3.7-1.1,1.3-.47,2.76-1.04,4.36-1.92,1.6-.88,3.35-2.08,6.94-5.93h0c.15-.64.31-1.35.52-2.15-3.45,3.94-4.86,4.93-6.19,5.66-1.33.73-2.58,1.19-4.03,1.67-1.46.48-3.12.97-4.89,1.6-1.77.63-3.64,1.39-5.11,2.01-1.47.61-2.55,1.07-4.23,2.15-.25.37-.52.75-.79,1.12Z"/>
  <path class="cls-16" d="M26.09,17.31s-.03.02-.05.03c-1.24.89-2.31,1.67-3.81,2.93,0,0,.58-.19,1.57-.57,1-.39,2.42-.98,3.89-1.57,1.47-.59,2.99-1.19,4.53-1.88s3.12-1.5,4.87-2.63c1.76-1.13,3.7-2.6,7.33-7.5-3.82,3.69-5.96,5.17-8.48,6.6-2.51,1.43-5.4,2.8-9.86,4.6Z"/>
  <path class="cls-20" d="M36.9,7.76c-5.8.92-8.1,1.86-9.68,2.61-1.75.83-2.64,1.45-3.55,2.27-.92.82-1.85,1.83-2.81,3-.96,1.17-1.94,2.49-2.8,4.21s-1.59,3.84-2.22,7.93c1.27-2.75,1.98-4.44,2.79-5.96.81-1.53,1.74-2.89,2.91-4.24,1.17-1.35,2.6-2.68,4.17-3.88,1.57-1.21,3.29-2.29,5.42-3.28,2.44-1.12,5.42-2.12,9.44-3.07-1.45.31-2.59.4-3.67.4Z"/>
  <path class="cls-10" d="M40.58,7.36c-4.03.95-7.01,1.94-9.44,3.07-2.14.99-3.85,2.07-5.42,3.28-1.57,1.21-2.99,2.54-4.17,3.88-1.17,1.35-2.1,2.71-2.91,4.24-.81,1.53-1.51,3.22-2.79,5.96.17-.22.33-.44.49-.66.27-.38.54-.75.79-1.12.07-.1.14-.2.2-.3.21-.31.42-.62.61-.92.38-.58.74-1.13,1.09-1.66.63-.96,1.23-1.85,1.88-2.69,1.21-1.56,2.6-2.97,4.44-4.29,1.84-1.32,4.11-2.54,7.17-4.02,3.05-1.48,6.88-3.23,11.9-6.02-1.52.59-2.77.98-3.85,1.25Z"/>
  <path class="cls-19" d="M19.04,23.14c1.29-1.2,2.32-2.12,3.2-2.86,1.5-1.27,2.57-2.05,3.81-2.93.02-.01.03-.02.05-.03,1.96-1.4,4.31-3.06,7.28-4.63,2.99-1.58,6.6-3.08,11.06-6.57-5.02,2.79-8.85,4.53-11.9,6.02-3.05,1.48-5.33,2.71-7.17,4.02-1.84,1.32-3.23,2.73-4.44,4.29-.66.85-1.25,1.74-1.88,2.69Z"/>
  <path class="cls-10" d="M26.09,17.31c4.46-1.81,7.35-3.18,9.86-4.6,2.51-1.43,4.65-2.91,8.48-6.6-4.46,3.49-8.07,4.99-11.06,6.57-2.97,1.57-5.32,3.23-7.28,4.63Z"/>
  <path class="cls-23" d="M12.33,31.23c1.02-3.62,1.34-5.76,1.89-7.67.55-1.91,1.32-3.59,2.24-5.15.92-1.55,1.98-2.97,3.28-4.33,1.31-1.36,2.86-2.66,4.08-3.63,1.22-.97,2.12-1.61,3.47-2.03.9-.28,1.99-.47,5-.89-1.54-.09-3.15-.17-4.8-.18-.75,0-1.5,0-2.25.04-2.72,1.4-3.83,2-4.86,2.69-1.52,1.02-2.84,2.25-3.95,3.77-1.12,1.51-2.03,3.31-2.71,5.22-.68,1.91-1.12,3.93-1.27,5.94-.15,2.01-.01,4-.12,6.23Z"/>
  <path class="cls-22" d="M15.84,27.8c.62-4.1,1.36-6.21,2.22-7.93s1.84-3.05,2.8-4.21c.96-1.17,1.9-2.18,2.81-3,.92-.82,1.81-1.44,3.55-2.27,1.59-.76,3.88-1.69,9.68-2.61-.54,0-1.06-.03-1.6-.05-.97-.05-1.98-.12-3.02-.18-3.01.42-4.1.6-5,.89-1.35.42-2.24,1.06-3.47,2.03-1.22.97-2.78,2.27-4.08,3.63-1.31,1.36-2.37,2.78-3.28,4.33-.92,1.55-1.69,3.23-2.24,5.15-.55,1.91-.88,4.05-1.89,7.67.39-.24.77-.52,1.14-.84.31-.27.62-.56.91-.87.21-.22.42-.45.62-.68.17-.19.33-.39.5-.59.12-.15.23-.29.35-.44Z"/>
  <path class="cls-5" d="M25.24,7.39c-.99.04-1.96.11-2.9.22-3.47,1.71-4.33,2.23-5.13,2.87-1.28,1.02-2.41,2.37-3.48,3.93-1.07,1.55-2.07,3.31-2.69,4.88-.62,1.57-.86,2.94-.75,4.4s.57,3.01.97,4.28c.4,1.27.74,2.26.8,3.23.03.43,0,.86-.06,1.35.11-.44.23-.88.34-1.32.11-2.23-.03-4.22.12-6.23.15-2.01.59-4.03,1.27-5.94.68-1.91,1.59-3.7,2.71-5.22,1.12-1.51,2.44-2.75,3.95-3.77,1.03-.69,2.14-1.28,4.86-2.69Z"/>
  <path class="cls-9" d="M6.55,50.53c.12.06.24.08.37.06.07-.01.14-.03.21-.07.38-.2.7-.8,1.19-2.05.49-1.26,1.16-3.17,2.03-5.64.87-2.46,1.96-5.47,2.61-7.2.66-1.73.89-2.18,1.21-2.39.32-.21.73-.19,1.57.07.84.25,2.11.73,3.85.64,1.29-.07,2.85-.46,4.28-1.01-4.52.17-5.8-.19-6.69-.53-.88-.33-1.37-.63-1.94-.87s-1.22-.44-2.92-.3c-.11.44-.23.88-.34,1.32-.04.16-.07.33-.11.5-.08.41-.19.87-.32,1.41-.02.1-.05.2-.07.3-.05.21-.1.42-.17.67-.44,1.72-1.32,4.81-4.77,15.09Z"/>
  <path class="cls-19" d="M16.39,9.3c-2.37,2.43-3.01,3.15-3.53,3.85-.74.99-1.22,1.93-1.75,3-.52,1.08-1.08,2.29-1.5,3.62-.43,1.33-.72,2.78-.78,4.07-.06,1.29.12,2.43.68,3.82s1.52,3.06,2.06,6.8c.13-.54.24-1,.32-1.41.14-.71.2-1.27.17-1.85-.06-.97-.4-1.96-.8-3.23-.4-1.27-.86-2.82-.97-4.28s.13-2.83.75-4.4c.62-1.57,1.62-3.33,2.69-4.88,1.07-1.55,2.21-2.9,3.48-3.93.81-.65,1.67-1.16,5.13-2.87-.98.12-1.91.27-2.76.49-1.21.3-2.25.7-3.19,1.2Z"/>
  <path class="cls-4" d="M16.39,9.3c-.85.45-1.61.98-2.32,1.58-1.49,1.27-2.75,2.86-3.47,3.85-.72.99-.9,1.39-1.34,2.09-.44.7-1.14,1.69-1.68,2.88-.54,1.19-.92,2.57-1,3.97s.12,2.82.74,4.2c.62,1.38,1.67,2.72,2.25,3.69.58.97.69,1.58.76,2.41.06.83.07,1.89-.33,3.39-.4,1.49-1.22,3.42-1.91,5.3-.69,1.88-1.26,3.71-1.6,4.98-.34,1.27-.47,1.98-.31,2.43.07.22.21.38.38.46,3.45-10.29,4.33-13.38,4.77-15.09.06-.25.12-.46.17-.67.03-.1.05-.2.07-.3-.54-3.73-1.5-5.4-2.06-6.8s-.74-2.53-.68-3.82c.06-1.29.36-2.74.78-4.07.43-1.33.98-2.54,1.5-3.62.52-1.08,1.01-2.02,1.75-3,.52-.7,1.17-1.42,3.53-3.85Z"/>
  <path class="cls-23" d="M45.18,35.38s.06.04.09.06c.48.3.86.57,1.41.84.56.27,1.29.53,2.95.79.47-.21.95-.39,1.41-.51-1.77-.38-2.38-.77-2.88-1.19s-.91-.87-1.71-1.48c-.8-.61-1.99-1.37-6.64-2.56-.55.04-1.1.11-1.62.19-1.87.31-3.4.89-4.6,1.33,3.87-.27,5.48-.02,6.95.24,1.47.26,2.81.53,4.65,2.29Z"/>
  <path class="cls-6" d="M49.63,37.07c-1.66-.27-2.39-.53-2.95-.79-.56-.27-.93-.54-1.41-.84-.03-.02-.06-.04-.09-.06-.46-.28-1.01-.58-1.75-.86-.79-.3-1.78-.59-3.54-.82-1.76-.23-4.3-.41-10.54.65-.37.16-.71.34-1.02.57-.6.42-1.1,1-1.77,1.44-.68.44-1.53.76-2.56,1.24-.26.12-.52.25-.8.39,4.11-1.52,7.44-1.92,9.54-2.15,2.1-.23,2.99-.3,4.12-.23,1.14.07,2.53.29,3.88.59,1.35.3,2.68.69,3.92.97,1.25.29,2.41.48,3.77.51.4-.23.79-.43,1.19-.61Z"/>
  <path class="cls-18" d="M48.44,37.68c-1.36-.03-2.53-.22-3.77-.51-1.25-.29-2.57-.67-3.92-.97-1.35-.3-2.74-.51-3.88-.59-1.14-.07-2.02,0-4.12.23-2.1.23-5.43.63-9.54,2.15-.83.43-1.73.98-2.6,1.7-.45.37-.88.79-1.32,1.27,2.4-1.26,4.77-1.78,6.92-2.11,2.16-.33,4.11-.47,5.99-.48,1.88,0,3.67.12,5.27.29,1.6.17,3.01.4,4.16.51,1.15.11,2.05.11,2.85.02.8-.1,1.5-.29,2.44-.55.23-.16.45-.31.68-.46.28-.18.56-.35.84-.51Z"/>
  <path class="cls-18" d="M29.35,34.35c6.23-1.05,8.77-.88,10.54-.65,1.76.23,2.76.52,3.54.82.74.28,1.29.58,1.75.86-1.84-1.76-3.17-2.03-4.65-2.29-1.47-.26-3.09-.51-6.95-.24-.1.04-.21.08-.31.11-1.24.45-2.1.71-2.87.97-.37.13-.72.26-1.05.4"/>
  <path class="cls-15" d="M16.94,44.3c4.82-2.83,6.96-3.52,8.85-3.94,1.9-.41,3.55-.55,5.01-.64,1.46-.08,2.73-.11,4.09,0,1.36.1,2.82.32,4.07.42s2.29.07,3.36-.02c1.07-.09,2.15-.26,3.4-.61.23-.17.46-.35.7-.52.16-.12.32-.23.49-.34-.93.26-1.63.45-2.44.55-.8.1-1.7.1-2.85-.02-1.15-.11-2.56-.34-4.16-.51-1.6-.17-3.4-.3-5.27-.29-1.88,0-3.83.15-5.99.48-2.16.33-4.52.85-6.92,2.11-.69.77-1.38,1.72-2.11,2.94-.08.13-.15.26-.23.39"/>
  <path class="cls-23" d="M37.66,44.71c1.12-.49,2.44-1.11,4.12-1.94.52-.44,1.05-.89,1.61-1.36-.89.33-2.7.76-4.36,1.12-1.67.36-3.2.64-4.6.8-1.41.16-2.69.19-4.47.28-1.77.09-4.03.22-6.47.65-2.44.43-5.08,1.14-8.99,3.97-.9,1.23-2.07,2.62-3.69,4.19,5.17-3.89,7.59-4.8,9.73-5.42,2.13-.62,3.97-.96,5.75-1.2s3.51-.39,5.18-.55c1.67-.16,3.29-.33,4.43-.42,1.12-.09,1.76-.12,1.77-.11Z"/>
  <path class="cls-14" d="M44.59,40.41c-2.04.59-3.27.73-4.95.91-1.68.18-3.82.39-5.81.5s-3.83.1-5.45.15c-1.62.05-3.03.14-4.61.48-1.57.34-3.31.92-8.01,3.88-.36.59-.77,1.22-1.27,1.9,3.91-2.83,6.54-3.55,8.99-3.97,2.44-.43,4.7-.56,6.47-.65,1.77-.09,3.06-.12,4.47-.28,1.41-.16,2.94-.44,4.6-.8,1.67-.36,3.47-.79,4.36-1.12.29-.24.59-.49.9-.75.1-.08.2-.16.3-.24Z"/>
  <path class="cls-7" d="M45.74,39.51c-1.25.35-2.34.52-3.4.61-1.07.09-2.11.12-3.36.02s-2.71-.32-4.07-.42c-1.36-.1-2.63-.08-4.09,0-1.46.08-3.12.22-5.01.64-1.9.41-4.03,1.1-8.85,3.94h0c-.35.61-.72,1.28-1.18,2.03,4.7-2.97,6.44-3.55,8.01-3.88,1.57-.34,2.98-.43,4.61-.48,1.62-.05,3.46-.04,5.45-.15s4.13-.32,5.81-.5c1.68-.18,2.91-.32,4.95-.91.37-.3.75-.6,1.15-.9Z"/>
  <path class="cls-13" d="M32.84,46.56s.04-.01.06-.02c1.52-.53,2.85-1,4.76-1.83,0,0-.65.02-1.77.11-1.13.1-2.76.27-4.43.42-1.67.16-3.4.3-5.18.55s-3.62.58-5.75,1.2c-2.13.62-4.55,1.52-9.73,5.42,5.01-2.6,7.63-3.46,10.62-4.15,2.99-.69,6.33-1.21,11.42-1.7Z"/>
  <path class="cls-18" d="M18.96,53.01c6.18.82,8.8.56,10.64.27,2.03-.32,3.12-.68,4.3-1.24,1.18-.55,2.44-1.3,3.77-2.2,1.33-.9,2.73-1.95,4.12-3.44,1.39-1.49,2.78-3.42,4.65-7.4-2.13,2.41-3.35,3.92-4.64,5.22-1.29,1.31-2.64,2.42-4.24,3.43-1.6,1.02-3.45,1.94-5.42,2.69-1.96.75-4.04,1.34-6.51,1.7-2.82.41-6.15.52-10.53.27,1.57.12,2.76.37,3.86.7Z"/>
  <path class="cls-1" d="M15.1,52.3c4.38.25,7.72.14,10.53-.27,2.47-.36,4.55-.94,6.51-1.7,1.96-.75,3.81-1.68,5.42-2.69,1.6-1.02,2.96-2.12,4.24-3.43,1.29-1.31,2.51-2.82,4.64-5.22-.24.17-.47.34-.7.52-.39.3-.78.6-1.15.9-.1.08-.2.16-.3.24-.31.25-.61.5-.9.75-.56.47-1.09.93-1.61,1.36-.93.78-1.81,1.51-2.73,2.17-1.7,1.22-3.54,2.24-5.81,3.02-2.27.79-4.95,1.34-8.51,1.93-3.55.59-7.98,1.21-13.93,2.53,1.72-.14,3.11-.16,4.29-.11Z"/>
  <path class="cls-17" d="M41.78,42.76c-1.68.83-3,1.45-4.12,1.94-1.9.83-3.23,1.3-4.76,1.83-.02,0-.04.01-.06.02-2.41.83-5.31,1.81-8.8,2.51-3.52.71-7.64,1.14-13.24,3.34,5.95-1.32,10.37-1.94,13.93-2.53,3.55-.59,6.24-1.14,8.51-1.93,2.27-.79,4.11-1.8,5.81-3.02.92-.66,1.8-1.39,2.73-2.17Z"/>
  <path class="cls-26" d="M32.84,46.56c-5.09.49-8.43,1.01-11.42,1.7-2.99.69-5.61,1.55-10.62,4.15,5.59-2.21,9.72-2.63,13.24-3.34,3.49-.7,6.39-1.68,8.8-2.51Z"/>
  <path class="cls-25" d="M51.05,36.56c-2.13,3.38-3.11,5.46-4.25,7.24-1.14,1.78-2.43,3.26-3.83,4.56-1.4,1.3-2.91,2.42-4.65,3.41-1.74.99-3.71,1.84-5.25,2.46-1.54.62-2.65,1-4.14,1.02-1,.02-2.17-.12-5.35-.61,1.54.56,3.16,1.13,4.83,1.63.76.23,1.53.45,2.3.64,3.19-.61,4.5-.87,5.76-1.27,1.85-.58,3.57-1.44,5.16-2.64,1.59-1.2,3.06-2.75,4.33-4.49s2.33-3.66,3.09-5.66c.76-2,1.22-4.07,2.01-6.3Z"/>
  <path class="cls-3" d="M46.44,38.99c-1.87,3.98-3.26,5.91-4.65,7.4-1.39,1.49-2.79,2.54-4.12,3.44-1.33.9-2.59,1.65-3.77,2.2-1.18.55-2.27.92-4.3,1.24-1.84.29-4.46.55-10.64-.27.55.16,1.07.35,1.61.54.97.35,1.98.72,3.01,1.09,3.19.49,4.36.63,5.35.61,1.5-.02,2.6-.4,4.14-1.02,1.54-.62,3.51-1.47,5.25-2.46,1.74-.99,3.25-2.11,4.65-3.41,1.4-1.3,2.69-2.78,3.83-4.56,1.14-1.78,2.12-3.86,4.25-7.24-.47.13-.94.3-1.41.51-.4.18-.8.38-1.19.61-.28.16-.56.33-.84.51-.23.15-.46.3-.68.46-.16.11-.33.23-.49.34Z"/>
  <path class="cls-2" d="M30.71,56.91c1.02.26,2.03.48,3.02.65,4.04-.69,5.07-.96,6.09-1.37,1.61-.66,3.17-1.68,4.73-2.94,1.56-1.26,3.11-2.75,4.21-4.15,1.11-1.41,1.77-2.73,2.1-4.25.33-1.52.33-3.23.31-4.64-.02-1.41-.07-2.53.16-3.53.1-.45.26-.87.47-1.35-.25.41-.5.83-.75,1.24-.79,2.23-1.25,4.3-2.01,6.3-.76,2-1.82,3.92-3.09,5.66s-2.74,3.29-4.33,4.49c-1.59,1.2-3.31,2.06-5.16,2.64-1.25.39-2.57.66-5.76,1.27Z"/>
  <path class="cls-8" d="M62.75,18.67c-.1-.09-.22-.16-.36-.18-.08-.01-.16,0-.24,0-.44.09-.95.6-1.83,1.73-.88,1.13-2.14,2.88-3.77,5.12-1.63,2.24-3.65,4.98-4.84,6.54-1.19,1.56-1.56,1.95-1.95,2.06-.39.12-.8-.03-1.58-.54-.78-.51-1.93-1.38-3.73-1.81-1.34-.32-3.04-.39-4.66-.26,4.65,1.19,5.84,1.95,6.64,2.56.8.61,1.21,1.05,1.71,1.48s1.11.81,2.88,1.19c.25-.41.5-.83.75-1.24.09-.15.17-.31.26-.48.21-.39.46-.83.75-1.34.05-.09.11-.19.17-.29.11-.2.23-.4.37-.63.96-1.61,2.79-4.49,9.41-13.91Z"/>
  <path class="cls-24" d="M40.29,57.64c3.14-1.75,4.01-2.29,4.75-2.85,1.05-.78,1.83-1.59,2.68-2.53.86-.94,1.79-2,2.62-3.23s1.58-2.61,2.03-3.91c.45-1.3.62-2.5.46-4.1-.15-1.59-.62-3.58-.04-7.54-.3.51-.55.94-.75,1.34-.36.68-.59,1.23-.73,1.83-.23,1-.19,2.12-.16,3.53.02,1.41.02,3.12-.31,4.64-.33,1.52-.99,2.84-2.1,4.25-1.11,1.41-2.66,2.89-4.21,4.15-1.56,1.26-3.12,2.29-4.73,2.94-1.01.41-2.05.68-6.09,1.37,1.03.18,2.02.3,2.95.34,1.32.06,2.51-.03,3.61-.26Z"/>
  <path class="cls-23" d="M40.29,57.64c1-.2,1.94-.51,2.84-.91,1.9-.84,3.66-2.07,4.69-2.87,1.03-.79,1.34-1.14,2-1.72.66-.58,1.67-1.38,2.58-2.43.91-1.05,1.71-2.33,2.22-3.73s.73-2.9.52-4.5c-.22-1.59-.88-3.27-1.17-4.44-.3-1.16-.23-1.81-.04-2.68.19-.87.5-1.95,1.36-3.35.86-1.4,2.27-3.11,3.55-4.81,1.27-1.7,2.4-3.4,3.13-4.58.73-1.19,1.07-1.87,1.05-2.38-.01-.24-.1-.45-.25-.59-6.62,9.42-8.45,12.3-9.41,13.91-.14.23-.26.44-.37.63-.06.1-.11.19-.17.29-.57,3.96-.11,5.95.04,7.54.15,1.59-.01,2.8-.46,4.1-.45,1.3-1.19,2.68-2.03,3.91s-1.77,2.29-2.62,3.23c-.86.94-1.64,1.75-2.68,2.53-.74.55-1.61,1.09-4.75,2.85Z"/>
</svg>