<?xml version="1.0" encoding="UTF-8"?>
<svg id="Design" xmlns="http://www.w3.org/2000/svg" xmlns:xlink="http://www.w3.org/1999/xlink" viewBox="0 0 24 24">
  <defs>
    <style>
      .cls-1 {
        fill: #978977;
      }

      .cls-2 {
        font-family: MalayalamSangamMN, 'Malayalam Sangam MN';
        font-size: 7.22px;
      }

      .cls-2, .cls-3 {
        fill: #333;
      }

      .cls-4 {
        stroke-width: .75px;
      }

      .cls-4, .cls-5 {
        fill: none;
        stroke-linecap: round;
        stroke-linejoin: round;
      }

      .cls-4, .cls-5, .cls-6 {
        stroke: #333;
      }

      .cls-5 {
        stroke-width: .5px;
      }

      .cls-7 {
        fill: #918675;
      }

      .cls-6 {
        fill: url(#Unbenannter_Verlauf_333);
        stroke-miterlimit: 10;
        stroke-width: .3px;
      }

      .cls-8 {
        fill: url(#Unbenannter_Verlauf_21);
      }
    </style>
    <radialGradient id="Unbenannter_Verlauf_333" data-name="Unbenannter Verlauf 333" cx="2.05" cy="11.98" fx="2.05" fy="11.98" r="1.05" gradientUnits="userSpaceOnUse">
      <stop offset=".16" stop-color="#fce8b9"/>
      <stop offset="1" stop-color="#f0a3a3" stop-opacity=".9"/>
    </radialGradient>
    <linearGradient id="Unbenannter_Verlauf_21" data-name="Unbenannter Verlauf 21" x1="10.4" y1="12.59" x2="22.29" y2="12.59" gradientUnits="userSpaceOnUse">
      <stop offset=".16" stop-color="#fbd9d4"/>
      <stop offset="1" stop-color="#918675" stop-opacity=".9"/>
    </linearGradient>
  </defs>
  <line class="cls-5" x1="7.92" y1="11.98" x2="3.11" y2="11.98"/>
  <path class="cls-6" d="M1,11.98c0-.58.47-1.05,1.05-1.05s1.05.47,1.05,1.05-.47,1.05-1.05,1.05-1.05-.47-1.05-1.05Z"/>
  <polygon class="cls-3" points="7.87 11.08 9.95 11.98 7.87 12.88 7.87 11.08"/>
  <g>
    <path class="cls-8" d="M10.4,14.47c.78-2.19,1.64-3.7,2.53-4.68,2.23-.73,2.72-.51,3.59.35.02.02.04.04.06.06.09.09.19.2.3.3.08.08.17.17.25.26.41.42.92.88,1.56,1.29.66.43,1.48.8,2.51,1.01.35.55.71,1.16,1.09,1.81-2.4,1.39-6.36,1.25-11.89-.41ZM19.11,14.32c.18-.17.18-.45,0-.63-.17-.18-.45-.18-.63,0-.18.17-.18.45,0,.63.17.18.45.18.63,0ZM17.72,12.81c.18-.27.11-.63-.15-.81-.27-.18-.63-.11-.81.15-.18.27-.11.63.15.81.27.18.63.11.81-.15ZM15.51,11.4c.31-.3.32-.8.02-1.11s-.8-.32-1.11-.02c-.31.3-.32.8-.02,1.11s.8.32,1.11.02ZM15.3,14.5c.37-.32.4-.88.08-1.24-.32-.37-.88-.4-1.24-.08-.37.32-.4.88-.08,1.24.32.37.88.4,1.24.08ZM13.18,13.55c.19-.21.17-.52-.04-.71-.21-.19-.52-.17-.71.04-.19.21-.17.52.04.71.21.19.52.17.71-.04Z"/>
    <circle class="cls-7" cx="12.81" cy="13.21" r=".5"/>
    <circle class="cls-7" cx="14.72" cy="13.84" r=".88"/>
    <circle class="cls-7" cx="14.96" cy="10.83" r=".79"/>
    <path class="cls-7" d="M17.72,12.81c-.18.27-.54.34-.81.15-.27-.18-.34-.54-.15-.81.18-.27.54-.34.81-.15.27.18.34.54.15.81Z"/>
    <path class="cls-7" d="M19.11,14.32c-.18.17-.46.17-.63,0-.17-.18-.17-.46,0-.63.18-.17.46-.17.63,0,.17.18.17.46,0,.63Z"/>
    <path class="cls-1" d="M12.93,9.79c.99-1.09,2.03-1.49,3.06-1.39,1.65.16,3.28,1.64,5.21,4.67-2.57-.53-3.81-2.05-4.68-2.92-.87-.87-1.36-1.08-3.59-.35Z"/>
    <path class="cls-4" d="M10.4,14.47c1.66-4.62,3.64-6.26,5.59-6.07,1.95.19,3.87,2.22,6.3,6.48"/>
    <path class="cls-4" d="M19.82,11.1c.77.98,1.59,2.23,2.47,3.77"/>
    <path class="cls-4" d="M10.4,14.47c1.66-4.62,3.64-6.26,5.59-6.07.4.04.79.15,1.19.35"/>
    <path class="cls-4" d="M10.4,14.47c5.53,1.66,9.5,1.8,11.89.41"/>
  </g>
  <text class="cls-2" transform="translate(9.24 9.74)"><tspan x="0" y="0">{</tspan></text>
  <circle class="cls-3" cx="12.85" cy="7.54" r=".37"/>
  <circle class="cls-3" cx="11.77" cy="7.54" r=".37"/>
</svg>