<?xml version="1.0" encoding="UTF-8"?>
<svg id="Design" xmlns="http://www.w3.org/2000/svg" xmlns:xlink="http://www.w3.org/1999/xlink" viewBox="0 0 24 24">
  <defs>
    <style>
      .cls-1 {
        fill: #596e39;
      }

      .cls-2, .cls-3, .cls-4, .cls-5, .cls-6 {
        fill: none;
        stroke-linecap: round;
      }

      .cls-2, .cls-3, .cls-4, .cls-7, .cls-8, .cls-9, .cls-10 {
        stroke: #333;
      }

      .cls-2, .cls-6 {
        stroke-width: .5px;
      }

      .cls-11 {
        fill: #b2c99d;
      }

      .cls-3, .cls-4, .cls-5, .cls-6 {
        stroke-linejoin: round;
      }

      .cls-3, .cls-7, .cls-8, .cls-9, .cls-10 {
        stroke-width: .3px;
      }

      .cls-12 {
        fill: #75a071;
      }

      .cls-4 {
        stroke-width: .4px;
      }

      .cls-13 {
        fill: #c2ca9a;
      }

      .cls-14 {
        fill: #9bad79;
      }

      .cls-15 {
        fill: #dee6ad;
      }

      .cls-16 {
        fill: #476949;
      }

      .cls-17 {
        fill: #ead9b0;
      }

      .cls-18 {
        fill: #698c62;
      }

      .cls-5 {
        stroke-width: .25px;
      }

      .cls-5, .cls-6 {
        stroke: #1a1a1a;
      }

      .cls-19 {
        fill: #9db699;
      }

      .cls-7 {
        fill: url(#Unbenannter_Verlauf_333);
      }

      .cls-7, .cls-8, .cls-9, .cls-10 {
        stroke-miterlimit: 10;
      }

      .cls-8 {
        fill: url(#Unbenannter_Verlauf_327);
      }

      .cls-9 {
        fill: url(#Winter-Violett_radial);
      }

      .cls-20 {
        fill: #333;
      }

      .cls-21 {
        fill: #1a1a1a;
      }

      .cls-10 {
        fill: url(#Unbenannter_Verlauf_19);
      }

      .cls-22 {
        fill: #68934f;
      }
    </style>
    <radialGradient id="Unbenannter_Verlauf_19" data-name="Unbenannter Verlauf 19" cx="21.76" cy="12" fx="21.76" fy="12" r="1.05" gradientUnits="userSpaceOnUse">
      <stop offset=".16" stop-color="#fbf6e2"/>
      <stop offset="1" stop-color="#b9a794" stop-opacity=".9"/>
    </radialGradient>
    <radialGradient id="Winter-Violett_radial" data-name="Winter-Violett radial" cx="20.43" cy="4.91" fx="20.43" fy="4.91" r="1.05" gradientUnits="userSpaceOnUse">
      <stop offset="0" stop-color="#ebedf6"/>
      <stop offset=".5" stop-color="#d8dcec"/>
      <stop offset="1" stop-color="#c3c9e0"/>
    </radialGradient>
    <radialGradient id="Unbenannter_Verlauf_327" data-name="Unbenannter Verlauf 327" cx="20.43" cy="19.09" fx="20.43" fy="19.09" r="1.05" gradientUnits="userSpaceOnUse">
      <stop offset=".16" stop-color="#fbd9d4"/>
      <stop offset="1" stop-color="#a6c176" stop-opacity=".9"/>
    </radialGradient>
    <radialGradient id="Unbenannter_Verlauf_333" data-name="Unbenannter Verlauf 333" cx="11.99" cy="12" fx="11.99" fy="12" r="1.05" gradientUnits="userSpaceOnUse">
      <stop offset=".16" stop-color="#fce8b9"/>
      <stop offset="1" stop-color="#f0a3a3" stop-opacity=".9"/>
    </radialGradient>
  </defs>
  <path class="cls-10" d="M22.81,12c0-.58-.47-1.06-1.05-1.06s-1.05.47-1.05,1.06.47,1.06,1.05,1.06,1.05-.47,1.05-1.06Z"/>
  <path class="cls-9" d="M21.48,4.91c0-.58-.47-1.06-1.05-1.06s-1.05.47-1.05,1.06.47,1.06,1.05,1.06,1.05-.47,1.05-1.06Z"/>
  <path class="cls-8" d="M21.48,19.09c0,.58-.47,1.06-1.05,1.06s-1.05-.47-1.05-1.06.47-1.06,1.05-1.06,1.05.47,1.05,1.06Z"/>
  <polygon class="cls-21" points="17.47 6.26 19.64 5.61 18.63 7.64 17.47 6.26"/>
  <polygon class="cls-21" points="17.47 17.74 19.64 18.39 18.63 16.36 17.47 17.74"/>
  <polygon class="cls-21" points="18.63 11.1 20.71 12 18.63 12.9 18.63 11.1"/>
  <path class="cls-17" d="M13.13,12c0-.58-.47-1.06-1.05-1.06s-1.05.47-1.05,1.06.47,1.06,1.05,1.06,1.05-.47,1.05-1.06Z"/>
  <g>
    <path class="cls-14" d="M9.82,11.94c.14-1.02.04-1.54-.13-2.15-.22-.79-.56-1.71-.85-2.82-.29-1.11-.54-2.42-.26-4.77.77,3.8,1.33,5.78,1.48,7.34.09.9.03,1.66-.24,2.4Z"/>
    <path class="cls-16" d="M7.43,4.02c-.42,1.87-1.22,2.49-1.8,3.15-.65.74-1.03,1.52-1.22,2.17-.18.65-.17,1.17-.04,1.38.13.21.36.11.55.09s.34.04.48.62c.14.59.28,1.7.45,2.3s.37.71.68.64c.32-.07.75-.31,1.19-.84.37-.44.74-1.07,2.08-1.59-.2.53-.52,1.06-.98,1.61-1.11,1.33-3.08,2.88-5.09,5.66-.46-7.07-1.43-8.38-1.26-9.49.17-1.11,1.5-2.01,2.73-3.17.78-.74,1.52-1.57,2.21-2.54Z"/>
    <path class="cls-1" d="M9.57,9.36c.05.15.09.29.13.43.17.6.27,1.13.13,2.15-1.34.53-1.72,1.16-2.08,1.59-.45.53-.88.77-1.19.84-.32.07-.52-.03-.68-.64s-.3-1.72-.45-2.3c-.14-.59-.29-.65-.48-.62s-.43.12-.55-.09c-.13-.21-.14-.73.04-1.38.18-.65.57-1.44,1.22-2.17.58-.66,1.37-1.28,1.8-3.15.18-.24.35-.5.52-.76.11,1.45-.24,2.27-.58,2.94-.38.75-.76,1.29-.91,1.72-.15.42-.07.73.17,1.05s.65.66.88,1.01c.23.35.28.72.48.93.19.21.52.27.76-.07.22-.3.36-.93.81-1.47Z"/>
    <path class="cls-12" d="M7.95,3.26c.22-.34.43-.69.63-1.05-.28,2.35-.03,3.66.26,4.77.24.91.51,1.7.72,2.39-.46.54-.6,1.17-.81,1.47-.24.33-.57.28-.76.07-.19-.21-.25-.58-.48-.93-.23-.35-.64-.69-.88-1.01s-.32-.63-.17-1.05c.15-.42.52-.96.91-1.72.34-.66.68-1.49.58-2.94Z"/>
    <path class="cls-15" d="M3.45,21.11c3.91-5.04,4.66-5.15,5.99-4.94.97.15,2.26.47,3.63.53-.72.33-1.09.37-1.46.4-.6.05-1.21.06-1.78.09-.57.03-1.12.07-1.69.32-.57.25-1.18.71-4.69,3.6Z"/>
    <path class="cls-18" d="M3.45,21.11c2.53-1.5,3.08-1.61,3.84-1.51s1.73.44,2.31.36c.73-.09.84-.83,5.02-3.34-1.47.97-2.76,2.53-3.69,3.35-.94.82-1.52.9-2.61.98-1.09.08-2.68.15-4.87.15Z"/>
    <path class="cls-19" d="M11.61,17.09c-1.45.49-1.65.7-1.75.88-.12.19-.13.34-.11.57.02.19.07.44.58,1.04-.3.24-.48.35-.74.38-.58.08-1.55-.25-2.31-.36s-1.3,0-3.84,1.51c3.51-2.89,4.11-3.35,4.69-3.6.57-.25,1.12-.29,1.69-.32.57-.03,1.18-.04,1.78-.09,0,0,0,0,0,0Z"/>
    <path class="cls-11" d="M14.62,16.62c-2.72,1.63-3.72,2.52-4.28,2.96-.51-.6-.56-.85-.58-1.04-.02-.22,0-.38.11-.57.11-.18.3-.39,1.75-.88.37-.03.74-.07,1.46-.4.51.02,1.03,0,1.54-.07Z"/>
    <path class="cls-5" d="M3.75,19.22c-.46-7.07-1.43-8.38-1.26-9.49.17-1.11,1.5-2.01,2.73-3.17,1.23-1.16,2.37-2.58,3.37-4.36"/>
    <path class="cls-5" d="M8.58,2.21c.77,3.8,1.33,5.78,1.48,7.34.15,1.55-.11,2.68-1.23,4.02-1.11,1.33-3.08,2.88-5.09,5.66"/>
    <path class="cls-5" d="M14.62,16.62c-1.47.97-2.76,2.53-3.69,3.35-.94.82-1.52.9-2.61.98-1.09.08-2.68.15-4.87.15"/>
    <path class="cls-5" d="M3.45,21.11c3.91-5.04,4.66-5.15,5.99-4.94,1.34.21,3.27.73,5.18.45"/>
    <path d="M2.76,21.83c3.42-7.11,4.37-11.64,4.96-15.22l-4.96,15.22Z"/>
    <path class="cls-5" d="M2.84,21.75c4.25-4.02,5.55-4.15,9.86-4.22"/>
    <path class="cls-13" d="M9.82,11.94c.14-1.02.04-1.54-.13-2.15-.22-.79-.56-1.71-.85-2.82-.29-1.11-.54-2.42-.26-4.77.77,3.8,1.33,5.78,1.48,7.34.09.9.03,1.66-.24,2.4Z"/>
    <path class="cls-22" d="M9.57,9.36c.05.15.09.29.13.43.17.6.27,1.13.13,2.15-1.34.53-1.72,1.16-2.08,1.59-.45.53-.88.77-1.19.84-.32.07-.52-.03-.68-.64s-.3-1.72-.45-2.3c-.14-.59-.29-.65-.48-.62s-.43.12-.55-.09c-.13-.21-.14-.73.04-1.38.18-.65.57-1.44,1.22-2.17.58-.66,1.37-1.28,1.8-3.15.18-.24.35-.5.52-.76.11,1.45-.24,2.27-.58,2.94-.38.75-.76,1.29-.91,1.72-.15.42-.07.73.17,1.05s.65.66.88,1.01c.23.35.28.72.48.93.19.21.52.27.76-.07.22-.3.36-.93.81-1.47Z"/>
    <path class="cls-11" d="M14.62,16.62c-2.72,1.63-3.72,2.52-4.28,2.96-.51-.6-.56-.85-.58-1.04-.02-.22,0-.38.11-.57.11-.18.3-.39,1.75-.88.37-.03.74-.07,1.46-.4.51.02,1.03,0,1.54-.07Z"/>
    <path class="cls-2" d="M3.75,19.22c-.46-7.07-1.43-8.38-1.26-9.49.17-1.11,1.5-2.01,2.73-3.17,1.23-1.16,2.37-2.58,3.37-4.36"/>
    <path class="cls-5" d="M8.58,2.21c.77,3.8,1.33,5.78,1.48,7.34.15,1.55-.11,2.68-1.23,4.02-1.11,1.33-3.08,2.88-5.09,5.66"/>
    <path class="cls-5" d="M14.62,16.62c-1.47.97-2.76,2.53-3.69,3.35-.94.82-1.52.9-2.61.98-1.09.08-2.68.15-4.87.15"/>
    <path class="cls-5" d="M3.45,21.11c3.91-5.04,4.66-5.15,5.99-4.94,1.34.21,3.27.73,5.18.45"/>
    <path d="M2.76,21.83c3.42-7.11,4.37-11.64,4.96-15.22l-4.96,15.22Z"/>
    <path class="cls-5" d="M2.84,21.75c4.25-4.02,5.55-4.15,9.86-4.22"/>
    <path class="cls-4" d="M8.58,2.21c.77,3.8,1.33,5.78,1.48,7.34.15,1.55-.11,2.68-1.23,4.02-1.11,1.33-3.08,2.88-5.09,5.66"/>
    <path class="cls-4" d="M14.62,16.62c-1.47.97-2.76,2.53-3.69,3.35-.94.82-1.52.9-2.61.98-1.09.08-2.68.15-4.87.15"/>
    <path class="cls-3" d="M3.45,21.11c3.91-5.04,4.66-5.15,5.99-4.94,1.34.21,3.27.73,5.18.45"/>
    <path d="M2.76,21.83c3.42-7.11,4.37-11.64,4.96-15.22l-4.96,15.22Z"/>
    <path class="cls-5" d="M2.84,21.75c4.25-4.02,5.55-4.15,9.86-4.22"/>
    <path class="cls-20" d="M2.76,21.83c3.42-7.11,4.37-11.64,4.96-15.22l-4.96,15.22Z"/>
    <path class="cls-3" d="M2.84,21.75c4.25-4.02,5.55-4.15,9.86-4.22"/>
  </g>
  <line class="cls-6" x1="12.08" y1="12" x2="18.17" y2="17.15"/>
  <line class="cls-6" x1="12.08" y1="12" x2="18.63" y2="12"/>
  <line class="cls-6" x1="12.08" y1="12" x2="18.05" y2="6.95"/>
  <path class="cls-7" d="M13.05,12c0-.58-.47-1.06-1.05-1.06s-1.05.47-1.05,1.06.47,1.06,1.05,1.06,1.05-.47,1.05-1.06Z"/>
</svg>