<?xml version="1.0" encoding="UTF-8"?>
<svg id="Lines" xmlns="http://www.w3.org/2000/svg" xmlns:xlink="http://www.w3.org/1999/xlink" viewBox="0 0 24 24">
  <defs>
    <style>
      .cls-1 {
        fill: url(#Unbenannter_Verlauf_223-10);
      }

      .cls-2 {
        fill: url(#Unbenannter_Verlauf_223-6);
      }

      .cls-3 {
        fill: url(#Unbenannter_Verlauf_223-7);
      }

      .cls-4 {
        fill: url(#Unbenannter_Verlauf_223-2);
      }

      .cls-5 {
        fill: url(#Unbenannter_Verlauf_223-8);
      }

      .cls-6 {
        fill: url(#Unbenannter_Verlauf_223-9);
      }

      .cls-7 {
        fill: url(#Unbenannter_Verlauf_223-4);
      }

      .cls-8 {
        fill: url(#Unbenannter_Verlauf_223-5);
      }

      .cls-9 {
        fill: url(#Unbenannter_Verlauf_223-3);
      }

      .cls-10 {
        fill: #b2c99d;
      }

      .cls-11 {
        stroke-width: .75px;
      }

      .cls-11, .cls-12, .cls-13, .cls-14, .cls-15 {
        stroke: #333;
      }

      .cls-11, .cls-12, .cls-13, .cls-14, .cls-15, .cls-16, .cls-17, .cls-18, .cls-19, .cls-20 {
        fill: none;
        stroke-linecap: round;
        stroke-linejoin: round;
      }

      .cls-12, .cls-20 {
        stroke-width: .5px;
      }

      .cls-13, .cls-17 {
        stroke-width: .13px;
      }

      .cls-14 {
        stroke-width: .18px;
      }

      .cls-15, .cls-16 {
        stroke-width: .4px;
      }

      .cls-21 {
        fill: #8aab8c;
      }

      .cls-16, .cls-17 {
        stroke: #000;
      }

      .cls-18 {
        stroke-width: .25px;
      }

      .cls-18, .cls-19, .cls-20 {
        stroke: #f0a3a3;
      }

      .cls-19 {
        stroke-width: .3px;
      }

      .cls-22 {
        fill: #c2ca9a;
      }

      .cls-23 {
        fill: #698c62;
      }

      .cls-24 {
        fill: url(#Unbenannter_Verlauf_223);
      }

      .cls-25 {
        fill: #333;
      }
    </style>
    <linearGradient id="Unbenannter_Verlauf_223" data-name="Unbenannter Verlauf 223" x1="7.94" y1="9.22" x2="16.06" y2="9.22" gradientUnits="userSpaceOnUse">
      <stop offset="0" stop-color="#f0a3a3"/>
      <stop offset=".12" stop-color="#f0a2a3" stop-opacity=".98"/>
      <stop offset=".25" stop-color="#f1a0a3" stop-opacity=".93"/>
      <stop offset=".38" stop-color="#f29ca4" stop-opacity=".84"/>
      <stop offset=".52" stop-color="#f497a5" stop-opacity=".71"/>
      <stop offset=".66" stop-color="#f690a7" stop-opacity=".54"/>
      <stop offset=".8" stop-color="#f988a8" stop-opacity=".34"/>
      <stop offset=".94" stop-color="#fd7fab" stop-opacity=".11"/>
      <stop offset="1" stop-color="#ff7bac" stop-opacity="0"/>
    </linearGradient>
    <linearGradient id="Unbenannter_Verlauf_223-2" data-name="Unbenannter Verlauf 223" x1="14.85" y1="12.3" x2="16.69" y2="12.3" xlink:href="#Unbenannter_Verlauf_223"/>
    <linearGradient id="Unbenannter_Verlauf_223-3" data-name="Unbenannter Verlauf 223" x1="6.64" y1="8.42" x2="17.36" y2="8.42" xlink:href="#Unbenannter_Verlauf_223"/>
    <linearGradient id="Unbenannter_Verlauf_223-4" data-name="Unbenannter Verlauf 223" x1="12.78" y1="19.05" x2="14.15" y2="19.05" xlink:href="#Unbenannter_Verlauf_223"/>
    <linearGradient id="Unbenannter_Verlauf_223-5" data-name="Unbenannter Verlauf 223" x1="12.87" y1="14.8" x2="14.62" y2="14.8" xlink:href="#Unbenannter_Verlauf_223"/>
    <linearGradient id="Unbenannter_Verlauf_223-6" data-name="Unbenannter Verlauf 223" x1="15.52" y1="16.41" x2="16.58" y2="16.41" xlink:href="#Unbenannter_Verlauf_223"/>
    <linearGradient id="Unbenannter_Verlauf_223-7" data-name="Unbenannter Verlauf 223" x1="7.31" y1="12.3" x2="9.15" y2="12.3" xlink:href="#Unbenannter_Verlauf_223"/>
    <linearGradient id="Unbenannter_Verlauf_223-8" data-name="Unbenannter Verlauf 223" x1="7.42" y1="16.41" x2="8.48" y2="16.41" xlink:href="#Unbenannter_Verlauf_223"/>
    <linearGradient id="Unbenannter_Verlauf_223-9" data-name="Unbenannter Verlauf 223" x1="9.38" y1="14.8" x2="11.13" y2="14.8" xlink:href="#Unbenannter_Verlauf_223"/>
    <linearGradient id="Unbenannter_Verlauf_223-10" data-name="Unbenannter Verlauf 223" x1="9.85" y1="19.05" x2="11.22" y2="19.05" xlink:href="#Unbenannter_Verlauf_223"/>
  </defs>
  <path class="cls-18" d="M13.24,13.59c1.1.33,1.21.47,1.34.71.12.24.26.58.3.82.04.24-.02.37-.16.47-.14.1-.35.18-.55.24-.2.06-.38.11-.55.15-.16.04-.31.07-.48-.01-.18-.08-.39-.26-.52-1.07"/>
  <path class="cls-20" d="M10.76,13.59c-1.1.33-1.21.47-1.34.71-.12.24-.26.58-.3.82s.02.37.16.47c.14.1.35.18.55.24.2.06.38.11.55.15.16.04.31.07.48-.01.18-.08.39-.26.52-1.07"/>
  <path class="cls-10" d="M12,19.88c-.67-1.74-.67-2.23-.59-2.59.08-.36.24-.58.34-.75.1-.17.13-.29.13-.72s-.01-1.17-.15-1.55h.54c-.14.37-.16,1.11-.15,1.55s.04.55.13.72c.1.17.26.39.34.75.08.36.08.85-.59,2.59Z"/>
  <path class="cls-24" d="M7.99,10.29c-.12-.59-.02-.84.11-1.02.13-.17.3-.27.44-.31s.25-.05.38-.05.26,0,.41-.04c.15-.03.33-.1.52-.21.19-.11.4-.26.58-.36.18-.1.34-.15.58-.12.24.03.56.13.99.13s.75-.1.99-.13c.24-.03.4.02.58.12.18.1.39.25.58.36.19.11.37.18.52.21.15.03.29.04.41.04s.24,0,.38.05.3.14.44.31c.13.17.23.43.11,1.02-.05,0-.09-.02-.14-.04-.28-.08-.62-.26-.99-.42-.37-.16-.78-.3-1.21-.43-.43-.13-.89-.24-1.67-.24s-1.23.11-1.67.24c-.43.13-.84.27-1.21.43-.37.16-.71.33-.99.42-.05.01-.1.03-.14.04Z"/>
  <path class="cls-19" d="M16.64,16.05c-.13-.68-.22-.76-.39-.75s-.41.08-.59.14c-.19.06-.32.12-.39.2-.07.08-.09.2-.06.41.02.21.08.52.16.77.08.24.18.42.81.37"/>
  <path class="cls-18" d="M9.67,19.22c.19-.86.26-1.09.36-1.23.1-.14.22-.2.33-.23.11-.03.19-.04.32,0,.12.04.28.13.36.27.09.14.1.34.15.67.05.33.13.79.41,1.45"/>
  <path class="cls-19" d="M14.33,19.22c-.19-.86-.26-1.09-.36-1.23-.1-.14-.22-.2-.33-.23-.11-.03-.19-.04-.32,0s-.28.13-.36.27c-.09.14-.1.34-.15.67-.05.33-.13.79-.41,1.45"/>
  <path class="cls-19" d="M16.38,11.33c.43.2.43.27.41.41-.02.15-.06.38-.14.6s-.2.42-.38.6c-.18.18-.4.35-.61.44-.2.09-.38.11-.8-.17"/>
  <path class="cls-18" d="M7.36,16.05c.13-.68.22-.76.39-.75.17,0,.41.08.59.14.19.06.32.12.39.2.07.08.09.2.06.41-.02.21-.08.52-.16.77-.08.24-.18.42-.81.37"/>
  <path class="cls-19" d="M7.62,11.33c-.43.2-.43.27-.41.41.02.15.06.38.14.6.08.22.2.42.38.6.18.18.4.35.61.44s.38.11.8-.17"/>
  <path class="cls-22" d="M12,14.11c-.43-1.4-.59-2.15-.65-2.75s-.05-1.05.05-1.36c.11-.31.3-.48.6-.48s.5.17.6.48c.11.31.12.76.05,1.36s-.22,1.35-.65,2.75Z"/>
  <path d="M14.26,6.67c.09-.26-.03-.35-.11-.39-.08-.04-.14-.03-.21,0-.07.02-.17.06-.22.23.17.05.35.11.54.17Z"/>
  <path d="M9.74,6.67c-.09-.26.03-.35.11-.39s.14-.03.21,0c.07.02.17.06.22.23-.17.05-.35.11-.54.17Z"/>
  <path class="cls-23" d="M16.96,14.54c-.02.13-.03.25-.05.37,0,0,.13.24.21.55.08.32.12.72.18,1.25s.12,1.21.18,1.56c.06.35.11.38.15.37s.09-.06.1-.26c.01-.2-.01-.53-.14-1.37s-.35-2.18-.63-2.47Z"/>
  <path class="cls-23" d="M17.11,12.27c0,.1,0,.2,0,.3.28.55.6,1.25.83,1.68.23.43.36.6.45.67.1.06.16.02.17-.11s-.05-.34-1.44-2.53Z"/>
  <path class="cls-23" d="M7.04,14.54c.02.13.03.25.05.37,0,0-.13.24-.21.55-.08.32-.12.72-.18,1.25s-.12,1.21-.18,1.56c-.06.35-.11.38-.15.37s-.09-.06-.1-.26c-.01-.2.01-.53.14-1.37s.35-2.18.63-2.47Z"/>
  <path class="cls-23" d="M6.89,12.27c0,.1,0,.2,0,.3-.28.55-.6,1.25-.83,1.68-.23.43-.36.6-.45.67-.1.06-.16.02-.17-.11s.05-.34,1.44-2.53Z"/>
  <path class="cls-23" d="M8.88,7.17c-.11.07-.23.14-.35.2.06-.79.22-1.1.32-1.34.1-.24.14-.42.17-.52.04-.1.08-.14.13-.12.06.02.13.09.16.19s.01.24-.04.37-.14.26-.22.46c-.08.2-.16.48-.18.76Z"/>
  <path class="cls-12" d="M8.63,13.12c-.17-.03-.41-.18-.62-.35s-.39-.34-.52-.55-.21-.43-.18-.57c.03-.13.18-.17.3-.18s.24.02.33.11c.09.09.17.23.28.34.12.11.28.19.41.27.13.07.24.13.33.22s.17.19.17.29-.07.2-.16.29c-.09.09-.19.17-.35.13Z"/>
  <path class="cls-12" d="M9.85,19.33c.2-.34.23-.65.28-.86.05-.2.11-.3.19-.34s.17-.04.28.02c.1.06.22.18.29.39.07.21.11.5.12.76,0,.26,0,.48.21.69"/>
  <path class="cls-12" d="M10.6,13.96c-.27-.09-.61.02-.81.18-.2.15-.25.34-.31.53-.06.19-.12.37-.09.5.03.12.15.18.34.27.19.09.45.2.68.22.22.03.41-.03.55-.21s.22-.48.16-.78c-.05-.3-.25-.61-.52-.7Z"/>
  <path class="cls-12" d="M7.42,16.24c.2-.48.53-.45.72-.4.19.05.22.13.27.25.05.12.1.29.06.45-.05.17-.19.34-.74.44"/>
  <path class="cls-16" d="M9.74,6.67c-.09-.26.03-.35.11-.39s.14-.03.21,0c.07.02.17.06.22.23"/>
  <path class="cls-13" d="M8.53,7.37c.06-.79.22-1.1.32-1.34.1-.24.14-.42.17-.52.04-.1.08-.14.13-.12.06.02.13.09.16.19s.01.24-.04.37-.14.26-.22.46c-.08.2-.16.48-.18.76"/>
  <polyline class="cls-15" points="9.13 5.38 8.54 4.01 8.28 3.54"/>
  <path class="cls-15" d="M10.56,6.03c-.86-1.06-1.54-1.4-2-1.59s-.69-.24-2.36-.51"/>
  <path class="cls-14" d="M6.89,12.27c-1.4,2.2-1.45,2.41-1.44,2.53s.07.17.17.11c.1-.06.22-.23.45-.67.23-.43.56-1.14.83-1.68"/>
  <path class="cls-14" d="M7.04,14.54c-.28.29-.51,1.63-.63,2.47s-.15,1.18-.14,1.37c.01.2.06.25.1.26s.1-.02.15-.37c.06-.35.12-1.02.18-1.56s.09-.93.18-1.25c.08-.32.21-.55.21-.55"/>
  <path class="cls-15" d="M5.47,14.9c-.44.51-.96,1.01-1.57,1.5"/>
  <path class="cls-15" d="M6.35,18.64c-.36.61-.7,1.17-1.02,1.68"/>
  <path class="cls-12" d="M15.37,13.12c.17-.03.41-.18.62-.35s.39-.34.52-.55.21-.43.18-.57c-.03-.13-.18-.17-.3-.18-.13,0-.24.02-.33.11-.09.09-.17.23-.28.34-.12.11-.28.19-.41.27-.13.07-.24.13-.33.22s-.17.19-.17.29c0,.1.07.2.16.29.09.09.19.17.35.13Z"/>
  <path class="cls-12" d="M14.15,19.33c-.2-.34-.23-.65-.28-.86-.05-.2-.11-.3-.19-.34s-.17-.04-.28.02c-.1.06-.22.18-.29.39-.07.21-.11.5-.12.76s0,.48-.21.69"/>
  <path class="cls-12" d="M13.4,13.96c.27-.09.61.02.81.18.2.15.25.34.31.53.06.19.12.37.09.5-.03.12-.15.18-.34.27-.19.09-.45.2-.68.22s-.41-.03-.55-.21-.22-.48-.16-.78.25-.61.52-.7Z"/>
  <path class="cls-12" d="M16.58,16.24c-.2-.48-.53-.45-.72-.4-.19.05-.22.13-.27.25-.05.12-.1.29-.06.45.05.17.19.34.74.44"/>
  <path class="cls-16" d="M14.26,6.67c.09-.26-.03-.35-.11-.39-.08-.04-.14-.03-.21,0-.07.02-.17.06-.22.23"/>
  <path class="cls-17" d="M15.47,7.37c-.06-.79-.22-1.1-.32-1.34-.1-.24-.14-.42-.17-.52s-.08-.14-.13-.12c-.06.02-.13.09-.16.19s-.01.24.04.37c.05.13.14.26.22.46.08.2.16.48.18.76"/>
  <polyline class="cls-15" points="14.87 5.38 15.46 4.01 15.72 3.54"/>
  <path class="cls-15" d="M13.44,6.03c.86-1.06,1.54-1.4,2-1.59s.69-.24,2.36-.51"/>
  <path class="cls-14" d="M17.11,12.27c1.4,2.2,1.45,2.41,1.44,2.53s-.07.17-.17.11c-.1-.06-.22-.23-.45-.67-.23-.43-.56-1.14-.83-1.68"/>
  <path class="cls-14" d="M16.96,14.54c.28.29.51,1.63.63,2.47s.15,1.18.14,1.37c-.01.2-.06.25-.1.26s-.1-.02-.15-.37c-.06-.35-.12-1.02-.18-1.56s-.09-.93-.18-1.25c-.08-.32-.21-.55-.21-.55"/>
  <path class="cls-12" d="M18.53,14.9c.44.51.96,1.01,1.57,1.5"/>
  <path class="cls-12" d="M17.65,18.64c.36.61.7,1.17,1.02,1.68"/>
  <path class="cls-12" d="M7.99,10.29c-.12-.59-.02-.84.11-1.02.13-.17.3-.27.44-.31s.25-.05.38-.05.26,0,.41-.04c.15-.03.33-.1.52-.21.19-.11.4-.26.58-.36.18-.1.34-.15.58-.12.24.03.56.13.99.13s.75-.1.99-.13c.24-.03.4.02.58.12.18.1.39.25.58.36.19.11.37.18.52.21.15.03.29.04.41.04s.24,0,.38.05.3.14.44.31c.13.17.23.43.11,1.02"/>
  <path class="cls-18" d="M7.75,10.31c-.12-.7,0-1.07.13-1.3s.29-.33.5-.42c.21-.08.49-.15.77-.22.27-.08.54-.17.8-.3.26-.13.52-.3.76-.36s.46,0,.67.06.39.14.62.14.41-.07.62-.14.43-.12.67-.06.5.23.76.36c.26.13.53.22.8.3.27.08.55.14.77.22s.36.18.5.42c.14.23.26.6.13,1.3"/>
  <path class="cls-13" d="M7.51,10.28c-.13-.93.04-1.26.21-1.51.17-.25.34-.42.63-.55.29-.13.71-.22,1.07-.36.36-.14.65-.34.91-.44.26-.1.48-.09.74-.05.26.04.58.11.92.11s.66-.07.92-.11c.26-.04.48-.05.74.05.26.1.55.29.91.44.36.14.78.23,1.07.36.29.13.46.3.63.55.17.25.34.59.21,1.51"/>
  <path class="cls-13" d="M8.99,7.1c1.53-.48,2.75-.54,3.01-.54s1.48.07,3.01.54"/>
  <path class="cls-12" d="M9.52,6.74c1.45-.5,2.23-.6,2.48-.6s1.03.09,2.48.6"/>
  <path class="cls-12" d="M12,14.11c-.43-1.4-.59-2.15-.65-2.75s-.05-1.05.05-1.36c.11-.31.3-.48.6-.48s.5.17.6.48c.11.31.12.76.05,1.36s-.22,1.35-.65,2.75Z"/>
  <path class="cls-10" d="M9.55,19.14c-.66-.44-1.07-.9-1.38-1.37.51-.18.68-.45.77-.76.09-.31.1-.66.13-.86.02-.21.06-.27.17-.26s.3.1.49.21c.2.1.4.22.56.34.16.13.27.27.22.41s-.28.29-.45.49c-.18.2-.3.47-.41.71s-.18.47-.09,1.07Z"/>
  <path class="cls-23" d="M7.4,15.09c-.2-.8-.31-1.79-.35-2.96.43.85.75,1.22,1.03,1.4s.51.16.67.13c.16-.03.25-.06.33-.12.08-.07.15-.17.21-.33.06-.16.1-.39.18-.55.07-.17.17-.28.38-.38.21-.11.53-.2,1.26-.5-.01.13.1.84.53,2.33-.23-.29-.62-.64-.9-.81s-.46-.18-.61-.17c-.15.01-.29.04-.43.13-.15.09-.31.23-.42.33-.11.1-.16.16-.19.35-.03.18-.03.5-.06.69-.03.2-.07.28-.15.3-.07.02-.17-.03-.41-.07s-.62-.06-1.06.24Z"/>
  <path class="cls-10" d="M14.45,19.14c.66-.44,1.07-.9,1.38-1.37-.51-.18-.68-.45-.77-.76-.09-.31-.1-.66-.13-.86-.02-.21-.06-.27-.17-.26-.11.01-.3.1-.49.21-.2.1-.4.22-.56.34-.16.13-.27.27-.22.41.05.14.28.29.45.49.18.2.3.47.41.71s.18.47.09,1.07Z"/>
  <path class="cls-23" d="M16.6,15.09c.2-.8.31-1.79.35-2.96-.43.85-.75,1.22-1.03,1.4s-.51.16-.67.13c-.16-.03-.25-.06-.33-.12-.08-.07-.15-.17-.21-.33-.06-.16-.1-.39-.18-.55-.07-.17-.17-.28-.38-.38-.21-.11-.53-.2-1.26-.5.01.13-.1.84-.53,2.33.23-.29.62-.64.9-.81s.46-.18.61-.17c.15.01.29.04.43.13.15.09.31.23.42.33.11.1.16.16.19.35.03.18.03.5.06.69.03.2.07.28.15.3.07.02.17-.03.41-.07.24-.04.62-.06,1.06.24Z"/>
  <path class="cls-4" d="M15.37,13.12c.17-.03.41-.18.62-.35s.39-.34.52-.55.21-.43.18-.57c-.03-.13-.18-.17-.3-.18-.13,0-.24.02-.33.11-.09.09-.17.23-.28.34-.12.11-.28.19-.41.27-.13.07-.24.13-.33.22s-.17.19-.17.29c0,.1.07.2.16.29.09.09.19.17.35.13Z"/>
  <path class="cls-21" d="M16.27,10.76c-.03-.08-.13-.11-.25-.14-.13-.03-.28-.05-.4-.02-.12.03-.2.1-.38.32s-.45.59-.58.81-.14.29-.1.31.13-.03.34-.14c.22-.11.56-.29.8-.43.24-.15.39-.27.48-.39.09-.12.13-.24.1-.32Z"/>
  <path class="cls-21" d="M7.73,10.76c.03-.08.13-.11.25-.14.13-.03.28-.05.4-.02.12.03.2.1.38.32s.45.59.58.81.14.29.1.31c-.04.02-.13-.03-.34-.14-.22-.11-.56-.29-.8-.43-.24-.15-.39-.27-.48-.39-.09-.12-.13-.24-.1-.32Z"/>
  <path class="cls-25" d="M13.74,11.77c.23-.03.45-.16.57-.36.13-.2.16-.46.09-.65-.07-.19-.24-.3-.41-.34-.17-.04-.33-.01-.49.06-.16.07-.32.18-.4.28-.08.1-.09.2-.08.34s.02.35.14.48c.12.14.36.22.59.19Z"/>
  <path class="cls-25" d="M10.26,11.77c-.23-.03-.45-.16-.57-.36-.13-.2-.16-.46-.09-.65.07-.19.24-.3.41-.34.17-.04.33-.01.49.06.16.07.32.18.4.28.08.1.09.2.08.34s-.02.35-.14.48c-.12.14-.36.22-.59.19Z"/>
  <path class="cls-23" d="M15.12,7.17c.11.07.23.14.35.2-.06-.79-.22-1.1-.32-1.34-.1-.24-.14-.42-.17-.52s-.08-.14-.13-.12c-.06.02-.13.09-.16.19s-.01.24.04.37c.05.13.14.26.22.46.08.2.16.48.18.76Z"/>
  <path class="cls-9" d="M15.01,7.1c.21.13.43.26.67.39.34.18.72.36,1,.55.28.19.45.39.56.65.11.26.14.57.12.78-.02.21-.11.33-.25.46-.14.13-.34.27-.54.34-.03,0-.05.02-.08.02.13-.93-.04-1.26-.21-1.51-.17-.25-.34-.42-.63-.55-.29-.13-.71-.22-1.07-.36-.36-.14-.65-.34-.91-.44-.26-.1-.48-.09-.74-.05-.26.04-.58.11-.92.11s-.66-.07-.92-.11c-.26-.04-.48-.05-.74.05-.26.1-.55.29-.91.44-.36.14-.78.23-1.07.36-.29.13-.46.3-.63.55-.17.25-.34.59-.21,1.51-.03,0-.05-.01-.08-.02-.21-.07-.4-.21-.54-.34-.14-.13-.23-.25-.25-.46-.02-.21.01-.52.12-.78s.28-.46.56-.65c.28-.19.66-.37,1-.55.24-.13.46-.26.67-.39,1.53-.48,2.75-.54,3.01-.54s1.48.07,3.01.54Z"/>
  <path class="cls-11" d="M12,5.54c-1.2.28-1.57.54-1.89.78-.32.23-.6.44-.88.63-.28.19-.57.36-.91.54-.34.18-.72.36-1,.55-.28.19-.45.39-.56.65s-.14.57-.12.78c.02.21.11.33.25.46.14.13.34.27.54.34.21.07.42.08.7,0,.28-.08.62-.26.99-.42.37-.16.78-.3,1.21-.43.43-.13.89-.24,1.67-.24s1.23.11,1.67.24c.43.13.84.27,1.21.43.37.16.71.33.99.42.28.08.49.08.7,0,.21-.07.4-.21.54-.34.14-.13.23-.25.25-.46.02-.21-.01-.52-.12-.78-.11-.26-.28-.46-.56-.65-.28-.19-.66-.37-1-.55-.34-.18-.63-.35-.91-.54-.28-.19-.56-.39-.88-.63-.32-.23-.69-.5-1.89-.78Z"/>
  <path class="cls-7" d="M14.15,19.33c-.2-.34-.23-.65-.28-.86-.05-.2-.11-.3-.19-.34s-.17-.04-.28.02c-.1.06-.22.18-.29.39-.07.21-.11.5-.12.76s0,.48-.21.69c.54-.22,1-.44,1.38-.67Z"/>
  <path class="cls-8" d="M13.4,13.96c.27-.09.61.02.81.18.2.15.25.34.31.53.06.19.12.37.09.5-.03.12-.15.18-.34.27-.19.09-.45.2-.68.22s-.41-.03-.55-.21-.22-.48-.16-.78.25-.61.52-.7Z"/>
  <path class="cls-2" d="M16.27,17c.12-.25.22-.5.31-.76-.2-.48-.53-.45-.72-.4-.19.05-.22.13-.27.25-.05.12-.1.29-.06.45.05.17.19.34.74.44Z"/>
  <path class="cls-3" d="M8.63,13.12c-.17-.03-.41-.18-.62-.35s-.39-.34-.52-.55-.21-.43-.18-.57c.03-.13.18-.17.3-.18s.24.02.33.11c.09.09.17.23.28.34.12.11.28.19.41.27.13.07.24.13.33.22s.17.19.17.29-.07.2-.16.29c-.09.09-.19.17-.35.13Z"/>
  <path class="cls-5" d="M7.73,17c-.12-.25-.22-.5-.31-.76.2-.48.53-.45.72-.4.19.05.22.13.27.25.05.12.1.29.06.45-.05.17-.19.34-.74.44Z"/>
  <path class="cls-6" d="M10.6,13.96c.27.09.46.4.52.7.05.3-.03.6-.16.78s-.32.24-.55.21c-.22-.03-.49-.14-.68-.22-.19-.09-.31-.14-.34-.27-.03-.12.03-.31.09-.5.06-.19.11-.38.31-.53.2-.15.54-.27.81-.18Z"/>
  <path class="cls-1" d="M9.85,19.33c.2-.34.23-.65.28-.86.05-.2.11-.3.19-.34s.17-.04.28.02c.1.06.22.18.29.39.07.21.11.5.12.76,0,.26,0,.48.21.69-.54-.22-1-.44-1.38-.67Z"/>
  <path class="cls-11" d="M12,20.28c2.59-.87,3.47-1.85,4.05-2.87s.85-2.06.97-3.48c.12-1.42.1-3.21.13-4.02-.03.81,0,2.6-.13,4.02-.12,1.42-.4,2.47-.97,3.48s-1.46,2-4.05,2.87c-2.59-.87-3.47-1.85-4.05-2.87-.58-1.01-.85-2.06-.97-3.48-.12-1.42-.1-3.21-.13-4.02"/>
</svg>