<?xml version="1.0" encoding="UTF-8"?>
<svg xmlns="http://www.w3.org/2000/svg" xmlns:xlink="http://www.w3.org/1999/xlink" viewBox="0 0 24 24">
  <defs>
    <style>
      .cls-1 {
        fill: #b2c99d;
      }

      .cls-2 {
        stroke-width: .75px;
      }

      .cls-2, .cls-3 {
        fill: none;
        stroke-linecap: round;
        stroke-linejoin: round;
      }

      .cls-2, .cls-3, .cls-4, .cls-5 {
        stroke: #333;
      }

      .cls-3 {
        stroke-width: .5px;
      }

      .cls-6 {
        fill: #75a071;
      }

      .cls-7 {
        fill: #7f9c63;
      }

      .cls-8 {
        fill: #857c6d;
      }

      .cls-9 {
        fill: #dee6ad;
      }

      .cls-10 {
        fill: #476949;
      }

      .cls-11 {
        fill: #9db699;
      }

      .cls-4 {
        fill: url(#Unbenannter_Verlauf_333);
        stroke-width: .3px;
      }

      .cls-4, .cls-5 {
        stroke-miterlimit: 10;
      }

      .cls-12 {
        fill: #333;
      }

      .cls-5 {
        fill: url(#Unbenannter_Verlauf_32);
        stroke-width: .25px;
      }

      .cls-13 {
        fill: #68934f;
      }
    </style>
    <linearGradient id="Unbenannter_Verlauf_32" data-name="Unbenannter Verlauf 32" x1="7.08" y1="13.84" x2="20.73" y2="13.84" gradientTransform="translate(.92 -.99) rotate(3.93)" gradientUnits="userSpaceOnUse">
      <stop offset="0" stop-color="#918675" stop-opacity=".9"/>
      <stop offset=".84" stop-color="#fbd9d4"/>
    </linearGradient>
    <radialGradient id="Unbenannter_Verlauf_333" data-name="Unbenannter Verlauf 333" cx="2.05" cy="11.98" fx="2.05" fy="11.98" r="1.05" gradientUnits="userSpaceOnUse">
      <stop offset=".16" stop-color="#fce8b9"/>
      <stop offset="1" stop-color="#f0a3a3" stop-opacity=".9"/>
    </radialGradient>
  </defs>
  <g id="Lines">
    <g>
      <path class="cls-1" d="M15.83,5.25c-.31.06-.59.07-.88.12-.4.07-.79.22-1.26.67,0-.25.04-.41.11-.56.17-.4.5-.69.92-.88.42-.18.92-.26,1.29-.46.38-.2.63-.52,1.27-1.9-.19,2.25-1,3.69-2.44,5.32-.22.13-.42.22-.57.28,0-.25.03-.49.09-.71.08-.3.21-.59.39-.8.18-.21.39-.35.69-.61.28-.24.62-.57,1.05-1.42-.24.44-.46.73-.66.94Z"/>
      <path class="cls-9" d="M16.22,11.5c1.12-1.4,2.04-1.75,2.87-1.84.83-.09,1.56.07,3.47,1.36-1.72-.45-2.15-.2-2.46.04,0,0,0,0-.01.01,0,0,0,0,0,0-.57-.13-1.39-.22-2.46-.28.58-.22,1.3-.38,1.94-.38-.78-.05-1.74.19-2.3.4-.57.21-.75.4-1.03.69Z"/>
      <path class="cls-6" d="M20.07,11.07c-.31.24-.51.46-1.02.64-.52.18-1.36.32-3.28.75.08-.16.17-.32.27-.47.23-.35.51-.69,1.13-1,.14-.07.29-.13.45-.19,1.07.06,1.89.15,2.46.28Z"/>
      <path class="cls-7" d="M22.74,11.07c-.07-.02-.13-.04-.2-.05-1.9-1.29-2.64-1.45-3.47-1.36-.83.09-1.75.44-2.87,1.84-.16.17-.36.37-.53.65.25-1.91.79-2.55,1.97-2.96,1.18-.41,3.01-.6,5.09,1.88Z"/>
      <path class="cls-2" d="M15.68,12.15c.25-1.91.79-2.55,1.97-2.96,1.18-.41,3.01-.6,5.09,1.88"/>
      <path class="cls-3" d="M15.77,12.46c1.92-.43,2.76-.57,3.28-.75.52-.18.72-.4,1.04-.65s.77-.51,2.65.01"/>
      <path class="cls-10" d="M13.69,6.04c.46-.45.86-.6,1.26-.67-.35.27-.57.76-.67,1.45-.09.22-.13.45-.16.69-.03.24-.04.48-.02.79-.3-1.19-.41-1.84-.4-2.25Z"/>
      <path class="cls-13" d="M14.95,5.37c.28-.05.57-.06.88-.12-.2.21-.38.35-.54.48-.36.28-.67.53-.86.83-.06.09-.1.18-.14.27.1-.69.32-1.18.67-1.45Z"/>
      <path class="cls-6" d="M13.7,9.45c.16.3.34.66.54,1.12-.71-.62-1.57-1.18-2.57-1.67.85.45,1.45.9,1.88,1.27.34.29.57.52.75.76-1.41-.44-1.93-.79-2.55-1.26-.6-.46-1.29-1.03-1.99-2,.96.15,2.27.74,3.94,1.78Z"/>
      <path class="cls-11" d="M9.69,7.57c1.66-.01,2.23.22,2.68.44.47.23.79.43,1.33,1.44-1.67-1.04-2.98-1.63-3.94-1.78-.02-.03-.05-.07-.07-.1Z"/>
      <path class="cls-9" d="M14.84,7.56c1.44-1.63,2.25-3.07,2.44-5.32.53,2.22.06,3.17-.69,3.97-.53.56-1.21,1.05-1.75,1.35Z"/>
      <path class="cls-9" d="M7.47,7.69c.9-.08,1.63-.11,2.22-.12.02.03.05.07.07.1.69.97,1.39,1.54,1.99,2,.62.47,1.14.83,2.55,1.26-1.36.13-1.8-.07-2.24-.37-.44-.3-.88-.7-1.29-1.06-.42-.36-.81-.68-1.14-.98-.33-.3-.61-.58-2.15-.84Z"/>
      <path class="cls-3" d="M14.29,10.94c-1.36.13-1.8-.07-2.24-.37-.44-.3-.88-.7-1.29-1.06-.42-.36-.81-.68-1.14-.98-.33-.3-.61-.58-2.15-.84"/>
      <path class="cls-8" d="M14.58,10.89c-.26-.84-.39-1.57-.45-2.12-.06-.55-.05-.92-.01-1.26.04-.35.11-.67.3-.96s.5-.55.86-.83c.36-.28.77-.58,1.3-1.61-.48,1-.85,1.36-1.15,1.62-.3.25-.51.39-.69.61-.18.21-.31.49-.39.8-.08.3-.1.63-.08,1,.02.37.09.78.18,1.21.09.43.2.88.33,1.42s.28,1.15.57,2.16c.18-.73.57-1.12.85-1.42.28-.29.46-.47,1.03-.69.57-.21,1.52-.46,2.3-.4-.81,0-1.77.27-2.39.58s-.9.64-1.13,1c-.23.35-.4.72-.5,1.06-.09.34-.11.64-.15.96s-.1.64-.27.97c-.16.33-.42.65-.6.91-.17.26-.26.45-.3.66-.04.21-.02.42.05.64.08.21.22.42.44.59.22.17.53.29,1.13.4.59.11,1.48.19,2.01.28.54.09.73.17,1.03.36.3.19.71.48,1.33,1.73-.6-.84-1.01-1.31-1.18-1.46.07.44.06.79-.02,1.06-.01-.78-.08-.95-.16-1.07-.08-.13-.18-.21-.34-.27-.16-.06-.38-.1-.64-.14-.26-.03-.57-.05-.95-.08-.38-.02-.83-.05-1.25-.14-.42-.09-.8-.23-1.3-.64.22.89.6,1.43.86,1.76s.41.48.58.57.39.13.64.14c.25.01.56,0,.86-.02.3-.01.6-.02.92.12-.51.02-.77.01-.97.03-.21.02-.36.07-1.06.02.21.15.99.48,2.02.81-1.19-.23-1.64-.42-1.98-.61-.34-.19-.59-.37-.8-.58-.21-.22-.4-.47-.64-.79s-.55-.71-.82-1.84c-.16,1-.23,1.37-.28,1.7-.05.33-.09.62-.08.87,0,.25.05.46.14.68.09.22.22.44.33.59.11.16.19.25.37.34.17.1.43.2.78.29.34.09.77.17,1.1.2-.64.02-1.18-.02-1.9-.37.3.34.42.6.49.83.07.23.1.44-.09,1.14.11-.88.01-1.1-.12-1.3-.13-.2-.28-.38-.44-.61-.17-.23-.34-.53-.43-.66-.09.62-.06,1.29.08,2-.25-.94-.26-1.65-.22-2.16-.38-.69-.33-1.12-.26-1.59.07-.47.16-.97.18-1.81-.63,1.25-.83,1.47-.98,1.62s-.23.22-.4.3c-.17.08-.43.18-.65.24s-.43.1-.6.17c-.17.07-.31.18-.54.53-.23.35-.55.94-.93,2.48.05-.86.29-1.65.6-2.49-.58.63-1.05,1.02-1.94,1.15.73-.26,1.05-.5,1.26-.7s.31-.34.43-.5c.13-.16.28-.34.48-.48s.42-.25.7-.34c.28-.09.62-.16.88-.26s.46-.24.67-.54.45-.77.8-1.45c-.64.66-1.24,1.02-1.73,1.25s-.89.35-1.25.41c-.37.07-.7.09-1.09.14-.38.05-.81.14-1.22.31-.4.18-.78.44-1.6,1.27.68-1.1,1.21-1.35,1.89-1.53.67-.19,1.49-.31,2.13-.45.64-.14,1.09-.29,1.52-.54s.83-.62,1.05-.92.27-.53.36-.75c.09-.22.21-.43.46-.78.25-.35.61-.83.82-1.34.21-.51.25-1.04.2-1.57-.05-.52-.19-1.04-.39-1.45-.21-.42-.48-.74-1.02-1.2-.54-.46-1.34-1.06-2.59-1.61,1.48.65,2.69,1.42,3.62,2.32Z"/>
      <path class="cls-2" d="M7.47,7.69c3.45-.3,4.29.03,4.9.32s.97.55,1.87,2.56"/>
      <path class="cls-3" d="M14.09,8.3c-.47-1.9-.47-2.41-.3-2.82s.5-.69.92-.88c.42-.18.92-.26,1.29-.46.38-.2.63-.52,1.27-1.9"/>
      <path class="cls-5" d="M14.58,10.89c-.26-.84-.39-1.57-.45-2.12-.06-.55-.05-.92-.01-1.26.04-.35.11-.67.3-.96s.5-.55.86-.83c.36-.28.77-.58,1.3-1.61-.48,1-.85,1.36-1.15,1.62-.3.25-.51.39-.69.61-.18.21-.31.49-.39.8-.08.3-.1.63-.08,1,.02.37.09.78.18,1.21.09.43.2.88.33,1.42s.28,1.15.57,2.16c.18-.73.57-1.12.85-1.42.28-.29.46-.47,1.03-.69.57-.21,1.52-.46,2.3-.4-.81,0-1.77.27-2.39.58s-.9.64-1.13,1c-.23.35-.4.72-.5,1.06-.09.34-.11.64-.15.96s-.1.64-.27.97c-.16.33-.42.65-.6.91-.17.26-.26.45-.3.66-.04.21-.02.42.05.64.08.21.22.42.44.59.22.17.53.29,1.13.4.59.11,1.48.19,2.01.28.54.09.73.17,1.03.36.3.19.71.48,1.33,1.73-.6-.84-1.01-1.31-1.18-1.46.07.44.06.79-.02,1.06-.01-.78-.08-.95-.16-1.07-.08-.13-.18-.21-.34-.27-.16-.06-.38-.1-.64-.14-.26-.03-.57-.05-.95-.08-.38-.02-.83-.05-1.25-.14-.42-.09-.8-.23-1.3-.64.22.89.6,1.43.86,1.76s.41.48.58.57.39.13.64.14c.25.01.56,0,.86-.02.3-.01.6-.02.92.12-.51.02-.77.01-.97.03-.21.02-.36.07-1.06.02.21.15.99.48,2.02.81-1.19-.23-1.64-.42-1.98-.61-.34-.19-.59-.37-.8-.58-.21-.22-.4-.47-.64-.79s-.55-.71-.82-1.84c-.16,1-.23,1.37-.28,1.7-.05.33-.09.62-.08.87,0,.25.05.46.14.68.09.22.22.44.33.59.11.16.19.25.37.34.17.1.43.2.78.29.34.09.77.17,1.1.2-.64.02-1.18-.02-1.9-.37.3.34.42.6.49.83.07.23.1.44-.09,1.14.11-.88.01-1.1-.12-1.3-.13-.2-.28-.38-.44-.61-.17-.23-.34-.53-.43-.66-.09.62-.06,1.29.08,2-.25-.94-.26-1.65-.22-2.16-.38-.69-.33-1.12-.26-1.59.07-.47.16-.97.18-1.81-.63,1.25-.83,1.47-.98,1.62s-.23.22-.4.3c-.17.08-.43.18-.65.24s-.43.1-.6.17c-.17.07-.31.18-.54.53-.23.35-.55.94-.93,2.48.05-.86.29-1.65.6-2.49-.58.63-1.05,1.02-1.94,1.15.73-.26,1.05-.5,1.26-.7s.31-.34.43-.5c.13-.16.28-.34.48-.48s.42-.25.7-.34c.28-.09.62-.16.88-.26s.46-.24.67-.54.45-.77.8-1.45c-.64.66-1.24,1.02-1.73,1.25s-.89.35-1.25.41c-.37.07-.7.09-1.09.14-.38.05-.81.14-1.22.31-.4.18-.78.44-1.6,1.27.68-1.1,1.21-1.35,1.89-1.53.67-.19,1.49-.31,2.13-.45.64-.14,1.09-.29,1.52-.54s.83-.62,1.05-.92.27-.53.36-.75c.09-.22.21-.43.46-.78.25-.35.61-.83.82-1.34.21-.51.25-1.04.2-1.57-.05-.52-.19-1.04-.39-1.45-.21-.42-.48-.74-1.02-1.2-.54-.46-1.34-1.06-2.59-1.61,1.48.65,2.69,1.42,3.62,2.32Z"/>
      <path class="cls-2" d="M14.27,7.84c.52-.2,1.56-.84,2.32-1.63.76-.8,1.22-1.74.69-3.97"/>
    </g>
  </g>
  <g id="Design">
    <line class="cls-3" x1="7.92" y1="11.98" x2="3.11" y2="11.98"/>
    <path class="cls-4" d="M1,11.98c0-.58.47-1.05,1.05-1.05s1.05.47,1.05,1.05-.47,1.05-1.05,1.05-1.05-.47-1.05-1.05Z"/>
    <polygon class="cls-12" points="7.87 11.08 9.95 11.98 7.87 12.88 7.87 11.08"/>
  </g>
</svg>