<?xml version="1.0" encoding="UTF-8"?>
<svg id="Lines" xmlns="http://www.w3.org/2000/svg" xmlns:xlink="http://www.w3.org/1999/xlink" viewBox="0 0 24 24">
  <defs>
    <style>
      .cls-1 {
        fill: #b2c99d;
      }

      .cls-2 {
        stroke-width: .75px;
      }

      .cls-2, .cls-3 {
        fill: none;
        stroke-linecap: round;
        stroke-linejoin: round;
      }

      .cls-2, .cls-3, .cls-4 {
        stroke: #333;
      }

      .cls-3 {
        stroke-width: .5px;
      }

      .cls-5 {
        fill: #75a071;
      }

      .cls-6 {
        fill: #7f9c63;
      }

      .cls-7 {
        fill: #857c6d;
      }

      .cls-8 {
        fill: #dee6ad;
      }

      .cls-9 {
        fill: #476949;
      }

      .cls-10 {
        fill: #9db699;
      }

      .cls-11 {
        fill: url(#Unbenannter_Verlauf_297);
      }

      .cls-12 {
        fill: url(#Unbenannter_Verlauf_117);
      }

      .cls-4 {
        fill: url(#Unbenannter_Verlauf_32);
        stroke-miterlimit: 10;
        stroke-width: .25px;
      }

      .cls-13 {
        fill: #68934f;
      }
    </style>
    <linearGradient id="Unbenannter_Verlauf_117" data-name="Unbenannter Verlauf 117" x1="19.74" y1="21.7" x2="8.59" y2="2.39" gradientUnits="userSpaceOnUse">
      <stop offset="0" stop-color="#f0a3a3" stop-opacity=".6"/>
      <stop offset=".13" stop-color="#f0a3a3" stop-opacity=".47"/>
      <stop offset=".44" stop-color="#f0a3a3" stop-opacity=".21"/>
      <stop offset=".58" stop-color="#f0a3a3" stop-opacity=".1"/>
    </linearGradient>
    <linearGradient id="Unbenannter_Verlauf_297" data-name="Unbenannter Verlauf 297" x1="20.13" y1="22.39" x2="8.19" y2="1.7" gradientUnits="userSpaceOnUse">
      <stop offset=".18" stop-color="#5e7f68" stop-opacity=".9"/>
      <stop offset=".56" stop-color="#9c8e81" stop-opacity=".77"/>
      <stop offset="1" stop-color="#f0a3a3" stop-opacity=".6"/>
    </linearGradient>
    <linearGradient id="Unbenannter_Verlauf_32" data-name="Unbenannter Verlauf 32" x1="8.66" y1="13.13" x2="19.7" y2="13.13" gradientUnits="userSpaceOnUse">
      <stop offset="0" stop-color="#918675" stop-opacity=".9"/>
      <stop offset=".84" stop-color="#fbd9d4"/>
    </linearGradient>
  </defs>
  <path class="cls-12" d="M22.2,18.9c0,.69-.3,1.35-.82,1.8-.58.5-1.17.59-1.88.59h-10.18c-.68,0-1.31.06-1.96-.3-.63-.35-1.07-.97-1.19-1.68-.05-.28-.04-1.71-.04-1.98V5.19c0-.69.3-1.35.82-1.8.58-.5,1.17-.59,1.88-.59h10.18c.68,0,1.31-.06,1.96.3.63.35,1.07.97,1.19,1.68.05.28.04,1.71.04,1.98v12.13Z"/>
  <line class="cls-3" x1="6.13" y1="12.05" x2="1.64" y2="12.05"/>
  <path class="cls-3" d="M6.13,9.74c.63.63,1.27,1.27,1.9,1.9.22.22.22.58,0,.8-.63.63-1.27,1.27-1.9,1.9"/>
  <path class="cls-3" d="M8.2,10.23l1.5,1.5c.17.17.17.45,0,.63l-1.5,1.5"/>
  <path class="cls-11" d="M6.13,5.19v3.14s.03.05,0,.05h-.66c-.09,0-.13.04-.13-.09v-2.8c0-.78.11-1.45.57-2.12.47-.68,1.19-1.14,2-1.3.46-.09,1.44-.06,1.9-.06h8.81c.63,0,1.26-.07,1.89.08.8.18,1.49.66,1.95,1.34.44.66.54,1.32.54,2.09v12.38c0,.67.06,1.33-.16,2-.27.82-.85,1.49-1.63,1.87-.68.33-1.35.32-2.06.32h-8.93c-.6,0-1.2.02-1.8,0-.81-.03-1.57-.36-2.14-.93-.6-.6-.93-1.4-.93-2.24,0-.6,0-1.21,0-1.81v-1.36c0-.06.06-.02.09-.02h.69s.01.03.01.04v1.4c0,.59,0,1.19,0,1.78,0,.62.26,1.22.7,1.66.44.44,1.04.69,1.66.69.61,0,1.23,0,1.84,0h7.65c.63,0,1.27.02,1.9,0,.65-.02,1.26-.31,1.7-.8.47-.53.6-1.07.6-1.75V5.55c0-.67-.06-1.25-.5-1.81-.41-.53-1.02-.87-1.69-.92-.31-.03-.62,0-.94,0h-10.49c-1.35,0-2.45,1.01-2.45,2.39Z"/>
  <g>
    <path class="cls-1" d="M15.31,6.14c-.25.07-.47.09-.7.15-.32.08-.63.22-.98.61-.01-.2.01-.34.05-.46.12-.33.37-.59.69-.76.33-.17.73-.26,1.02-.45.29-.18.48-.45.92-1.6-.03,1.82-.6,3.03-1.68,4.43-.17.11-.33.2-.45.26-.01-.2,0-.4.03-.58.05-.25.14-.49.27-.67.13-.18.3-.31.52-.53.21-.21.47-.5.77-1.2-.17.37-.33.61-.48.79Z"/>
    <path class="cls-8" d="M15.97,11.17c.83-1.19,1.55-1.52,2.21-1.65.66-.12,1.27-.03,2.87.91-1.42-.27-1.74-.04-1.98.17,0,0,0,0-.01,0,0,0,0,0,0,0-.47-.07-1.13-.1-2-.09.46-.21,1.03-.38,1.54-.42-.64,0-1.39.25-1.84.45-.45.2-.58.36-.79.61Z"/>
    <path class="cls-5" d="M19.06,10.61c-.24.21-.39.4-.79.57-.41.18-1.08.34-2.61.79.05-.13.12-.27.19-.4.16-.3.37-.59.85-.87.11-.06.23-.12.36-.18.87-.01,1.53.02,2,.09Z"/>
    <path class="cls-6" d="M21.22,10.46c-.06-.01-.11-.02-.16-.03-1.61-.94-2.21-1.03-2.87-.91-.66.12-1.38.46-2.21,1.65-.12.14-.27.32-.39.55.1-1.56.5-2.1,1.43-2.5.93-.4,2.39-.65,4.21,1.24Z"/>
    <path class="cls-2" d="M15.58,11.72c.1-1.56.5-2.1,1.43-2.5.93-.4,2.39-.65,4.21,1.24"/>
    <path class="cls-3" d="M15.66,11.97c1.53-.45,2.2-.62,2.61-.79.41-.18.56-.37.8-.58s.59-.45,2.14-.14"/>
    <path class="cls-9" d="M13.63,6.9c.35-.39.66-.53.98-.61-.27.24-.42.64-.46,1.21-.06.18-.08.37-.09.57,0,.19,0,.39.02.64-.31-.95-.43-1.46-.45-1.8Z"/>
    <path class="cls-13" d="M14.61,6.29c.23-.06.46-.08.7-.15-.15.18-.28.3-.41.41-.28.25-.51.47-.65.71-.04.07-.07.15-.1.23.04-.56.19-.97.46-1.21Z"/>
    <path class="cls-5" d="M13.82,9.65c.14.23.31.52.5.88-.61-.46-1.33-.87-2.17-1.2.71.31,1.22.65,1.59.92.29.22.49.39.65.57-1.16-.27-1.6-.53-2.13-.88-.51-.34-1.1-.76-1.72-1.51.78.07,1.87.47,3.28,1.22Z"/>
    <path class="cls-10" d="M10.48,8.36c1.34-.1,1.82.05,2.19.2.39.16.66.3,1.15,1.09-1.41-.74-2.5-1.15-3.28-1.22-.02-.03-.04-.05-.06-.08Z"/>
    <path class="cls-8" d="M14.64,8.06c1.07-1.4,1.65-2.61,1.68-4.43.55,1.77.23,2.56-.34,3.24-.4.48-.92.91-1.34,1.19Z"/>
    <path class="cls-8" d="M8.7,8.58c.73-.11,1.31-.18,1.78-.22.02.03.04.05.06.08.61.75,1.2,1.17,1.72,1.51.53.35.97.6,2.13.88-1.09.18-1.46.05-1.83-.17-.37-.22-.75-.52-1.1-.79-.36-.27-.69-.51-.98-.73-.29-.22-.53-.43-1.78-.56Z"/>
    <path class="cls-3" d="M14.39,10.82c-1.09.18-1.46.05-1.83-.17-.37-.22-.75-.52-1.1-.79-.36-.27-.69-.51-.98-.73-.29-.22-.53-.43-1.78-.56"/>
    <path class="cls-7" d="M14.62,10.76c-.25-.66-.4-1.25-.48-1.69-.08-.44-.09-.74-.08-1.02.01-.28.05-.55.19-.79s.37-.47.65-.71c.28-.25.59-.51.96-1.37-.33.83-.61,1.15-.84,1.37-.23.22-.39.35-.52.53-.13.18-.22.42-.27.67-.05.25-.05.52,0,.81.04.3.12.62.22.96.1.34.21.7.35,1.13s.29.91.58,1.71c.1-.6.39-.94.61-1.19.21-.25.35-.41.79-.61.45-.2,1.2-.45,1.84-.45-.66.05-1.42.32-1.9.6s-.69.57-.85.87c-.16.3-.28.61-.34.89-.06.28-.05.53-.07.78s-.05.53-.16.8c-.11.27-.31.55-.43.77-.13.22-.19.38-.21.55-.02.17,0,.34.08.51.07.17.2.33.39.45.19.12.45.21.93.26.49.05,1.2.08,1.64.11.44.04.6.1.85.23.25.13.6.35,1.17,1.32-.53-.64-.88-1-1.03-1.12.08.35.09.63.05.86-.06-.63-.11-.76-.19-.86-.07-.1-.16-.16-.29-.2-.13-.04-.31-.06-.52-.07-.21-.01-.46-.01-.77,0-.31,0-.68,0-1.02-.04-.34-.05-.66-.15-1.09-.45.23.71.56,1.12.79,1.38s.36.37.5.43.32.08.53.08c.21,0,.45-.03.69-.06.24-.03.49-.05.75.05-.41.05-.62.05-.78.08-.17.03-.29.08-.86.08.18.11.83.33,1.68.54-.98-.12-1.35-.25-1.63-.38-.29-.13-.49-.26-.68-.43-.18-.16-.35-.36-.56-.6s-.48-.55-.76-1.44c-.07.81-.11,1.12-.13,1.39-.02.27-.04.51-.02.71.02.2.07.37.15.54.08.17.21.34.3.46.1.12.17.19.31.26.14.07.36.14.64.19.28.05.63.09.9.1-.52.05-.95.05-1.55-.19.26.26.37.46.44.64.07.18.1.35-.01.92.04-.71-.05-.89-.17-1.04-.11-.15-.25-.29-.39-.47-.15-.18-.31-.41-.38-.51-.03.51.02,1.04.17,1.61-.26-.74-.3-1.32-.3-1.73-.34-.53-.33-.88-.3-1.27.03-.38.07-.79.05-1.47-.44,1.04-.59,1.23-.7,1.36s-.17.19-.3.27c-.13.08-.33.17-.51.23s-.34.1-.47.17c-.13.07-.24.16-.41.46-.17.29-.4.79-.61,2.06,0-.69.15-1.34.35-2.05-.43.54-.79.88-1.5,1.03.57-.25.82-.46.98-.63s.23-.29.32-.43c.09-.14.21-.29.36-.41s.32-.22.55-.31c.22-.09.49-.16.7-.26s.35-.22.51-.48.32-.64.56-1.21c-.48.57-.94.89-1.33,1.11s-.7.33-.99.4c-.29.07-.56.11-.87.17-.31.06-.65.16-.97.32-.32.16-.61.4-1.23,1.11.49-.92.91-1.15,1.44-1.34.53-.19,1.19-.33,1.7-.48.51-.15.87-.29,1.2-.52s.63-.55.8-.8.19-.44.25-.62c.06-.18.15-.36.33-.65.18-.29.45-.7.59-1.12.14-.42.14-.86.08-1.28-.07-.42-.21-.83-.4-1.15-.19-.32-.43-.57-.89-.91-.46-.34-1.14-.78-2.18-1.15,1.23.44,2.25,1,3.06,1.67Z"/>
    <path class="cls-2" d="M8.7,8.58c2.77-.43,3.47-.22,3.97-.02s.81.39,1.65,1.97"/>
    <path class="cls-3" d="M14.08,8.7c-.49-1.51-.51-1.92-.39-2.26s.37-.59.69-.76c.33-.17.73-.26,1.02-.45.29-.18.48-.45.92-1.6"/>
    <path class="cls-4" d="M14.62,10.76c-.25-.66-.4-1.25-.48-1.69-.08-.44-.09-.74-.08-1.02.01-.28.05-.55.19-.79s.37-.47.65-.71c.28-.25.59-.51.96-1.37-.33.83-.61,1.15-.84,1.37-.23.22-.39.35-.52.53-.13.18-.22.42-.27.67-.05.25-.05.52,0,.81.04.3.12.62.22.96.1.34.21.7.35,1.13s.29.91.58,1.71c.1-.6.39-.94.61-1.19.21-.25.35-.41.79-.61.45-.2,1.2-.45,1.84-.45-.66.05-1.42.32-1.9.6s-.69.57-.85.87c-.16.3-.28.61-.34.89-.06.28-.05.53-.07.78s-.05.53-.16.8c-.11.27-.31.55-.43.77-.13.22-.19.38-.21.55-.02.17,0,.34.08.51.07.17.2.33.39.45.19.12.45.21.93.26.49.05,1.2.08,1.64.11.44.04.6.1.85.23.25.13.6.35,1.17,1.32-.53-.64-.88-1-1.03-1.12.08.35.09.63.05.86-.06-.63-.11-.76-.19-.86-.07-.1-.16-.16-.29-.2-.13-.04-.31-.06-.52-.07-.21-.01-.46-.01-.77,0-.31,0-.68,0-1.02-.04-.34-.05-.66-.15-1.09-.45.23.71.56,1.12.79,1.38s.36.37.5.43.32.08.53.08c.21,0,.45-.03.69-.06.24-.03.49-.05.75.05-.41.05-.62.05-.78.08-.17.03-.29.08-.86.08.18.11.83.33,1.68.54-.98-.12-1.35-.25-1.63-.38-.29-.13-.49-.26-.68-.43-.18-.16-.35-.36-.56-.6s-.48-.55-.76-1.44c-.07.81-.11,1.12-.13,1.39-.02.27-.04.51-.02.71.02.2.07.37.15.54.08.17.21.34.3.46.1.12.17.19.31.26.14.07.36.14.64.19.28.05.63.09.9.1-.52.05-.95.05-1.55-.19.26.26.37.46.44.64.07.18.1.35-.01.92.04-.71-.05-.89-.17-1.04-.11-.15-.25-.29-.39-.47-.15-.18-.31-.41-.38-.51-.03.51.02,1.04.17,1.61-.26-.74-.3-1.32-.3-1.73-.34-.53-.33-.88-.3-1.27.03-.38.07-.79.05-1.47-.44,1.04-.59,1.23-.7,1.36s-.17.19-.3.27c-.13.08-.33.17-.51.23s-.34.1-.47.17c-.13.07-.24.16-.41.46-.17.29-.4.79-.61,2.06,0-.69.15-1.34.35-2.05-.43.54-.79.88-1.5,1.03.57-.25.82-.46.98-.63s.23-.29.32-.43c.09-.14.21-.29.36-.41s.32-.22.55-.31c.22-.09.49-.16.7-.26s.35-.22.51-.48.32-.64.56-1.21c-.48.57-.94.89-1.33,1.11s-.7.33-.99.4c-.29.07-.56.11-.87.17-.31.06-.65.16-.97.32-.32.16-.61.4-1.23,1.11.49-.92.91-1.15,1.44-1.34.53-.19,1.19-.33,1.7-.48.51-.15.87-.29,1.2-.52s.63-.55.8-.8.19-.44.25-.62c.06-.18.15-.36.33-.65.18-.29.45-.7.59-1.12.14-.42.14-.86.08-1.28-.07-.42-.21-.83-.4-1.15-.19-.32-.43-.57-.89-.91-.46-.34-1.14-.78-2.18-1.15,1.23.44,2.25,1,3.06,1.67Z"/>
    <path class="cls-2" d="M14.2,8.32c.41-.19,1.22-.76,1.78-1.45.57-.68.89-1.48.34-3.24"/>
  </g>
</svg>