<?xml version="1.0" encoding="UTF-8"?>
<svg xmlns="http://www.w3.org/2000/svg" xmlns:xlink="http://www.w3.org/1999/xlink" viewBox="0 0 24 24">
  <defs>
    <style>
      .cls-1 {
        fill: url(#Unbenannter_Verlauf_333-4);
      }

      .cls-1, .cls-2, .cls-3, .cls-4, .cls-5, .cls-6 {
        stroke: #333;
      }

      .cls-1, .cls-2, .cls-3, .cls-4, .cls-6 {
        stroke-width: .3px;
      }

      .cls-1, .cls-2, .cls-3, .cls-6 {
        stroke-miterlimit: 10;
      }

      .cls-2 {
        fill: url(#Unbenannter_Verlauf_333-2);
      }

      .cls-3 {
        fill: url(#Unbenannter_Verlauf_333-3);
      }

      .cls-7 {
        fill: #b2c99d;
      }

      .cls-4, .cls-5, .cls-8, .cls-9 {
        fill: none;
        stroke-linecap: round;
        stroke-linejoin: round;
      }

      .cls-5 {
        stroke-width: .4px;
      }

      .cls-10 {
        fill: #dee6ad;
      }

      .cls-11 {
        fill: #698c62;
      }

      .cls-8 {
        stroke-width: .25px;
      }

      .cls-8, .cls-9 {
        stroke: #1a1a1a;
      }

      .cls-9 {
        stroke-width: .5px;
      }

      .cls-12 {
        fill: #9db699;
      }

      .cls-6 {
        fill: url(#Unbenannter_Verlauf_333);
      }

      .cls-13 {
        fill: #333;
      }

      .cls-14 {
        fill: #1a1a1a;
      }
    </style>
    <radialGradient id="Unbenannter_Verlauf_333" data-name="Unbenannter Verlauf 333" cx="22.01" cy="12.07" fx="22.01" fy="12.07" r="1.05" gradientUnits="userSpaceOnUse">
      <stop offset=".16" stop-color="#fce8b9"/>
      <stop offset="1" stop-color="#f0a3a3" stop-opacity=".9"/>
    </radialGradient>
    <radialGradient id="Unbenannter_Verlauf_333-2" data-name="Unbenannter Verlauf 333" cx="20.97" cy="4.91" fx="20.97" fy="4.91" r="1.05" xlink:href="#Unbenannter_Verlauf_333"/>
    <radialGradient id="Unbenannter_Verlauf_333-3" data-name="Unbenannter Verlauf 333" cx="20.97" cy="19.09" fx="20.97" fy="19.09" r="1.05" xlink:href="#Unbenannter_Verlauf_333"/>
    <radialGradient id="Unbenannter_Verlauf_333-4" data-name="Unbenannter Verlauf 333" cx="12.54" cy="12" fx="12.54" fy="12" r="1.05" xlink:href="#Unbenannter_Verlauf_333"/>
  </defs>
  <g id="Text">
    <line class="cls-9" x1="12.62" y1="12.07" x2="18.89" y2="12.07"/>
    <polygon class="cls-14" points="18.89 11.17 20.96 12.07 18.89 12.96 18.89 11.17"/>
    <path class="cls-6" d="M23.06,12.07c0-.58-.47-1.05-1.05-1.05s-1.05.47-1.05,1.05.47,1.05,1.05,1.05,1.05-.47,1.05-1.05Z"/>
  </g>
  <g id="Design">
    <g>
      <path class="cls-13" d="M12.71,7.27v2.16s-.02.03,0,.03h.45c.06,0,.09.03.09-.06v-1.93c0-.54-.07-1-.39-1.46-.33-.47-.82-.79-1.38-.9-.32-.06-.99-.04-1.31-.04h-6.07c-.44,0-.86-.05-1.3.05-.55.12-1.03.45-1.34.92-.3.46-.37.91-.37,1.44v8.52c0,.46-.04.92.11,1.38.18.56.59,1.03,1.12,1.29.47.23.93.22,1.42.22h6.15c.41,0,.83.01,1.24,0,.56-.02,1.08-.25,1.48-.64.41-.41.64-.96.64-1.54,0-.42,0-.83,0-1.25v-6.06s-.52.06-.54.06c-.02,0,0,5.07,0,5.08v.96c0,.41,0,.82,0,1.23,0,.43-.18.84-.48,1.14-.3.3-.71.47-1.14.48-.42,0-.85,0-1.27,0h-5.27c-.44,0-.87.01-1.31,0-.45-.02-.87-.21-1.17-.55-.32-.36-.42-.74-.42-1.21V7.51c0-.46.04-.86.34-1.25.28-.37.71-.6,1.17-.63.22-.02.43,0,.64,0h7.22c.93,0,1.69.7,1.69,1.64Z"/>
      <path class="cls-13" d="M6.72,9.74h4.77c.08,0,.14-.1.14-.19s-.05-.19-.14-.19h-4.77c-.08,0-.14.1-.14.19s.05.19.14.19Z"/>
      <path class="cls-10" d="M5.39,10.28c-2.18-.82-2.29-1.07-2.37-1.56-.05-.36-.08-.85-.21-1.33.19.22.25.34.3.47.08.21.15.42.22.62.07.2.15.38.3.56.15.17.38.34,1.76,1.25Z"/>
      <path class="cls-11" d="M5.39,10.28c-.8-.73-.9-.9-.94-1.18s-.04-.66-.13-.85c-.11-.25-.38-.21-1.71-1.4.5.41,1.18.69,1.57.93.39.24.48.43.63.81.15.37.34.93.58,1.69Z"/>
      <path class="cls-12" d="M3.11,7.85c.33.46.42.5.5.52.08.02.13,0,.21-.02.06-.03.15-.07.3-.32.12.08.17.13.21.22.09.2.08.57.13.85s.15.46.94,1.18c-1.39-.92-1.61-1.08-1.76-1.25-.15-.17-.22-.36-.3-.56-.07-.2-.14-.41-.22-.62,0,0,0,0,0,0Z"/>
      <path class="cls-7" d="M2.62,6.85c.86.78,1.28,1.03,1.49,1.18-.15.24-.23.29-.3.32-.08.03-.13.04-.21.02-.07-.02-.17-.06-.5-.52-.05-.13-.11-.25-.3-.47-.05-.18-.11-.36-.19-.53Z"/>
      <path class="cls-8" d="M2.62,6.85c.5.41,1.18.69,1.57.93.39.24.48.43.63.81.15.37.34.93.58,1.69"/>
      <path class="cls-8" d="M5.39,10.28c-2.18-.82-2.29-1.07-2.37-1.56-.07-.49-.1-1.23-.41-1.87"/>
      <path class="cls-8" d="M5.68,10.42c-1.86-1.05-2.05-1.5-2.54-3"/>
      <path class="cls-7" d="M2.62,6.85c.86.78,1.28,1.03,1.49,1.18-.15.24-.23.29-.3.32-.08.03-.13.04-.21.02-.07-.02-.17-.06-.5-.52-.05-.13-.11-.25-.3-.47-.05-.18-.11-.36-.19-.53Z"/>
      <path class="cls-8" d="M2.62,6.85c.5.41,1.18.69,1.57.93.39.24.48.43.63.81.15.37.34.93.58,1.69"/>
      <path class="cls-8" d="M5.39,10.28c-2.18-.82-2.29-1.07-2.37-1.56-.07-.49-.1-1.23-.41-1.87"/>
      <path class="cls-8" d="M5.68,10.42c-1.86-1.05-2.05-1.5-2.54-3"/>
      <path class="cls-5" d="M2.62,6.85c.5.41,1.18.69,1.57.93.39.24.48.43.63.81.15.37.34.93.58,1.69"/>
      <path class="cls-4" d="M5.39,10.28c-2.18-.82-2.29-1.07-2.37-1.56-.07-.49-.1-1.23-.41-1.87"/>
      <path class="cls-8" d="M5.68,10.42c-1.86-1.05-2.05-1.5-2.54-3"/>
      <path class="cls-4" d="M5.68,10.42c-1.86-1.05-2.05-1.5-2.54-3"/>
      <path class="cls-13" d="M6.72,12.68h4.77c.08,0,.14-.1.14-.19s-.05-.19-.14-.19h-4.77c-.08,0-.14.1-.14.19s.05.19.14.19Z"/>
      <path class="cls-10" d="M5.39,13.21c-2.18-.82-2.29-1.07-2.37-1.56-.05-.36-.08-.85-.21-1.33.19.22.25.34.3.47.08.21.15.42.22.62.07.2.15.38.3.56.15.17.38.34,1.76,1.25Z"/>
      <path class="cls-11" d="M5.39,13.21c-.8-.73-.9-.9-.94-1.18s-.04-.66-.13-.85c-.11-.25-.38-.21-1.71-1.4.5.41,1.18.69,1.57.93.39.24.48.43.63.81.15.37.34.93.58,1.69Z"/>
      <path class="cls-12" d="M3.11,10.78c.33.46.42.5.5.52.08.02.13,0,.21-.02.06-.03.15-.07.3-.32.12.08.17.13.21.22.09.2.08.57.13.85s.15.46.94,1.18c-1.39-.92-1.61-1.08-1.76-1.25-.15-.17-.22-.36-.3-.56-.07-.2-.14-.41-.22-.62,0,0,0,0,0,0Z"/>
      <path class="cls-7" d="M2.62,9.78c.86.78,1.28,1.03,1.49,1.18-.15.24-.23.29-.3.32-.08.03-.13.04-.21.02-.07-.02-.17-.06-.5-.52-.05-.13-.11-.25-.3-.47-.05-.18-.11-.36-.19-.53Z"/>
      <path class="cls-8" d="M2.62,9.78c.5.41,1.18.69,1.57.93.39.24.48.43.63.81.15.37.34.93.58,1.69"/>
      <path class="cls-8" d="M5.39,13.21c-2.18-.82-2.29-1.07-2.37-1.56-.07-.49-.1-1.23-.41-1.87"/>
      <path class="cls-8" d="M5.68,13.36c-1.86-1.05-2.05-1.5-2.54-3"/>
      <path class="cls-7" d="M2.62,9.78c.86.78,1.28,1.03,1.49,1.18-.15.24-.23.29-.3.32-.08.03-.13.04-.21.02-.07-.02-.17-.06-.5-.52-.05-.13-.11-.25-.3-.47-.05-.18-.11-.36-.19-.53Z"/>
      <path class="cls-8" d="M2.62,9.78c.5.41,1.18.69,1.57.93.39.24.48.43.63.81.15.37.34.93.58,1.69"/>
      <path class="cls-8" d="M5.39,13.21c-2.18-.82-2.29-1.07-2.37-1.56-.07-.49-.1-1.23-.41-1.87"/>
      <path class="cls-8" d="M5.68,13.36c-1.86-1.05-2.05-1.5-2.54-3"/>
      <path class="cls-5" d="M2.62,9.78c.5.41,1.18.69,1.57.93.39.24.48.43.63.81.15.37.34.93.58,1.69"/>
      <path class="cls-4" d="M5.39,13.21c-2.18-.82-2.29-1.07-2.37-1.56-.07-.49-.1-1.23-.41-1.87"/>
      <path class="cls-8" d="M5.68,13.36c-1.86-1.05-2.05-1.5-2.54-3"/>
      <path class="cls-4" d="M5.68,13.36c-1.86-1.05-2.05-1.5-2.54-3"/>
      <path class="cls-13" d="M6.72,15.61h4.77c.08,0,.14-.1.14-.19s-.05-.19-.14-.19h-4.77c-.08,0-.14.1-.14.19s.05.19.14.19Z"/>
      <path class="cls-10" d="M5.39,16.14c-2.18-.82-2.29-1.07-2.37-1.56-.05-.36-.08-.85-.21-1.33.19.22.25.34.3.47.08.21.15.42.22.62.07.2.15.38.3.56.15.17.38.34,1.76,1.25Z"/>
      <path class="cls-11" d="M5.39,16.14c-.8-.73-.9-.9-.94-1.18s-.04-.66-.13-.85c-.11-.25-.38-.21-1.71-1.4.5.41,1.18.69,1.57.93.39.24.48.43.63.81.15.37.34.93.58,1.69Z"/>
      <path class="cls-12" d="M3.11,13.71c.33.46.42.5.5.52.08.02.13,0,.21-.02.06-.03.15-.07.3-.32.12.08.17.13.21.22.09.2.08.57.13.85s.15.46.94,1.18c-1.39-.92-1.61-1.08-1.76-1.25-.15-.17-.22-.36-.3-.56-.07-.2-.14-.41-.22-.62,0,0,0,0,0,0Z"/>
      <path class="cls-7" d="M2.62,12.71c.86.78,1.28,1.03,1.49,1.18-.15.24-.23.29-.3.32-.08.03-.13.04-.21.02-.07-.02-.17-.06-.5-.52-.05-.13-.11-.25-.3-.47-.05-.18-.11-.36-.19-.53Z"/>
      <path class="cls-8" d="M2.62,12.71c.5.41,1.18.69,1.57.93.39.24.48.43.63.81.15.37.34.93.58,1.69"/>
      <path class="cls-8" d="M5.39,16.14c-2.18-.82-2.29-1.07-2.37-1.56-.07-.49-.1-1.23-.41-1.87"/>
      <path class="cls-8" d="M5.68,16.29c-1.86-1.05-2.05-1.5-2.54-3"/>
      <path class="cls-7" d="M2.62,12.71c.86.78,1.28,1.03,1.49,1.18-.15.24-.23.29-.3.32-.08.03-.13.04-.21.02-.07-.02-.17-.06-.5-.52-.05-.13-.11-.25-.3-.47-.05-.18-.11-.36-.19-.53Z"/>
      <path class="cls-8" d="M2.62,12.71c.5.41,1.18.69,1.57.93.39.24.48.43.63.81.15.37.34.93.58,1.69"/>
      <path class="cls-8" d="M5.39,16.14c-2.18-.82-2.29-1.07-2.37-1.56-.07-.49-.1-1.23-.41-1.87"/>
      <path class="cls-8" d="M5.68,16.29c-1.86-1.05-2.05-1.5-2.54-3"/>
      <path class="cls-5" d="M2.62,12.71c.5.41,1.18.69,1.57.93.39.24.48.43.63.81.15.37.34.93.58,1.69"/>
      <path class="cls-4" d="M5.39,16.14c-2.18-.82-2.29-1.07-2.37-1.56-.07-.49-.1-1.23-.41-1.87"/>
      <path class="cls-8" d="M5.68,16.29c-1.86-1.05-2.05-1.5-2.54-3"/>
      <path class="cls-4" d="M5.68,16.29c-1.86-1.05-2.05-1.5-2.54-3"/>
    </g>
    <path class="cls-2" d="M22.03,4.91c0-.58-.47-1.06-1.05-1.06s-1.05.47-1.05,1.06.47,1.06,1.05,1.06,1.05-.47,1.05-1.06Z"/>
    <polygon class="cls-14" points="18.02 6.26 20.18 5.61 19.18 7.64 18.02 6.26"/>
    <line class="cls-9" x1="12.62" y1="12" x2="18.6" y2="6.95"/>
    <path class="cls-3" d="M22.03,19.09c0,.58-.47,1.06-1.05,1.06s-1.05-.47-1.05-1.06.47-1.06,1.05-1.06,1.05.47,1.05,1.06Z"/>
    <polygon class="cls-14" points="18.02 17.74 20.18 18.39 19.18 16.36 18.02 17.74"/>
    <line class="cls-9" x1="12.62" y1="12" x2="18.72" y2="17.15"/>
    <path class="cls-1" d="M13.59,12c0-.58-.47-1.06-1.05-1.06s-1.05.47-1.05,1.06.47,1.06,1.05,1.06,1.05-.47,1.05-1.06Z"/>
  </g>
</svg>