<?xml version="1.0" encoding="UTF-8"?>
<svg id="Design" xmlns="http://www.w3.org/2000/svg" xmlns:xlink="http://www.w3.org/1999/xlink" viewBox="0 0 24 24">
  <defs>
    <style>
      .cls-1 {
        fill: url(#Unbenannter_Verlauf_346-2);
      }

      .cls-2 {
        fill: url(#Unbenannter_Verlauf_346-4);
      }

      .cls-3 {
        fill: url(#Unbenannter_Verlauf_346-5);
      }

      .cls-4 {
        fill: url(#Unbenannter_Verlauf_346-3);
      }

      .cls-5 {
        fill: url(#Unbenannter_Verlauf_152-2);
      }

      .cls-6 {
        fill: url(#Unbenannter_Verlauf_271-2);
      }

      .cls-7 {
        fill: #b2c99d;
      }

      .cls-8 {
        fill: none;
        stroke-linecap: round;
        stroke-linejoin: round;
        stroke-width: .5px;
      }

      .cls-8, .cls-9, .cls-10, .cls-11 {
        stroke: #333;
      }

      .cls-9, .cls-10 {
        stroke-width: .25px;
      }

      .cls-9, .cls-10, .cls-11 {
        stroke-miterlimit: 10;
      }

      .cls-9, .cls-12 {
        fill: #333;
      }

      .cls-10 {
        fill: url(#Unbenannter_Verlauf_106);
      }

      .cls-13 {
        fill: #ceb1bd;
      }

      .cls-14 {
        fill: url(#Unbenannter_Verlauf_271);
      }

      .cls-15 {
        fill: url(#Unbenannter_Verlauf_152);
      }

      .cls-16 {
        fill: url(#Unbenannter_Verlauf_158);
      }

      .cls-17 {
        fill: url(#Unbenannter_Verlauf_346);
      }

      .cls-18 {
        fill: url(#Unbenannter_Verlauf_85);
      }

      .cls-11 {
        fill: url(#Unbenannter_Verlauf_90);
        stroke-width: .75px;
      }
    </style>
    <radialGradient id="Unbenannter_Verlauf_346" data-name="Unbenannter Verlauf 346" cx="9.47" cy="10.71" fx="9.47" fy="10.71" r="1.85" gradientUnits="userSpaceOnUse">
      <stop offset=".09" stop-color="#fbd9d4" stop-opacity=".6"/>
      <stop offset=".37" stop-color="#e6d3bd" stop-opacity=".67"/>
      <stop offset=".86" stop-color="#afc380" stop-opacity=".87"/>
      <stop offset=".94" stop-color="#a6c176" stop-opacity=".9"/>
    </radialGradient>
    <radialGradient id="Unbenannter_Verlauf_346-2" data-name="Unbenannter Verlauf 346" cx="8.79" cy="15.87" fx="8.79" fy="15.87" r="2.11" xlink:href="#Unbenannter_Verlauf_346"/>
    <radialGradient id="Unbenannter_Verlauf_106" data-name="Unbenannter Verlauf 106" cx="13.7" cy="14.26" fx="13.7" fy="14.26" r="8.15" gradientUnits="userSpaceOnUse">
      <stop offset=".22" stop-color="#f0a3a3" stop-opacity=".9"/>
      <stop offset=".64" stop-color="#a9c078" stop-opacity=".9"/>
      <stop offset="1" stop-color="#6d8e40" stop-opacity=".9"/>
    </radialGradient>
    <linearGradient id="Unbenannter_Verlauf_271" data-name="Unbenannter Verlauf 271" x1="7.79" y1="12.43" x2="10.97" y2="12.43" gradientUnits="userSpaceOnUse">
      <stop offset="0" stop-color="#ef788c" stop-opacity=".6"/>
      <stop offset=".12" stop-color="#f27893" stop-opacity=".48"/>
      <stop offset=".43" stop-color="#fb7aa5" stop-opacity=".21"/>
      <stop offset=".58" stop-color="#ff7bac" stop-opacity=".1"/>
    </linearGradient>
    <linearGradient id="Unbenannter_Verlauf_158" data-name="Unbenannter Verlauf 158" x1="7.52" y1="14.33" x2="10.98" y2="14.33" gradientUnits="userSpaceOnUse">
      <stop offset="0" stop-color="#f0a3a3"/>
      <stop offset=".17" stop-color="#f0a3a3" stop-opacity=".81"/>
      <stop offset=".58" stop-color="#f0a3a3" stop-opacity=".38"/>
      <stop offset=".87" stop-color="#f0a3a3" stop-opacity=".11"/>
      <stop offset="1" stop-color="#f0a3a3" stop-opacity="0"/>
    </linearGradient>
    <radialGradient id="Unbenannter_Verlauf_90" data-name="Unbenannter Verlauf 90" cx="10.05" cy="6.54" fx="10.05" fy="6.54" r="2.83" gradientUnits="userSpaceOnUse">
      <stop offset=".09" stop-color="#fbd9d4" stop-opacity=".6"/>
      <stop offset=".11" stop-color="#eccfc9" stop-opacity=".62"/>
      <stop offset=".19" stop-color="#b2aa9c" stop-opacity=".71"/>
      <stop offset=".29" stop-color="#828c77" stop-opacity=".78"/>
      <stop offset=".4" stop-color="#5d745a" stop-opacity=".83"/>
      <stop offset=".52" stop-color="#426346" stop-opacity=".87"/>
      <stop offset=".67" stop-color="#33593a" stop-opacity=".89"/>
      <stop offset=".94" stop-color="#2f5737" stop-opacity=".9"/>
    </radialGradient>
    <radialGradient id="Unbenannter_Verlauf_85" data-name="Unbenannter Verlauf 85" cx="13.2" cy="13.13" fx="13.2" fy="13.13" r="7.71" gradientUnits="userSpaceOnUse">
      <stop offset=".09" stop-color="#fbd9d4" stop-opacity=".6"/>
      <stop offset=".27" stop-color="#e5ccbe" stop-opacity=".64"/>
      <stop offset=".6" stop-color="#acab84" stop-opacity=".75"/>
      <stop offset=".94" stop-color="#63813a" stop-opacity=".9"/>
    </radialGradient>
    <radialGradient id="Unbenannter_Verlauf_346-3" data-name="Unbenannter Verlauf 346" cx="12.14" cy="9.5" fx="12.14" fy="9.5" r="1.38" xlink:href="#Unbenannter_Verlauf_346"/>
    <linearGradient id="Unbenannter_Verlauf_271-2" data-name="Unbenannter Verlauf 271" x1="6.8" y1="17.13" x2="10.23" y2="17.13" xlink:href="#Unbenannter_Verlauf_271"/>
    <linearGradient id="Unbenannter_Verlauf_152" data-name="Unbenannter Verlauf 152" x1="5.83" y1="19.28" x2="9.69" y2="19.28" gradientUnits="userSpaceOnUse">
      <stop offset="0" stop-color="#f0a3a3" stop-opacity=".9"/>
      <stop offset=".12" stop-color="#eda2a1" stop-opacity=".88"/>
      <stop offset=".25" stop-color="#e5a29d" stop-opacity=".82"/>
      <stop offset=".4" stop-color="#d9a196" stop-opacity=".72"/>
      <stop offset=".55" stop-color="#c7a08c" stop-opacity=".58"/>
      <stop offset=".71" stop-color="#b19f7f" stop-opacity=".4"/>
      <stop offset=".88" stop-color="#969d70" stop-opacity=".19"/>
      <stop offset="1" stop-color="#7f9c63" stop-opacity="0"/>
    </linearGradient>
    <radialGradient id="Unbenannter_Verlauf_346-4" data-name="Unbenannter Verlauf 346" cx="16.83" cy="14.03" fx="16.83" fy="14.03" r="2.21" xlink:href="#Unbenannter_Verlauf_346"/>
    <linearGradient id="Unbenannter_Verlauf_152-2" data-name="Unbenannter Verlauf 152" x1="18.53" y1="15.69" x2="22.17" y2="15.69" xlink:href="#Unbenannter_Verlauf_152"/>
    <radialGradient id="Unbenannter_Verlauf_346-5" data-name="Unbenannter Verlauf 346" cx="14.63" cy="11.46" fx="14.63" fy="11.46" r="2.25" xlink:href="#Unbenannter_Verlauf_346"/>
  </defs>
  <path class="cls-17" d="M9.66,8.43s0,.02,0,.02c.07.25.13.61.25,1.19s.28,1.37.41,1.85c.13.48.24.65.32.99.03.14.06.31.09.5-1.33-.65-2.37-1.37-2.54-2.75.02-.01.04-.03.06-.04.42-.31,1.14-.51,1.41-1.77Z"/>
  <path class="cls-1" d="M7.52,13.67c.81,1.42,2.2,2.36,3.28,2.61-.13.53-.3,1.09-.47,1.53-.04.09-.07.18-.1.26-1.04-.26-2.3-1.1-3.43-3.05-.06-.4,0-.68.17-.55.19.14.53.77.86,1.26.33.48.66.81.61.63-.05-.18-.47-.86-.7-1.53-.15-.44-.23-.87-.23-1.16Z"/>
  <path class="cls-10" d="M9.66,8.43c-.27,1.26-.98,1.46-1.41,1.77-.02.01-.04.03-.06.04-.37.3-.49.7-.36,1.25.06.27.19.58.33.89.15.33.32.65.46.92.26.51.37.81.28.86-.09.05-.39-.15-.67-.41-.28-.26-.55-.57-.66-.4-.04.06-.06.17-.06.32,0,.29.07.72.23,1.16.23.67.65,1.35.7,1.53.05.18-.28-.15-.61-.63-.33-.48-.67-1.12-.86-1.26-.17-.12-.23.15-.17.55,0,.04.01.09.02.14.09.47.32,1.06.6,1.64.28.58.62,1.15.57,1.19-.04.03-.25-.19-.47-.45-.11-.13-.23-.27-.32-.41-.29-.4-.44-.71-.42-.56.01.15.19.74.43,1.32.24.58.54,1.13.72,1.54.19.41.26.67.03.47s-.76-.87-1.14-1.23c-.37-.36-.59-.4-.5-.09.09.31.49.98.67,1.45.18.46.13.72-.07.62-.21-.1-.58-.56-.8-.69s-.31.07-.27.34c.04.27.19.63.31,1.58-.15-.08-.31-.2-.45-.35-.25-.26-.46-.63-.61-1.25-.01-.05-.03-.11-.04-.17.07-1.81,1.07-5.3,1.64-7.38.57-2.08.72-2.75,1.15-3.48.43-.72,1.14-1.5,1.57-1.93.43-.43.59-.53.82-.6.24-.08.55-.14.97-.07.41.07.92.26,1.96.87,1.04.62,2.61,1.66,4.1,2.7,1.48,1.05,2.87,2.1,4.3,3.1.29.33.44.59.56.87.19.44.29.91.2,1.36-.03.14-.08.27-.15.4-.42-.21-.62-.48-.87-.55-.24-.06-.53.09-.76.16-.23.07-.41.07-.55-.08-.14-.15-.25-.43-.39-.72-.13-.29-.29-.57-.37-.55-.08.03-.09.36-.16.63-.07.27-.2.47-.28.35-.06-.09-.09-.34-.11-.65,0-.11-.01-.22-.02-.33-.02-.44-.02-.87-.13-1.11s-.33-.26-.43-.14c-.1.13-.08.41-.2.88s-.38,1.13-.45,1.32c-.07.19.04-.09.11-.58.07-.49.1-1.19.06-1.62s-.15-.57-.24-.49-.16.38-.24.84c-.09.46-.19,1.07-.31,1.43-.12.37-.26.49-.31.44-.04-.05,0-.27.07-.89.06-.62.13-1.65.16-2.22s0-.7-.09-.42c-.09.25-.24.85-.41,1.27-.01.03-.03.06-.04.09-.19.42-.42.59-.53.62s-.13-.07-.05-.51c.08-.43.26-1.19.26-1.8,0-.22-.02-.43-.07-.63-.09-.34-.26-.66-.55-1.01-.34-.41-.83-.86-1.26-1.22-.16-.13-.31-.25-.44-.34-.34-.24-.55-.34-.75-.34-.09,0-.17.02-.26.05-.31.1-.71.35-1.43.01-.07-.24-.18-.45-.34-.58-.17-.14-.41-.18-.57-.18-.16,0-.25.05-.37.19s-.26.39-.3.57c-.03.18.04.3.11.53Z"/>
  <path class="cls-14" d="M10.97,14.62c-.91-.47-1.85-1.21-2.8-2.24-.14-.31-.27-.62-.33-.89-.13-.54-.01-.94.36-1.25.17,1.38,1.21,2.1,2.54,2.75.04.27.08.56.12.85.04.26.09.5.11.78Z"/>
  <path class="cls-16" d="M10.8,16.28c-1.08-.25-2.47-1.18-3.28-2.61,0-.15.02-.26.06-.32.11-.17.37.14.66.4.28.26.58.46.67.41.09-.05-.02-.35-.28-.86-.13-.27-.3-.59-.46-.92.96,1.03,1.89,1.77,2.8,2.24.02.25.02.52-.02.85-.03.24-.08.52-.15.8Z"/>
  <path class="cls-7" d="M12.69,11.17c.48-1.35.68-2.04.13-3.34.2,0,.41.1.75.34.13.09.28.21.44.34.82,2.1.46,3.16-.59,4.56-.1-.21-.19-.43-.28-.65-.17-.43-.3-.87-.46-1.26Z"/>
  <path class="cls-11" d="M7.01,9.14c.02-.35.03-.67.04-1.02.03-.81.12-1.81,1.26-3.89.01,0,.02,0,.03,0,.1.01.25.01.42,0,.17-.02.37-.05.47-.1.1-.05.11-.11.15-.19,0,0,0,0,0,0,0,0,0,0,0,0,.45-.07,1.23.28,1.86.72.63.45,1.1.99,1.56,1.5.1.11.19.22.29.32-1.26-.12-2.21-.38-3-.34-.78.04-1.41.39-3.08,3"/>
  <path class="cls-18" d="M5.05,20.13c-.13-.6-.21-1.38-.21-2,0-.68.11-1.19.5-2.49.39-1.3,1.06-3.39,1.39-4.74.18-.77.25-1.3.28-1.76,1.67-2.61,2.3-2.95,3.08-3,.79-.05,1.74.22,3,.34.37.4.77.79,1.41,1.28.81.62,1.99,1.4,3.2,2.29,1.21.9,2.45,1.92,3.21,2.62.27.26.48.47.65.66-1.42-.99-2.81-2.05-4.3-3.1-1.48-1.05-3.06-2.09-4.1-2.7-1.04-.62-1.55-.81-1.96-.87-.41-.07-.73,0-.97.07-.24.08-.39.17-.82.6-.43.43-1.14,1.21-1.57,1.93-.43.72-.58,1.4-1.15,3.48-.57,2.08-1.56,5.56-1.64,7.38Z"/>
  <path class="cls-4" d="M12.69,11.17c-.05-.12-.1-.24-.15-.35-.23-.46-.52-.8-.74-1.12-.22-.32-.37-.61-.46-.9s-.12-.59-.19-.86c0-.02-.01-.04-.02-.05.71.33,1.12.09,1.43-.01.09-.03.18-.05.26-.05.55,1.3.35,1.99-.13,3.34Z"/>
  <path class="cls-6" d="M6.8,15.02c1.13,1.95,2.39,2.78,3.43,3.05-.21.5-.4.83-.54,1.16-.55-.24-1.02-.42-1.86-1.35.09.08.15.13.17.11.05-.04-.28-.61-.57-1.19-.28-.58-.51-1.17-.6-1.64,0-.05-.02-.09-.02-.14Z"/>
  <path class="cls-15" d="M6.15,21.89c-.13-.95-.28-1.3-.31-1.58-.04-.28.04-.47.27-.34s.6.59.8.69c.21.1.25-.16.07-.62-.18-.46-.57-1.13-.67-1.45-.09-.31.12-.27.5.09.37.36.91,1.03,1.14,1.23s.16-.06-.03-.47c-.19-.41-.48-.96-.72-1.54-.24-.58-.41-1.17-.43-1.32-.01-.15.13.16.42.56.1.13.21.28.32.41.11.13.22.25.3.34.84.93,1.31,1.11,1.86,1.35,0,0,0,.02,0,.02-.16.39-.25.8-.45,1.15-.2.34-.51.62-.74.83s-.39.35-.6.45-.47.17-.71.23-.46.13-.7.09c-.1-.02-.21-.06-.32-.12"/>
  <path class="cls-13" d="M16.09,13.32c-.31.67-.69,1.28-1.15,1.82-.29-.25-.52-.48-.72-.74.67-.79,1.2-2.02,1.61-3.67.05.2.07.4.07.63,0,.61-.18,1.37-.26,1.8-.08.43-.07.54.05.51.09-.02.23-.13.4-.35Z"/>
  <path class="cls-2" d="M16.09,13.32c.04-.08.09-.17.14-.28.01-.03.03-.06.04-.09.18-.42.33-1.02.41-1.27.09-.27.12-.15.09.42s-.1,1.6-.16,2.22c-.06.62-.11.84-.07.89.04.05.19-.07.31-.44.12-.37.22-.98.31-1.43.09-.46.15-.76.24-.84s.2.07.24.49.01,1.13-.06,1.62c-.07.49-.18.77-.11.58.07-.19.33-.85.45-1.32s.1-.75.2-.88c.1-.13.32-.1.43.14s.12.67.13,1.11c0,.11,0,.23.02.33,0,.1.01.2.02.29.02.67-.05,1.21-.19,1.64-.05-.02-.1-.03-.15-.03-.17-.02-.37.03-.54.01s-.31-.12-.48-.14-.39.03-.82-.16c-.43-.19-1.06-.61-1.54-1.01-.02-.02-.04-.03-.06-.05.46-.54.84-1.15,1.15-1.82Z"/>
  <path class="cls-5" d="M18.72,14.88c.02.17.05.3.09.36.08.12.21-.09.28-.35.07-.27.08-.61.16-.63.08-.03.23.26.37.55.13.29.24.57.39.72.14.15.32.15.55.08.23-.07.52-.22.76-.16.24.06.44.34.87.55-.15.29-.37.54-.64.73-.39.28-.86.42-1.2.42-.34,0-.55-.17-.71-.25-.16-.07-.28-.06-.41-.08s-.25-.07-.38-.14c-.09-.05-.19-.11-.3-.14.14-.42.21-.97.19-1.64Z"/>
  <path class="cls-3" d="M13.42,13.07c1.05-1.4,1.42-2.46.59-4.56.43.35.92.81,1.26,1.22.29.35.47.67.55,1.01-.41,1.65-.95,2.87-1.61,3.67-.1-.13-.2-.27-.3-.42-.18-.28-.35-.59-.5-.91"/>
  <path class="cls-9" d="M8.18,2.3c.11-.02.22-.04.34-.07.21.67.38.95.48,1.11.11.16.15.18.22.19.02,0,.04,0,.06.01-.03.24-.63.45-1.11.37.04-.06.11-.12.16-.22.06-.11.11-.27-.15-1.4Z"/>
  <path class="cls-12" d="M8.16,3.91c.48.08,1.08-.13,1.11-.37.05,0,.11.02.15.03.06.03.08.07.06.14-.02.07-.07.15-.11.23,0,0,0,0,0,0-.03.08-.04.14-.15.19-.1.05-.3.08-.47.1-.17.02-.32.02-.42,0-.01,0-.02,0-.03,0-.08-.02-.12-.05-.15-.09-.03-.05-.04-.13,0-.2,0,0,0-.02.02-.03Z"/>
  <path class="cls-8" d="M8.31,4.23c-1.14,2.09-1.23,3.09-1.26,3.89-.03.81,0,1.42-.32,2.77-.32,1.35-1,3.44-1.39,4.74-.39,1.3-.5,1.8-.5,2.49s.09,1.55.25,2.17.37.98.61,1.25c.25.26.52.42.77.47s.47-.02.7-.09.5-.13.71-.23.37-.24.6-.45.55-.49.74-.83c.2-.34.28-.75.45-1.15s.4-.77.66-1.44.53-1.63.62-2.33c.09-.7-.01-1.15-.09-1.64-.08-.48-.13-1-.21-1.35-.08-.34-.19-.51-.32-.99-.13-.48-.3-1.27-.41-1.85s-.18-.95-.25-1.19-.15-.37-.11-.55c.03-.18.18-.43.3-.57s.21-.19.37-.19c.16,0,.4.04.57.18.17.14.28.37.35.63.07.26.1.56.19.86s.24.58.46.9c.22.32.51.66.74,1.12s.39,1.04.61,1.6c.22.56.49,1.11.78,1.56.29.45.6.81,1.08,1.2s1.11.82,1.54,1.01c.43.19.64.14.82.16s.31.12.48.14.37-.03.54-.01c.17.02.32.11.45.18.13.07.26.12.38.14s.24,0,.41.08c.16.07.37.24.71.25.34,0,.82-.14,1.2-.42.39-.28.68-.69.78-1.14.1-.45-.01-.92-.2-1.36s-.46-.83-1.21-1.53c-.76-.71-2-1.73-3.21-2.62-1.21-.9-2.39-1.67-3.2-2.29-.81-.62-1.25-1.1-1.7-1.61-.45-.51-.92-1.06-1.56-1.5-.63-.45-1.43-.79-1.87-.71"/>
</svg>