<?xml version="1.0" encoding="UTF-8"?>
<svg id="Lines" xmlns="http://www.w3.org/2000/svg" xmlns:xlink="http://www.w3.org/1999/xlink" viewBox="0 0 24 24">
  <defs>
    <style>
      .cls-1 {
        fill: #aea497;
      }

      .cls-2 {
        stroke-width: .5px;
      }

      .cls-2, .cls-3 {
        fill: none;
        stroke: #333;
        stroke-linecap: round;
        stroke-linejoin: round;
      }

      .cls-3 {
        stroke-width: .3px;
      }

      .cls-4 {
        fill: url(#Frühlings-Blau_radial);
      }

      .cls-5 {
        fill: url(#Winter-Pink_radial);
      }

      .cls-6 {
        fill: #7f9c63;
      }

      .cls-7 {
        fill: url(#Unbenannter_Verlauf_152);
      }

      .cls-8 {
        fill: url(#Unbenannter_Verlauf_161);
      }

      .cls-9 {
        fill: url(#Unbenannter_Verlauf_163);
      }

      .cls-10 {
        fill: url(#Unbenannter_Verlauf_327);
      }

      .cls-11 {
        fill: url(#Unbenannter_Verlauf_21);
      }

      .cls-12 {
        fill: #cebdaa;
      }

      .cls-13 {
        fill: url(#Winter-Grau);
      }

      .cls-14 {
        fill: #435b2b;
      }
    </style>
    <linearGradient id="Unbenannter_Verlauf_21" data-name="Unbenannter Verlauf 21" x1="14.83" y1="13.17" x2="19.09" y2="13.17" gradientUnits="userSpaceOnUse">
      <stop offset=".16" stop-color="#fbd9d4"/>
      <stop offset="1" stop-color="#918675" stop-opacity=".9"/>
    </linearGradient>
    <radialGradient id="Unbenannter_Verlauf_327" data-name="Unbenannter Verlauf 327" cx="10.29" cy="19.21" fx="10.29" fy="19.21" r="2.64" gradientUnits="userSpaceOnUse">
      <stop offset=".16" stop-color="#fbd9d4"/>
      <stop offset="1" stop-color="#a6c176" stop-opacity=".9"/>
    </radialGradient>
    <linearGradient id="Unbenannter_Verlauf_161" data-name="Unbenannter Verlauf 161" x1="5.92" y1="13.02" x2="9.17" y2="13.02" gradientUnits="userSpaceOnUse">
      <stop offset="0" stop-color="#f0a3a3" stop-opacity=".8"/>
      <stop offset=".49" stop-color="#f0a3a3" stop-opacity=".38"/>
      <stop offset=".84" stop-color="#f0a3a3" stop-opacity=".11"/>
      <stop offset="1" stop-color="#f0a3a3" stop-opacity="0"/>
    </linearGradient>
    <linearGradient id="Unbenannter_Verlauf_152" data-name="Unbenannter Verlauf 152" x1="1.79" y1="13.17" x2="6.05" y2="13.17" gradientUnits="userSpaceOnUse">
      <stop offset="0" stop-color="#f0a3a3" stop-opacity=".9"/>
      <stop offset=".12" stop-color="#eda2a1" stop-opacity=".88"/>
      <stop offset=".25" stop-color="#e5a29d" stop-opacity=".82"/>
      <stop offset=".4" stop-color="#d9a196" stop-opacity=".72"/>
      <stop offset=".55" stop-color="#c7a08c" stop-opacity=".58"/>
      <stop offset=".71" stop-color="#b19f7f" stop-opacity=".4"/>
      <stop offset=".88" stop-color="#969d70" stop-opacity=".19"/>
      <stop offset="1" stop-color="#7f9c63" stop-opacity="0"/>
    </linearGradient>
    <linearGradient id="Unbenannter_Verlauf_163" data-name="Unbenannter Verlauf 163" x1="1.79" y1="10.04" x2="9.17" y2="10.04" gradientUnits="userSpaceOnUse">
      <stop offset="0" stop-color="#f0a3a3"/>
      <stop offset=".38" stop-color="#efa2a2" stop-opacity=".99"/>
      <stop offset=".51" stop-color="#eba2a0" stop-opacity=".96"/>
      <stop offset=".61" stop-color="#e6a29d" stop-opacity=".91"/>
      <stop offset=".69" stop-color="#dea199" stop-opacity=".84"/>
      <stop offset=".76" stop-color="#d4a193" stop-opacity=".75"/>
      <stop offset=".81" stop-color="#c7a08b" stop-opacity=".64"/>
      <stop offset=".87" stop-color="#b79f83" stop-opacity=".5"/>
      <stop offset=".92" stop-color="#a69e79" stop-opacity=".35"/>
      <stop offset=".96" stop-color="#929d6e" stop-opacity=".18"/>
      <stop offset="1" stop-color="#7f9c63" stop-opacity="0"/>
    </linearGradient>
    <radialGradient id="Winter-Pink_radial" data-name="Winter-Pink radial" cx="13.92" cy="6.51" fx="13.92" fy="6.51" r="2.54" gradientUnits="userSpaceOnUse">
      <stop offset="0" stop-color="#f7edf3"/>
      <stop offset=".53" stop-color="#f2e2eb"/>
      <stop offset="1" stop-color="#e9d0dd"/>
    </radialGradient>
    <linearGradient id="Winter-Grau" x1="8.16" y1="6.66" x2="12.42" y2="6.66" gradientUnits="userSpaceOnUse">
      <stop offset="0" stop-color="#f7f7fa"/>
      <stop offset=".5" stop-color="#e6e7ee"/>
      <stop offset="1" stop-color="#d5d8e3"/>
    </linearGradient>
    <radialGradient id="Frühlings-Blau_radial" data-name="Frühlings-Blau radial" cx="11.85" cy="3.53" fx="11.85" fy="3.53" r="2.7" gradientUnits="userSpaceOnUse">
      <stop offset="0" stop-color="#d7e4f6"/>
      <stop offset=".5" stop-color="#bbd2ee"/>
      <stop offset=".56" stop-color="#b7cfed"/>
      <stop offset="1" stop-color="#a0c2e7"/>
    </radialGradient>
  </defs>
  <polygon class="cls-12" points="18.97 10.99 22.21 9.81 22.15 14.6 19.09 16.23 18.97 10.99"/>
  <polygon class="cls-11" points="14.83 10.11 18.97 10.99 19.09 16.23 15.17 15.02 14.83 10.11"/>
  <polygon class="cls-1" points="14.83 10.11 18.25 9.09 22.21 9.81 18.97 10.99 14.83 10.11"/>
  <polygon class="cls-10" points="8.16 16.15 12.29 17.03 12.42 22.27 8.5 21.05 8.16 16.15"/>
  <polygon class="cls-6" points="12.29 17.03 15.54 15.85 15.47 20.64 12.42 22.27 12.29 17.03"/>
  <polygon class="cls-14" points="8.16 16.15 11.57 15.13 15.54 15.85 12.29 17.03 8.16 16.15"/>
  <polygon class="cls-8" points="5.92 10.99 9.17 9.81 9.1 14.6 6.05 16.23 5.92 10.99"/>
  <polygon class="cls-7" points="1.79 10.11 5.92 10.99 6.05 16.23 2.13 15.02 1.79 10.11"/>
  <polygon class="cls-9" points="1.79 10.11 5.2 9.09 9.17 9.81 5.92 10.99 1.79 10.11"/>
  <polygon class="cls-5" points="12.29 4.49 15.54 3.3 15.47 8.1 12.42 9.72 12.29 4.49"/>
  <polygon class="cls-13" points="8.16 3.6 12.29 4.49 12.42 9.72 8.5 8.51 8.16 3.6"/>
  <polygon class="cls-4" points="8.16 3.6 11.57 2.58 15.54 3.3 12.29 4.49 8.16 3.6"/>
  <line class="cls-3" x1="6.05" y1="16.23" x2="5.92" y2="10.99"/>
  <line class="cls-2" x1="11.57" y1="15.13" x2="8.16" y2="16.15"/>
  <line class="cls-3" x1="1.79" y1="10.11" x2="5.92" y2="10.99"/>
  <line class="cls-3" x1="8.16" y1="3.6" x2="12.29" y2="4.49"/>
  <line class="cls-3" x1="12.42" y1="22.27" x2="12.29" y2="17.03"/>
  <line class="cls-3" x1="19.09" y1="16.23" x2="18.97" y2="10.99"/>
  <line class="cls-3" x1="14.83" y1="10.11" x2="18.97" y2="10.99"/>
  <line class="cls-2" x1="15.07" y1="15.02" x2="14.73" y2="10.11"/>
  <line class="cls-2" x1="2.13" y1="15.02" x2="6.05" y2="16.23"/>
  <line class="cls-2" x1="5.2" y1="9.09" x2="1.79" y2="10.11"/>
  <line class="cls-2" x1="18.25" y1="9.09" x2="14.83" y2="10.11"/>
  <line class="cls-2" x1="15.54" y1="15.85" x2="11.57" y2="15.13"/>
  <line class="cls-2" x1="8.5" y1="21.05" x2="8.16" y2="16.15"/>
  <line class="cls-2" x1="15.17" y1="15.02" x2="19.09" y2="16.23"/>
  <line class="cls-2" x1="2.13" y1="15.02" x2="1.79" y2="10.11"/>
  <line class="cls-3" x1="12.42" y1="9.72" x2="12.29" y2="4.49"/>
  <line class="cls-3" x1="8.16" y1="16.15" x2="12.29" y2="17.03"/>
  <line class="cls-2" x1="15.47" y1="20.64" x2="15.54" y2="15.85"/>
  <line class="cls-2" x1="11.57" y1="2.58" x2="8.16" y2="3.6"/>
  <line class="cls-2" x1="8.5" y1="8.51" x2="12.42" y2="9.72"/>
  <line class="cls-2" x1="12.42" y1="9.72" x2="15.47" y2="8.1"/>
  <line class="cls-2" x1="8.5" y1="8.51" x2="8.16" y2="3.6"/>
  <line class="cls-2" x1="6.05" y1="16.23" x2="9.1" y2="14.6"/>
  <line class="cls-3" x1="12.29" y1="17.03" x2="15.54" y2="15.85"/>
  <line class="cls-2" x1="9.1" y1="14.6" x2="9.17" y2="9.81"/>
  <line class="cls-3" x1="5.92" y1="10.99" x2="9.17" y2="9.81"/>
  <line class="cls-2" x1="19.09" y1="16.23" x2="22.15" y2="14.6"/>
  <line class="cls-2" x1="12.42" y1="22.27" x2="15.47" y2="20.64"/>
  <line class="cls-2" x1="9.17" y1="9.81" x2="5.2" y2="9.09"/>
  <line class="cls-2" x1="22.15" y1="14.6" x2="22.21" y2="9.81"/>
  <line class="cls-3" x1="18.97" y1="10.99" x2="22.21" y2="9.81"/>
  <line class="cls-2" x1="22.21" y1="9.81" x2="18.25" y2="9.09"/>
  <line class="cls-2" x1="8.5" y1="21.05" x2="12.42" y2="22.27"/>
  <line class="cls-2" x1="15.47" y1="8.1" x2="15.54" y2="3.3"/>
  <line class="cls-3" x1="12.29" y1="4.49" x2="15.54" y2="3.3"/>
  <line class="cls-2" x1="15.54" y1="3.3" x2="11.57" y2="2.58"/>
</svg>