<?xml version="1.0" encoding="UTF-8"?>
<svg id="Design" xmlns="http://www.w3.org/2000/svg" viewBox="0 0 24 24">
  <defs>
    <style>
      .cls-1 {
        fill: #596e39;
      }

      .cls-2 {
        stroke-width: .5px;
      }

      .cls-2, .cls-3, .cls-4 {
        stroke: #333;
      }

      .cls-2, .cls-3, .cls-4, .cls-5 {
        fill: none;
        stroke-linecap: round;
      }

      .cls-6 {
        fill: #b2c99d;
      }

      .cls-3 {
        stroke-width: .3px;
      }

      .cls-3, .cls-4, .cls-5 {
        stroke-linejoin: round;
      }

      .cls-7 {
        fill: #75a071;
      }

      .cls-4 {
        stroke-width: .4px;
      }

      .cls-8 {
        fill: #c2ca9a;
      }

      .cls-9 {
        fill: #9bad79;
      }

      .cls-10 {
        fill: #dee6ad;
      }

      .cls-11 {
        fill: #476949;
      }

      .cls-12 {
        fill: #698c62;
      }

      .cls-5 {
        stroke: #1a1a1a;
        stroke-width: .25px;
      }

      .cls-13 {
        fill: #9db699;
      }

      .cls-14 {
        fill: #333;
      }

      .cls-15 {
        fill: #68934f;
      }
    </style>
  </defs>
  <g>
    <path class="cls-9" d="M13.51,11.56c.06-1.14-.11-1.72-.38-2.37-.34-.85-.84-1.84-1.3-3.05-.46-1.21-.9-2.64-.82-5.27,1.31,4.15,2.19,6.3,2.53,8.01.2.99.22,1.84-.04,2.69Z"/>
    <path class="cls-11" d="M9.83,2.97c-.31,2.11-1.19,2.87-1.81,3.65-.69.87-1.07,1.78-1.22,2.52-.15.74-.07,1.31.1,1.53.17.22.44.09.67.05s.41.01.64.65c.23.64.51,1.86.77,2.52s.51.75.88.65c.37-.1.85-.41,1.33-1.04.39-.51.77-1.25,2.31-1.95-.18.61-.5,1.22-1,1.88-1.19,1.58-3.36,3.46-5.46,6.73-1.28-7.81-2.58-9.17-2.49-10.42.09-1.24,1.57-2.36,2.91-3.75.85-.88,1.64-1.88,2.37-3.02Z"/>
    <path class="cls-1" d="M12.93,8.72c.07.16.14.32.2.47.26.65.44,1.23.38,2.37-1.54.7-1.92,1.43-2.31,1.95-.48.63-.96.93-1.33,1.04-.37.1-.62,0-.88-.65s-.54-1.88-.77-2.52c-.23-.64-.41-.69-.64-.65s-.49.17-.67-.05c-.17-.22-.25-.79-.1-1.53.15-.74.53-1.64,1.22-2.52.62-.78,1.5-1.54,1.81-3.65.18-.29.36-.58.53-.89.28,1.59-.04,2.54-.38,3.31-.38.87-.76,1.5-.9,1.98-.13.48,0,.82.31,1.15s.84.67,1.15,1.04c.31.37.41.77.66.99.25.22.65.25.9-.14.23-.36.33-1.06.81-1.7Z"/>
    <path class="cls-7" d="M10.37,2.09c.22-.39.44-.8.64-1.23-.08,2.64.35,4.06.82,5.27.38.99.78,1.84,1.11,2.58-.49.64-.59,1.35-.81,1.7-.25.39-.65.36-.9.14-.25-.22-.35-.62-.66-.99-.31-.37-.83-.71-1.15-1.04s-.44-.67-.31-1.15c.13-.48.52-1.11.9-1.98.33-.76.66-1.71.38-3.31Z"/>
    <path class="cls-10" d="M6.89,22.28c4.12-5.93,5-6.12,6.61-6,1.17.08,2.74.33,4.38.27-.82.43-1.26.51-1.7.57-.71.1-1.43.17-2.11.25-.68.08-1.32.17-1.98.5-.66.33-1.33.89-5.2,4.41Z"/>
    <path class="cls-12" d="M6.89,22.28c2.86-1.88,3.49-2.06,4.4-2.01s2.11.33,2.79.2c.86-.17.91-.99,5.62-4.14-1.64,1.2-3.01,3.05-4.04,4.04-1.03.99-1.71,1.14-3,1.32-1.29.18-3.17.4-5.78.59Z"/>
    <path class="cls-13" d="M16.18,17.11c-1.68.67-1.88.92-1.99,1.12-.12.22-.12.39-.07.64.04.21.13.48.8,1.1-.34.29-.54.43-.84.49-.68.13-1.88-.15-2.79-.2s-1.55.12-4.4,2.01c3.87-3.51,4.54-4.08,5.2-4.41.66-.33,1.3-.42,1.98-.5.68-.08,1.4-.15,2.11-.25,0,0,0,0,0,0Z"/>
    <path class="cls-6" d="M19.7,16.32c-3.06,2.05-4.16,3.12-4.78,3.66-.67-.62-.75-.89-.8-1.1-.05-.25-.05-.42.07-.64.11-.2.31-.45,1.99-1.12.44-.06.88-.14,1.69-.57.61-.02,1.22-.09,1.83-.22Z"/>
    <path class="cls-5" d="M7.05,20.16c-1.28-7.81-2.58-9.17-2.49-10.42.09-1.24,1.57-2.36,2.91-3.75,1.34-1.39,2.54-3.07,3.54-5.13"/>
    <path class="cls-5" d="M11.01.86c1.31,4.15,2.19,6.3,2.53,8.01.34,1.71.15,2.99-1.04,4.56-1.19,1.58-3.36,3.46-5.46,6.73"/>
    <path class="cls-5" d="M19.7,16.32c-1.64,1.2-3.01,3.05-4.04,4.04-1.03.99-1.71,1.14-3,1.32-1.29.18-3.17.4-5.78.59"/>
    <path class="cls-5" d="M6.89,22.28c4.12-5.93,5-6.12,6.61-6,1.61.11,3.96.53,6.2.05"/>
    <path d="M6.15,23.14c3.32-8.19,3.98-13.29,4.3-17.32l-4.3,17.32Z"/>
    <path class="cls-5" d="M6.23,23.04c4.64-4.84,6.17-5.09,11.28-5.54"/>
    <path class="cls-8" d="M13.51,11.56c.06-1.14-.11-1.72-.38-2.37-.34-.85-.84-1.84-1.3-3.05-.46-1.21-.9-2.64-.82-5.27,1.31,4.15,2.19,6.3,2.53,8.01.2.99.22,1.84-.04,2.69Z"/>
    <path class="cls-15" d="M12.93,8.72c.07.16.14.32.2.47.26.65.44,1.23.38,2.37-1.54.7-1.92,1.43-2.31,1.95-.48.63-.96.93-1.33,1.04-.37.1-.62,0-.88-.65s-.54-1.88-.77-2.52c-.23-.64-.41-.69-.64-.65s-.49.17-.67-.05c-.17-.22-.25-.79-.1-1.53.15-.74.53-1.64,1.22-2.52.62-.78,1.5-1.54,1.81-3.65.18-.29.36-.58.53-.89.28,1.59-.04,2.54-.38,3.31-.38.87-.76,1.5-.9,1.98-.13.48,0,.82.31,1.15s.84.67,1.15,1.04c.31.37.41.77.66.99.25.22.65.25.9-.14.23-.36.33-1.06.81-1.7Z"/>
    <path class="cls-6" d="M19.7,16.32c-3.06,2.05-4.16,3.12-4.78,3.66-.67-.62-.75-.89-.8-1.1-.05-.25-.05-.42.07-.64.11-.2.31-.45,1.99-1.12.44-.06.88-.14,1.69-.57.61-.02,1.22-.09,1.83-.22Z"/>
    <path class="cls-2" d="M7.05,20.16c-1.28-7.81-2.58-9.17-2.49-10.42.09-1.24,1.57-2.36,2.91-3.75,1.34-1.39,2.54-3.07,3.54-5.13"/>
    <path class="cls-5" d="M11.01.86c1.31,4.15,2.19,6.3,2.53,8.01.34,1.71.15,2.99-1.04,4.56-1.19,1.58-3.36,3.46-5.46,6.73"/>
    <path class="cls-5" d="M19.7,16.32c-1.64,1.2-3.01,3.05-4.04,4.04-1.03.99-1.71,1.14-3,1.32-1.29.18-3.17.4-5.78.59"/>
    <path class="cls-5" d="M6.89,22.28c4.12-5.93,5-6.12,6.61-6,1.61.11,3.96.53,6.2.05"/>
    <path d="M6.15,23.14c3.32-8.19,3.98-13.29,4.3-17.32l-4.3,17.32Z"/>
    <path class="cls-5" d="M6.23,23.04c4.64-4.84,6.17-5.09,11.28-5.54"/>
    <path class="cls-4" d="M11.01.86c1.31,4.15,2.19,6.3,2.53,8.01.34,1.71.15,2.99-1.04,4.56-1.19,1.58-3.36,3.46-5.46,6.73"/>
    <path class="cls-4" d="M19.7,16.32c-1.64,1.2-3.01,3.05-4.04,4.04-1.03.99-1.71,1.14-3,1.32-1.29.18-3.17.4-5.78.59"/>
    <path class="cls-3" d="M6.89,22.28c4.12-5.93,5-6.12,6.61-6,1.61.11,3.96.53,6.2.05"/>
    <path d="M6.15,23.14c3.32-8.19,3.98-13.29,4.3-17.32l-4.3,17.32Z"/>
    <path class="cls-5" d="M6.23,23.04c4.64-4.84,6.17-5.09,11.28-5.54"/>
    <path class="cls-14" d="M6.15,23.14c3.32-8.19,3.98-13.29,4.3-17.32l-4.3,17.32Z"/>
    <path class="cls-3" d="M6.23,23.04c4.64-4.84,6.17-5.09,11.28-5.54"/>
  </g>
  <path class="cls-14" d="M15.78,7.9h2.52c1.55,0,2.79.58,2.79,2.13,0,2.28-1.71,3.12-3.65,3.12h-.79l-.52,2.54h-1.92l1.56-7.8ZM17.58,11.64c1.01,0,1.58-.46,1.58-1.32,0-.62-.41-.91-1.16-.91h-.61l-.43,2.23h.62Z"/>
</svg>