<?xml version="1.0" encoding="UTF-8"?>
<svg id="Param_Hexagon" data-name="Param Hexagon" xmlns="http://www.w3.org/2000/svg" xmlns:xlink="http://www.w3.org/1999/xlink" viewBox="0 0 24 24">
  <defs>
    <style>
      .cls-1 {
        fill: url(#Unbenannter_Verlauf_193-2);
      }

      .cls-1, .cls-2, .cls-3, .cls-4, .cls-5, .cls-6 {
        stroke: #333;
      }

      .cls-1, .cls-2, .cls-4 {
        stroke-width: .5px;
      }

      .cls-1, .cls-2, .cls-4, .cls-5, .cls-6 {
        stroke-miterlimit: 10;
      }

      .cls-2 {
        fill: url(#Unbenannter_Verlauf_193-3);
      }

      .cls-7 {
        fill: #978977;
      }

      .cls-3 {
        fill: none;
        stroke-linecap: round;
        stroke-linejoin: round;
        stroke-width: .75px;
      }

      .cls-8 {
        fill: #ccc;
      }

      .cls-4 {
        fill: url(#Unbenannter_Verlauf_193);
      }

      .cls-9 {
        fill: #918675;
      }

      .cls-5 {
        fill: #857c6d;
      }

      .cls-5, .cls-6 {
        stroke-width: .3px;
      }

      .cls-10 {
        fill: url(#Unbenannter_Verlauf_21);
      }

      .cls-6 {
        fill: url(#Unbenannter_Verlauf_30);
      }
    </style>
    <linearGradient id="Unbenannter_Verlauf_21" data-name="Unbenannter Verlauf 21" x1="9.32" y1="10.69" x2="21.88" y2="10.69" gradientUnits="userSpaceOnUse">
      <stop offset=".16" stop-color="#fbd9d4"/>
      <stop offset="1" stop-color="#918675" stop-opacity=".9"/>
    </linearGradient>
    <linearGradient id="Unbenannter_Verlauf_30" data-name="Unbenannter Verlauf 30" x1="15.85" y1="7.79" x2="20.37" y2="7.79" gradientUnits="userSpaceOnUse">
      <stop offset="0" stop-color="#999" stop-opacity=".9"/>
      <stop offset=".84" stop-color="#4d4d4d"/>
    </linearGradient>
    <linearGradient id="Unbenannter_Verlauf_193" data-name="Unbenannter Verlauf 193" x1="2.25" y1="17.51" x2="4.18" y2="17.51" gradientUnits="userSpaceOnUse">
      <stop offset=".16" stop-color="#fbf6e2"/>
      <stop offset=".67" stop-color="#b9a794" stop-opacity=".9"/>
    </linearGradient>
    <linearGradient id="Unbenannter_Verlauf_193-2" data-name="Unbenannter Verlauf 193" x1="5.49" y1="15.77" x2="7.41" y2="15.77" xlink:href="#Unbenannter_Verlauf_193"/>
    <linearGradient id="Unbenannter_Verlauf_193-3" data-name="Unbenannter Verlauf 193" x1="8.79" y1="18.64" x2="10.71" y2="18.64" xlink:href="#Unbenannter_Verlauf_193"/>
  </defs>
  <g>
    <path class="cls-10" d="M9.32,12.67c.83-2.31,1.73-3.91,2.67-4.94,2.35-.77,2.87-.54,3.79.37.02.02.04.04.06.06.1.1.2.21.31.32.09.09.17.18.27.27.44.44.97.93,1.65,1.36.7.45,1.56.84,2.65,1.07.37.58.75,1.22,1.15,1.92-2.53,1.47-6.71,1.32-12.55-.43ZM18.52,12.52c.19-.18.19-.48,0-.66-.18-.19-.48-.19-.66,0-.19.18-.19.48,0,.66.18.19.48.19.66,0ZM17.06,10.92c.19-.28.12-.66-.16-.85-.28-.19-.66-.12-.85.16-.19.28-.12.66.16.85.28.19.66.12.85-.16ZM14.72,9.43c.33-.32.34-.85.02-1.18-.32-.33-.85-.34-1.18-.02-.33.32-.34.85-.02,1.18.32.33.85.34,1.18.02ZM14.5,12.71c.39-.34.43-.93.09-1.31s-.93-.43-1.31-.09-.43.93-.09,1.31c.34.39.93.43,1.31.09ZM12.26,11.7c.2-.22.18-.55-.04-.75-.22-.2-.55-.18-.75.04-.2.22-.18.55.04.75.22.2.55.18.75-.04Z"/>
    <path class="cls-7" d="M19.27,9.12c.47.59.95,1.28,1.45,2.07-1.09-.23-1.95-.62-2.65-1.07.27-.2.74-.54,1.2-1Z"/>
    <path class="cls-7" d="M12,7.73c1.05-1.15,2.14-1.58,3.23-1.47.42.04.84.16,1.26.37-.31.56-.51,1.13-.64,1.53-.02-.02-.04-.04-.06-.06-.92-.92-1.44-1.14-3.79-.37Z"/>
    <path class="cls-9" d="M18.52,12.52c-.19.18-.48.18-.66,0-.18-.19-.18-.48,0-.66.19-.18.48-.18.66,0,.18.19.18.48,0,.66Z"/>
    <path class="cls-9" d="M17.06,10.92c-.19.28-.57.35-.85.16-.28-.19-.35-.57-.16-.85.19-.28.57-.35.85-.16.28.19.35.57.16.85Z"/>
    <path class="cls-9" d="M14.72,9.43c-.33.32-.86.31-1.18-.02-.32-.33-.31-.86.02-1.18.33-.32.86-.31,1.18.02.32.33.31.86-.02,1.18Z"/>
    <path class="cls-9" d="M14.5,12.71c-.39.34-.97.3-1.31-.09-.34-.39-.3-.97.09-1.31s.97-.3,1.31.09.3.97-.09,1.31Z"/>
    <path class="cls-9" d="M12.26,11.7c-.2.22-.53.23-.75.04-.22-.2-.23-.53-.04-.75.2-.22.53-.23.75-.04.22.2.23.53.04.75Z"/>
    <g>
      <path class="cls-3" d="M9.26,12.68c5.9,1.77,10.13,1.92,12.69.44"/>
      <path class="cls-3" d="M9.26,12.68c1.77-4.93,3.89-6.68,5.97-6.48.42.04.85.17,1.27.37"/>
      <path class="cls-3" d="M19.31,9.09c.82,1.04,1.69,2.38,2.63,4.03"/>
    </g>
    <path class="cls-6" d="M16.43,8.76c.17-.79.39-1.06.53-1.22.16-.18.23-.21.21-.27-.01-.05-.11-.12-.23-.09-.13.03-.28.16-.44.42-.13.21-.27.5-.34.88-.11-.11-.21-.22-.31-.32.13-.41.33-.98.64-1.53.24-.43.53-.84.91-1.17.16.36.45.77.87,1.25.03-.04.06-.08.08-.12-.02-.04-.02-.07-.01-.11,0-.08.01-.17.28-.55.15.11.3.21.45.32.15.11.3.21.45.32-.27.38-.35.41-.42.44-.03.01-.06.03-.11.02-.03.04-.06.08-.08.12.59.23,1.08.37,1.47.4-.24.6-.66,1.13-1.1,1.56-.46.46-.93.8-1.2,1-.68-.43-1.21-.92-1.65-1.36Z"/>
    <path class="cls-5" d="M18.75,6.03c.19.14.38.27.58.41.02.01.04.06.07.02.02-.02.03-.05.05-.07.03-.05.07-.1.1-.14.07-.1.14-.19.2-.29.27-.38.54-.77.82-1.15.1-.15.21-.3.31-.44.06-.08.09-.16.21-.14.13.02.39.28.5.33.18.08.28-.16.35-.26.06-.08.06-.15-.01-.22-.07-.08-.16-.12-.25-.18-.1-.07-.21-.15-.31-.22-.38-.27-.77-.54-1.15-.82-.2-.14-.31.12-.4.25-.18.27.46.41.51.61.04.15-.08.21-.15.31-.07.1-.14.19-.2.29-.14.19-.27.38-.41.58-.27.38-.54.77-.82,1.15Z"/>
    <path class="cls-8" d="M16.16,8.49c.07-.37.21-.67.34-.88.16-.26.32-.39.44-.42.13-.03.22.03.23.09.01.05-.05.09-.21.27-.15.16-.37.43-.53,1.22-.09-.09-.18-.18-.27-.27Z"/>
  </g>
  <rect class="cls-4" x="2.25" y="13.19" width="1.93" height="8.64"/>
  <rect class="cls-1" x="5.49" y="9.71" width="1.93" height="12.12"/>
  <rect class="cls-2" x="8.79" y="15.45" width="1.93" height="6.38"/>
</svg>