<?xml version="1.0" encoding="UTF-8"?>
<svg xmlns="http://www.w3.org/2000/svg" xmlns:xlink="http://www.w3.org/1999/xlink" viewBox="0 0 24 24">
  <defs>
    <style>
      .cls-1 {
        fill: url(#Unbenannter_Verlauf_333-4);
      }

      .cls-1, .cls-2, .cls-3, .cls-4, .cls-5 {
        stroke: #333;
      }

      .cls-1, .cls-2, .cls-3, .cls-5 {
        stroke-miterlimit: 10;
        stroke-width: .3px;
      }

      .cls-2 {
        fill: url(#Unbenannter_Verlauf_333-2);
      }

      .cls-3 {
        fill: url(#Unbenannter_Verlauf_333-3);
      }

      .cls-6 {
        fill: #978977;
      }

      .cls-7 {
        font-family: MalayalamSangamMN, 'Malayalam Sangam MN';
        font-size: 7.22px;
      }

      .cls-7, .cls-8 {
        fill: #333;
      }

      .cls-4 {
        stroke-width: .75px;
      }

      .cls-4, .cls-9 {
        fill: none;
        stroke-linecap: round;
        stroke-linejoin: round;
      }

      .cls-10 {
        fill: #918675;
      }

      .cls-9 {
        stroke: #1a1a1a;
        stroke-width: .5px;
      }

      .cls-5 {
        fill: url(#Unbenannter_Verlauf_333);
      }

      .cls-11 {
        fill: url(#Unbenannter_Verlauf_21);
      }

      .cls-12 {
        fill: #1a1a1a;
      }
    </style>
    <radialGradient id="Unbenannter_Verlauf_333" data-name="Unbenannter Verlauf 333" cx="21.46" cy="12.07" fx="21.46" fy="12.07" r="1.05" gradientUnits="userSpaceOnUse">
      <stop offset=".16" stop-color="#fce8b9"/>
      <stop offset="1" stop-color="#f0a3a3" stop-opacity=".9"/>
    </radialGradient>
    <linearGradient id="Unbenannter_Verlauf_21" data-name="Unbenannter Verlauf 21" x1="1.95" y1="12.59" x2="13.84" y2="12.59" gradientUnits="userSpaceOnUse">
      <stop offset=".16" stop-color="#fbd9d4"/>
      <stop offset="1" stop-color="#918675" stop-opacity=".9"/>
    </linearGradient>
    <radialGradient id="Unbenannter_Verlauf_333-2" data-name="Unbenannter Verlauf 333" cx="20.43" cy="4.91" fx="20.43" fy="4.91" r="1.05" xlink:href="#Unbenannter_Verlauf_333"/>
    <radialGradient id="Unbenannter_Verlauf_333-3" data-name="Unbenannter Verlauf 333" cx="20.43" cy="19.09" fx="20.43" fy="19.09" r="1.05" xlink:href="#Unbenannter_Verlauf_333"/>
    <radialGradient id="Unbenannter_Verlauf_333-4" data-name="Unbenannter Verlauf 333" cx="11.99" cy="12" fx="11.99" fy="12" r="1.05" xlink:href="#Unbenannter_Verlauf_333"/>
  </defs>
  <g id="Text">
    <line class="cls-9" x1="12.61" y1="12.07" x2="18.35" y2="12.07"/>
    <polygon class="cls-12" points="18.35 11.17 20.42 12.07 18.35 12.96 18.35 11.17"/>
    <path class="cls-5" d="M22.51,12.07c0-.58-.47-1.05-1.05-1.05s-1.05.47-1.05,1.05.47,1.05,1.05,1.05,1.05-.47,1.05-1.05Z"/>
  </g>
  <g id="Design">
    <g>
      <path class="cls-11" d="M1.95,14.47c.78-2.19,1.64-3.7,2.53-4.68,2.23-.73,2.72-.51,3.59.35.02.02.04.04.06.06.09.09.19.2.3.3.08.08.17.17.25.26.41.42.92.88,1.56,1.29.66.43,1.48.8,2.51,1.01.35.55.71,1.16,1.09,1.81-2.4,1.39-6.36,1.25-11.89-.41ZM10.66,14.32c.18-.17.18-.45,0-.63-.17-.18-.45-.18-.63,0-.18.17-.18.45,0,.63.17.18.45.18.63,0ZM9.27,12.81c.18-.27.11-.63-.15-.81-.27-.18-.63-.11-.81.15-.18.27-.11.63.15.81.27.18.63.11.81-.15ZM7.05,11.4c.31-.3.32-.8.02-1.11s-.8-.32-1.11-.02c-.31.3-.32.8-.02,1.11s.8.32,1.11.02ZM6.85,14.5c.37-.32.4-.88.08-1.24-.32-.37-.88-.4-1.24-.08-.37.32-.4.88-.08,1.24.32.37.88.4,1.24.08ZM4.73,13.55c.19-.21.17-.52-.04-.71-.21-.19-.52-.17-.71.04-.19.21-.17.52.04.71.21.19.52.17.71-.04Z"/>
      <circle class="cls-10" cx="4.36" cy="13.21" r=".5"/>
      <circle class="cls-10" cx="6.27" cy="13.84" r=".88"/>
      <circle class="cls-10" cx="6.51" cy="10.83" r=".79"/>
      <path class="cls-10" d="M9.27,12.81c-.18.27-.54.34-.81.15-.27-.18-.34-.54-.15-.81.18-.27.54-.34.81-.15.27.18.34.54.15.81Z"/>
      <path class="cls-10" d="M10.66,14.32c-.18.17-.46.17-.63,0-.17-.18-.17-.46,0-.63.18-.17.46-.17.63,0,.17.18.17.46,0,.63Z"/>
      <path class="cls-6" d="M4.48,9.79c.99-1.09,2.03-1.49,3.06-1.39,1.65.16,3.28,1.64,5.21,4.67-2.57-.53-3.81-2.05-4.68-2.92-.87-.87-1.36-1.08-3.59-.35Z"/>
      <path class="cls-4" d="M1.95,14.47c1.66-4.62,3.64-6.26,5.59-6.07,1.95.19,3.87,2.22,6.3,6.48"/>
      <path class="cls-4" d="M11.37,11.1c.77.98,1.59,2.23,2.47,3.77"/>
      <path class="cls-4" d="M1.95,14.47c1.66-4.62,3.64-6.26,5.59-6.07.4.04.79.15,1.19.35"/>
      <path class="cls-4" d="M1.95,14.47c5.53,1.66,9.5,1.8,11.89.41"/>
    </g>
    <text class="cls-7" transform="translate(.79 9.74)"><tspan x="0" y="0">{</tspan></text>
    <circle class="cls-8" cx="4.4" cy="7.54" r=".37"/>
    <circle class="cls-8" cx="3.31" cy="7.54" r=".37"/>
    <path class="cls-2" d="M21.48,4.91c0-.58-.47-1.06-1.05-1.06s-1.05.47-1.05,1.06.47,1.06,1.05,1.06,1.05-.47,1.05-1.06Z"/>
    <polygon class="cls-12" points="17.47 6.26 19.64 5.61 18.63 7.64 17.47 6.26"/>
    <line class="cls-9" x1="12.08" y1="12" x2="18.05" y2="6.95"/>
    <path class="cls-3" d="M21.48,19.09c0,.58-.47,1.06-1.05,1.06s-1.05-.47-1.05-1.06.47-1.06,1.05-1.06,1.05.47,1.05,1.06Z"/>
    <polygon class="cls-12" points="17.47 17.74 19.64 18.39 18.63 16.36 17.47 17.74"/>
    <line class="cls-9" x1="12.08" y1="12" x2="18.17" y2="17.15"/>
    <path class="cls-1" d="M13.05,12c0-.58-.47-1.06-1.05-1.06s-1.05.47-1.05,1.06.47,1.06,1.05,1.06,1.05-.47,1.05-1.06Z"/>
  </g>
</svg>