<?xml version="1.0" encoding="UTF-8"?>
<svg xmlns="http://www.w3.org/2000/svg" xmlns:xlink="http://www.w3.org/1999/xlink" viewBox="0 0 24 24">
  <defs>
    <style>
      .cls-1 {
        fill: #978977;
      }

      .cls-2 {
        fill: none;
        stroke: #333;
        stroke-linecap: round;
        stroke-linejoin: round;
        stroke-width: .75px;
      }

      .cls-3 {
        fill: #918675;
      }

      .cls-4 {
        fill: url(#Unbenannter_Verlauf_21);
      }

      .cls-5, .cls-6 {
        fill: #333;
      }

      .cls-6 {
        font-family: MalayalamSangamMN, 'Malayalam Sangam MN';
        font-size: 11px;
      }
    </style>
    <linearGradient id="Unbenannter_Verlauf_21" data-name="Unbenannter Verlauf 21" x1="2.77" y1="14.46" x2="20.89" y2="14.46" gradientUnits="userSpaceOnUse">
      <stop offset=".16" stop-color="#fbd9d4"/>
      <stop offset="1" stop-color="#918675" stop-opacity=".9"/>
    </linearGradient>
  </defs>
  <g id="Lines">
    <g>
      <path class="cls-4" d="M2.77,17.33c1.2-3.33,2.5-5.65,3.86-7.13,3.4-1.11,4.15-.78,5.47.54.03.03.06.06.09.09.14.14.29.3.45.46.12.13.25.26.39.39.63.63,1.4,1.34,2.38,1.96,1.01.65,2.26,1.22,3.83,1.54.54.84,1.09,1.76,1.66,2.77-3.65,2.12-9.69,1.91-18.12-.63ZM16.05,17.11c.27-.26.27-.69.01-.96-.26-.27-.69-.27-.96-.01-.27.26-.27.69-.01.96.26.27.69.27.96.01ZM13.93,14.8c.28-.41.17-.96-.24-1.23-.41-.28-.96-.17-1.23.24-.28.41-.17.96.24,1.23.41.28.96.17,1.23-.24ZM10.55,12.65c.48-.46.49-1.22.02-1.7s-1.22-.49-1.7-.02c-.48.46-.49,1.22-.02,1.7s1.22.49,1.7.02ZM10.24,17.38c.56-.49.61-1.34.12-1.9-.49-.56-1.34-.61-1.9-.12-.56.49-.61,1.34-.12,1.9.49.56,1.34.61,1.9.12ZM7.01,15.92c.28-.31.26-.8-.06-1.08-.31-.28-.8-.26-1.08.06-.28.31-.26.8.06,1.08.31.28.8.26,1.08-.06Z"/>
      <circle class="cls-3" cx="6.44" cy="15.41" r=".76"/>
      <circle class="cls-3" cx="9.35" cy="16.37" r="1.34"/>
      <circle class="cls-3" cx="9.72" cy="11.78" r="1.2"/>
      <path class="cls-3" d="M13.93,14.8c-.28.41-.83.51-1.23.24-.41-.28-.51-.83-.24-1.23.28-.41.83-.51,1.23-.24.41.28.51.83.24,1.23Z"/>
      <path class="cls-3" d="M16.05,17.11c-.27.26-.7.25-.96-.01-.26-.27-.25-.7.01-.96.27-.26.7-.25.96.01.26.27.25.7-.01.96Z"/>
      <path class="cls-1" d="M6.63,10.2c1.52-1.66,3.1-2.28,4.66-2.12,2.52.25,5,2.5,7.94,7.11-3.92-.81-5.81-3.13-7.13-4.45-1.32-1.32-2.07-1.65-5.47-.54Z"/>
      <path class="cls-2" d="M2.77,17.33c2.53-7.05,5.55-9.55,8.52-9.25,2.97.3,5.9,3.39,9.6,9.88"/>
      <path class="cls-2" d="M17.14,12.2c1.18,1.49,2.42,3.4,3.76,5.75"/>
      <path class="cls-2" d="M2.77,17.33c2.53-7.05,5.55-9.55,8.52-9.25.61.06,1.21.24,1.82.53"/>
      <path class="cls-2" d="M2.77,17.33c8.43,2.53,14.47,2.74,18.12.63"/>
    </g>
    <text class="cls-6" transform="translate(1 10.11)"><tspan x="0" y="0">{</tspan></text>
  </g>
  <g id="Design">
    <circle class="cls-5" cx="6.5" cy="6.77" r=".56"/>
    <circle class="cls-5" cx="4.85" cy="6.77" r=".56"/>
  </g>
</svg>